<?xml version="1.0" encoding="UTF-8" standalone="no"?>
<!-- Created with Inkscape (http://www.inkscape.org/) -->

<svg
   xmlns:dc="http://purl.org/dc/elements/1.1/"
   xmlns:cc="http://creativecommons.org/ns#"
   xmlns:rdf="http://www.w3.org/1999/02/22-rdf-syntax-ns#"
   xmlns:svg="http://www.w3.org/2000/svg"
   xmlns="http://www.w3.org/2000/svg"
   version="1.0"
   width="599.55798"
   height="599.85883"
   id="svg2">
  <defs
     id="defs4" />
  <metadata
     id="metadata7">
    <rdf:RDF>
      <cc:Work
         rdf:about="">
        <dc:format>image/svg+xml</dc:format>
        <dc:type
           rdf:resource="http://purl.org/dc/dcmitype/StillImage" />
        <dc:title></dc:title>
        <dc:creator>
          <cc:Agent>
            <dc:title>Tyler Tidman VA3DGN</dc:title>
          </cc:Agent>
        </dc:creator>
      </cc:Work>
    </rdf:RDF>
  </metadata>
  <path
     d="m 597.05796,299.92943 a 297.27898,297.42943 0 1 1 -594.5579633,0 297.27898,297.42943 0 1 1 594.5579633,0 z"
     id="path2909"
     style="fill:#ffffff;fill-opacity:1;stroke:#000000;stroke-width:5.00000048;stroke-linecap:square;stroke-linejoin:miter;stroke-miterlimit:4;stroke-opacity:1;stroke-dasharray:none" />
  <path
     d="M 295.51526,14.24631 C 139.58835,16.22461 13.65289,143.46816 13.6529,299.94057 c 0,157.70448 127.92506,285.69422 285.54975,285.69431 157.62471,0 285.54978,-127.98985 285.54978,-285.69431 0,-157.70446 -127.92506,-285.69427 -285.54978,-285.69426 -1.23143,0 -2.45962,-0.0156 -3.68739,0 z m 3.71533,51.31429 c 128.64,0 233.0323,104.47308 233.0323,233.17818 0,128.70507 -104.3923,233.15022 -233.0323,233.15022 -128.63999,0 -233.0323,-104.44513 -233.0323,-233.15022 0,-128.70511 104.39231,-233.17818 233.0323,-233.17818 z"
     id="path2915"
     style="fill:#fa0100;fill-opacity:1;stroke:none" />
  <path
     d="m 212.76467,183.90944 3.58541,13.49481 -0.5122,12.12825 0.34146,9.22429 5.80496,-0.85409 15.19533,-2.39149 11.95138,-1.53738 7.51228,-0.34165 12.46359,-0.68327 -0.34147,14.86137 -0.68293,16.56958 -0.51221,13.32399 -0.85367,13.15317 -0.34146,17.08203 -3.41469,16.74041 0.34148,14.34892 19.46367,-3.41642 20.31734,-3.24559 15.87826,-2.04984 14.00019,-1.53739 1.36587,-19.98598 1.53661,-17.25286 1.02441,-13.32399 1.19514,-17.76532 1.36587,-25.96469 9.73183,1.36655 14.51239,2.56231 14.34165,2.04985 15.36606,3.58722 6.82936,1.53739 0.85367,-17.08204 0.85367,-9.05349 0,-7.85773 -13.48798,-1.87902 -15.70753,-6.49118 -18.95147,-3.24559 -22.53688,-2.56231 -25.43937,-1.53737 -22.53689,0.34164 -22.02468,0.17082 -17.41487,2.04984 -18.43927,2.73313 -12.63431,2.73312 z"
     id="path2911"
     style="fill:#02008f;fill-opacity:1;fill-rule:evenodd;stroke:none" />
  <path
     d="m 202.10378,171.46543 -0.51221,14.69056 -0.5122,12.12825 -0.5122,10.59086 12.12211,-2.5623 11.78065,-1.87903 13.31725,-1.87902 10.41477,-1.19575 10.24404,-0.85409 -0.34147,14.86136 -0.68294,16.56958 -0.5122,13.324 -0.85367,13.15317 -0.34147,17.08203 -0.68293,18.27779 -0.5122,17.08204 19.46367,-4.78298 17.41486,-3.75804 18.09781,-2.73313 14.34166,-1.70821 2.04881,-29.55192 1.19513,-23.23157 0.68294,-18.79025 0.85367,-11.95742 0.51221,-12.98235 9.73183,1.36656 14.00018,2.56231 14.51239,2.73313 15.36606,3.58722 6.82936,1.53738 0.85367,-17.08204 0.85367,-9.05348 0.5122,-9.56594 -14.34165,-3.58723 -15.36606,-3.07476 -18.95147,-3.12747 -22.773,-2.68043 -23.78657,-1.53738 -23.95357,-0.24894 -21.4344,1.11576 -18.00515,1.69548 -18.43927,2.73313 -12.63431,2.73312 z"
     id="path2913"
     style="fill:#fa0100;fill-opacity:1;fill-rule:evenodd;stroke:#000000;stroke-width:2.5;stroke-linecap:butt;stroke-linejoin:miter;stroke-miterlimit:4;stroke-opacity:1;stroke-dasharray:none" />
  <path
     d="m 421.50862,341.40355 c -2.9182,0.0743 -6.81768,0.32643 -9.71696,0.66665 -3.8374,0.45029 -8.88402,1.40378 -12.68757,2.08326 -4.3099,0.76994 -10.05766,1.93198 -14.35334,2.77768 -3.12165,0.61455 -7.33298,1.69065 -10.16116,2.33325 -4.04337,0.91871 -8.29094,2.22786 -14.10347,4.13874 -3.92975,1.2919 -8.26261,2.59735 -12.24337,3.72209 -2.59514,0.73324 -6.22736,1.85983 -8.77303,2.7499 -2.79586,0.97755 -6.47501,2.4234 -9.24499,3.4721 -3.81733,1.44521 -8.91395,3.3743 -12.71534,4.86094 -2.43402,0.95188 -5.67043,2.23513 -8.07895,3.24988 -6.07867,2.56105 -12.86859,5.57455 -19.62826,8.66636 -6.75967,3.09181 -13.497,6.26387 -19.43392,9.13856 -3.94982,1.91253 -8.49488,4.34921 -13.02072,6.86087 -4.52585,2.51166 -9.0252,5.07747 -12.85415,7.22197 -6.75394,3.78271 -15.71952,8.81845 -22.40453,12.72177 -4.69374,2.74061 -12.45431,7.348 -17.10185,10.1663 -3.906,2.36863 -8.24088,5.27854 -12.54876,8.22193 -4.30788,2.94339 -8.58972,5.9394 -12.40995,8.44415 -5.09811,3.34259 -12.17155,7.96941 -17.10185,11.55514 -2.99525,2.17843 -7.39873,4.78943 -10.41102,6.9442 -2.14234,1.53249 -5.77124,4.2471 -6.8574,5.05538 1.39129,1.09058 3.53843,3.16171 4.74743,4.05541 1.60631,1.18741 3.5063,2.65497 5.27492,3.5832 1.53098,0.80354 3.46419,1.78396 5.04474,2.48487 1.69528,0.75178 4.18225,1.95495 5.92154,2.59829 2.89596,1.07116 6.69235,2.22221 9.66608,3.05312 2.2613,0.63184 5.48962,1.37201 7.79669,1.80781 2.36825,0.44735 5.46645,0.77572 7.85685,1.0833 2.19403,0.2823 5.21076,0.64875 7.41265,0.86108 2.67971,0.25839 6.27611,0.15452 8.96737,0.22221 3.1274,0.0787 7.28286,0.21361 10.41103,0.25 2.3273,0.0271 5.51537,0.10162 7.83699,-0.0635 2.05202,-0.14589 5.52062,-0.18959 7.57133,-0.3532 4.20579,-0.33549 7.74562,-0.60373 11.94847,-0.9745 1.83434,-0.16182 7.35919,-0.8388 9.15809,-1.23259 3.17199,-0.69435 6.47797,-1.23844 9.65567,-1.90619 3.01991,-0.63462 6.07511,-1.4406 9.10506,-2.02539 3.01391,-0.58168 7.00942,-1.5943 9.96683,-2.41658 2.34944,-0.65325 5.64753,-1.37892 8.00839,-1.98952 2.44443,-0.63224 5.54739,-1.45577 7.98295,-2.12144 2.59601,-0.70952 5.95647,-2.02392 8.49539,-2.91657 1.82327,-0.64101 4.22628,-1.56113 6.05228,-2.19436 2.17318,-0.75365 5.09498,-1.67956 7.27384,-2.41658 2.54937,-0.86233 5.92274,-2.04108 8.46764,-2.91657 2.10991,-0.72585 4.98408,-1.57781 7.05173,-2.41658 2.38212,-0.96633 4.84917,-1.98363 7.19984,-3.02423 1.72933,-0.76556 4.9086,-2.02885 6.58088,-2.78576 2.02739,-0.91764 4.20352,-2.00032 6.27902,-2.80313 1.58228,-0.61201 3.97012,-1.49242 5.55255,-2.10407 2.10139,-0.81225 4.64035,-1.63375 6.62025,-2.39345 1.80443,-0.69239 4.20848,-1.5873 6.05228,-2.16659 1.86845,-0.58704 4.21208,-1.2695 6.05692,-1.92701 2.17747,-0.77606 5.21632,-1.877 7.36521,-2.72908 1.86037,-0.73768 4.35262,-1.71664 6.23389,-2.39922 2.12077,-0.76945 4.90321,-1.8971 7.02397,-2.66657 1.88129,-0.68258 4.41038,-1.51369 6.30215,-2.16659 2.3266,-0.80297 6.80379,-2.424 7.77356,-2.66657 0.96978,-0.24258 6.08665,-1.76314 8.7175,-2.44436 1.81032,-0.46875 4.18272,-1.14696 5.98403,-1.64924 1.61755,-0.45102 3.77059,-1.07833 5.3987,-1.48953 3.80356,-0.96065 8.97046,-1.89092 12.85415,-2.44436 2.24263,-0.31959 5.27702,-0.76796 7.5237,-1.0577 2.26511,-0.29212 5.25543,-0.59233 7.5237,-0.8589 1.95575,-0.22983 4.55826,-0.38783 6.52425,-0.49998 1.81685,-0.10366 4.26061,-0.2136 6.08004,-0.24999 1.45438,-0.0291 3.37667,0.0427 4.83071,0 1.23808,-0.0364 2.89988,-0.15489 4.13665,-0.22222 1.19534,-0.0651 2.44239,-0.18614 3.6326,-0.16339 0.96428,0.0496 0.79351,-0.25136 1.82753,-0.1659 10.01129,-16.0441 18.52861,-33.60979 24.32672,-51.99503 0.0515,0.26621 -0.23928,0.46182 -1.6146,0.21102 -0.48836,-0.32046 -1.28932,-0.36259 -1.74214,-0.91255 -0.90564,-1.09992 -1.73417,-2.429 -2.58189,-3.13878 -1.70219,-1.42513 -3.98788,-3.32133 -5.77465,-4.63872 -2.08971,-1.54072 -4.91272,-3.61545 -7.19059,-4.86094 -1.38992,-0.75997 -3.0659,-1.37937 -4.77519,-1.97215 -1.7093,-0.59278 -3.43538,-1.15394 -4.914,-1.72216 -3.00848,-1.15614 -7.98222,-2.89769 -11.1051,-3.69432 -3.95379,-1.0086 -8.43069,-1.94729 -12.46547,-2.55546 -2.14277,-0.32298 -5.01516,-0.6276 -7.16278,-0.91663 -3.46891,-0.46684 -7.8355,-1.14549 -11.3272,-1.38884 -3.59631,-0.25064 -8.63855,-0.46882 -12.24337,-0.50562 -3.39756,-0.0347 -7.93056,-0.0253 -11.3272,0.0611 l 0,10e-5 1e-5,-2e-5 z"
     id="path2919"
     style="fill:#fa0100;fill-opacity:1;stroke:#000000;stroke-width:2.50000024;stroke-linecap:square;stroke-linejoin:miter;stroke-miterlimit:4;stroke-opacity:1;stroke-dasharray:none" />
  <g
     transform="matrix(-0.96877181,-0.247954,0.247954,-0.96877181,512.48988,665.93271)"
     id="text2886"
     style="font-size:34px;font-style:normal;font-variant:normal;font-weight:bold;font-stretch:normal;text-align:start;line-height:125%;writing-mode:lr-tb;text-anchor:start;fill:#02008f;fill-opacity:1;stroke:#02008f;stroke-width:2;stroke-miterlimit:4;stroke-opacity:1;font-family:DejaVu Sans;-inkscape-font-specification:DejaVu Sans Bold">
    <path
       d="m 541.94224,302.84903 4.82312,0.27675 -0.49739,8.66836 c -0.14963,2.60768 0.38264,4.63368 1.59682,6.07802 1.21353,1.45535 3.05232,2.25373 5.51638,2.39514 2.45298,0.14074 4.35966,-0.43718 5.72004,-1.73376 1.36035,-1.29661 2.11566,-3.25428 2.26595,-5.873 l 0.49739,-8.66836 4.82312,0.27675 -0.38612,6.72917 c -0.21559,3.75683 -0.64672,6.53682 -1.29337,8.33999 -0.63628,1.81482 -1.63301,3.34291 -2.99018,4.58428 -1.1826,1.09614 -2.51932,1.88414 -4.01018,2.364 -1.49088,0.47981 -3.15895,0.66679 -5.00421,0.56093 -1.86738,-0.10718 -3.51969,-0.48468 -4.95694,-1.1325 -1.42621,-0.64725 -2.66402,-1.58297 -3.71345,-2.80719 -1.20566,-1.39951 -2.02595,-3.04295 -2.46086,-4.93032 -0.42386,-1.88677 -0.52927,-4.68646 -0.31624,-8.3991 l 0.38612,-6.72916"
       id="path3067" />
    <path
       d="m 539.17682,345.11964 c 3.49545,0.5029 6.15634,0.0199 7.98269,-1.44901 1.82451,-1.45802 3.00737,-3.81376 3.54858,-7.06722 l 0.58842,-3.53733 13.0521,2.17116 -1.04881,6.30496 -8.48304,-1.41111 c -0.42853,2.84585 -2.01336,5.66205 -4.75449,8.44861 -2.74116,2.78651 -6.12058,3.84562 -10.13829,3.17732 l -3.35719,-0.55845 1.04881,-6.30497 1.56122,0.22604"
       id="path3069" />
    <path
       d="m 535.51206,355.62309 12.76561,3.48001 -2.61111,9.57821 c -0.32603,1.19592 -0.28952,2.19817 0.10954,3.00674 0.40971,0.81144 1.14848,1.36272 2.21629,1.65383 1.06779,0.29107 1.97879,0.18953 2.73298,-0.30461 0.75417,-0.4942 1.29427,-1.33925 1.62031,-2.53517 l 2.6111,-9.57821 4.46877,1.21823 -2.79013,10.2349 c -0.82964,3.04322 -2.14373,5.19153 -3.94228,6.44493 -1.79082,1.26693 -3.93556,1.55984 -6.43421,0.87871 -2.50934,-0.6841 -4.21938,-2.02785 -5.13012,-4.03125 -0.90297,-1.98986 -0.93965,-4.5064 -0.11003,-7.54962 l 1.10906,-4.06834 -8.29684,-2.26179 1.68106,-6.16657"
       id="path3071" />
    <path
       d="m 528.70902,379.59153 13.8317,5.42733 c 3.26602,1.28153 5.37611,3.0547 6.3303,5.31949 0.95414,2.26478 0.77429,5.0714 -0.53958,8.41987 -1.31794,3.35874 -3.09677,5.54389 -5.3365,6.55546 -2.23976,1.01152 -4.99265,0.87653 -8.25867,-0.40498 l -13.8317,-5.42734 2.33466,-5.94995 13.8317,5.42734 c 1.90604,0.74788 3.38933,0.96727 4.44988,0.65819 1.06678,-0.29478 1.87913,-1.15306 2.43704,-2.57485 0.55383,-1.41152 0.54194,-2.59322 -0.0357,-3.5451 -0.57139,-0.93756 -1.81009,-1.78029 -3.71613,-2.52818 l -13.8317,-5.42733 2.33467,-5.94995"
       id="path3073" />
    <path
       d="m 514.89777,434.79354 9.03879,-16.55223 c 0.59409,-1.08796 0.7858,-2.07407 0.57512,-2.95834 -0.20097,-0.87899 -0.78715,-1.5837 -1.75852,-2.11413 -0.7771,-0.42437 -1.51461,-0.50555 -2.21254,-0.24353 -0.68822,0.2673 -1.38243,1.04206 -2.08261,2.32429 l -4.24006,-2.3154 c 1.84065,-3.37068 3.72042,-5.42742 5.6393,-6.17023 1.91888,-0.74282 3.93712,-0.53605 6.05472,0.62033 2.39928,1.31019 3.78654,3.07657 4.16177,5.29914 0.38492,2.22785 -0.24745,4.85227 -1.89713,7.87326 l -9.03879,16.55223 -4.24005,-2.31539"
       id="path3075" />
    <path
       d="m 498.11166,439.69533 3.79647,-5.14193 6.67783,4.93048 c 2.12799,1.57118 3.25426,3.42768 3.37881,5.56952 0.11796,2.15073 -0.87488,4.6507 -2.97855,7.49992 -2.10367,2.84918 -4.21066,4.51966 -6.32096,5.01145 -2.10796,0.50722 -4.20369,-0.008 -6.28717,-1.54659 l -2.79134,-2.06095 -5.09811,6.90487 -3.8865,-2.86954 8.89459,-12.04679 6.67783,4.93048 c 0.89037,0.65738 1.77647,0.89201 2.65828,0.70389 0.88182,-0.18815 1.69087,-0.78083 2.42716,-1.77803 0.73628,-0.99724 1.06452,-1.94491 0.98474,-2.84302 -0.0798,-0.89814 -0.56488,-1.6759 -1.45525,-2.33328 l -6.67783,-4.93048"
       id="path3077" />
    <path
       d="m 481.35219,468.77262 c -0.89924,0.066 -1.78163,0.54263 -2.64718,1.42999 -0.86554,0.88734 -1.32011,1.78132 -1.3637,2.68194 -0.0436,0.90059 0.33077,1.7373 1.12305,2.51013 0.79228,0.77279 1.63804,1.12621 2.53728,1.06025 0.90717,-0.0583 1.79353,-0.53106 2.65908,-1.4184 0.86554,-0.88737 1.31615,-1.78521 1.35181,-2.69353 0.0436,-0.90062 -0.33077,-1.73733 -1.12305,-2.51013 -0.79228,-0.77282 -1.63804,-1.12623 -2.53729,-1.06025 m 5.76683,9.63723 -13.16868,13.50044 -3.4583,-3.37331 6.30613,-6.465 c -1.03821,-0.40975 -2.01684,-1.06284 -2.93589,-1.95928 -1.85393,-1.80839 -2.69279,-3.8094 -2.5166,-6.00304 0.17641,-2.17802 1.52429,-4.55844 4.04364,-7.14126 2.51936,-2.58284 4.86937,-3.99347 7.05004,-4.23192 2.18087,-0.2228 4.19826,0.56999 6.0522,2.37837 1.95693,1.90883 2.82738,3.93293 2.61138,6.0723 -0.25252,2.35113 -1.58049,4.75869 -3.98392,7.2227"
       id="path3079" />
    <path
       d="m 468.62265,495.8255 6.00683,7.22578 -2.94904,2.45155 -3.37486,-4.05971 c -0.74805,1.03921 -1.32208,1.7251 -1.72208,2.05765 -1.75326,1.45747 -3.28604,2.22794 -4.59835,2.31141 -1.30524,0.0919 -2.44604,-0.44933 -3.42242,-1.62381 -0.9976,-1.20007 -1.30428,-2.47793 -0.92005,-3.83359 0.3828,-1.34011 1.37848,-2.67876 2.98705,-4.01596 1.42983,-1.18864 2.87535,-1.86498 4.33656,-2.02901 1.46827,-0.15555 2.68705,0.34968 3.65636,1.51569 m -6.43069,2.36661 c -0.4681,0.38911 -0.79111,0.9095 -0.96902,1.56116 -0.17936,0.66721 -0.032,1.28594 0.44203,1.85619 0.44573,0.53617 0.98888,0.78268 1.62945,0.73954 0.63206,-0.0361 1.22044,-0.28055 1.76514,-0.73335 0.58725,-0.4882 0.95917,-1.02766 1.11576,-1.61838 0.14807,-0.58367 -0.0149,-1.16062 -0.48894,-1.73083 -0.45282,-0.54472 -1.02714,-0.7941 -1.72298,-0.74816 -0.68876,0.0544 -1.27924,0.27904 -1.77144,0.67383"
       id="path3081" />
    <path
       d="m 433.64534,512.89155 c -1.57225,-2.26337 -1.98153,-4.55971 -1.22786,-6.88904 0.75092,-2.31395 2.33986,-4.31388 4.76681,-5.99979 2.72694,-1.89429 5.25528,-2.77468 7.58504,-2.64118 2.32976,0.13349 4.30286,1.36373 5.91932,3.69071 1.57857,2.27244 2.07484,4.4612 1.4888,6.56629 -0.58883,2.12047 -2.36941,4.2131 -5.34176,6.27789 -1.18167,0.82084 -2.3164,1.44738 -3.40419,1.87962 l 4.99145,7.18546 -5.24935,3.6465 -9.52826,-13.71646 m 6.18148,-9.08476 c -0.86352,0.59985 -1.41629,1.39486 -1.65832,2.38503 -0.24202,0.99015 5e-5,2.00789 0.72618,3.05323 0.72615,1.0453 1.53695,1.6208 2.43239,1.7265 0.90176,0.11474 1.84349,-0.16884 2.82518,-0.85077 1.05442,-0.73247 1.67575,-1.55489 1.86399,-2.46726 0.18825,-0.91239 -0.0586,-1.85942 -0.74054,-2.84111 -0.72614,-1.04533 -1.59994,-1.62423 -2.6214,-1.73669 -1.03054,-0.10617 -1.97303,0.13752 -2.82748,0.73107"
       id="path3083" />
    <path
       d="m 419.28634,524.74773 1.75545,-1.01026 c 2.02404,-1.16485 3.61623,-1.91515 4.77657,-2.2509 1.16587,-0.32619 2.28998,-0.3921 3.37234,-0.19772 0.94225,0.17282 1.7656,0.51624 2.47005,1.03026 0.70996,0.52359 1.32164,1.23145 1.83506,2.12357 0.541,0.94006 0.85677,1.84376 0.94729,2.7111 0.096,0.8769 -0.0179,1.76612 -0.34189,2.66769 -0.36614,1.02794 -0.98105,1.95645 -1.84473,2.78554 -1.05527,1.02868 -2.4942,2.06748 -4.31679,3.11641 l -1.75544,1.01026 -1.30009,-2.25906 2.80583,-1.61476 c 1.33337,-0.76737 2.24258,-1.75033 2.72762,-2.94886 0.43328,-1.06663 0.29384,-2.21866 -0.4183,-3.45608 -0.66247,-1.15113 -1.57194,-1.8217 -2.7284,-2.0117 -1.14688,-0.19556 -2.43976,0.12071 -3.87865,0.94881 l -2.80583,1.61475 -1.30009,-2.25905"
       id="path3085" />
    <path
       d="m 399.18079,556.61207 -4.22976,1.6736 -1.50258,-3.79753 4.22976,-1.6736 1.50258,3.79753 m -11.19318,-11.72892 10.18041,-8.47373 -13.21611,0.80149 3.0357,7.67224 m -12.02078,-13.00831 26.20543,-1.13833 2.80359,7.08563 -19.88972,17.10027 -9.1193,-23.04757"
       id="path3087" />
    <path
       d="m 361.67527,547.46546 3.6706,-1.05192 1.30347,4.54836 2.76093,-0.79123 c 1.90446,-0.54579 3.47789,-0.5995 4.7203,-0.16112 1.23482,0.45204 2.04889,1.36431 2.44222,2.73681 0.39332,1.37247 0.18448,2.57212 -0.62651,3.59897 -0.8186,1.0405 -2.18012,1.83364 -4.08458,2.37945 l -6.43154,1.84314 -0.71805,-2.50558 6.0166,-1.72424 c 0.79796,-0.2287 1.36552,-0.55829 1.70267,-0.98877 0.33716,-0.43053 0.42493,-0.92773 0.26334,-1.49159 -0.1677,-0.58519 -0.49943,-0.97944 -0.9952,-1.18274 -0.50641,-0.20029 -1.17455,-0.18151 -2.00443,0.0563 l -6.0166,1.72423 -2.00322,-6.99011"
       id="path3089" />
    <path
       d="m 358.04211,552.97122 1.95955,9.18989 -3.75065,0.79974 -1.10094,-5.16322 c -1.14539,0.57239 -1.97246,0.91283 -2.48121,1.02133 -2.22982,0.47544 -3.94508,0.4451 -5.14579,-0.091 -1.19839,-0.52532 -1.95684,-1.53486 -2.27536,-3.0286 -0.32543,-1.52626 -0.003,-2.80022 0.96741,-3.82191 0.96187,-1.00858 2.4657,-1.73098 4.5115,-2.16719 1.8185,-0.38776 3.41274,-0.31465 4.78273,0.21935 1.37231,0.54479 2.21656,1.55866 2.53276,3.04162 m -6.79379,-0.89389 c -0.59533,0.12693 -1.12322,0.43753 -1.58366,0.9318 -0.46895,0.50737 -0.6261,1.12368 -0.47147,1.84893 0.14542,0.68192 0.51173,1.15266 1.09894,1.41223 0.5764,0.26184 1.21098,0.31891 1.90373,0.17121 0.74689,-0.15928 1.32695,-0.46403 1.74018,-0.91425 0.40242,-0.44795 0.52631,-1.03454 0.37167,-1.75975 -0.14772,-0.69278 -0.5403,-1.18055 -1.17774,-1.46333 -0.63513,-0.27198 -1.26234,-0.34759 -1.88165,-0.22684"
       id="path3091" />
    <path
       d="m 339.08545,558.02752 c 0.34025,2.73476 -0.35977,4.95208 -2.10006,6.65198 -1.7499,1.71219 -4.09109,2.75073 -7.02356,3.1156 -3.2949,0.40991 -5.94276,0.0144 -7.9436,-1.18653 -2.0008,-1.20098 -3.17612,-3.20729 -3.52596,-6.01892 -0.34159,-2.74578 0.24103,-4.92061 1.74787,-6.52451 1.49726,-1.59158 4.04161,-2.61077 7.63304,-3.0576 1.42781,-0.17765 2.72373,-0.20505 3.88776,-0.0822 l -1.08019,-8.68208 6.3427,-0.78914 2.062,16.57339 m -9.69549,5.17118 c 1.0434,-0.12983 1.90233,-0.57686 2.5768,-1.34109 0.67448,-0.76428 0.93314,-1.77792 0.77599,-3.04095 -0.15713,-1.26307 -0.60827,-2.15495 -1.35339,-2.67564 -0.74375,-0.50975 -1.70871,-0.69082 -2.89489,-0.54323 -1.27402,0.1585 -2.20638,0.59794 -2.79711,1.31832 -0.59069,0.72035 -0.81226,1.67362 -0.6647,2.85981 0.15716,1.26302 0.66731,2.18102 1.53044,2.75399 0.85218,0.57429 1.79447,0.79722 2.82686,0.66879"
       id="path3093" />
    <path
       d="m 305.62468,560.95649 -0.0718,-8.25066 -12.54768,4.22654 12.61949,4.02412 m 6.2476,-16.57355 0.21571,24.78519 -24.85989,-8.36697 -0.0663,-7.61983 24.7105,-8.79839"
       id="path3095" />
    <path
       d="m 272.33294,568.09833 1.96063,-19.85853 -10.80489,-1.06676 0.47466,-4.80768 17.16556,1.69475 -2.43528,24.6662 -6.36068,-0.62798"
       id="path3097" />
    <path
       d="m 259.91848,541.80909 -2.92539,14.56757 c -0.69076,3.43977 -2.06768,5.82739 -4.13076,7.16285 -2.06307,1.33542 -4.8579,1.64905 -8.38452,0.94088 -3.53742,-0.7104 -5.99993,-2.07978 -7.38752,-4.10815 -1.38754,-2.0284 -1.73594,-4.76249 -1.0452,-8.20227 l 2.92539,-14.56757 6.2665,1.25841 -2.9254,14.56757 c -0.4031,2.00744 -0.35978,3.50624 0.12997,4.49641 0.47675,0.99882 1.46385,1.64859 2.96128,1.94931 1.48661,0.29852 2.64803,0.0802 3.48425,-0.65494 0.82323,-0.72651 1.4364,-2.09348 1.83951,-4.10091 l 2.9254,-14.56757 6.26649,1.25841"
       id="path3099" />
    <path
       d="m 218.87871,543.25109 1.94203,0.5751 c 2.23918,0.66308 3.88035,1.29915 4.92352,1.90819 1.04005,0.61964 1.86277,1.38847 2.46816,2.30649 0.52442,0.80169 0.84329,1.63485 0.9566,2.49951 0.11019,0.87523 0.0192,1.80632 -0.27312,2.79327 -0.30797,1.03998 -0.74489,1.89173 -1.31076,2.55526 -0.56899,0.6741 -1.29168,1.2046 -2.16808,1.59149 -0.99703,0.44346 -2.09354,0.63817 -3.28954,0.58413 -1.47266,-0.0552 -3.21715,-0.38136 -5.23348,-0.97844 l -1.94203,-0.5751 0.74009,-2.49916 3.10406,0.91921 c 1.4751,0.43681 2.81394,0.41774 4.01652,-0.0572 1.07133,-0.4215 1.80969,-1.31673 2.21508,-2.68568 0.37713,-1.27348 0.23586,-2.39456 -0.42379,-3.36326 -0.64902,-0.96558 -1.76945,-1.68406 -3.36128,-2.15544 l -3.10406,-0.91921 0.74008,-2.49917"
       id="path3101" />
    <path
       d="m 195.85954,547.6745 -0.60512,1.45682 -5.95296,-2.32699 1.23905,-3.16976 c 1.48285,-3.7934 4.12278,-6.15413 7.91978,-7.08217 3.79705,-0.92806 7.02756,-0.84764 9.69154,0.24124 l 3.13086,-8.00943 5.95296,2.32699 -4.81717,12.32339 -3.33984,-1.30553 c -3.07182,-1.20078 -5.70099,-1.39074 -7.88754,-0.56991 -2.19681,0.8168 -3.974,2.85524 -5.33156,6.11535"
       id="path3103" />
    <path
       d="m 174.50091,539.501 -4.50117,-15.346 2.13094,-4.11254 12.44081,6.44626 3.95636,-7.63548 5.67502,2.94054 -6.08729,11.74802 -12.42608,-6.43863 4.50117,15.346 -5.68976,-2.94817"
       id="path3105" />
    <path
       d="m 155.47068,512.49553 1.71024,1.08503 c 1.97192,1.25105 3.37611,2.31232 4.21257,3.1838 0.83055,0.88081 1.41122,1.84558 1.742,2.89432 0.28478,0.91467 0.36325,1.80331 0.2354,2.66594 -0.13376,0.87194 -0.47635,1.74249 -1.02778,2.61164 -0.58104,0.91584 -1.23455,1.61535 -1.96052,2.09851 -0.73187,0.49248 -1.57223,0.80473 -2.52109,0.93678 -1.08036,0.15341 -2.18827,0.0403 -3.32373,-0.33923 -1.40122,-0.45647 -2.98966,-1.24797 -4.76534,-2.3745 l -1.71023,-1.08503 1.39631,-2.20088 2.73358,1.73428 c 1.29905,0.82414 2.59191,1.17252 3.87858,1.04514 1.14582,-0.11194 2.10115,-0.77069 2.86599,-1.97625 0.71152,-1.12148 0.88272,-2.23838 0.51363,-3.35072 -0.35972,-1.10642 -1.2405,-2.10431 -2.64235,-2.99368 l -2.73357,-1.73428 1.39631,-2.20087"
       id="path3107" />
    <path
       d="m 122.43705,493.5697 5.67465,-5.98974 -11.96687,-5.66585 6.29222,11.65559 m 16.00066,-7.59567 -17.04678,17.99332 -12.09032,-23.27756 5.24077,-5.53177 23.89633,10.81601"
       id="path3109" />
    <path
       d="m 105.51987,475.36889 -7.102242,6.15241 -2.510964,-2.89862 3.990305,-3.45665 c -1.054203,-0.72679 -1.751609,-1.28676 -2.092222,-1.67993 -1.492788,-1.72328 -2.294242,-3.24009 -2.404364,-4.55043 -0.118441,-1.3031 0.39954,-2.45467 1.553945,-3.45471 1.179545,-1.02177 2.45091,-1.35435 3.814102,-0.99775 1.34761,0.3555 2.70621,1.32377 4.07582,2.90484 1.21745,1.40538 1.92302,2.83686 2.11671,4.29443 0.18534,1.46481 -0.29502,2.69361 -1.44109,3.68641 m -2.49678,-6.38128 c -0.39855,-0.4601 -0.92539,-0.77247 -1.58053,-0.9371 -0.67072,-0.16576 -1.28633,-0.006 -1.846828,0.47965 -0.527002,0.45654 -0.762428,1.00459 -0.70628,1.64415 0.04894,0.63119 0.305295,1.21448 0.769061,1.74987 0.500037,0.57721 1.046947,0.93809 1.640717,1.08265 0.58656,0.13618 1.16008,-0.0385 1.72054,-0.52401 0.53541,-0.46379 0.77307,-1.04306 0.713,-1.73782 -0.0684,-0.68752 -0.30497,-1.27332 -0.70968,-1.75739"
       id="path3111" />
    <path
       d="m 95.727894,437.95147 -11.546677,16.42406 19.233303,-5.77695 3.76072,5.20914 -25.470081,7.06484 -4.460383,-6.17828 14.722403,-21.95195 3.760715,5.20914"
       id="path3113" />
    <path
       d="m 74.886778,425.36808 1.955147,3.27983 -4.064134,2.42268 1.470611,2.467 c 1.014426,1.7017 1.468502,3.20915 1.362228,4.52234 -0.121415,1.30933 -0.795315,2.32953 -2.021703,3.0606 -1.22635,0.73104 -2.439537,0.83576 -3.639565,0.31415 -1.215157,-0.52547 -2.32995,-1.63905 -3.344384,-3.34075 l -3.425758,-5.74683 2.238839,-1.3346 3.204741,5.37607 c 0.425055,0.713 0.88876,1.17746 1.391117,1.39339 0.502401,0.21592 1.005519,0.17371 1.509355,-0.12664 0.522891,-0.3117 0.819253,-0.73318 0.889086,-1.26444 0.06421,-0.54078 -0.124718,-1.18193 -0.566771,-1.92346 l -3.204741,-5.37606 6.245932,-3.72328"
       id="path3115" />
    <path
       d="m 67.017637,409.47985 c -0.254637,0.86497 -0.118935,1.85865 0.407107,2.98107 0.526073,1.12242 1.202942,1.86247 2.030609,2.22015 0.827694,0.35769 1.742614,0.30169 2.744764,-0.16801 1.002172,-0.46969 1.63559,-1.13936 1.900256,-2.00902 0.254663,-0.86495 0.118961,-1.85863 -0.407106,-2.98106 -0.526048,-1.12241 -1.202917,-1.86247 -2.030609,-2.22016 -0.83769,-0.35298 -1.757622,-0.29462 -2.759797,0.17506 -1.002147,0.46971 -1.630554,1.13703 -1.885224,2.00197 m 11.050067,-2.00709 c 1.460754,3.11673 1.924245,5.82691 1.390475,8.13053 -0.498676,2.09162 -1.985685,3.7175 -4.46103,4.87764 -2.345049,1.09908 -4.505906,1.18289 -6.482579,0.25142 -1.991362,-0.93679 -3.752651,-3.03871 -5.283874,-6.30576 -1.531183,-3.26704 -2.01738,-5.96046 -1.458592,-8.08027 0.544112,-2.12511 1.988686,-3.73721 4.333726,-4.83631 1.162523,-0.54483 2.301372,-0.84024 3.416549,-0.88623 l -3.832708,-8.17764 4.374437,-2.05022 8.003596,17.07684"
       id="path3117" />
    <path
       d="m 54.589113,378.9975 1.26732,3.60191 -4.463239,1.57038 0.953245,2.70926 c 0.657554,1.86882 0.80429,3.43632 0.44021,4.70249 -0.37816,1.25941 -1.240648,2.12605 -2.587469,2.59992 -1.34678,0.47386 -2.556694,0.33639 -3.629744,-0.41241 -1.087117,-0.75558 -1.959455,-2.06778 -2.617018,-3.93659 l -2.220564,-6.31118 2.458696,-0.86508 2.077302,5.904 c 0.275528,0.78303 0.638132,1.33008 1.087814,1.64117 0.449728,0.31108 0.951248,0.36928 1.504564,0.17459 0.574238,-0.20204 0.948157,-0.55652 1.121758,-1.06346 0.169967,-0.51737 0.111679,-1.18323 -0.174866,-1.99758 l -2.077302,-5.904 6.859293,-2.41342"
       id="path3119" />
    <path
       d="m 56.998109,366.05812 c 0.423798,-0.79585 0.491199,-1.79649 0.202203,-3.00193 -0.288983,-1.20541 -0.802769,-2.06672 -1.54136,-2.58393 -0.738575,-0.51717 -1.646003,-0.64676 -2.722286,-0.38875 -1.076261,0.25804 -1.826292,0.78499 -2.250097,1.58084 -0.43454,0.79845 -0.507322,1.80038 -0.218346,3.0058 0.289002,1.20543 0.80817,2.06545 1.557504,2.58005 0.738595,0.5172 1.646022,0.64678 2.722285,0.38875 1.076281,-0.25802 1.826313,-0.78496 2.250097,-1.58083 m -11.227819,-0.26169 -4.396771,-18.33969 4.697933,-1.12629 2.105496,8.78239 c 0.900318,-0.65969 1.974708,-1.1392 3.223171,-1.43853 2.518489,-0.60376 4.65855,-0.24615 6.42019,1.07283 1.748309,1.31084 3.043043,3.72058 3.884206,7.22921 0.841168,3.50866 0.781089,6.24889 -0.180236,8.22069 -0.974664,1.96363 -2.721235,3.24734 -5.23972,3.85112 -2.658384,0.63732 -4.834825,0.29413 -6.529328,-1.0296 -1.854149,-1.46754 -3.182461,-3.87491 -3.984941,-7.22213"
       id="path3121" />
    <path
       d="m 43.625329,327.5449 0.505029,3.78481 -4.689877,0.6258 0.379869,2.84684 c 0.262047,1.96372 0.08558,3.52814 -0.529409,4.69328 -0.627385,1.15564 -1.648681,1.82787 -3.063891,2.01671 -1.41517,0.18884 -2.57151,-0.19282 -3.469026,-1.14498 -0.909902,-0.96167 -1.49588,-2.42436 -1.757935,-4.38808 l -0.884899,-6.63165 2.583547,-0.34473 0.827809,6.2038 c 0.109812,0.82279 0.353055,1.43236 0.72973,1.82873 0.37672,0.39637 0.855786,0.55576 1.437199,0.47817 0.603397,-0.0805 1.041828,-0.35116 1.315296,-0.81196 0.272043,-0.47176 0.350965,-1.13549 0.236765,-1.99119 l -0.827808,-6.2038 7.207601,-0.96175"
       id="path3123" />
    <path
       d="m 38.707422,323.14326 -9.37762,0.59512 -0.242883,-3.82727 5.268698,-0.33435 c -0.398806,-1.21677 -0.614692,-2.08472 -0.647658,-2.60386 -0.144377,-2.27536 0.13637,-3.96776 0.842242,-5.07721 0.694865,-1.10872 1.804426,-1.71145 3.328686,-1.8082 1.557428,-0.0988 2.770572,0.40642 3.639434,1.51571 0.857142,1.09897 1.351947,2.69225 1.484417,4.77984 0.117773,1.85565 -0.187604,3.42208 -0.916129,4.69929 -0.739547,1.27792 -1.865941,1.9649 -3.379187,2.06093 m 1.877405,-6.59014 c -0.03854,-0.60749 -0.268635,-1.17512 -0.690289,-1.70287 -0.433372,-0.53807 -1.020088,-0.78363 -1.760151,-0.73668 -0.695849,0.0442 -1.215082,0.33774 -1.557701,0.8807 -0.343285,0.53193 -0.492505,1.15135 -0.447662,1.85825 0.04838,0.76215 0.265067,1.38053 0.650048,1.85514 0.384315,0.46357 0.946487,0.67188 1.686518,0.62491 0.706927,-0.0449 1.246849,-0.36192 1.619768,-0.95118 0.361903,-0.58855 0.528392,-1.19797 0.499469,-1.82827"
       id="path3125" />
    <path
       d="m 55.985656,263.91921 -19.636953,4.17915 18.02527,8.85341 -0.788523,6.37624 -23.471997,-12.15329 0.935225,-7.56251 25.725501,-6.06923 -0.788523,6.37623"
       id="path3127" />
    <path
       d="m 35.51043,239.57285 13.773602,-8.12699 4.509535,1.05736 -3.198595,13.64174 8.372541,1.96312 -1.459074,6.22284 -12.882076,-3.02048 3.194805,-13.62558 -13.773602,8.12699 1.462864,-6.239"
       id="path3129" />
    <path
       d="m 57.022102,214.50026 -0.632552,1.92408 c -0.729329,2.21849 -1.413878,3.84003 -2.05365,4.86465 -0.650267,1.02117 -1.443206,1.82068 -2.378818,2.39852 -0.816911,0.50037 -1.659185,0.79434 -2.526823,0.88191 -0.878125,0.0841 -1.806099,-0.0345 -2.783926,-0.35601 -1.030364,-0.33873 -1.868757,-0.80076 -2.51518,-1.3861 -0.656899,-0.58877 -1.165686,-1.32691 -1.526362,-2.21442 -0.413639,-1.00976 -0.575682,-2.11158 -0.48613,-3.30544 0.09895,-1.47037 0.476794,-3.2044 1.133522,-5.2021 l 0.632552,-1.92408 2.476071,0.81403 -1.011047,3.07537 c -0.480446,1.46148 -0.501172,2.80029 -0.06218,4.01644 0.389481,1.08339 1.262372,1.84803 2.618674,2.29392 1.261706,0.4148 2.386492,0.30691 3.374363,-0.32367 0.984438,-0.62004 1.735893,-1.71862 2.254369,-3.29575 l 1.011047,-3.07537 2.47607,0.81402"
       id="path3131" />
    <path
       d="m 53.291166,191.35605 -1.438034,-0.6485 2.504348,-5.88055 3.131199,1.33349 c 3.747264,1.59587 6.027811,4.30536 6.84165,8.12846 0.813845,3.82316 0.636652,7.04981 -0.53158,9.67996 l 7.912006,3.36949 -2.504348,5.88055 -12.173492,-5.18433 1.405036,-3.29921 c 1.292295,-3.03445 1.560972,-5.65675 0.80603,-7.86692 -0.750588,-2.2203 -2.734858,-4.05778 -5.952815,-5.51244"
       id="path3133" />
    <path
       d="m 75.076476,174.9357 -1.791098,3.37221 -4.178615,-2.2194 -1.347217,2.53649 c -0.929283,1.74966 -1.982942,2.91943 -3.160981,3.50933 -1.182596,0.57496 -2.404357,0.52757 -3.665288,-0.14215 -1.260898,-0.66971 -1.97938,-1.65285 -2.15545,-2.94944 -0.180614,-1.31152 0.193716,-2.84211 1.122991,-4.59177 l 3.138314,-5.90871 2.301904,1.22262 -2.935843,5.5275 c -0.389353,0.73311 -0.546138,1.37042 -0.470356,1.91194 0.07581,0.54155 0.372738,0.9499 0.890773,1.22504 0.537614,0.28555 1.051672,0.32048 1.542174,0.10478 0.495721,-0.22545 0.946047,-0.71938 1.350978,-1.48181 l 2.935842,-5.52751 6.421872,3.41088"
       id="path3135" />
    <path
       d="m 86.223508,167.94231 c 0.872457,-0.22761 1.654022,-0.85609 2.344699,-1.88544 0.690669,-1.02932 0.975947,-1.9908 0.855834,-2.88444 -0.120121,-0.89361 -0.639705,-1.64876 -1.558754,-2.26545 -0.919053,-0.61665 -1.814807,-0.81118 -2.687265,-0.58358 -0.881648,0.22147 -1.667809,0.84686 -2.358484,1.87618 -0.690671,1.02936 -0.971353,1.99392 -0.842049,2.8937 0.120121,0.89364 0.639705,1.64878 1.558754,2.26545 0.919053,0.61668 1.814807,0.81121 2.687265,0.58358 m -7.415631,-8.4345 10.508107,-15.66065 4.011661,2.69178 -5.032051,7.49946 c 1.095216,0.2151 2.175876,0.68031 3.241981,1.39563 2.150573,1.44303 3.337705,3.2592 3.561401,5.44851 0.220652,2.17398 -0.674193,4.75901 -2.684538,7.75511 -2.010359,2.99611 -4.066291,4.80874 -6.167803,5.43787 -2.104537,0.61379 -4.232095,0.19918 -6.382679,-1.24384 -2.270051,-1.52318 -3.492433,-3.35633 -3.667152,-5.49947 -0.177128,-2.35801 0.693229,-4.96614 2.611073,-7.8244"
       id="path3137" />
    <path
       d="m 105.48685,132.01025 -2.44156,2.93576 -3.637783,-3.02542 -1.83648,2.2082 c -1.266774,1.5232 -2.536973,2.45334 -3.810601,2.79043 -1.275039,0.32153 -2.461422,0.0258 -3.559151,-0.88712 -1.0977,-0.91292 -1.600437,-2.02199 -1.508212,-3.32723 0.09082,-1.32078 0.769619,-2.74278 2.036385,-4.26599 l 4.278043,-5.14394 2.00397,1.66663 -4.00204,4.81208 c -0.530763,0.63823 -0.814303,1.23013 -0.850621,1.77572 -0.03629,0.54563 0.171052,1.00598 0.622039,1.38104 0.46803,0.38925 0.964143,0.52834 1.488341,0.41728 0.531295,-0.11954 1.07294,-0.51119 1.624936,-1.17494 l 4.00204,-4.81208 5.590694,4.64958"
       id="path3139" />
    <path
       d="m 105.3961,125.40729 -6.789091,-6.49631 2.651321,-2.77082 3.81437,3.64987 c 0.6251,-1.11749 1.11746,-1.86417 1.47709,-2.24003 1.57626,-1.64727 3.01155,-2.58694 4.30587,-2.81902 1.28633,-0.23968 2.48126,0.16844 3.58478,1.22436 1.12752,1.07891 1.57744,2.31364 1.34976,3.70418 -0.22802,1.37494 -1.06512,2.81807 -2.51129,4.32941 -1.28549,1.34344 -2.64478,2.17967 -4.07788,2.5087 -1.44108,0.32141 -2.70939,-0.042 -3.80493,-1.09034 m 6.12008,-3.08209 c 0.42085,-0.4398 0.68262,-0.99353 0.78532,-1.66118 0.10237,-0.68327 -0.11434,-1.28125 -0.65011,-1.79393 -0.50378,-0.48204 -1.07143,-0.66523 -1.70295,-0.54957 -0.62386,0.1077 -1.18064,0.41744 -1.67036,0.9292 -0.52796,0.55178 -0.83616,1.13001 -0.92461,1.7347 -0.0808,0.59672 0.14672,1.1514 0.68248,1.66405 0.51179,0.48973 1.11073,0.67223 1.79684,0.5475 0.67812,-0.13235 1.23925,-0.42261 1.68339,-0.87077"
       id="path3141" />
    <path
       d="m 160.66743,98.002958 -16.37918,-11.610242 5.70236,19.255554 -5.22367,3.7405 -6.96608,-25.497272 6.19552,-4.436406 21.89472,14.807367 -5.22367,3.740499"
       id="path3143" />
    <path
       d="m 173.33147,77.210708 -3.28738,1.942415 -2.4069,-4.073498 -2.47269,1.461034 c -1.70562,1.007821 -3.21482,1.456048 -4.52758,1.344683 -1.30886,-0.126491 -2.32644,-0.804342 -3.05274,-2.033555 -0.72629,-1.229176 -0.8263,-2.44276 -0.30004,-3.640756 0.53017,-1.21311 1.64807,-2.323577 3.35369,-3.331406 l 5.76007,-3.403448 1.32591,2.243997 -5.38845,3.183871 c -0.71465,0.422287 -1.18091,0.884188 -1.39878,1.385704 -0.21787,0.501559 -0.1776,1.004837 0.12079,1.509835 0.30967,0.524095 0.72999,0.822089 1.26098,0.893982 0.54053,0.0663 1.18241,-0.120135 1.92564,-0.559309 l 5.38845,-3.183871 3.69903,6.260322"
       id="path3145" />
    <path
       d="m 175.46333,70.965108 -4.20905,-8.401061 3.4287,-1.717827 2.3648,4.720031 c 0.9645,-0.842199 1.67928,-1.379813 2.14436,-1.612844 2.03842,-1.021254 3.70612,-1.423525 5.0031,-1.206816 1.29201,0.206859 2.2801,0.993049 2.96426,2.35857 0.69903,1.395249 0.70752,2.709368 0.0255,3.942361 -0.67711,1.218174 -1.95077,2.29575 -3.82097,3.232732 -1.6624,0.832899 -3.22374,1.163315 -4.68402,0.991249 -1.46523,-0.181935 -2.53745,-0.950733 -3.21665,-2.306395 m 6.80011,-0.844475 c 0.54423,-0.272655 0.97697,-0.706099 1.29822,-1.300331 0.32618,-0.609052 0.32319,-1.245076 -0.009,-1.908076 -0.31234,-0.623381 -0.78532,-0.986795 -1.41896,-1.090243 -0.62374,-0.108366 -1.25226,-0.0039 -1.88555,0.313355 -0.68277,0.342098 -1.16748,0.783008 -1.45412,1.322731 -0.27674,0.534802 -0.24904,1.133684 0.0831,1.796649 0.31729,0.633311 0.81998,1.0066 1.50807,1.119868 0.68313,0.103404 1.30919,0.01875 1.87818,-0.253953"
       id="path3147" />
    <path
       d="m 213.41525,62.29966 c 1.01483,2.562208 0.88981,4.89139 -0.37505,6.987555 -1.25869,2.081816 -3.26173,3.666825 -6.00913,4.755033 -3.08699,1.222713 -5.74946,1.503505 -7.98743,0.842377 -2.23797,-0.661121 -3.87864,-2.308794 -4.92202,-4.943024 -1.01893,-2.572474 -1.00312,-4.816733 0.0474,-6.732785 1.05674,-1.930388 3.26752,-3.561966 6.63233,-4.894739 1.33768,-0.529821 2.58537,-0.88116 3.74306,-1.05402 l -3.22184,-8.134195 5.94243,-2.353718 6.15024,15.527516 m -8.08986,7.436249 c 0.97753,-0.387184 1.697,-1.035234 2.1584,-1.944152 0.46137,-0.908899 0.45771,-1.955024 -0.011,-3.138379 -0.46872,-1.183329 -1.12696,-1.928519 -1.97472,-2.235573 -0.85186,-0.317313 -1.83344,-0.255889 -2.94474,0.184271 -1.19364,0.472796 -1.98611,1.131903 -2.3774,1.977323 -0.3913,0.845447 -0.36686,1.82382 0.0733,2.935122 0.4687,1.183352 1.18751,1.946216 2.15643,2.288594 0.9792,0.33832 1.95243,0.315917 2.91969,-0.06721"
       id="path3149" />
    <path
       d="m 229.43179,41.717652 -0.39509,-1.527221 6.15283,-1.730678 0.92153,3.276182 c 1.10282,3.920788 0.41888,7.395618 -2.05182,10.4245 -2.47073,3.028915 -5.09713,4.911645 -7.87922,5.648196 l 2.32855,8.278354 -6.15283,1.730678 -3.58273,-12.737159 3.45198,-0.970977 c 3.17496,-0.893045 5.38752,-2.32595 6.63769,-4.298722 1.26081,-1.97573 1.45051,-4.673445 0.56911,-8.093153"
       id="path3151" />
    <path
       d="m 255.86507,48.403683 -3.7501,0.718755 -0.89063,-4.646865 -2.82073,0.540629 c -1.94571,0.372936 -3.51763,0.285428 -4.71575,-0.262524 -1.18934,-0.560871 -1.91839,-1.54242 -2.18714,-2.944651 -0.26875,-1.40219 0.0468,-2.578306 0.94651,-3.52835 0.90854,-0.96295 2.33566,-1.630897 4.28137,-2.003841 l 6.57082,-1.259384 0.49063,2.559852 -6.1469,1.178133 c -0.81524,0.156274 -1.41005,0.433679 -1.78443,0.832216 -0.37438,0.398582 -0.50636,0.885913 -0.39594,1.461994 0.11459,0.597862 0.40965,1.020247 0.88521,1.267156 0.48642,0.244865 1.15356,0.286037 2.00141,0.123516 l 6.14691,-1.178133 1.36876,7.141497"
       id="path3153" />
    <path
       d="m 259.97652,43.244728 -1.12833,-9.328494 3.80721,-0.460502 0.63394,5.241097 c 1.19207,-0.46747 2.04631,-0.732447 2.56274,-0.794932 2.26344,-0.273755 3.96908,-0.08987 5.11694,0.551659 1.1465,0.63058 1.81146,1.704006 1.99487,3.220279 0.18738,1.549271 -0.24793,2.789225 -1.30593,3.719866 -1.04836,0.918351 -2.61087,1.503111 -4.68752,1.754283 -1.84593,0.223285 -3.42721,0.0076 -4.74385,-0.646954 -1.31797,-0.66555 -2.068,-1.750984 -2.25007,-3.256302 m 6.68638,1.498959 c 0.60432,-0.07308 1.15791,-0.335137 1.66078,-0.786169 0.51252,-0.463319 0.72426,-1.063071 0.63522,-1.799258 -0.0837,-0.692203 -0.4064,-1.19387 -0.968,-1.505004 -0.55062,-0.312426 -1.17753,-0.42612 -1.88073,-0.341082 -0.75815,0.09172 -1.36318,0.343276 -1.81509,0.754667 -0.44094,0.410098 -0.61688,0.983223 -0.52783,1.719377 0.0851,0.703224 0.43235,1.224209 1.0419,1.562956 0.60821,0.327789 1.22612,0.459294 1.85375,0.394513"
       id="path3155" />
    <path
       d="m 322.84804,40.799521 -12.85885,3.177251 12.23932,5.050435 0.61953,-8.227686 m 5.13326,16.951839 -24.07171,-10.419848 0.57216,-7.598606 25.36062,-6.69771 -1.86107,24.716164"
       id="path3157" />
    <path
       d="m 335.67509,50.793929 3.14709,-16.401982 6.2771,1.2044 -1.64862,8.59229 c 1.16959,-0.04604 2.4609,0.06649 3.87394,0.337597 3.55429,0.681985 6.02509,1.87168 7.4124,3.569089 1.40022,1.688645 1.83965,3.891642 1.31829,6.608995 -0.53392,2.782577 -1.83859,4.707277 -3.91402,5.774105 -2.07546,1.066824 -4.7436,1.287406 -8.00441,0.661748 -2.90215,-0.556842 -5.17104,-1.741606 -6.80668,-3.554295 -1.62269,-1.821472 -2.17439,-4.085452 -1.65509,-6.791947 m 9.33456,5.797382 c 1.02172,0.196042 1.97662,0.03554 2.86471,-0.481511 0.89893,-0.51496 1.46833,-1.397433 1.70818,-2.647422 0.22522,-1.173893 0.0668,-2.139664 -0.47525,-2.897317 -0.54209,-0.757637 -1.44356,-1.25742 -2.7044,-1.499352 -1.17391,-0.225229 -2.14973,-0.102548 -2.92746,0.368044 -0.77566,0.45974 -1.28341,1.314598 -1.52323,2.564576 -0.23985,1.24999 -0.0484,2.278451 0.5744,3.085385 0.62276,0.80694 1.45044,1.309472 2.48305,1.507597"
       id="path3159" />
    <path
       d="m 370.02193,49.852487 -2.46895,7.872921 13.23938,-0.163013 -10.77043,-7.709908 m -11.04162,13.849113 7.4168,-23.650444 21.08214,15.606534 -2.28018,7.270967 -26.21876,0.772943"
       id="path3161" />
    <path
       d="m 410.27162,57.831402 0.67102,-1.42767 5.84048,2.596414 -1.38251,3.109866 c -1.65454,3.721732 -4.39951,5.959436 -8.23494,6.713118 -3.83546,0.753689 -7.05893,0.525832 -9.67041,-0.683573 l -3.49336,7.858101 -5.84048,-2.596414 5.37492,-12.090552 3.27673,1.456689 c 3.01378,1.339802 5.63153,1.649638 7.85328,0.929508 2.23183,-0.715618 4.10025,-2.670778 5.60527,-5.865487"
       id="path3163" />
    <path
       d="m 431.50312,76.444317 c 0.6061,-1.055829 0.72759,-2.089978 0.36447,-3.10245 -0.34806,-1.016543 -1.002,-1.800331 -1.96183,-2.351366 -0.91187,-0.523462 -1.86701,-0.682547 -2.86542,-0.477257 -0.99844,0.205313 -1.81449,0.859877 -2.44815,1.963695 l -8.31496,14.484147 -5.54314,-3.182167 8.31497,-14.484148 c 1.37203,-2.390013 3.26436,-3.74118 5.67698,-4.053505 2.42769,-0.316379 4.92294,0.26104 7.48576,1.73226 2.87953,1.653087 4.75781,3.560876 5.63486,5.723371 0.87699,2.162515 0.61019,4.472375 -0.8004,6.929588 l -5.54314,-3.182168"
       id="path3165" />
    <path
       d="m 456.98616,94.022897 -12.58182,-4.140359 7.68551,10.781502 4.89631,-6.641143 m -4.65792,17.088563 -14.85681,-21.617025 4.52194,-6.133368 25.0435,7.800242 -14.70863,19.950151"
       id="path3167" />
    <path
       d="m 473.12946,114.95088 -2.83891,-2.55351 3.16414,-3.51778 -2.13536,-1.92069 c -1.47296,-1.32486 -2.35317,-2.63016 -2.64064,-3.9159 -0.27187,-1.28654 0.0696,-2.46057 1.02441,-3.522088 0.95478,-1.061491 2.0825,-1.520863 3.38318,-1.378117 1.31627,0.141949 2.71089,0.875349 4.18385,2.200205 l 4.97427,4.4742 -1.74305,1.93787 -4.65335,-4.18555 c -0.61717,-0.5551 -1.19765,-0.86137 -1.74142,-0.91881 -0.54381,-0.0574 -1.01185,0.13194 -1.40411,0.56805 -0.4071,0.45259 -0.56531,0.94294 -0.47465,1.47105 0.0989,0.53553 0.46922,1.09194 1.11108,1.66925 l 4.65334,4.18555 -4.86278,5.40627"
       id="path3169" />
    <path
       d="m 479.73335,115.12029 6.7565,-6.53022 2.66516,2.75751 -3.79605,3.66892 c 1.09223,0.66827 1.81911,1.18941 2.18064,1.56344 1.58446,1.63939 2.46736,3.11028 2.64871,4.41267 0.18926,1.29472 -0.26521,2.47279 -1.36341,3.53424 -1.12213,1.08452 -2.37348,1.48588 -3.75408,1.20407 -1.36498,-0.28154 -2.77432,-1.17436 -4.22803,-2.67845 -1.29221,-1.33697 -2.07472,-2.72788 -2.34754,-4.17274 -0.26488,-1.45253 0.14782,-2.70568 1.2381,-3.75944 m 2.84075,6.23577 c 0.42302,0.4377 0.9661,0.7209 1.62924,0.8496 0.67875,0.12897 1.28473,-0.0642 1.81795,-0.57956 0.50134,-0.48457 0.70656,-1.04464 0.61565,-1.68019 -0.0833,-0.62759 -0.37101,-1.19605 -0.86326,-1.70537 -0.53074,-0.54911 -1.0965,-0.87966 -1.69726,-0.99165 -0.59312,-0.10402 -1.15626,0.10163 -1.68944,0.61697 -0.50934,0.49227 -0.71509,1.08363 -0.61725,1.77409 0.10576,0.68277 0.37388,1.2548 0.80437,1.71611"
       id="path3171" />
    <path
       d="m 481.13369,139.02126 11.58513,-9.30359 c 2.73554,-2.19681 5.32304,-3.14626 7.76251,-2.84833 2.43943,0.29795 4.78529,1.84921 7.03758,4.65379 2.25917,2.81323 3.27091,5.44297 3.03525,7.88922 -0.23573,2.44624 -1.72136,4.76778 -4.45689,6.96461 l -11.58513,9.30359 -4.0021,-4.98355 11.58513,-9.30359 c 1.59644,-1.28206 2.52417,-2.46002 2.78319,-3.5339 0.27453,-1.07217 -0.0664,-2.2037 -1.02268,-3.39457 -0.94944,-1.18224 -1.9807,-1.75936 -3.09377,-1.73136 -1.09755,0.0297 -2.44455,0.68559 -4.04099,1.96764 l -11.58513,9.30359 -4.0021,-4.98355"
       id="path3173" />
    <path
       d="m 513.55062,164.22927 -1.12156,-1.68651 c -1.29319,-1.94455 -2.14479,-3.48494 -2.55482,-4.62117 -0.40083,-1.14235 -0.53923,-2.25986 -0.41519,-3.35251 0.11158,-0.95145 0.40108,-1.79527 0.86852,-2.53145 0.47662,-0.74231 1.14348,-1.39845 2.00057,-1.96843 0.90314,-0.60061 1.78454,-0.97411 2.64423,-1.12048 0.86885,-0.15248 1.76359,-0.0962 2.6842,0.16882 1.04945,0.29895 2.01575,0.85259 2.89891,1.66089 1.09471,0.98661 2.22431,2.35541 3.38881,4.10642 l 1.12156,1.68651 -2.17034,1.44332 -1.79266,-2.69564 c -0.85193,-1.281 -1.89157,-2.12479 -3.11894,-2.53139 -1.0924,-0.36345 -2.23301,-0.14987 -3.42183,0.64073 -1.10592,0.73546 -1.71633,1.68635 -1.83121,2.85268 -0.12105,1.15711 0.27809,2.42686 1.19742,3.80924 l 1.79267,2.69564 -2.17034,1.44333"
       id="path3175" />
    <path
       d="m 534.05157,175.57598 1.39795,-0.73093 3.08007,5.60051 -2.98209,1.64004 c -3.56884,1.9627 -7.10826,2.08406 -10.61827,0.36409 -3.51005,-1.72 -5.93901,-3.85138 -7.28691,-6.39415 l -7.53523,4.1441 -3.08007,-5.60051 11.59378,-6.37615 1.72804,3.1421 c 1.58936,2.88996 3.48641,4.72021 5.69118,5.49076 2.21006,0.78024 4.88058,0.35362 8.01155,-1.27986"
       id="path3177" />
    <path
       d="m 525.78995,200.00609 c -0.30235,0.84946 -0.22208,1.84915 0.24079,2.99908 0.46285,1.14991 1.09754,1.92644 1.90408,2.32959 0.80651,0.40312 1.72313,0.39805 2.74986,-0.0152 1.0267,-0.41328 1.69122,-1.04465 1.99357,-1.8941 0.31259,-0.85361 0.23746,-1.85536 -0.22539,-3.00528 -0.46288,-1.14993 -1.1027,-1.92439 -1.91948,-2.32339 -0.80653,-0.40313 -1.72315,-0.39806 -2.74986,0.0152 -1.02672,0.41326 -1.69125,1.04463 -1.99357,1.8941 m 11.14453,-1.38984 7.04212,17.49527 -4.48163,1.80392 -3.37228,-8.37801 c -0.79369,0.78474 -1.78602,1.41682 -2.97699,1.89623 -2.40254,0.96703 -4.57191,0.92754 -6.50814,-0.11847 -1.92184,-1.03991 -3.55638,-3.2334 -4.90364,-6.58049 -1.34726,-3.3471 -1.69021,-6.06645 -1.02884,-8.15804 0.67576,-2.08547 2.2149,-3.61173 4.61742,-4.57878 2.53599,-1.02077 4.73923,-1.00088 6.60974,0.0597 2.04955,1.17937 3.71696,3.3656 5.00224,6.5587"
       id="path3179" />
    <path
       d="m 544.6555,236.15444 -1.05195,-3.67059 4.54834,-1.30351 -0.79125,-2.76092 c -0.54581,-1.90446 -0.59953,-3.47789 -0.16116,-4.7203 0.45203,-1.23482 1.36429,-2.0489 2.73679,-2.44224 1.37246,-0.39334 2.57212,-0.18451 3.59898,0.62648 1.0405,0.81859 1.83366,2.1801 2.37948,4.08456 l 1.8432,6.43152 -2.50558,0.71807 -1.72429,-6.01659 c -0.2287,-0.79795 -0.5583,-1.36551 -0.98879,-1.70266 -0.43053,-0.33715 -0.92772,-0.42492 -1.49159,-0.26332 -0.58519,0.1677 -0.97943,0.49944 -1.18272,0.99521 -0.20029,0.50641 -0.18151,1.17455 0.0563,2.00443 l 1.72429,6.01658 -6.99009,2.00328"
       id="path3181" />
    <path
       d="m 550.16127,239.78755 9.18988,-1.95963 0.79977,3.75064 -5.16322,1.10099 c 0.5724,1.14539 0.91285,1.97246 1.02136,2.4812 0.47546,2.22981 0.44513,3.94508 -0.091,5.14579 -0.52531,1.19839 -1.53484,1.95685 -3.02858,2.27539 -1.52625,0.32544 -2.80022,0.003 -3.82192,-0.96738 -1.00859,-0.96186 -1.731,-2.46569 -2.16722,-4.51149 -0.38779,-1.81849 -0.31468,-3.41273 0.2193,-4.78273 0.54478,-1.37231 1.55865,-2.21657 3.0416,-2.53278 m -0.89383,6.79379 c 0.12693,0.59534 0.43753,1.12322 0.93181,1.58366 0.50738,0.46894 1.12369,0.62609 1.84894,0.47145 0.68191,-0.14542 1.15265,-0.51174 1.41221,-1.09895 0.26184,-0.5764 0.3189,-1.21098 0.1712,-1.90373 -0.15928,-0.74689 -0.46403,-1.32694 -0.91426,-1.74018 -0.44796,-0.40241 -1.03454,-0.52629 -1.75976,-0.37164 -0.69277,0.14772 -1.18054,0.5403 -1.46331,1.17775 -0.27198,0.63513 -0.34759,1.26234 -0.22683,1.88164"
       id="path3183" />
  </g>
  <rect
     width="14.07594"
     height="14.07594"
     x="446.71725"
     y="-262.53128"
     transform="matrix(0.70692788,0.70728563,-0.70692788,0.70728563,0,0)"
     id="rect3003"
     style="fill:#ffffff;fill-opacity:1;stroke:none" />
  <rect
     width="14.07594"
     height="14.07594"
     x="642.77325"
     y="-133.72714"
     transform="matrix(0.70692788,0.70728563,-0.70692788,0.70728563,0,0)"
     id="rect3005"
     style="fill:#ffffff;fill-opacity:1;stroke:none" />
  <rect
     width="14.07594"
     height="14.07594"
     x="661.46552"
     y="71.275284"
     transform="matrix(0.70692788,0.70728563,-0.70692788,0.70728563,0,0)"
     id="rect3007"
     style="fill:#ffffff;fill-opacity:1;stroke:none" />
  <rect
     width="14.07594"
     height="14.07594"
     x="556.40936"
     y="208.69598"
     transform="matrix(0.70692788,0.70728563,-0.70692788,0.70728563,0,0)"
     id="rect3009"
     style="fill:#ffffff;fill-opacity:1;stroke:none" />
  <rect
     width="14.07594"
     height="14.07594"
     x="207.64505"
     y="144.63487"
     transform="matrix(0.70692788,0.70728563,-0.70692788,0.70728563,0,0)"
     id="rect3011"
     style="fill:#ffffff;fill-opacity:1;stroke:none" />
  <path
     d="m 299.46361,71.60759 c -23.70039,0 -48.1659,4.21906 -70.54512,11.41626 -25.57525,8.22505 -48.18401,21.11891 -68.24082,36.38759 1.53477,-0.3414 26.76759,-5.55087 38.30495,-7.52314 8.40771,-1.43727 22.05092,-4.17614 30.8798,-5.25418 9.28178,-1.13334 21.30674,-1.99428 30.6468,-2.43891 7.40468,-0.35249 18.04172,-0.93041 25.63045,-0.7821 6.86823,0.13422 22.01041,0.94441 22.01041,0.94441 l -3.39032,14.03055 c 0,0 19.14993,0.68433 27.67945,1.16662 5.72151,0.32351 15.09742,1.35911 20.94074,1.99993 6.91902,0.75879 16.31958,1.70313 23.17862,2.88769 5.86745,1.01332 13.79626,2.53281 19.57491,3.96881 6.75939,1.67972 19.81496,6.30534 19.81496,6.30534 l -5.14652,8.74338 c 0,10e-6 12.7597,6.08795 17.92392,8.73258 3.89683,1.99559 8.8757,4.91991 12.71316,7.02753 3.75259,2.061 8.23607,5.2358 11.74146,7.69417 4.13117,2.89722 9.64872,5.88279 13.55367,9.07865 4.17147,3.414 12.68321,11.27737 12.68321,11.27737 1.00599,1.342 6.67983,5.87587 9.13503,8.72192 2.77261,3.21386 7.44368,8.94412 7.44368,8.94412 l -13.43826,-9.19848 c -2e-5,0 -10.97633,-7.58721 -15.65926,-10.47185 -6.07552,-3.74245 -13.71785,-7.63441 -20.07029,-10.88414 -6.63751,-3.39555 -15.13601,-6.86711 -21.98809,-9.8052 -6.85209,-2.9381 -15.98002,-5.87163 -22.98755,-8.41637 -4.80325,-1.74428 -14.61665,-4.65935 -14.61665,-4.65935 l -9.60591,-2.06723 0.0689,-6.55073 c 0,10e-6 -11.11299,-2.18779 -18.26788,-3.22211 -8.02564,-1.16019 -19.86808,-3.52758 -27.4285,-4.14201 -7.11126,-0.57792 -16.52209,-1.11338 -23.65495,-1.27446 -5.86541,-0.13247 -14.56895,-0.25804 -20.43664,-0.004 -5.64441,0.24507 -19.26407,1.11435 -19.26407,1.11435 l -0.13882,-10.08298 c 10e-6,-1e-5 -16.65555,0.58825 -23.51504,1.24996 -8.55682,0.82544 -19.85584,1.99879 -28.37679,3.1366 -8.13593,1.08639 -16.78028,2.90421 -25.56621,4.02981 -7.10597,0.91038 -18.18193,3.24197 -25.20857,4.63872 -5.70535,1.13411 -11.90214,2.81348 -17.54605,4.22208 -5.12565,1.27925 -17.12962,4.08318 -17.12962,4.08318 0,0 0.68753,-0.81152 1.80458,-2.08326 -13.9277,15.09378 -25.55623,32.08781 -35.23092,50.99819 0,1e-5 52.04752,-17.88638 74.79283,-24.08248 18.65444,-5.08168 43.4669,-11.59463 62.71494,-13.41182 25.03284,-2.36333 41.78653,-4.3503 59.60769,-3.36536 20.94389,1.15754 37.40105,2.50557 53.30446,4.69428 10.01561,1.37841 23.34572,3.64091 33.12095,6.222 12.5833,3.32254 28.853,9.49719 41.03334,14.08283 6.05816,2.28078 14.17581,5.29011 19.96141,8.19416 5.49627,2.75882 12.35393,7.30311 17.57381,10.55518 4.24973,2.64765 9.92062,6.18032 14.02018,9.05523 4.59015,3.21894 10.08174,7.70277 14.37783,11.30516 3.18017,2.66666 10.16119,9.55631 10.16119,9.55631 0,0 6.52642,5.86955 8.8552,8.80414 0.75621,0.95293 0.82311,2.69653 0.82311,2.69653 l 8.73598,-1.33437 1.38378,-0.35674 C 515.44245,227.93572 511.96843,217.97389 507.85074,208.38022 473.52924,128.41535 391.91422,71.6073 299.46358,71.6073 z"
     id="path3013"
     style="fill:#02008f;fill-opacity:1;fill-rule:evenodd;stroke:none" />
  <path
     d="m 517.40116,363.34722 c -0.41639,-2.75598 -2.08207,-4.203 -4.04492,-5.92601 -1.72982,-1.74022 -4.63882,-4.55375 -6.33834,-6.32356 -1.90199,-1.98057 -5.05788,-5.18099 -7.16279,-6.94419 -2.13822,-1.79109 -5.33551,-3.94887 -7.6348,-5.52758 -2.55248,-1.75259 -5.18415,-3.54799 -7.85684,-5.11093 -3.47975,-2.03487 -7.58468,-4.30688 -11.20772,-6.07379 -2.75964,-1.34583 -7.18054,-3.24555 -10.05854,-4.31473 -2.0891,-0.7761 -4.58782,-1.4866 -7.10727,-2.13882 -2.51944,-0.65221 -5.05759,-1.25991 -7.21831,-1.80549 -3.58728,-0.90578 -8.44621,-1.99085 -12.09522,-2.60191 -2.61265,-0.43751 -5.91954,-1.08529 -8.55115,-1.38839 -4.44213,-0.51164 -10.49685,-1.08547 -14.94546,-1.53728 -4.4277,-0.44967 -10.3328,-0.82027 -14.76978,-1.16662 -5.33815,-0.41672 -12.59558,-0.91082 -17.94384,-1.16685 -3.8785,-0.18567 -9.0095,-0.24457 -12.89124,-0.14822 -5.14032,0.1276 -11.88184,0.35021 -17.00012,0.84286 -3.33818,0.32131 -8.76586,0.51392 -12.09523,0.91641 -4.15759,0.50262 -10.03071,1.19991 -14.02929,1.71327 -4.1827,0.53701 -9.93702,1.13692 -14.10369,1.78683 -4.2915,0.66936 -8.42708,1.61567 -12.71534,2.30547 -4.72639,0.76029 -11.25151,2.4849 -15.93581,3.4721 -7.40404,1.56036 -17.69642,4.24423 -24.11672,5.60158 -2.79668,0.59126 -8.46664,2.2045 -11.22525,2.95367 -4.04382,1.09819 -8.00084,2.04107 -12.02127,3.22211 -3.53616,1.03879 -8.45909,2.74862 -12.02126,3.69431 -5.05375,1.34168 -10.92105,3.46287 -14.79754,4.63873 -5.30802,1.61011 -10.43648,3.59703 -15.71371,5.30537 -4.56845,1.47889 -11.39542,4.21457 -15.93582,5.77757 -3.77498,1.2995 -8.95841,3.28785 -12.71533,4.63872 -4.55993,1.63962 -10.00116,3.62888 -14.54768,5.30537 -5.02528,1.85303 -11.40607,4.11176 -16.40778,6.02756 -2.38701,0.91431 -5.17787,2.07925 -7.99567,3.22211 -2.8178,1.14286 -5.67186,2.24303 -8.19001,2.99989 -4.43065,1.33169 -10.17357,3.82591 -14.54767,5.33315 -1.83448,0.63213 -4.96835,1.43155 -7.69028,2.22214 -1.36097,0.39529 -2.63429,0.79746 -3.5814,1.16663 -0.9471,0.36917 -1.58409,0.70074 -1.69352,0.99996 0.93609,2.28922 1.90732,4.55403 2.91509,6.80531 1.2799,2.39006 2.63746,4.74984 2.63746,4.74984 l 6.27437,13.02731 c 11.875,21.3071 27.04988,40.48641 44.86459,56.88687 0.63843,-0.47537 5.00933,-3.7291 7.32937,-5.3887 3.01229,-2.15477 7.41577,-4.76577 10.41102,-6.9442 4.9303,-3.58573 12.00374,-8.21255 17.10185,-11.55514 3.82023,-2.50475 8.10207,-5.50076 12.40995,-8.44415 4.30788,-2.94339 8.64276,-5.8533 12.54876,-8.22193 4.64754,-2.8183 12.40811,-7.42569 17.10185,-10.1663 6.68501,-3.90332 15.65059,-8.93906 22.40453,-12.72177 3.82895,-2.1445 8.3283,-4.71031 12.85415,-7.22197 4.52584,-2.51166 9.0709,-4.94834 13.02072,-6.86087 5.93692,-2.87469 12.67425,-6.04675 19.43392,-9.13856 6.75967,-3.09181 13.54959,-6.10531 19.62826,-8.66636 2.40852,-1.01475 5.64493,-2.298 8.07895,-3.24988 3.80139,-1.48664 8.89801,-3.41573 12.71534,-4.86094 2.76998,-1.0487 6.44913,-2.49455 9.24499,-3.4721 2.54567,-0.89007 6.17789,-2.01666 8.77303,-2.7499 3.98076,-1.12474 8.31362,-2.43019 12.24337,-3.72209 5.81253,-1.91088 10.0601,-3.22003 14.10347,-4.13874 2.82818,-0.6426 7.03951,-1.7187 10.16116,-2.33325 4.29568,-0.8457 10.04344,-2.00774 14.35334,-2.77768 3.80355,-0.67948 8.85017,-1.63297 12.68757,-2.08326 2.89928,-0.34022 6.79876,-0.59232 9.71696,-0.66665 3.39664,-0.0865 7.92964,0.18753 11.3272,0.22222 3.60482,0.0368 8.64706,-0.0284 12.24337,0.22221 3.4917,0.24335 7.85829,0.92201 11.3272,1.38884 2.14762,0.28903 5.02001,0.59366 7.16278,0.91664 4.03478,0.60816 8.51168,1.54686 12.46547,2.55546 3.12288,0.79662 8.09662,2.53818 11.1051,3.69431 1.47862,0.56822 3.2047,1.12939 4.914,1.72217 1.70929,0.59277 3.38527,1.21217 4.77519,1.97215 2.27787,1.24548 5.10088,3.32022 7.19059,4.86094 1.78677,1.31739 4.07246,3.21359 5.77465,4.63872 0.84772,0.70978 1.67625,2.03885 2.58189,3.13878 1.09781,1.36957 3.06066,2.25826 4.47847,1.10174 0.42137,-1.49345 0.72449,-2.99256 0.54663,-4.49051 z"
     id="path3017"
     style="fill:#02008f;fill-opacity:1;stroke:none" />
  <path
     d="m 110.96222,213.31223 35.73524,-12.42269 19.75792,24.78227 18.5028,23.74632 12.87756,16.94082 0.59604,-27.26115 0.18053,-22.68643 30.42542,4.32445 16.44065,-0.0784 -0.77657,24.2643 -1.81199,41.0593 -2.22748,38.46724 -17.72623,4.93601 -26.52734,7.04706 -10.72188,-13.65451 -14.94189,-17.35869 -13.789,-16.24439 -9.19266,-9.79364 -0.98757,12.61856 -2.18832,40.83079 -1.5923,21.51772 -20.62802,6.08947 -18.37011,4.63783 2.07085,-21.99652 1.63146,-26.93251 1.37259,-25.99886 1.07458,-24.60163 0.33716,-26.67353 0.47856,-25.55923 z"
     id="path3019"
     style="fill:#02008f;fill-opacity:1;fill-rule:evenodd;stroke:none" />
  <path
     d="m 98.52451,206.20137 32.88782,-12.1637 18.46364,26.07721 17.72623,24.26429 30.4798,38.17779 1.63145,-30.369 -0.59603,-37.18972 17.4826,-1.37328 16.69951,-1.1143 -1.03543,26.07721 -1.29428,40.02335 -2.22748,37.94927 -18.24394,5.71296 -19.79707,4.71618 -13.05159,-14.69046 -14.68303,-16.32274 -12.23586,-14.69046 -8.15724,-9.79365 -7.41982,-7.72174 -0.81573,21.11727 -2.18831,40.83079 -1.59231,21.51771 -20.62801,6.08947 -16.04041,4.89683 -0.25885,-22.25552 1.63145,-26.93251 1.37259,-25.99886 1.07458,-24.60162 0.33716,-26.67353 0.47856,-25.55924 z"
     id="path3021"
     style="fill:#fa0100;fill-opacity:1;fill-rule:evenodd;stroke:#000000;stroke-width:2.50000024;stroke-linecap:butt;stroke-linejoin:miter;stroke-miterlimit:4;stroke-opacity:1;stroke-dasharray:none" />
  <path
     d="m 494.99872,246.51374 c -0.19741,-1.04195 -0.64472,-4.84268 -1.15084,-5.82912 -0.58395,-1.13801 -2.00194,-4.66224 -3.82051,-6.33328 -1.95287,-1.7945 -3.54522,-5.57264 -5.68754,-7.13585 -39.58672,-19.01235 -78.14259,-15.73047 -120.53235,-12.28861 -1.3951,1.16491 -3.30037,2.99765 -4.14714,4.60623 -0.61262,1.16377 -1.86222,5.99654 -1.88241,7.31168 -0.0528,3.43671 -0.1727,8.29451 0.33248,11.15125 0.56925,3.21907 2.78762,8.086 3.94057,10.83368 0.78064,1.86041 2.46085,3.19222 3.66743,4.80896 1.46177,1.95867 4.44201,4.18057 6.2417,5.8338 1.7502,1.60778 4.31975,3.48624 6.2876,4.81848 2.66784,1.80614 5.30494,3.12793 8.28477,4.35197 2.18328,0.89684 1.1581,1.34291 7.2375,3.56794 2.42661,0.88812 6.95417,1.67822 9.5078,2.07264 2.62919,0.4061 8.78634,0.62568 10.58754,0.79357 2.57219,0.23976 8.44311,0.9381 11.41315,1.33846 2.68881,0.36245 5.17581,0.63313 5.74693,3.28678 0.68782,3.196 -0.97773,2.52259 -3.04771,4.10888 l -77.59009,-2.21704 -10.64107,3.57962 -8.89744,2.53915 c 0,0 1.18014,3.87194 3.70675,5.94353 1.99925,1.6392 3.69669,2.28832 5.82135,3.76116 2.52533,1.75058 3.97922,2.05577 6.66992,3.53938 2.97298,1.63925 3.6362,1.91064 6.70632,3.35961 3.71747,1.7545 7.35766,2.59918 11.1725,4.13022 1.71989,0.69026 10.10506,2.37484 11.94039,2.631 2.51206,0.35061 10.88051,2.35916 14.97928,2.6579 2.84984,0.20772 10.50821,0.96174 13.33753,1.36143 2.87473,0.40611 6.92772,0.32118 9.82127,0.55836 3.00663,0.24644 8.55356,0.32668 9.08745,0.29065 2.80542,-0.18929 6.40943,-0.1545 9.41042,-0.7017 2.43551,-0.4441 7.46865,-1.02878 8.13755,-1.29648 0.66889,-0.26769 6.77379,-1.97264 9.58794,-3.01062 3.04888,-1.12456 6.35354,-1.96171 9.27486,-3.84245 2.05238,-1.32133 5.39012,-3.99057 7.07683,-5.75539 1.31537,-1.37629 3.12771,-3.54832 4.28092,-5.06322 1.00528,-1.32055 3.07783,-3.33504 3.6999,-4.87391 0.58434,-1.44555 1.53973,-4.05482 2.20538,-5.46473 0.90885,-1.92507 1.61554,-3.24926 2.12701,-5.39027 0.454,-1.90046 1.12162,-4.40302 0.63249,-7.18179 -0.30918,-1.75655 0.0309,-4.87707 -0.42822,-6.60047 -0.51664,-1.93914 -2.26074,-5.20813 -3.19168,-6.83174 -1.7824,-3.1086 -8.45126,-8.44447 -10.60654,-9.29248 -20.48882,-8.16674 -43.37697,-8.85912 -50.44477,-9.59888 -2.87576,-0.54298 -3.32537,-0.50333 -4.93367,-1.00976 -2.41601,-0.76078 -3.12844,-1.01452 -4.41897,-1.77642 -0.79982,-0.4722 -1.60262,-1.16748 -1.7601,-2.6854 -0.18539,-1.78692 0.38561,-2.45587 0.71214,-3.20853 0.65419,-1.5079 2.22584,-2.62051 3.27691,-3.37355 1.43963,-1.03144 4.28064,-2.01512 6.45082,-2.58444 2.18468,-0.5731 4.46074,-1.05254 6.74611,-1.21641 1.96151,-0.14064 5.75239,-0.11349 7.71567,0 2.78313,0.16089 5.33448,0.006 7.96472,0.3319 3.26635,0.40394 7.17496,1.45959 10.25202,2.62796 1.71169,0.64994 5.96202,3.77809 7.48943,4.788 1.32923,0.87887 3.9814,3.23244 4.98113,4.47364 1.091,1.35452 1.61661,3.12696 2.37775,4.70187 0.52526,1.08685 0.93214,2.64977 0.93214,2.64977 l 12.89955,0.61568 11.02487,0.75297 7.43426,0.38442 z"
     id="path3023"
     style="fill:#02008f;fill-opacity:1;fill-rule:evenodd;stroke:none" />
  <path
     d="m 494.69888,234.17529 c 0,0 -2.80941,-4.74884 -3.3445,-5.62156 -0.28846,-0.4704 -3.93397,-4.21821 -5.75249,-5.88924 -1.95288,-1.79451 -4.68039,-4.05834 -6.82272,-5.62156 -2.1587,-1.57517 -5.14111,-3.54746 -7.49161,-4.81846 -2.513,-1.35888 -6.04959,-2.80471 -8.69562,-3.88155 -2.25826,-0.91903 -5.28728,-2.11995 -7.62539,-2.81078 -3.1562,-0.93254 -6.52411,-1.78994 -9.75633,-2.40924 -4.0308,-0.7723 -8.88687,-2.09088 -12.94408,-2.7094 -3.28806,-0.50126 -8.40786,-1.19743 -11.72663,-1.41687 -3.00374,-0.1986 -7.78241,-0.36796 -10.79017,-0.24473 -4.09983,0.16797 -8.43095,0.30494 -12.51028,0.74764 -2.98501,0.32393 -8.15631,1.56418 -11.03477,2.41875 -3.51224,1.04273 -6.75659,2.56583 -9.96849,4.32902 -2.8498,1.56441 -6.79052,3.99467 -9.28615,6.07852 -1.3951,1.16491 -3.30037,2.99765 -4.14714,4.60623 -0.61262,1.16377 -1.68693,3.36097 -1.88241,4.66165 -0.43117,2.86885 -0.80522,6.73585 -0.80267,9.63695 0.002,1.89406 -0.0503,4.48955 0.53511,6.29078 0.62359,1.91883 2.27167,4.13866 3.47825,5.75541 1.46177,1.95866 3.68524,4.36985 5.48492,6.02308 1.75021,1.60777 4.31975,3.48623 6.28761,4.81848 2.66784,1.80614 6.29822,4.15415 9.23073,5.4877 2.46101,1.11913 5.91964,2.23904 8.56184,2.81078 2.52548,0.54648 5.81903,0.92107 8.37265,1.3155 2.6292,0.40609 7.65119,1.00424 9.45239,1.17213 2.57219,0.23976 6.362,1.1274 9.33205,1.52776 2.68881,0.36245 6.25787,0.99891 8.96317,1.20462 2.20137,0.16739 4.71967,0.12464 6.79026,0.89099 1.12293,0.41561 2.84223,1.80134 3.2661,2.92166 0.54662,1.44471 -0.53589,3.30416 -1.18105,4.70759 -0.59481,1.29389 -1.26848,1.89691 -2.32015,2.8567 -1.59593,1.4565 -3.89493,3.31166 -5.88626,4.14924 -1.42955,0.60129 -3.54199,0.76873 -5.0836,0.93693 -2.27553,0.24827 -5.3412,0.41653 -7.62539,0.26769 -2.92328,-0.19049 -6.79624,-0.87095 -9.63207,-1.60616 -2.43304,-0.63079 -5.58828,-1.8074 -7.89294,-2.81077 -2.15621,-0.93874 -4.86134,-2.54567 -6.9565,-3.61385 -1.43925,-0.73379 -3.36305,-1.70307 -4.81603,-2.40924 -2.11546,-1.02815 -5.0575,-2.16276 -7.09028,-3.34616 -1.14525,-0.66672 -2.54608,-1.75564 -3.61202,-2.54308 -1.26578,-0.93507 -4.14714,-3.21232 -4.14714,-3.21232 l -7.35783,-0.13385 -11.31578,1.26006 -10.56459,0.60428 -10.76165,1.34797 -4.14714,0.2677 c 0,0 5.50012,5.28996 8.02673,7.36155 1.99925,1.6392 4.83184,3.61333 6.95649,5.08617 2.52533,1.75059 5.87114,4.13794 8.56184,5.62155 2.97298,1.63925 7.23085,3.80352 10.30097,5.25249 3.71747,1.7545 8.4928,3.92419 12.30764,5.45523 1.7199,0.69026 5.8334,2.22675 7.58898,2.82029 3.83641,1.29705 7.09668,2.54844 11.00626,3.60433 2.75865,0.74505 6.53519,1.34032 9.36451,1.74001 2.87473,0.40611 7.3061,1.07833 10.19965,1.3155 3.00663,0.24645 8.93072,0.29066 9.46584,0.29066 0.53511,0 7.04199,0.10271 10.04297,-0.44449 2.43552,-0.4441 7.22811,-1.60031 8.95063,-2.18369 1.447,-0.49008 6.29415,-2.9321 8.97566,-4.27639 2.98678,-1.49734 6.14695,-3.53815 8.81989,-5.54315 1.95271,-1.46475 4.63335,-3.80129 6.32006,-5.5661 1.31537,-1.37629 2.56013,-3.35903 3.71335,-4.87393 1.00527,-1.32056 2.32106,-3.14575 2.94313,-4.68462 0.58434,-1.44555 1.57852,-4.30397 1.82699,-5.84332 0.34129,-2.11435 0.10201,-4.19569 0.0459,-6.3367 -0.0512,-1.95331 -0.39191,-4.5923 -1.07023,-6.42464 -0.61916,-1.67254 -1.86352,-3.77952 -3.07691,-5.08616 -1.2734,-1.37128 -2.54496,-2.63179 -4.13763,-3.61386 -1.97159,-1.21572 -5.61339,-2.76585 -7.76867,-3.61385 -2.59114,-1.0195 -6.24437,-1.80859 -8.96318,-2.40924 -2.74467,-0.60636 -6.43802,-1.28775 -9.23073,-1.60616 -2.91528,-0.33238 -7.21805,-0.88694 -10.14423,-1.10325 -3.45697,-0.25553 -7.6786,-0.14598 -11.12659,-0.5029 -3.17413,-0.32857 -7.46763,-0.45101 -10.56852,-1.20462 -2.08602,-0.50696 -4.78048,-1.55973 -6.68894,-2.54308 -1.92969,-0.99429 -4.42559,-2.54188 -6.02004,-4.0154 -1.23858,-1.14462 -2.77744,-2.8826 -3.47825,-4.41692 -0.44166,-0.96696 -0.74733,-2.19861 -0.66889,-3.29072 0.12742,-1.77403 0.9294,-3.52125 2.24177,-4.65216 1.33003,-1.14612 4.91521,-2.75722 6.61475,-3.19657 1.7203,-0.44471 4.7461,-1.12302 6.50278,-1.38973 2.27885,-0.34597 4.89422,-0.40443 7.12503,-0.64323 2.39568,-0.25645 4.35524,-0.24934 6.76426,-0.2895 1.96628,-0.0328 4.90839,0.0976 6.87166,0.21111 2.78314,0.16088 6.495,0.53439 9.23074,1.07077 3.22977,0.63324 7.49146,1.77625 10.56852,2.94462 1.71169,0.64994 3.95751,1.66702 5.48493,2.67693 1.32922,0.87887 3.48756,2.15571 4.77012,3.10144 1.40751,1.03785 2.83615,2.35379 4.19306,3.45704 0.94726,0.77018 2.80935,2.94461 2.80935,2.94461 l 10.36754,0.40458 9.65336,0.54186 9.54424,-0.14335 z"
     id="path3025"
     style="fill:#fa0100;fill-opacity:1;fill-rule:evenodd;stroke:#000000;stroke-width:2.50000024;stroke-linecap:butt;stroke-linejoin:miter;stroke-miterlimit:4;stroke-opacity:1;stroke-dasharray:none" />
  <path
     d="m 470.2326,441.54035 c -1.28423,0.037 -2.7684,0.0268 -3.91492,0.0541 -1.30884,0.0312 -3.07781,-0.0363 -4.38651,0 -1.31072,0.0364 -3.04886,0.16322 -4.35875,0.22222 -2.10838,0.095 -4.86576,0.23178 -6.96808,0.41774 -2.04923,0.18127 -4.64853,0.60704 -6.69009,0.86035 -1.37901,0.17112 -3.36233,0.37169 -4.7204,0.66601 -1.57353,0.341 -4.07386,0.91538 -5.64329,1.16299 -2.24566,0.35431 -4.45969,0.93991 -6.68155,1.42162 -1.30568,0.28307 -3.04627,0.5258 -4.27274,0.85653 -1.68836,0.45529 -3.84824,0.98231 -5.54705,1.39694 -1.94027,0.47357 -4.43608,1.11926 -6.36553,1.63528 -1.26674,0.33878 -3.24587,0.92184 -4.5001,1.30441 -2.22738,0.67945 -4.06353,1.14196 -6.27645,1.86716 -1.11665,0.36592 -3.74677,1.22974 -4.82828,1.68937 -1.4682,0.62394 -3.46616,1.32973 -4.91437,1.99883 -1.38826,0.64141 -3.62246,1.4641 -5.05858,1.98952 -2.40249,0.87901 -5.15268,1.91137 -7.54571,2.81587 -1.97785,0.74759 -4.5845,1.88053 -6.52424,2.72212 -1.92128,0.83357 -4.33818,1.80397 -6.24662,2.66658 -1.95733,0.88472 -4.46827,1.95987 -6.40279,2.89343 -1.99566,0.96309 -4.9966,2.25697 -7.00661,3.18968 -2.2131,1.02696 -5.12621,2.48099 -7.27384,3.63876 -1.40574,0.75785 -3.45565,1.74267 -4.8816,2.46173 -2.12358,1.07085 -4.82883,2.3749 -7.00085,3.34362 -1.75386,0.78222 -4.02586,1.93746 -5.80242,2.66657 -1.57525,0.64648 -3.69273,1.55703 -5.26219,2.2175 -1.8592,0.78238 -4.29724,1.84197 -6.14829,2.64344 -2.2189,0.96072 -5.19453,2.17517 -7.49594,2.91656 -1.9311,0.62208 -4.07119,1.52758 -5.99675,2.16659 -2.01269,0.66795 -4.94435,1.76684 -6.91293,2.55547 -4.42614,1.77314 -10.50066,3.84324 -14.99188,5.44425 -1.79842,0.64108 -4.21086,1.44003 -6.05227,1.94438 -2.51864,0.68984 -5.96002,1.52377 -8.4954,2.14922 -2.48373,0.61271 -5.68682,1.29893 -8.18211,1.86261 -2.30987,0.52176 -5.21924,0.98501 -7.56518,1.30782 -2.45939,0.3384 -5.15557,0.81538 -7.60165,1.2395 -1.70345,0.29536 -4.87865,0.75766 -6.59509,0.96452 -3.15094,0.37975 -6.98225,0.86925 -9.97183,1.08945 -5.47691,-0.57027 29.52349,9.12831 30.33771,9.3029 1.56948,0.34986 4.02245,1.05397 5.91347,0.30555 29.80965,-11.79796 66.6777,-21.94366 107.52509,-21.94366 10.838,0 20.75481,-0.0932 31.05243,0.8498 7.9955,-3.99769 18.3165,-9.67743 27.93927,-16.43483 9.55552,-6.71017 18.41281,-13.92096 26.37351,-20.82276 12.86691,-11.15539 21.30456,-21.79354 20.86751,-22.75644 -1.21696,-0.80424 -2.89533,-0.67519 -4.92611,-0.94329 z"
     id="path3561"
     style="fill:#fa0100;fill-opacity:1;stroke:#000000;stroke-width:2.50000024;stroke-linecap:square;stroke-linejoin:miter;stroke-miterlimit:4;stroke-opacity:1;stroke-dasharray:none" />
  <g
     transform="matrix(0.7555497,0,0,0.75593207,-272.29886,-188.39858)"
     id="g3338">
    <path
       d="m 721.10416,682.70089 52.53492,121.739 -53.29504,120.54866 -52.14613,-122.12774 52.90625,-120.15992 z"
       id="path3576"
       style="fill:#e5001a;fill-opacity:1;fill-rule:evenodd;stroke:none" />
    <path
       d="m 843.15756,776.28817 -13.73996,57.76118 -2.52008,0 0.10379,2.86382 10.625,0.0937 -0.25,-3.03125 -3.51004,-0.0737 2.83258,-15.32139 10.30246,-0.0737 3.4375,15.625 -3.4375,0 0.15625,2.6875 24.78125,0 -0.0625,-2.75 -3.6875,0 -13.3125,-57.6875 -11.71875,-0.0937 z m -1.58257,21.11176 4.58143,16.98199 -8.52783,0.0837 3.9464,-17.0657 z"
       id="path3406"
       style="fill:#000000;fill-opacity:1;fill-rule:evenodd;stroke:none" />
    <path
       d="m 811.68881,776.41317 c -13.07292,0.0521 -26.14583,0.10417 -39.21875,0.15625 4.07292,9.33333 8.14583,18.66667 12.21875,28 -4.63542,10.72917 -9.27083,21.45833 -13.90625,32.1875 11.08333,0.0312 22.16667,0.0625 33.25,0.0937 -0.24063,-0.82069 0.34933,-2.4816 -0.42978,-2.75758 -1.27341,-0.0287 -2.54681,-0.0575 -3.82022,-0.0862 0.0208,-9.54167 0.0417,-19.08333 0.0625,-28.625 2.99503,0.79846 4.1507,3.71115 4.27766,6.65487 0.74519,6.15438 -0.28958,12.5209 1.40766,18.54196 1.42259,4.34108 5.1507,8.46467 10.03046,8.3571 3.62101,0.16592 7.37226,-1.27682 9.81547,-3.96018 1.09248,-1.17039 2.22476,-4.66035 1.02531,-5.04212 -1.30767,2.3062 -5.35945,2.82987 -4.40452,-0.69286 -0.14626,-4.72365 0.14588,-9.49644 -0.47098,-14.18607 -1.05905,-4.42934 -4.31372,-7.98713 -7.93106,-10.57895 3.42405,0.63361 5.88287,-2.46544 7.5225,-5.00528 2.18462,-4.36054 2.14258,-9.6287 0.9276,-14.26375 -1.33659,-4.68293 -5.52408,-8.21121 -10.35635,-8.79347 z m -11.90512,2.97102 c 1.89016,0.39539 3.46471,0.41514 4.30721,1.99881 1.01407,2.20375 0.42162,19.21865 -0.0445,19.73259 l -1.46624,1.6166 -2.63822,0.026 c -0.28135,0.003 -0.1613,-16.14078 -0.15824,-23.37404 z"
       id="path3408"
       style="fill:#000000;fill-opacity:1;fill-rule:evenodd;stroke:none" />
    <path
       d="m 909.03454,816.90221 c -0.0908,2.26422 0.1354,4.56639 -0.56539,6.75761 -0.55644,2.36037 -0.86405,4.81262 -2.16813,6.92046 -1.72083,3.56698 -4.78215,6.5286 -8.38252,8.16097 -3.95981,1.11536 -8.19289,-0.095 -11.59817,-2.21994 -3.54748,-2.19553 -7.09144,-5.00282 -8.81112,-8.91203 -1.72529,-4.62602 -3.33733,-9.36503 -3.68906,-14.32426 -0.80366,-5.93928 -1.05869,-12.12984 0.769,-17.91245 0.43015,-2.71706 1.65279,-5.13681 2.96414,-7.51257 1.69716,-3.12368 3.28913,-6.58479 6.4489,-8.50342 1.64834,-1.57826 3.77301,-2.39084 5.85159,-3.19651 2.49701,-0.77131 4.9985,-0.63359 7.53429,-0.13699 2.81967,-0.70995 4.46979,3.82933 6.90482,2.40639 1.08975,-1.21772 1.95384,-3.68412 3.90859,-3.25628 1.3108,-0.36941 1.114,0.72387 1.08122,1.65801 0.0472,6.72254 0.0945,13.44507 0.14168,20.1676 -2.20544,0.28215 -2.80781,-0.43095 -2.65008,-2.53171 -0.31438,-2.51025 -1.41917,-4.89636 -2.58007,-7.13496 -0.90993,-2.60071 -2.89982,-4.47268 -4.97636,-6.1375 -1.87998,-1.63662 -4.7416,-0.0471 -6.0051,1.72004 -2.65244,3.11911 -2.9431,7.44476 -2.78834,11.36366 0.29875,8.03143 -0.23865,16.06393 -0.0419,24.09696 -0.0288,4.43786 0.0177,9.15237 2.54888,13.00153 0.79903,2.44284 3.60654,3.09565 5.82645,2.32486 2.21617,-1.13044 4.41795,-2.69227 5.37363,-5.08813 1.29218,-2.61521 1.93776,-5.53945 2.48195,-8.39682 0.42191,-1.67242 -0.38794,-3.98136 2.00988,-3.31452 0.13709,0 0.27417,0 0.41125,0 z"
       id="path3418"
       style="fill:#000000;fill-opacity:1;fill-rule:evenodd;stroke:none" />
    <path
       d="m 705.36556,719.31859 c -0.0882,0.11276 -1.56262,3.56331 -1.625,3.625 0.31158,0.42975 15.12362,20.47738 15.59375,20.90625 -0.0417,16.42708 -0.20833,33.07292 -0.25,49.5 -8.89583,-2.73958 -17.79167,-5.47917 -26.6875,-8.21875 2.70833,6.08333 5.41667,12.16667 8.125,18.25 -9.53125,1.76042 -19.0625,3.52083 -28.59375,5.28125 8.4375,4.26042 16.875,8.52083 25.3125,12.78125 -1.83333,5.125 -3.66667,10.25 -5.5,15.375 9.08333,0.0625 18.16667,0.125 27.25,0.1875 -0.0312,10.32292 -0.0625,30.92558 -0.0937,30.96875 -0.0924,-0.0104 -18.64644,0.18896 -18.84375,-0.0312 -0.0385,0.22241 2.09731,4.145 2.15625,4.53125 0.29809,0.0536 37.26767,0.0637 37.53125,0.15625 0.0235,-0.0821 1.84679,-4.28663 2,-4.53125 -0.59488,-0.13709 -19.33858,-0.18875 -19.34375,-0.0937 -0.0736,-0.26337 0.0625,-20.66667 0.0937,-31 2.9375,0.0208 5.875,0.0417 8.8125,0.0625 -2.69792,4.60417 -5.39583,9.20833 -8.09375,13.8125 9.91667,0.0729 19.83333,0.14583 29.75,0.21875 7.14583,-15.35417 19.66183,-46.42052 20.07386,-47.21881 -0.5137,-1.04459 -24.84315,-57.69036 -25.20438,-58.52933 -1.57292,8.41667 -3.07781,16.42522 -4.65073,24.84189 -6.73958,-2.64583 -13.47917,-5.29167 -20.21875,-7.9375 3.59375,11.875 7.1875,23.75 10.78125,35.625 -3.71875,-1.14583 -7.4375,-2.29167 -11.15625,-3.4375 0.0417,-16.9375 0.0833,-33.875 0.125,-50.8125 5.05473,-6.66214 10.13277,-13.30661 15.1875,-19.96875 l 0.25,-0.375 c -0.56665,-1.25317 -1.1521,-2.49683 -1.71875,-3.75 -10.3125,-0.0729 -20.75,-0.14583 -31.0625,-0.21875 z m 2.25,3.5 c 3.875,0.0312 7.75,0.0625 11.625,0.0937 -0.0104,5.10417 -0.0208,10.20833 -0.0312,15.3125 -3.86458,-5.13542 -7.72917,-10.27083 -11.59375,-15.40625 z m 15.125,0.125 c 3.69792,0.0208 7.39583,0.0417 11.09375,0.0625 -3.70833,4.92708 -7.41667,10.26042 -11.125,15.1875 0.0104,-4.94792 0.0208,-10.30208 0.0312,-15.25 z m -18.53125,154.5 c 0.56728,1.62508 1.64952,3.24797 2.34375,4.40625 0.35323,0.0935 19.42366,0.10318 29.125,0.0625 0.76959,-1.85215 1.77242,-4.25629 1.6875,-4.34375 -10.28485,-0.0605 -22.47129,-0.1048 -33.15625,-0.125 z m 16.25,8.78125 c -6.1686,0.009 -12.32459,0.0571 -12.46875,0.0312 0.19569,0.3696 1.82564,4.39184 2.15625,4.71875 0.42276,0.21831 20.86901,0.2299 21.34375,0.125 -0.16381,-0.40727 1.99233,-4.25849 1.5625,-4.75 -0.23695,-0.11461 -6.42515,-0.1337 -12.59375,-0.125 z m 0.0625,9 c -3.85697,0.0183 -7.68828,0.0573 -8.03125,0.0625 0.19519,0.37805 1.77277,4.29906 2.0625,4.65625 0.34627,0.18894 10.89234,-0.0111 11.9375,0.0937 0.4673,-0.90113 1.85636,-3.88012 2.21875,-4.78125 -0.44787,-0.0472 -4.33053,-0.0496 -8.1875,-0.0312 z m -0.25,9.65625 c -1.63623,0.0127 -3.27276,0.0312 -3.59375,0.0312 0.22625,0.41503 3.19233,6.73357 3.8125,6.875 0.40298,-0.0926 3.5224,-6.07946 3.4375,-6.8125 -0.37523,-0.093 -2.02002,-0.10645 -3.65625,-0.0937 z"
       id="path4326"
       style="fill:#ffffff;fill-opacity:1;fill-rule:evenodd;stroke:none" />
    <path
       d="m 721.29166,658.63106 c -21.33333,48.59375 -42.66666,96.40992 -64,145.00367 21.33334,48.60414 42.66667,97.98587 64,146.59002 21.34375,-48.60415 42.6875,-97.2083 64.03125,-145.81244 -21.34375,-48.59375 -42.6875,-97.1875 -64.03125,-145.78125 z m -0.1875,25.625 c 18.48071,39.35854 33.72907,80.37257 51.36855,120.18383 -16.11231,40.55864 -33.82027,79.13739 -51.73988,118.99349 -17.79127,-39.15961 -34.30405,-79.62639 -51.75734,-119.0174 16.35207,-40.7248 34.32388,-79.97557 52.12867,-120.15992 z"
       id="path3416"
       style="fill:#000000;fill-opacity:1;fill-rule:evenodd;stroke:none" />
  </g>
</svg>
