<?xml version="1.0" encoding="UTF-8" standalone="no"?>
<!-- Created with Inkscape (http://www.inkscape.org/) -->

<svg
   xmlns:dc="http://purl.org/dc/elements/1.1/"
   xmlns:cc="http://creativecommons.org/ns#"
   xmlns:rdf="http://www.w3.org/1999/02/22-rdf-syntax-ns#"
   xmlns:svg="http://www.w3.org/2000/svg"
   xmlns="http://www.w3.org/2000/svg"
   version="1.0"
   width="599.69904"
   height="600"
   id="svg2">
  <defs
     id="defs4" />
  <metadata
     id="metadata7">
    <rdf:RDF>
      <cc:Work
         rdf:about="">
        <dc:format>image/svg+xml</dc:format>
        <dc:type
           rdf:resource="http://purl.org/dc/dcmitype/StillImage" />
        <dc:title></dc:title>
        <dc:creator>
          <cc:Agent>
            <dc:title>Tyler Tidman VA3DGN</dc:title>
          </cc:Agent>
        </dc:creator>
      </cc:Work>
    </rdf:RDF>
  </metadata>
  <path
     d="M 597.19844,300 A 297.34893,297.49942 0 1 1 2.5005803,300 297.34893,297.49942 0 1 1 597.19844,300 z"
     id="path2909"
     style="fill:#ffffff;fill-opacity:1;stroke:#000000;stroke-width:5.00117683;stroke-linecap:square;stroke-linejoin:miter;stroke-miterlimit:4;stroke-opacity:1;stroke-dasharray:none" />
  <path
     d="M 295.58479,14.24965 C 139.62119,16.22842 13.6561,143.50191 13.65611,300.01114 c 0,157.74159 127.95516,285.76142 285.61694,285.76152 157.6618,0 285.617,-128.01995 285.617,-285.76152 0,-157.74157 -127.95519,-285.7615 -285.617,-285.76149 -1.23172,0 -2.4602,-0.0156 -3.68826,0 z m 3.71621,51.32637 c 128.67027,0 233.08713,104.49766 233.08713,233.23304 0,128.73536 -104.41686,233.20509 -233.08713,233.20509 -128.67026,0 -233.08714,-104.46971 -233.08714,-233.20509 0,-128.73539 104.41688,-233.23304 233.08714,-233.23304 z"
     id="path2915"
     style="fill:#000000;fill-opacity:1;stroke:none" />
  <path
     d="m 212.81473,183.95271 3.58625,13.49798 -0.51232,12.1311 0.34154,9.22647 5.80633,-0.8543 15.19891,-2.39205 11.95419,-1.53774 7.51405,-0.34173 12.46652,-0.68343 -0.34155,14.86487 -0.68309,16.57347 -0.51233,13.32713 -0.85387,13.15626 -0.34154,17.08605 -3.4155,16.74435 0.34156,14.3523 19.46825,-3.41722 20.32212,-3.24636 15.882,-2.05032 14.00348,-1.53775 1.36619,-19.99069 1.53698,-17.25691 1.02465,-13.32713 1.19542,-17.7695 1.36619,-25.9708 9.73412,1.36687 14.5158,2.56291 14.34503,2.05034 15.36967,3.58806 6.83097,1.53775 0.85387,-17.08606 0.85387,-9.05562 0,-7.85958 -13.49115,-1.87946 -15.71123,-6.49271 -18.95593,-3.24635 -22.54218,-2.56291 -25.44535,-1.53773 -22.5422,0.34172 -22.02986,0.17086 -17.41897,2.05032 -18.44361,2.73377 -12.63728,2.73377 z"
     id="path2911"
     style="fill:#000000;fill-opacity:1;fill-rule:evenodd;stroke:none" />
  <path
     d="m 202.15133,171.50577 -0.51233,14.69401 -0.51232,12.13111 -0.51232,10.59335 12.12496,-2.5629 11.78343,-1.87947 13.32038,-1.87947 10.41722,-1.19603 10.24645,-0.85429 -0.34155,14.86486 -0.6831,16.57348 -0.51232,13.32713 -0.85387,13.15627 -0.34155,17.08605 -0.68309,18.28209 -0.51232,17.08606 19.46825,-4.78411 17.41895,-3.75892 18.10207,-2.73378 14.34504,-1.70861 2.04929,-29.55887 1.19541,-23.23704 0.6831,-18.79467 0.85387,-11.96023 0.51233,-12.98541 9.73412,1.36688 14.00348,2.56292 14.5158,2.73377 15.36968,3.58806 6.83096,1.53774 0.85387,-17.08605 0.85387,-9.05561 0.51233,-9.5682 -14.34503,-3.58807 -15.36967,-3.07548 -18.95593,-3.12821 -22.77836,-2.68106 -23.79217,-1.53774 -23.95921,-0.249 -21.43944,1.11602 -18.00939,1.69588 -18.4436,2.73377 -12.63729,2.73377 z"
     id="path2913"
     style="fill:#acacac;fill-opacity:1;fill-rule:evenodd;stroke:#000000;stroke-width:2.5;stroke-linecap:butt;stroke-linejoin:miter;stroke-miterlimit:4;stroke-opacity:1;stroke-dasharray:none" />
  <path
     d="m 299.53407,71.62443 c -23.70597,0 -48.17723,4.22005 -70.56172,11.41895 -25.58127,8.22698 -48.19535,21.12388 -68.25688,36.39615 1.53514,-0.34148 26.77389,-5.55218 38.31397,-7.52491 8.40969,-1.43761 22.05611,-4.17712 30.88706,-5.25542 9.28397,-1.1336 21.31176,-1.99475 30.65402,-2.43948 7.40642,-0.35257 18.04596,-0.93063 25.63648,-0.78229 6.86984,0.13426 22.01559,0.94464 22.01559,0.94464 l -3.39112,14.03385 c 0,0 19.15443,0.68449 27.68596,1.16689 5.72286,0.32359 15.10097,1.35943 20.94567,2.0004 6.92065,0.75897 16.32342,1.70353 23.18407,2.88837 5.86883,1.01356 13.79951,2.53341 19.57952,3.96975 6.76098,1.68011 19.81962,6.30682 19.81962,6.30682 l -5.14773,8.74544 c 0,10e-6 12.7627,6.08938 17.92814,8.73463 3.89774,1.99606 8.87779,4.92107 12.71615,7.02919 3.75347,2.06148 8.23801,5.23703 11.74422,7.69598 4.13214,2.8979 9.65099,5.88417 13.55686,9.08078 4.17245,3.41481 12.68619,11.28003 12.68619,11.28003 1.00623,1.34231 6.68141,5.87725 9.13718,8.72397 2.77327,3.21461 7.44544,8.94622 7.44544,8.94622 l -13.44143,-9.20064 c -2e-5,0 -10.97891,-7.589 -15.66294,-10.47432 -6.07695,-3.74333 -13.72108,-7.6362 -20.07501,-10.8867 -6.63908,-3.39635 -15.13958,-6.86872 -21.99327,-9.8075 -6.8537,-2.93879 -15.98378,-5.87301 -22.99296,-8.41835 -4.80438,-1.74469 -14.62009,-4.66045 -14.62009,-4.66045 l -9.60817,-2.06772 0.0689,-6.55227 c 0,1e-5 -11.1156,-2.1883 -18.27218,-3.22287 -8.02753,-1.16046 -19.87275,-3.52841 -27.43495,-4.14298 -7.11294,-0.57806 -16.52598,-1.11364 -23.66052,-1.27476 -5.86679,-0.1325 -14.57238,-0.2581 -20.44145,-0.004 -5.64574,0.24513 -19.2686,1.11461 -19.2686,1.11461 l -0.13885,-10.08535 c 1e-5,-1e-5 -16.65947,0.58839 -23.52058,1.25025 -8.55883,0.82564 -19.86051,1.99926 -28.38346,3.13734 -8.13785,1.08665 -16.78423,2.90489 -25.57223,4.03076 -7.10764,0.91059 -18.18621,3.24273 -25.2145,4.63981 -5.70669,1.13438 -11.90494,2.81414 -17.55018,4.22307 -5.12685,1.27955 -17.13365,4.08414 -17.13365,4.08414 0,0 0.68769,-0.81171 1.80501,-2.08375 -13.93098,15.09734 -25.56225,32.09536 -35.23921,51.01019 0,1e-5 52.05976,-17.89058 74.81042,-24.08814 18.65883,-5.08288 43.47713,-11.59736 62.7297,-13.41498 25.03873,-2.36388 41.79636,-4.35132 59.62172,-3.36615 20.94881,1.15781 37.40985,2.50616 53.317,4.69538 10.01797,1.37874 23.35121,3.64177 33.12874,6.22347 12.58626,3.32332 28.85979,9.49942 41.043,14.08614 6.05958,2.28132 14.17914,5.29136 19.9661,8.19609 5.49757,2.75947 12.35684,7.30483 17.57795,10.55766 4.25073,2.64828 9.92295,6.18178 14.02348,9.05736 4.59123,3.2197 10.08411,7.70459 14.38121,11.30782 3.18092,2.66729 10.16358,9.55856 10.16358,9.55856 0,0 6.52796,5.87093 8.85729,8.80621 0.75638,0.95316 0.8233,2.69717 0.8233,2.69717 l 8.73804,-1.33468 1.3841,-0.35683 c -2.76436,-10.22863 -6.2392,-20.19281 -10.35786,-29.78874 C 473.64064,128.44556 392.00641,71.62414 299.53402,71.62414 z"
     id="path3013"
     style="fill:#000000;fill-opacity:1;fill-rule:evenodd;stroke:none" />
  <path
     d="m 517.5229,363.43271 c -0.41649,-2.75663 -2.08256,-4.20399 -4.04587,-5.92741 -1.73023,-1.74063 -4.63991,-4.55482 -6.33983,-6.32504 -1.90244,-1.98104 -5.05907,-5.18221 -7.16448,-6.94583 -2.13872,-1.79151 -5.33676,-3.9498 -7.63659,-5.52888 -2.55308,-1.753 -5.18537,-3.54882 -7.85869,-5.11213 -3.48057,-2.03535 -7.58647,-4.3079 -11.21036,-6.07522 -2.76029,-1.34615 -7.18223,-3.24632 -10.06091,-4.31575 -2.08959,-0.77628 -4.5889,-1.48695 -7.10894,-2.13932 -2.52003,-0.65236 -5.05878,-1.26021 -7.22001,-1.80591 -3.58812,-0.906 -8.44819,-1.99132 -12.09806,-2.60253 -2.61327,-0.43761 -5.92094,-1.08554 -8.55316,-1.38871 -4.44318,-0.51176 -10.49932,-1.08573 -14.94898,-1.53765 -4.42874,-0.44977 -10.33523,-0.82046 -14.77326,-1.16689 -5.3394,-0.41682 -12.59854,-0.91103 -17.94806,-1.16712 -3.87941,-0.18572 -9.01162,-0.24463 -12.89427,-0.14826 -5.14153,0.12763 -11.88464,0.35029 -17.00412,0.84306 -3.33897,0.32138 -8.76792,0.51404 -12.09808,0.91662 -4.15857,0.50274 -10.03307,1.2002 -14.03259,1.71368 -4.18368,0.53713 -9.93936,1.13719 -14.10701,1.78725 -4.29251,0.66952 -8.42906,1.61605 -12.71833,2.30601 -4.7275,0.76047 -11.25416,2.48549 -15.93956,3.47292 -7.40578,1.56072 -17.70058,4.24523 -24.12239,5.6029 -2.79734,0.59139 -8.46864,2.20501 -11.2279,2.95436 -4.04477,1.09845 -8.00272,2.04155 -12.02409,3.22287 -3.537,1.03903 -8.46108,2.74927 -12.02409,3.69518 -5.05494,1.34199 -10.92362,3.46368 -14.80102,4.63982 -5.30927,1.61049 -10.43894,3.59788 -15.71741,5.30662 -4.56953,1.47924 -11.3981,4.21556 -15.93957,5.77893 -3.77587,1.2998 -8.96052,3.28862 -12.71832,4.63981 -4.56101,1.64 -10.00352,3.62973 -14.55111,5.30662 -5.02646,1.85346 -11.40875,4.11272 -16.41164,6.02898 -2.38757,0.91452 -5.17909,2.07973 -7.99755,3.22286 -2.81846,1.14313 -5.67319,2.24356 -8.19194,3.0006 -4.43169,1.332 -10.17596,3.82681 -14.55109,5.3344 -1.83491,0.63228 -4.96952,1.43189 -7.69209,2.22267 -1.36129,0.39538 -2.63491,0.79765 -3.58224,1.1669 -0.94732,0.36926 -1.58446,0.70091 -1.69392,1.0002 0.93631,2.28976 1.90777,4.5551 2.91578,6.80691 1.2802,2.39062 2.63808,4.75096 2.63808,4.75096 l 6.27584,13.03037 c 11.8778,21.31212 27.05625,40.49594 44.87515,56.90026 0.63858,-0.47548 5.01051,-3.72998 7.33109,-5.38997 3.013,-2.15528 7.41752,-4.76689 10.41347,-6.94583 4.93146,-3.58658 12.00657,-8.21449 17.10588,-11.55786 3.82113,-2.50534 8.10397,-5.50206 12.41287,-8.44614 4.30889,-2.94408 8.64479,-5.85468 12.55171,-8.22387 4.64863,-2.81896 12.41103,-7.42743 17.10587,-10.16869 6.68659,-3.90424 15.65428,-8.94116 22.40981,-12.72476 3.82985,-2.14501 8.33026,-4.71142 12.85717,-7.22367 4.52691,-2.51225 9.07304,-4.9495 13.02379,-6.86248 5.93831,-2.87537 12.67723,-6.04818 19.43849,-9.14071 6.76126,-3.09254 13.55278,-6.10675 19.63288,-8.6684 2.40908,-1.01499 5.64625,-2.29854 8.08085,-3.25065 3.80228,-1.48699 8.9001,-3.41653 12.71833,-4.86208 2.77063,-1.04895 6.45065,-2.49514 9.24716,-3.47292 2.54627,-0.89028 6.17935,-2.01713 8.7751,-2.75055 3.9817,-1.125 8.31558,-2.43076 12.24625,-3.72296 5.8139,-1.91133 10.06247,-3.22079 14.10679,-4.13972 2.82884,-0.64275 7.04116,-1.7191 10.16355,-2.3338 4.29669,-0.84589 10.0458,-2.00821 14.35672,-2.77833 3.80444,-0.67964 8.85225,-1.63335 12.69055,-2.08375 2.89996,-0.3403 6.80036,-0.59246 9.71925,-0.66681 3.39744,-0.0865 7.9315,0.18758 11.32986,0.22228 3.60567,0.0368 8.6491,-0.0284 12.24625,0.22226 3.49253,0.24341 7.86014,0.92223 11.32987,1.38917 2.14813,0.28909 5.02119,0.5938 7.16447,0.91685 4.03572,0.6083 8.51368,1.54723 12.4684,2.55606 3.12361,0.79681 8.09852,2.53878 11.10771,3.69518 1.47897,0.56836 3.20546,1.12966 4.91516,1.72258 1.70969,0.59291 3.38606,1.21245 4.77631,1.97261 2.27841,1.24577 5.10208,3.321 7.19228,4.86208 1.78719,1.3177 4.07342,3.21435 5.77601,4.63982 0.84792,0.70994 1.67665,2.03933 2.5825,3.13951 1.09807,1.3699 3.06138,2.2588 4.47952,1.102 0.42147,-1.4938 0.72466,-2.99326 0.54676,-4.49156 z"
     id="path3017"
     style="fill:#000000;fill-opacity:1;stroke:none" />
  <path
     d="m 110.98833,213.36241 35.74365,-12.42561 19.76256,24.7881 18.50716,23.75191 12.88059,16.94481 0.59618,-27.26757 0.18057,-22.69177 30.43258,4.32547 16.44452,-0.0784 -0.77675,24.27001 -1.81242,41.06896 -2.228,38.47629 -17.73041,4.93718 -26.53358,7.04871 -10.7244,-13.65772 -14.94541,-17.36277 -13.79224,-16.24822 -9.19482,-9.79594 -0.98781,12.62153 -2.18883,40.8404 -1.59268,21.52278 -20.63287,6.0909 -18.37443,4.63892 2.07134,-22.00169 1.63184,-26.93885 1.37291,-26.00498 1.07483,-24.60742 0.33724,-26.6798 0.47868,-25.56525 z"
     id="path3019"
     style="fill:#000000;fill-opacity:1;fill-rule:evenodd;stroke:none" />
  <path
     d="m 98.54769,206.24988 32.89556,-12.16656 18.46798,26.08334 17.7304,24.27 30.48698,38.18678 1.63183,-30.37615 -0.59617,-37.19847 17.48671,-1.3736 16.70344,-1.11456 -1.03567,26.08334 -1.29459,40.03277 -2.228,37.9582 -18.24823,5.7143 -19.80173,4.71729 -13.05466,-14.69391 -14.68649,-16.32658 -12.23874,-14.69392 -8.15916,-9.79596 -7.42156,-7.72355 -0.81592,21.12224 -2.18883,40.84039 -1.59268,21.52278 -20.63287,6.0909 -16.04418,4.89798 -0.25891,-22.26076 1.63183,-26.93884 1.37292,-26.00498 1.07483,-24.60741 0.33724,-26.6798 0.47867,-25.56526 z"
     id="path3021"
     style="fill:#acacac;fill-opacity:1;fill-rule:evenodd;stroke:#000000;stroke-width:2.5;stroke-linecap:butt;stroke-linejoin:miter;stroke-miterlimit:4;stroke-opacity:1;stroke-dasharray:none" />
  <path
     d="m 495.11519,246.57174 c -0.19746,-1.0422 -0.64487,-4.84382 -1.15111,-5.8305 -0.58409,-1.13827 -2.00241,-4.66333 -3.82141,-6.33477 -1.95333,-1.79492 -3.54605,-5.57395 -5.68888,-7.13752 -39.59603,-19.01683 -78.16097,-15.73418 -120.56071,-12.29151 -1.39543,1.16519 -3.30115,2.99836 -4.14811,4.60732 -0.61277,1.16404 -1.86266,5.99795 -1.88286,7.3134 -0.0528,3.43752 -0.17274,8.29646 0.33256,11.15387 0.56938,3.21983 2.78828,8.0879 3.9415,10.83623 0.78082,1.86085 2.46143,3.19297 3.66829,4.81009 1.46211,1.95913 4.44306,4.18156 6.24317,5.83518 1.75061,1.60815 4.32077,3.48706 6.28908,4.81961 2.66847,1.80656 5.30619,3.12867 8.28672,4.35299 2.18379,0.89705 1.15837,1.34323 7.2392,3.56878 2.42718,0.88833 6.95581,1.67862 9.51004,2.07313 2.62981,0.4062 8.78841,0.62583 10.59003,0.79376 2.5728,0.23981 8.4451,0.93832 11.41584,1.33877 2.68944,0.36254 5.17702,0.63328 5.74828,3.28756 0.68798,3.19675 -0.97796,2.52318 -3.04843,4.10984 l -77.60835,-2.21756 -10.64357,3.58046 -8.89953,2.53975 c 0,0 1.18041,3.87285 3.70762,5.94493 1.99972,1.63958 3.69756,2.28886 5.82272,3.76204 2.52592,1.751 3.98015,2.05626 6.67149,3.54022 2.97368,1.63963 3.63705,1.91109 6.7079,3.3604 3.71834,1.75491 7.35939,2.59979 11.17512,4.13119 1.7203,0.69042 10.10744,2.3754 11.9432,2.63162 2.51266,0.35069 10.88307,2.35971 14.98281,2.65852 2.85051,0.20777 10.51068,0.96197 13.34067,1.36175 2.8754,0.40621 6.92935,0.32126 9.82358,0.5585 3.00734,0.24649 8.55557,0.32675 9.08959,0.29071 2.80608,-0.18933 6.41093,-0.15453 9.41263,-0.70186 2.43608,-0.44421 7.47041,-1.02902 8.13947,-1.29679 0.66904,-0.26775 6.77538,-1.9731 9.59019,-3.01132 3.0496,-1.12483 6.35504,-1.96218 9.27704,-3.84336 2.05287,-1.32164 5.39139,-3.99151 7.0785,-5.75674 1.31568,-1.37662 3.12844,-3.54916 4.28193,-5.06441 1.00551,-1.32087 3.07855,-3.33583 3.70077,-4.87506 0.58447,-1.44589 1.54009,-4.05578 2.2059,-5.46602 0.90906,-1.92552 1.61592,-3.25002 2.12751,-5.39154 0.4541,-1.9009 1.12188,-4.40405 0.63263,-7.18348 -0.30925,-1.75696 0.0309,-4.87821 -0.42832,-6.60202 -0.51676,-1.93959 -2.26127,-5.20935 -3.19243,-6.83335 -1.78282,-3.10933 -8.45325,-8.44645 -10.60903,-9.29466 -20.49364,-8.16866 -43.38718,-8.86121 -50.45664,-9.60114 -2.87644,-0.54311 -3.32615,-0.50345 -4.93483,-1.01 -2.41658,-0.76096 -3.12918,-1.01476 -4.42001,-1.77684 -0.80001,-0.47231 -1.603,-1.16775 -1.76052,-2.68603 -0.18543,-1.78734 0.3857,-2.45645 0.71231,-3.20928 0.65434,-1.50826 2.22636,-2.62113 3.27768,-3.37435 1.43997,-1.03168 4.28165,-2.01559 6.45234,-2.58505 2.18519,-0.57323 4.46179,-1.05278 6.7477,-1.21669 1.96197,-0.14067 5.75374,-0.11352 7.71748,0 2.78379,0.16093 5.33574,0.006 7.9666,0.33198 3.26712,0.40403 7.17664,1.45993 10.25443,2.62857 1.71209,0.6501 5.96342,3.77898 7.49119,4.78913 1.32954,0.87908 3.98234,3.2332 4.9823,4.47469 1.09126,1.35484 1.61699,3.1277 2.37831,4.70298 0.52539,1.08711 0.93236,2.65039 0.93236,2.65039 l 12.90259,0.61583 11.02746,0.75315 7.43601,0.38451 z"
     id="path3023"
     style="fill:#000000;fill-opacity:1;fill-rule:evenodd;stroke:none" />
  <path
     d="m 494.81528,234.23038 c 0,0 -2.81007,-4.74995 -3.34529,-5.62288 -0.28852,-0.47051 -3.93489,-4.2192 -5.75384,-5.89063 -1.95334,-1.79493 -4.68149,-4.05929 -6.82433,-5.62288 -2.1592,-1.57554 -5.14232,-3.54829 -7.49337,-4.81959 -2.51359,-1.3592 -6.05101,-2.80537 -8.69766,-3.88247 -2.2588,-0.91924 -5.28853,-2.12044 -7.62719,-2.81144 -3.15694,-0.93276 -6.52564,-1.79036 -9.75862,-2.4098 -4.03175,-0.77249 -8.88897,-2.09138 -12.94713,-2.71004 -3.28883,-0.50138 -8.40984,-1.19771 -11.72939,-1.4172 -3.00445,-0.19865 -7.78424,-0.36805 -10.79271,-0.24479 -4.10079,0.16801 -8.43293,0.30501 -12.51322,0.74781 -2.98571,0.32401 -8.15823,1.56455 -11.03737,2.41932 -3.51307,1.04298 -6.75818,2.56644 -9.97083,4.33004 -2.85047,1.56478 -6.79212,3.99561 -9.28834,6.07995 -1.39543,1.16519 -3.30115,2.99836 -4.14812,4.60732 -0.61276,1.16404 -1.68732,3.36176 -1.88285,4.66274 -0.43127,2.86953 -0.80541,6.73744 -0.80286,9.63922 0.002,1.89451 -0.0503,4.49061 0.53524,6.29226 0.62374,1.91928 2.2722,4.13963 3.47907,5.75676 1.46211,1.95913 3.6861,4.37088 5.48621,6.0245 1.75062,1.60815 4.32076,3.48705 6.28909,4.81962 2.66847,1.80656 6.2997,4.15512 9.2329,5.48899 2.46159,1.11939 5.92103,2.23956 8.56385,2.81144 2.52608,0.54661 5.8204,0.92129 8.37462,1.31581 2.62982,0.40618 7.65299,1.00447 9.45462,1.1724 2.57279,0.23982 6.3635,1.12767 9.33424,1.52812 2.68945,0.36254 6.25935,0.99915 8.96528,1.20491 2.20189,0.16743 4.72078,0.12467 6.79186,0.8912 1.1232,0.4157 2.8429,1.80176 3.26687,2.92234 0.54675,1.44505 -0.53602,3.30494 -1.18133,4.7087 -0.59495,1.2942 -1.26878,1.89736 -2.32069,2.85737 -1.59631,1.45685 -3.89585,3.31244 -5.88765,4.15022 -1.42989,0.60143 -3.54282,0.76891 -5.0848,0.93715 -2.27606,0.24833 -5.34245,0.41663 -7.62718,0.26775 -2.92397,-0.19053 -6.79784,-0.87115 -9.63434,-1.60653 -2.43361,-0.63094 -5.58959,-1.80783 -7.89479,-2.81144 -2.15672,-0.93896 -4.86249,-2.54626 -6.95814,-3.6147 -1.43959,-0.73396 -3.36384,-1.70347 -4.81716,-2.4098 -2.11596,-1.02839 -5.05869,-2.16327 -7.09195,-3.34695 -1.14552,-0.66688 -2.54668,-1.75605 -3.61287,-2.54368 -1.26608,-0.93529 -4.14812,-3.21307 -4.14812,-3.21307 l -7.35956,-0.13389 -11.31844,1.26036 -10.56708,0.60442 -10.76418,1.34829 -4.14812,0.26776 c 0,0 5.50142,5.29121 8.02862,7.36328 1.99972,1.63959 4.83298,3.61419 6.95813,5.08737 2.52592,1.751 5.87252,4.13892 8.56385,5.62287 2.97368,1.63964 7.23256,3.80442 10.3034,5.25373 3.71834,1.75491 8.4948,3.92511 12.31053,5.45651 1.72031,0.69043 5.83478,2.22728 7.59077,2.82096 3.83731,1.29735 7.09835,2.54904 11.00885,3.60518 2.7593,0.74522 6.53673,1.34063 9.36671,1.74042 2.87541,0.4062 7.30782,1.07858 10.20205,1.3158 3.00734,0.24651 8.93282,0.29073 9.46807,0.29073 0.53524,0 7.04365,0.10274 10.04533,-0.44459 2.4361,-0.44421 7.22981,-1.60069 8.95274,-2.18421 1.44734,-0.49019 6.29563,-2.93279 8.97777,-4.27739 2.98748,-1.49769 6.1484,-3.53898 8.82197,-5.54446 1.95317,-1.46509 4.63444,-3.80218 6.32154,-5.56741 1.31568,-1.37661 2.56074,-3.35982 3.71423,-4.87507 1.0055,-1.32087 2.3216,-3.14649 2.94382,-4.68572 0.58448,-1.44589 1.57889,-4.30499 1.82742,-5.8447 0.34137,-2.11485 0.10203,-4.19668 0.0459,-6.33819 -0.0512,-1.95377 -0.392,-4.59338 -1.07048,-6.42615 -0.61931,-1.67294 -1.86396,-3.78041 -3.07763,-5.08736 -1.2737,-1.3716 -2.54556,-2.63241 -4.13861,-3.61471 -1.97205,-1.21601 -5.61471,-2.7665 -7.7705,-3.6147 -2.59175,-1.01974 -6.24584,-1.80902 -8.96529,-2.40981 -2.74531,-0.6065 -6.43953,-1.28805 -9.2329,-1.60653 -2.91596,-0.33246 -7.21975,-0.88715 -10.14661,-1.10351 -3.45779,-0.25559 -7.68041,-0.14602 -11.12921,-0.50302 -3.17488,-0.32865 -7.46939,-0.45112 -10.57101,-1.20491 -2.08651,-0.50708 -4.7816,-1.56009 -6.69051,-2.54367 -1.93015,-0.99453 -4.42663,-2.54248 -6.02146,-4.01635 -1.23887,-1.14489 -2.77809,-2.88328 -3.47907,-4.41796 -0.44176,-0.96719 -0.7475,-2.19913 -0.66905,-3.29149 0.12745,-1.77445 0.92962,-3.52208 2.2423,-4.65326 1.33035,-1.14639 4.91637,-2.75787 6.61631,-3.19732 1.7207,-0.44481 4.74722,-1.12328 6.50431,-1.39006 2.27939,-0.34605 4.89537,-0.40452 7.12671,-0.64338 2.39624,-0.25651 4.35626,-0.2494 6.76585,-0.28957 1.96674,-0.0328 4.90954,0.0976 6.87327,0.21116 2.7838,0.16092 6.49653,0.53452 9.23292,1.07103 3.23053,0.63338 7.49322,1.77666 10.571,2.94531 1.7121,0.65009 3.95844,1.66741 5.48622,2.67756 1.32954,0.87907 3.48838,2.15622 4.77125,3.10217 1.40784,1.03809 2.83681,2.35434 4.19404,3.45785 0.94749,0.77036 2.81001,2.9453 2.81001,2.9453 l 10.36998,0.40468 9.65563,0.54199 9.54649,-0.14339 z"
     id="path3025"
     style="fill:#acacac;fill-opacity:1;fill-rule:evenodd;stroke:#000000;stroke-width:2.5;stroke-linecap:butt;stroke-linejoin:miter;stroke-miterlimit:4;stroke-opacity:1;stroke-dasharray:none" />
  <g
     transform="matrix(-0.96899976,-0.24801234,0.24801234,-0.96899976,512.41386,664.52687)"
     id="text2886"
     style="font-size:38px;font-style:normal;font-variant:normal;font-weight:bold;font-stretch:normal;text-align:start;line-height:125%;writing-mode:lr-tb;text-anchor:start;fill:#acacac;fill-opacity:1;stroke:#acacac;stroke-width:2;stroke-miterlimit:4;stroke-opacity:1;font-family:DejaVu Sans;-inkscape-font-specification:DejaVu Sans Bold">
    <path
       d="m 569.75062,305.73669 -0.52267,7.96138 -19.6192,8.80888 18.95919,1.24467 -0.44366,6.75791 -27.64264,-1.81473 0.52266,-7.96138 19.6192,-8.80889 -18.95918,-1.24467 0.44365,-6.75791 27.64265,1.81474"
       id="path3097"
       style="fill:#acacac;fill-opacity:1;stroke:#acacac;stroke-opacity:1" />
    <path
       d="m 541.31932,353.10643 2.04954,-10.98028 -4.63776,-2.65881 1.31756,-7.05875 25.34911,15.16953 -1.56269,8.37201 -29.11454,5.00354 1.31756,-7.05875 5.28122,-0.78849 m 6.77509,-8.28621 -1.39246,7.46002 11.52889,-1.69859 -10.13643,-5.76143"
       id="path3099"
       style="fill:#acacac;fill-opacity:1;stroke:#acacac;stroke-opacity:1" />
    <path
       d="m 561.69977,366.35084 -7.32917,24.45665 -5.17216,-1.54999 2.63659,-8.798 -21.36403,-6.40237 2.05068,-6.84289 21.36403,6.40238 2.64191,-8.81577 5.17215,1.54999"
       id="path3101"
       style="fill:#acacac;fill-opacity:1;stroke:#acacac;stroke-opacity:1" />
    <path
       d="m 552.07163,396.32008 -2.60619,6.65118 -25.79275,-10.1066 2.60619,-6.65118 25.79275,10.1066"
       id="path3103"
       style="fill:#acacac;fill-opacity:1;stroke:#acacac;stroke-opacity:1" />
    <path
       d="m 536.00509,421.16566 c 0.9843,-1.94189 1.03054,-3.81145 0.13871,-5.60871 -0.89185,-1.7973 -2.63969,-3.35587 -5.24354,-4.67573 -2.59283,-1.3143 -4.87765,-1.79985 -6.85446,-1.45666 -1.97682,0.34317 -3.45738,1.48569 -4.4417,3.42756 -0.9899,1.95288 -1.03894,3.82796 -0.1471,5.62526 0.89184,1.79725 2.63416,3.35303 5.22699,4.66734 2.60385,1.31985 4.89419,1.8082 6.87101,1.46504 1.97681,-0.3432 3.46017,-1.49124 4.45009,-3.4441 m 4.61743,2.34054 c -2.01338,3.97195 -4.72695,6.50729 -8.1407,7.60602 -3.41377,1.09866 -7.1232,0.63294 -11.12828,-1.39717 -3.99405,-2.02459 -6.55704,-4.7383 -7.689,-8.14116 -1.13194,-3.40291 -0.69123,-7.09034 1.32213,-11.06231 2.00778,-3.96096 4.72134,-6.4963 8.1407,-7.60602 3.41376,-1.09871 7.11767,-0.63578 11.11173,1.38878 4.00507,2.03014 6.57358,4.74665 7.70555,8.14955 1.12634,3.4139 0.68563,7.10133 -1.32213,11.06231"
       id="path3105"
       style="fill:#acacac;fill-opacity:1;stroke:#acacac;stroke-opacity:1" />
    <path
       d="m 529.02347,443.70362 -4.50483,6.58508 -21.37032,-2.41221 15.68167,10.72778 -3.82387,5.58966 -22.864,-15.64119 4.50483,-6.58507 21.37033,2.4122 -15.68167,-10.72778 3.82387,-5.58965 22.86399,15.64118"
       id="path3107"
       style="fill:#acacac;fill-opacity:1;stroke:#acacac;stroke-opacity:1" />
    <path
       d="m 480.3864,469.98973 7.40735,-8.36051 -2.60857,-4.6662 4.76187,-5.37462 13.9302,26.05075 -5.6478,6.37454 -27.53906,-10.69072 4.76187,-5.37462 4.93414,2.04138 m 10.07306,-3.61891 -5.03257,5.68015 10.75955,4.47579 -5.72698,-10.15594"
       id="path3109"
       style="fill:#acacac;fill-opacity:1;stroke:#acacac;stroke-opacity:1" />
    <path
       d="m 486.45619,496.25102 -5.29765,4.79221 -14.96166,-16.53966 -9.30184,8.41438 -3.62217,-4.00419 14.59949,-13.2066 18.58383,20.54386"
       id="path3111"
       style="fill:#acacac;fill-opacity:1;stroke:#acacac;stroke-opacity:1" />
    <path
       d="m 457.06945,521.02683 -21.36848,13.97258 -2.95496,-4.51906 7.68706,-5.02647 -12.20569,-18.66636 5.97882,-3.90948 12.2057,18.66636 7.70259,-5.03663 2.95496,4.51906"
       id="path3113"
       style="fill:#acacac;fill-opacity:1;stroke:#acacac;stroke-opacity:1" />
    <path
       d="m 415.16359,531.9195 c -1.33677,0.67323 -2.16721,1.40309 -2.49132,2.18959 -0.33514,0.79203 -0.21617,1.75701 0.35692,2.89495 0.56754,1.12685 1.26648,1.78589 2.09683,1.97712 0.8193,0.19674 1.89734,-0.0415 3.23412,-0.71472 l 2.68461,-1.35206 -3.19655,-6.34694 -2.68461,1.35206 m 0.46456,-5.76012 -4.71553,-9.36298 6.38008,-3.21324 12.46068,24.74147 -9.74413,4.90749 c -3.25908,1.64136 -5.92082,2.29633 -7.98521,1.96491 -2.07542,-0.32592 -3.70849,-1.67098 -4.89921,-4.03517 -0.82346,-1.6351 -1.10177,-3.1777 -0.83493,-4.62783 0.25582,-1.4446 1.05397,-2.81608 2.39445,-4.11443 -0.97291,0.24068 -1.9799,0.17998 -3.02098,-0.18208 -1.04653,-0.3455 -2.28221,-1.05276 -3.70704,-2.12181 l -7.00221,-5.28205 6.79438,-3.42189 6.11243,4.6291 c 1.23081,0.93131 2.27513,1.46488 3.13297,1.6007 0.84681,0.14136 1.78945,-0.0495 2.82794,-0.57247 l 1.80631,-0.90972"
       id="path3115"
       style="fill:#acacac;fill-opacity:1;stroke:#acacac;stroke-opacity:1" />
    <path
       d="m 376.87436,536.81553 10.50871,-3.78604 -0.0523,-5.34559 6.7556,-2.43388 -0.26374,29.54019 -8.01245,2.88669 -19.04298,-22.58444 6.75561,-2.43388 3.35153,4.15695 m 10.57498,1.65312 -7.13964,2.57224 7.29681,9.08609 -0.15717,-11.65833"
       id="path3117"
       style="fill:#acacac;fill-opacity:1;stroke:#acacac;stroke-opacity:1" />
    <path
       d="m 369.54284,562.82122 -18.75939,4.44288 -1.24434,-5.25407 11.80811,-2.79658 -1.18876,-5.01935 -11.10396,2.62981 -1.24435,-5.25407 11.10396,-2.62981 -2.70678,-11.42896 6.95127,-1.64631 6.38424,26.95646"
       id="path3119"
       style="fill:#acacac;fill-opacity:1;stroke:#acacac;stroke-opacity:1" />
    <path
       d="m 341.29355,568.97325 -19.12365,2.43708 -0.68257,-5.3561 12.03741,-1.53402 -0.65208,-5.11682 -11.31959,1.44254 -0.68257,-5.35609 11.31959,-1.44255 -1.48477,-11.65089 7.08625,-0.90306 3.50198,27.47991"
       id="path3121"
       style="fill:#acacac;fill-opacity:1;stroke:#acacac;stroke-opacity:1" />
    <path
       d="m 313.20101,571.92751 -7.13647,0.31821 -1.23398,-27.67466 7.13646,-0.3182 1.23399,27.67465"
       id="path3123"
       style="fill:#acacac;fill-opacity:1;stroke:#acacac;stroke-opacity:1" />
    <path
       d="m 275.77867,545.47105 c 1.33879,-0.62434 2.72612,-1.07949 4.16198,-1.36545 1.43591,-0.28596 2.92627,-0.39628 4.4711,-0.33097 4.60982,0.1949 8.20749,1.63461 10.79301,4.31914 2.58501,2.69688 3.78424,6.25135 3.5977,10.66344 -0.18705,4.42441 -1.68203,7.86498 -4.48492,10.32172 -2.8034,2.46904 -6.51001,3.60613 -11.11984,3.41126 -1.54482,-0.0653 -3.02056,-0.30106 -4.4272,-0.70717 -1.40661,-0.40616 -2.75056,-0.97678 -4.03188,-1.71187 l 0.24218,-5.72829 c 1.28427,0.95808 2.56017,1.6744 3.82769,2.14896 1.26756,0.47451 2.61196,0.74183 4.0332,0.80194 2.54592,0.10761 4.58252,-0.62342 6.10981,-2.1931 1.52731,-1.56971 2.35158,-3.78818 2.47279,-6.65539 0.12071,-2.85488 -0.51362,-5.12882 -1.903,-6.82182 -1.38935,-1.69302 -3.35698,-2.59334 -5.90289,-2.70098 -1.42124,-0.0601 -2.78341,0.0928 -4.0865,0.45866 -1.30305,0.36585 -2.63485,0.97192 -3.99541,1.8182 l 0.24218,-5.72828"
       id="path3125"
       style="fill:#acacac;fill-opacity:1;stroke:#acacac;stroke-opacity:1" />
    <path
       d="m 232.40268,563.67295 1.21753,-5.73547 c 1.34707,0.98143 2.69249,1.79182 4.03626,2.43117 1.34382,0.63932 2.64492,1.09256 3.90332,1.35971 1.66984,0.35445 2.95286,0.38655 3.84906,0.0963 0.89623,-0.29029 1.44709,-0.91943 1.65257,-1.88743 0.15413,-0.72603 0.009,-1.35124 -0.43644,-1.87565 -0.45973,-0.51491 -1.36663,-1.06782 -2.72072,-1.65874 l -2.84949,-1.23084 c -2.88449,-1.24461 -4.831,-2.61887 -5.83954,-4.12278 -1.00849,-1.50393 -1.27129,-3.39331 -0.78842,-5.66813 0.63448,-2.98874 1.99647,-5.02638 4.08597,-6.11291 2.07488,-1.07699 4.93338,-1.22891 8.57551,-0.45576 1.71824,0.36475 3.40783,0.89413 5.06879,1.58815 1.66098,0.69402 3.28856,1.54534 4.88274,2.55396 l -1.25221,5.89883 c -1.5351,-1.28693 -3.05723,-2.33716 -4.56638,-3.15069 -1.5238,-0.80401 -3.03592,-1.36526 -4.53635,-1.68377 -1.5246,-0.32365 -2.74621,-0.31742 -3.66482,0.0187 -0.91857,0.3361 -1.47805,0.97606 -1.67842,1.91988 -0.17978,0.84701 -0.0402,1.55949 0.41879,2.13746 0.44692,0.57539 1.45465,1.21925 3.0232,1.9316 l 2.57723,1.17305 c 2.58716,1.15617 4.37508,2.50309 5.36378,4.04075 0.97662,1.53507 1.23632,3.37953 0.77909,5.53337 -0.5728,2.69832 -1.88453,4.58855 -3.93519,5.67071 -2.05065,1.08211 -4.7095,1.27641 -7.97656,0.58291 -1.4883,-0.31597 -2.99456,-0.75585 -4.5188,-1.31965 -1.52676,-0.55175 -3.08359,-1.22998 -4.6705,-2.03471"
       id="path3127"
       style="fill:#acacac;fill-opacity:1;stroke:#acacac;stroke-opacity:1" />
    <path
       d="m 225.02913,562.86949 -7.41182,-2.46676 -2.86864,-11.35816 -9.10293,7.37384 -7.42942,-2.47262 15.07982,-11.87701 3.68549,-11.0737 6.77802,2.25582 -3.68549,11.07371 4.95497,18.54488"
       id="path3129"
       style="fill:#acacac;fill-opacity:1;stroke:#acacac;stroke-opacity:1" />
    <path
       d="m 175.32816,542.51489 2.46779,-5.31865 c 1.09384,1.25751 2.22427,2.34792 3.3913,3.27126 1.16708,0.9233 2.33409,1.65569 3.50102,2.19716 1.54849,0.71846 2.79193,1.03631 3.73032,0.95355 0.93843,-0.0828 1.61589,-0.57301 2.03238,-1.47066 0.3124,-0.67326 0.31023,-1.31517 -0.006,-1.92574 -0.33311,-0.60459 -1.09362,-1.34609 -2.28151,-2.22452 l -2.50261,-1.83618 c -2.53363,-1.85741 -4.12403,-3.63171 -4.77119,-5.32289 -0.64712,-1.69118 -0.48129,-3.59153 0.49747,-5.70103 1.28598,-2.77153 3.06867,-4.45349 5.34806,-5.04589 2.26301,-0.58636 5.08324,-0.096 8.46068,1.47109 1.59336,0.7393 3.12204,1.63268 4.58603,2.68014 1.46401,1.04747 2.86033,2.2408 4.18896,3.58 l -2.53808,5.47014 c -1.20888,-1.59729 -2.45799,-2.96095 -3.74731,-4.091 -1.30574,-1.12404 -2.6543,-2.00884 -4.04569,-2.65443 -1.4138,-0.65599 -2.60594,-0.92276 -3.57642,-0.80032 -0.97043,0.12246 -1.65871,0.62129 -2.06482,1.49651 -0.36442,0.78546 -0.38749,1.51112 -0.0692,2.17701 0.30712,0.66067 1.14558,1.51334 2.5154,2.55803 l 2.25014,1.71904 c 2.26356,1.7048 3.70549,3.41703 4.32577,5.13667 0.60909,1.71442 0.45027,3.57029 -0.47646,5.5676 -1.161,2.50222 -2.86178,4.05173 -5.10234,4.64854 -2.24053,0.59676 -4.87561,0.1923 -7.90524,-1.21338 -1.38014,-0.6404 -2.7501,-1.40559 -4.10991,-2.29559 -1.36496,-0.87881 -2.73098,-1.88763 -4.09807,-3.02646"
       id="path3131"
       style="fill:#acacac;fill-opacity:1;stroke:#acacac;stroke-opacity:1" />
    <path
       d="m 167.943,539.79543 -21.8525,-13.20277 2.79216,-4.62143 7.86118,4.74955 11.53323,-19.08917 6.11426,3.69409 -11.53324,19.08917 7.87706,4.75914 -2.79215,4.62142"
       id="path3133"
       style="fill:#acacac;fill-opacity:1;stroke:#acacac;stroke-opacity:1" />
    <path
       d="m 140.71151,522.73383 -15.35745,-11.65343 3.26385,-4.30127 9.66677,7.33527 3.11805,-4.10912 -9.09031,-6.89784 3.26386,-4.30127 9.09031,6.89784 3.83587,-5.0551 -9.99195,-7.58202 3.26386,-4.30126 15.68263,11.90018 -16.74549,22.06802"
       id="path3135"
       style="fill:#acacac;fill-opacity:1;stroke:#acacac;stroke-opacity:1" />
    <path
       d="m 117.28542,504.57938 -6.46297,-6.39459 5.9426,-14.97566 -14.93799,6.07543 -6.449781,-6.38154 19.483931,-19.69227 4.80106,4.75027 -14.2508,14.40318 15.04267,-6.12847 3.21829,3.18425 -5.96813,15.107 14.2508,-14.40319 4.81425,4.76332 -19.48393,19.69227"
       id="path3137"
       style="fill:#acacac;fill-opacity:1;stroke:#acacac;stroke-opacity:1" />
    <path
       d="m 70.917027,450.99614 -6.179559,-10.11871 c -1.837394,-3.0087 -2.57573,-5.72475 -2.215009,-8.14817 0.343785,-2.42753 1.750807,-4.3956 4.221071,-5.90424 2.48088,-1.51505 4.884866,-1.87438 7.211966,-1.07799 2.310141,0.79231 4.383913,2.69281 6.221323,5.70149 l 2.45635,4.02215 8.20265,-5.00941 3.723208,6.09657 -23.642,14.43831 m 0.694821,-8.79468 6.603291,-4.03267 -2.059852,-3.37291 c -0.722056,-1.18235 -1.564765,-1.92145 -2.528129,-2.21727 -0.973875,-0.28937 -1.988665,-0.1117 -3.044372,0.533 -1.055655,0.64472 -1.671893,1.46313 -1.848715,2.45523 -0.176766,0.99212 0.09588,2.07935 0.817924,3.26171 l 2.059853,3.37291"
       id="path3139"
       style="fill:#acacac;fill-opacity:1;stroke:#acacac;stroke-opacity:1" />
    <path
       d="m 62.106217,409.83494 c -0.625895,-1.35958 -1.326163,-2.21513 -2.100803,-2.56664 -0.77977,-0.36274 -1.748333,-0.27771 -2.90569,0.25509 -1.146071,0.52764 -1.829236,1.20302 -2.049496,2.02614 -0.225379,0.81189 -0.02512,1.89763 0.600764,3.25721 l 1.257005,2.73041 6.455225,-2.97181 -1.257005,-2.7304 m 5.740268,0.66643 9.522721,-4.38399 2.987325,6.48893 -25.163579,11.58462 -4.562461,-9.91038 c -1.52596,-3.31468 -2.087103,-5.99777 -1.683429,-8.04925 0.398567,-2.06271 1.800111,-3.64756 4.204637,-4.75456 1.662992,-0.76557 3.214418,-0.98957 4.654282,-0.672 1.434739,0.30637 2.777357,1.15217 4.027859,2.53739 -0.206383,-0.98076 -0.110384,-1.985 0.287999,-3.01272 0.382013,-1.03376 1.132215,-2.24386 2.25061,-3.63029 l 5.524563,-6.8125 3.181308,6.91029 -4.840782,5.94619 c -0.973938,1.19737 -1.543831,2.22232 -1.709679,3.07486 -0.170991,0.84133 -0.01337,1.79009 0.472864,2.84629 l 0.845762,1.83712"
       id="path3141"
       style="fill:#acacac;fill-opacity:1;stroke:#acacac;stroke-opacity:1" />
    <path
       d="m 42.624916,395.07336 -2.395041,-6.7301 26.098777,-9.28778 2.395041,6.7301 -26.098777,9.28778"
       id="path3143"
       style="fill:#acacac;fill-opacity:1;stroke:#acacac;stroke-opacity:1" />
    <path
       d="m 40.517493,370.99611 16.384439,-4.15601 -0.62956,-2.48194 c -0.71775,-2.82965 -1.966611,-4.80994 -3.746588,-5.94089 -1.782994,-1.1429 -4.011389,-1.37525 -6.685192,-0.69705 -2.661775,0.6752 -4.499533,1.93257 -5.513277,3.77212 -1.013696,1.83958 -1.160157,4.18019 -0.439382,7.02182 l 0.62956,2.48195 m -3.477288,8.25182 -1.852183,-7.30196 c -1.034029,-4.07662 -1.509734,-7.18462 -1.427115,-9.32401 0.06765,-2.14831 0.615921,-4.11228 1.644819,-5.89191 0.891684,-1.56611 2.051302,-2.85566 3.478855,-3.86863 1.427606,-1.01293 3.142566,-1.77336 5.144886,-2.28129 2.026342,-0.51396 3.914396,-0.66746 5.664168,-0.46049 1.737812,0.21006 3.37188,0.79097 4.902208,1.74273 1.755819,1.08603 3.182954,2.56169 4.281408,4.42698 1.086475,1.86836 2.140656,4.81686 3.162547,8.84552 l 1.852182,7.30195 -26.851775,6.81111"
       id="path3145"
       style="fill:#acacac;fill-opacity:1;stroke:#acacac;stroke-opacity:1" />
    <path
       d="m 29.227435,345.34816 -2.523496,-19.11245 5.352956,-0.70677 1.588418,12.03036 5.113821,-0.6752 -1.493696,-11.31295 5.352957,-0.70678 1.493696,11.31295 6.291103,-0.83064 -1.641851,-12.43504 5.352957,-0.70678 2.576929,19.51714 -27.463794,3.62616"
       id="path3147"
       style="fill:#acacac;fill-opacity:1;stroke:#acacac;stroke-opacity:1" />
    <path
       d="m 28.324544,267.95075 5.841143,0.50903 c -0.80984,1.4567 -1.450116,2.8909 -1.92083,4.30261 -0.470672,1.41175 -0.761861,2.75842 -0.873569,4.04 -0.148177,1.7006 -0.02358,2.97796 0.373801,3.83208 0.39742,0.85414 1.089043,1.32416 2.07487,1.41007 0.739403,0.0644 1.342214,-0.15619 1.808433,-0.66191 0.455004,-0.51908 0.893198,-1.48665 1.314583,-2.90269 l 0.874173,-2.97832 c 0.883571,-3.01473 2.010206,-5.1143 3.379908,-6.29871 1.369725,-1.18436 3.212951,-1.6756 5.529682,-1.47374 3.043806,0.26528 5.23232,1.36863 6.565548,3.31004 1.321979,1.92806 1.821346,4.7467 1.498103,8.45593 -0.152496,1.74989 -0.471889,3.49143 -0.95818,5.22463 -0.486292,1.73321 -1.132783,3.45246 -1.939475,5.15774 l -6.007505,-0.52353 c 1.090129,-1.68058 1.946904,-3.31942 2.570329,-4.91651 0.612184,-1.61048 0.984856,-3.17975 1.118017,-4.70782 0.135315,-1.5527 -0.01984,-2.76443 -0.465459,-3.63519 -0.445614,-0.87074 -1.149022,-1.34799 -2.110228,-1.43178 -0.862609,-0.0752 -1.552755,0.15029 -2.07044,0.67632 -0.516594,0.51375 -1.032767,1.59248 -1.54852,3.23618 l -0.85001,2.70105 c -0.832052,2.70884 -1.950887,4.64767 -3.35651,5.8165 -1.404521,1.15652 -3.203542,1.63921 -5.397069,1.44805 -2.748026,-0.23948 -4.784112,-1.31092 -6.108265,-3.21431 -1.324101,-1.90339 -1.841187,-4.5187 -1.55126,-7.84594 0.132117,-1.51573 0.385035,-3.06439 0.758755,-4.64601 0.361449,-1.58265 0.844773,-3.21057 1.449975,-4.88377"
       id="path3149"
       style="fill:#acacac;fill-opacity:1;stroke:#acacac;stroke-opacity:1" />
    <path
       d="m 29.003755,256.84707 3.74976,-18.91012 5.296292,1.05022 -2.360292,11.903 5.059688,1.00331 2.21954,-11.1932 5.296292,1.05023 -2.21954,11.19319 6.224508,1.23428 2.439689,-12.30341 5.296292,1.05022 -3.829157,19.31053 -27.173072,-5.38825"
       id="path3151"
       style="fill:#acacac;fill-opacity:1;stroke:#acacac;stroke-opacity:1" />
    <path
       d="m 49.914469,222.45037 c 0.4543,-1.42612 0.51387,-2.5301 0.17871,-3.31196 -0.331384,-0.7936 -1.104073,-1.38376 -2.318069,-1.7705 -1.202184,-0.38293 -2.162073,-0.34467 -2.879669,0.11479 -0.713811,0.44771 -1.297868,1.38462 -1.752175,2.81073 l -0.912333,2.86406 6.771202,2.15694 0.912334,-2.86406 m 3.790382,4.36209 9.98885,3.1819 -2.1682,6.80657 -26.395316,-8.40812 3.311433,-10.39547 c 1.107586,-3.47692 2.501968,-5.8369 4.183148,-7.07996 1.684971,-1.25478 3.788575,-1.48046 6.310819,-0.67703 1.744376,0.55569 3.041244,1.43616 3.890608,2.64141 0.853135,1.19353 1.274568,2.72336 1.264301,4.58951 0.50876,-0.86351 1.256686,-1.54051 2.243777,-2.031 0.979068,-0.50598 2.348955,-0.89397 4.109666,-1.164 l 8.67308,-1.30715 -2.308992,7.24855 -7.584018,1.12829 c -1.526553,0.22776 -2.63845,0.60057 -3.335694,1.11844 -0.693481,0.50611 -1.216683,1.31312 -1.569608,2.42101 l -0.613854,1.92705"
       id="path3153"
       style="fill:#acacac;fill-opacity:1;stroke:#acacac;stroke-opacity:1" />
    <path
       d="m 44.234775,200.5322 2.987461,-6.5297 21.650559,1.82537 -15.544406,-15.17161 2.98746,-6.5297 20.921913,20.85582 -3.543267,7.74453 -29.45972,-2.19471"
       id="path3155"
       style="fill:#acacac;fill-opacity:1;stroke:#acacac;stroke-opacity:1" />
    <path
       d="m 59.553632,168.88681 3.539653,-6.20494 24.062258,13.7265 -3.539653,6.20494 -24.062258,-13.7265"
       id="path3157"
       style="fill:#acacac;fill-opacity:1;stroke:#acacac;stroke-opacity:1" />
    <path
       d="m 101.87767,151.34705 c -0.18486,1.46561 -0.53877,2.88214 -1.06172,4.24962 -0.52297,1.36752 -1.223595,2.68755 -2.101864,3.9601 -2.620797,3.79736 -5.755827,6.07498 -9.405098,6.83288 -3.659454,0.75088 -7.306407,-0.12787 -10.940871,-2.63625 -3.644623,-2.51538 -5.759857,-5.61348 -6.345706,-9.29432 -0.595997,-3.68782 0.41639,-7.43041 3.037163,-11.22778 0.878293,-1.27254 1.863969,-2.39584 2.957031,-3.3699 1.093083,-0.974 2.291975,-1.80736 3.596679,-2.50009 l 4.718685,3.25667 c -1.494984,0.57643 -2.780911,1.27458 -3.857785,2.09443 -1.076861,0.81992 -2.019303,1.81524 -2.827329,2.98597 -1.447396,2.09722 -1.913731,4.2102 -1.399006,6.33895 0.514746,2.12879 1.953057,4.00821 4.314936,5.63829 2.351711,1.62307 4.614028,2.29768 6.786956,2.02383 2.172927,-0.27383 3.983093,-1.45935 5.430504,-3.55655 0.808011,-1.17075 1.404315,-2.40496 1.788913,-3.70265 0.384583,-1.29765 0.581192,-2.7476 0.589828,-4.34986 l 4.718684,3.25666"
       id="path3159"
       style="fill:#acacac;fill-opacity:1;stroke:#acacac;stroke-opacity:1" />
    <path
       d="m 85.927574,129.42593 12.625806,-14.56855 4.08032,3.5362 -7.947335,9.17019 3.898033,3.37823 7.473412,-8.62335 4.08031,3.5362 -7.47341,8.62334 4.79543,4.15595 8.21467,-9.47867 4.08031,3.5362 -12.89314,14.87702 -20.934406,-18.14276"
       id="path3161"
       style="fill:#acacac;fill-opacity:1;stroke:#acacac;stroke-opacity:1" />
    <path
       d="m 124.55269,90.254021 20.45384,-15.280218 3.2315,4.325631 -7.35803,5.496881 13.34798,17.867385 -5.72292,4.27535 -13.34798,-17.867384 -7.37289,5.507986 -3.2315,-4.325631"
       id="path3163"
       style="fill:#acacac;fill-opacity:1;stroke:#acacac;stroke-opacity:1" />
    <path
       d="m 165.69253,76.766216 c 1.29191,-0.755758 2.07493,-1.536277 2.34906,-2.341561 0.2848,-0.811484 0.10553,-1.767102 -0.53781,-2.866855 -0.63711,-1.089025 -1.37602,-1.702923 -2.21672,-1.841693 -0.83004,-0.144963 -1.89101,0.160432 -3.18292,0.916183 l -2.59451,1.517804 3.58839,6.133925 2.59451,-1.517803 m -0.10231,5.777919 5.29357,9.048741 -6.16596,3.607125 -13.98815,-23.911098 9.4171,-5.509065 c 3.14971,-1.842568 5.76511,-2.663215 7.84623,-2.461944 2.09178,0.195092 3.806,1.435057 5.14268,3.719899 0.92441,1.580221 1.29894,3.102333 1.12359,4.566339 -0.1647,1.45781 -0.87524,2.876654 -2.13164,4.256534 0.9559,-0.301235 1.96471,-0.303829 3.02645,-0.0078 1.06614,0.279166 2.34375,0.907528 3.83284,1.885087 l 7.31976,4.832406 -6.56634,3.841355 -6.39078,-4.236553 c -1.28681,-0.852271 -2.36254,-1.319278 -3.22721,-1.401022 -0.85401,-0.08796 -1.78283,0.161622 -2.78646,0.748739 l -1.74568,1.021239"
       id="path3165"
       style="fill:#acacac;fill-opacity:1;stroke:#acacac;stroke-opacity:1" />
    <path
       d="m 203.59058,69.465825 -10.24821,4.443132 0.39029,5.331577 -6.58814,2.856299 -1.60521,-29.497715 7.81384,-3.387703 20.43331,21.334753 -6.58814,2.856298 -3.60774,-3.936641 m -10.65837,-0.980944 6.96265,-3.018673 -7.8569,-8.606372 0.89425,11.625045"
       id="path3167"
       style="fill:#acacac;fill-opacity:1;stroke:#acacac;stroke-opacity:1" />
    <path
       d="m 217.91678,46.019988 4.7336,16.226991 2.4581,-0.717056 c 2.80245,-0.817502 4.73727,-2.135707 5.80448,-3.954616 1.07905,-1.822348 1.23234,-4.057574 0.45988,-6.705683 -0.76904,-2.636196 -2.0907,-4.428275 -3.96499,-5.376242 -1.87432,-0.947917 -4.21865,-1.0114 -7.03298,-0.190449 l -2.45809,0.717055 m -8.36978,-3.182894 7.23178,-2.109598 c 4.03745,-1.177741 7.12665,-1.763207 9.26762,-1.756401 2.14937,-0.0085 4.13152,0.469911 5.94647,1.435143 1.59671,0.835666 2.92651,1.948891 3.9894,3.339678 1.06284,1.390841 1.88353,3.077797 2.46204,5.060874 0.5854,2.006871 0.80566,3.888305 0.66079,5.644309 -0.14839,1.744161 -0.67107,3.397775 -1.56804,4.960846 -1.02318,1.793177 -2.44737,3.271672 -4.27259,4.435491 -1.82872,1.151956 -4.73804,2.309888 -8.72798,3.4738 l -7.23179,2.109598 -7.7577,-26.59374"
       id="path3169"
       style="fill:#acacac;fill-opacity:1;stroke:#acacac;stroke-opacity:1" />
    <path
       d="m 242.52365,34.103697 7.01411,-1.353763 5.24979,27.20016 -7.01411,1.353764 -5.24979,-27.200161"
       id="path3171"
       style="fill:#acacac;fill-opacity:1;stroke:#acacac;stroke-opacity:1" />
    <path
       d="m 255.41382,31.48119 25.37978,-2.776966 0.58728,5.36738 -9.13008,0.998982 2.42581,22.170417 -7.10118,0.776985 -2.42581,-22.170417 -9.14852,1.000999 -0.58728,-5.36738"
       id="path3173"
       style="fill:#acacac;fill-opacity:1;stroke:#acacac;stroke-opacity:1" />
    <path
       d="m 286.76409,28.67379 7.141,-0.191225 0.74155,27.692221 -7.14099,0.191225 -0.74156,-27.692221"
       id="path3175"
       style="fill:#acacac;fill-opacity:1;stroke:#acacac;stroke-opacity:1" />
    <path
       d="m 315.90726,33.790488 c -2.17192,-0.150016 -3.9118,0.535744 -5.21962,2.057281 -1.30785,1.521576 -2.06237,3.738518 -2.26354,6.650832 -0.20035,2.9 0.24258,5.193463 1.32878,6.880396 1.08619,1.686945 2.71523,2.605434 4.88716,2.755468 2.18423,0.150893 3.93027,-0.53444 5.23813,-2.056003 1.30782,-1.521551 2.0619,-3.732323 2.26226,-6.632322 0.20116,-2.912314 -0.24134,-5.211948 -1.32751,-6.898906 -1.08622,-1.68692 -2.72143,-2.605834 -4.90566,-2.756746 m 0.35676,-5.16445 c 4.44252,0.306922 7.8347,1.818381 10.17655,4.534382 2.34179,2.716046 3.35798,6.313834 3.04856,10.793376 -0.30863,4.467226 -1.80946,7.884937 -4.50248,10.253144 -2.69307,2.368211 -6.26086,3.398868 -10.70338,3.091974 -4.43021,-0.306044 -7.82239,-1.817503 -10.17654,-4.534381 -2.34183,-2.716021 -3.35844,-6.307639 -3.04984,-10.774866 0.30945,-4.479541 1.8107,-7.903422 4.50375,-10.271655 2.70538,-2.367332 6.27317,-3.397989 10.70338,-3.091974"
       id="path3177"
       style="fill:#acacac;fill-opacity:1;stroke:#acacac;stroke-opacity:1" />
    <path
       d="m 339.38592,31.441224 7.8197,1.583952 6.10264,20.622013 3.77202,-18.621812 6.63765,1.344518 -5.49963,27.150747 -7.8197,-1.583952 -6.10264,-20.622013 -3.77202,18.621812 -6.63765,-1.344518 5.49963,-27.150747"
       id="path3179"
       style="fill:#acacac;fill-opacity:1;stroke:#acacac;stroke-opacity:1" />
    <path
       d="m 400.73656,48.779444 6.57306,2.797365 -10.84796,25.489816 -6.57306,-2.797364 10.84796,-25.489817"
       id="path3181"
       style="fill:#acacac;fill-opacity:1;stroke:#acacac;stroke-opacity:1" />
    <path
       d="m 416.18931,55.399489 7.01375,3.80316 -0.19993,21.505106 9.05683,-16.702512 5.95353,3.228264 -13.20493,24.352392 -7.01375,-3.80316 0.19993,-21.505106 -9.05682,16.702511 -5.95354,-3.228263 13.20493,-24.352392"
       id="path3183"
       style="fill:#acacac;fill-opacity:1;stroke:#acacac;stroke-opacity:1" />
    <path
       d="m 447.01528,72.898542 6.46263,4.678793 -2.98111,21.298417 11.14206,-15.39008 5.48572,3.971534 -16.2452,22.438854 -6.46264,-4.67879 2.98111,-21.298418 -11.14206,15.39008 -5.48572,-3.971534 16.24521,-22.438856"
       id="path3185"
       style="fill:#acacac;fill-opacity:1;stroke:#acacac;stroke-opacity:1" />
    <path
       d="m 481.30104,106.31608 c -1.58435,-1.49318 -3.36456,-2.06613 -5.34064,-1.71885 -1.97612,0.34729 -3.96528,1.58315 -5.9675,3.70757 -1.99376,2.11543 -3.10551,4.16974 -3.33524,6.16293 -0.22976,1.99318 0.44752,3.73637 2.03186,5.22957 1.5933,1.50166 3.37801,2.07886 5.35413,1.73158 1.97608,-0.34729 3.96101,-1.57865 5.95478,-3.69407 2.0022,-2.12443 3.11819,-4.18324 3.34797,-6.17643 0.22972,-1.99319 -0.45207,-3.74062 -2.04536,-5.2423 m 3.55057,-3.76726 c 3.24062,3.05426 4.90528,6.37394 4.99397,9.95906 0.0886,3.58512 -1.40689,7.0115 -4.48656,10.27917 -3.07125,3.25865 -6.3989,4.9498 -9.98296,5.07344 -3.5841,0.12362 -6.99647,-1.34169 -10.23711,-4.39593 -3.23167,-3.04578 -4.89632,-6.36546 -4.99398,-9.95906 -0.0887,-3.58512 1.40261,-7.007 4.47384,-10.26567 3.07969,-3.26765 6.41158,-4.963295 9.99569,-5.086941 3.59306,-0.115134 7.00542,1.350175 10.23711,4.395931"
       id="path3187"
       style="fill:#acacac;fill-opacity:1;stroke:#acacac;stroke-opacity:1" />
    <path
       d="m 497.80978,115.94097 4.60142,5.5126 -10.98897,18.74357 20.39394,-7.47619 4.60143,5.5126 -27.84215,9.87456 -5.4575,-6.53821 14.69183,-25.62893"
       id="path3189"
       style="fill:#acacac;fill-opacity:1;stroke:#acacac;stroke-opacity:1" />
    <path
       d="m 509.04443,168.25248 -6.18704,-9.29988 -5.1783,1.32788 -3.97738,-5.97849 28.74776,-6.80135 4.71736,7.09077 -17.38088,23.88717 -3.97738,-5.97849 3.23586,-4.24761 m -0.92122,-10.6637 4.20348,6.31835 7.07969,-9.25627 -11.28317,2.93792"
       id="path3191"
       style="fill:#acacac;fill-opacity:1;stroke:#acacac;stroke-opacity:1" />
    <path
       d="m 532.88963,163.53722 11.79749,22.64208 -4.78841,2.49497 -4.24401,-8.14523 -19.77891,10.30566 -3.3009,-6.33517 19.77892,-10.30566 -4.25259,-8.16168 4.78841,-2.49497"
       id="path3193"
       style="fill:#acacac;fill-opacity:1;stroke:#acacac;stroke-opacity:1" />
    <path
       d="m 546.88332,191.73789 2.76807,6.58545 -25.53786,10.73436 -2.76807,-6.58545 25.53786,-10.73436"
       id="path3195"
       style="fill:#acacac;fill-opacity:1;stroke:#acacac;stroke-opacity:1" />
    <path
       d="m 552.68445,220.74844 c -0.64826,-2.07835 -1.91857,-3.45083 -3.81095,-4.11747 -1.89242,-0.66664 -4.23205,-0.56535 -7.01889,0.30387 -2.77507,0.86553 -4.75153,2.11042 -5.92939,3.73468 -1.17788,1.62425 -1.4427,3.47554 -0.79446,5.55389 0.6519,2.09013 1.92406,3.46853 3.81647,4.13518 1.89238,0.66663 4.22611,0.56718 7.00118,-0.29834 2.78684,-0.86923 4.7692,-2.11597 5.9471,-3.74021 1.17785,-1.62427 1.44082,-3.48146 0.78894,-5.5716 m 4.94195,-1.54139 c 1.3259,4.25113 1.14824,7.96056 -0.53297,11.12828 -1.68127,3.16768 -4.66517,5.42002 -8.95172,6.75702 -4.27478,1.33327 -8.00414,1.17479 -11.18808,-0.47544 -3.18397,-1.65028 -5.43891,-4.60098 -6.76483,-8.85211 -1.32225,-4.23935 -1.14459,-7.94877 0.53297,-11.12828 1.68124,-3.16771 4.65924,-5.4182 8.93401,-6.7515 4.28655,-1.33697 8.02182,-1.18033 11.2058,0.46992 3.18761,1.66207 5.44255,4.61277 6.76482,8.85211"
       id="path3197"
       style="fill:#acacac;fill-opacity:1;stroke:#acacac;stroke-opacity:1" />
    <path
       d="m 563.39375,241.77027 1.36239,7.86133 -17.00054,13.17161 18.72095,-3.24438 1.15644,6.67299 -27.29529,4.73034 -1.36239,-7.86134 17.00054,-13.17161 -18.72095,3.24439 -1.15644,-6.673 27.29529,-4.73033"
       id="path3199"
       style="fill:#acacac;fill-opacity:1;stroke:#acacac;stroke-opacity:1" />
  </g>
  <path
     d="m 545.63843,205.05989 -7.87783,-2.67146 -6.66673,4.97509 0.10631,-8.31779 -6.79172,-4.80305 7.94354,-2.46922 2.46922,-7.94354 4.80306,6.79172 8.31778,-0.10631 -4.97508,6.66673 z"
     id="path2820"
     style="fill:#ffffff;fill-opacity:1;stroke:none" />
  <g
     transform="matrix(0.22858502,0,0,0.22858163,262.52499,155.21801)"
     id="g3602">
    <path
       d="m 260.47807,319.1943 c 4.66232,-10.59836 4.66232,-27.79019 0,-38.38855 L 142.49708,12.106173 c -4.65555,-10.5983595 -12.19793,-10.5983595 -16.86024,0 L 7.6490649,280.80575 c -4.6555487,10.59836 -4.6555487,27.79019 0,38.38855 L 125.63684,587.89387 c 4.66231,10.59836 12.20469,10.59836 16.86024,0 L 260.47807,319.1943 z"
       id="path3026"
       style="fill:#ffffff;fill-opacity:1;stroke:#000000;stroke-width:8.31480694;stroke-linejoin:round;stroke-opacity:1" />
    <path
       d="M 133.89077,29.772363 245.21034,283.10974 c 4.09307,9.33116 4.09307,24.44941 0,33.78057 L 134.23637,569.62458 22.930354,316.89031 c -4.093087,-9.33116 -4.093087,-24.44941 0,-33.78057 L 133.89077,29.772363 m -92.677098,300.989327 9.311081,0 0,-23.72433 9.819325,0 c 7.034139,0 7.413624,3.20526 7.413624,11.48607 0,6.24788 0.379485,9.37183 1.009713,12.24504 l 10.510545,0 0,-1.59924 c -2.026216,-1.0097 -2.026216,-3.21204 -2.026216,-12.07562 0,-11.31668 -2.026199,-13.17341 -5.766894,-15.36898 4.499665,-2.02617 7.034124,-7.76581 7.034124,-14.44061 0,-5.23141 -2.21595,-17.13762 -14.312217,-17.13762 l -22.993085,0 0,60.61529 z m 9.311081,-33.94321 0,-16.2228 11.852313,0 c 5.570386,0 6.647865,4.72996 6.647865,7.94198 0,5.99715 -2.4057,8.28082 -7.345859,8.28082 l -11.154319,0 z m 77.443237,156.29191 -9.22298,0 0,51.97533 31.18601,0 0,-9.41248 -21.95624,0 0,-42.56285 z m 59.2209,-122.3487 9.31786,0 0,-23.72433 9.80578,0 c 7.02735,0 7.41362,3.20526 7.41362,11.48607 0,6.24788 0.38626,9.37183 1.01649,12.24504 l 10.51054,0 0,-1.59924 c -2.02621,-1.0097 -2.02621,-3.21204 -2.02621,-12.07562 0,-11.31668 -2.0262,-13.17341 -5.7669,-15.36898 4.4929,-2.02617 7.03413,-7.76581 7.03413,-14.44061 0,-5.23141 -2.22273,-17.13762 -14.31899,-17.13762 l -22.99309,0 0,60.61529 z m 9.31786,-33.94321 0,-16.2228 11.83199,0 c 5.57716,0 6.65464,4.72996 6.65464,7.94198 0,5.99715 -2.4057,8.28082 -7.34586,8.28082 l -11.14077,0 z m -71.8593,-174.12075 16.36554,0 2.84618,11.43188 10.06329,0 -15.62689,-55.444877 -10.68673,0 -15.80987,55.444877 9.75833,0 3.09015,-11.43188 z m 8.15227,-31.510457 0.12876,0 5.49585,21.928577 -11.29664,0 5.67203,-21.928577 z"
       id="path3032"
       style="fill:#000000;fill-opacity:1" />
    <path
       d="m 110.24712,404.34711 53.0745,0"
       id="line3094"
       style="fill:none;stroke:#ffffff;stroke-width:4.82556963;stroke-linecap:round;stroke-opacity:1" />
    <path
       d="m 116.27828,414.90475 41.61527,0"
       id="line3096"
       style="fill:none;stroke:#ffffff;stroke-width:4.82556963;stroke-linecap:round;stroke-opacity:1" />
    <path
       d="m 121.67929,425.45569 30.48122,0"
       id="line3098"
       style="fill:none;stroke:#ffffff;stroke-width:4.82556963;stroke-linecap:round;stroke-opacity:1" />
    <path
       d="m 128.76086,436.16925 16.4672,0"
       id="line3100"
       style="fill:none;stroke:#ffffff;stroke-width:4.82556963;stroke-linecap:round;stroke-opacity:1" />
    <path
       d="m 168.7565,394.1011 -64.54732,0"
       id="line3102"
       style="fill:none;stroke:#ffffff;stroke-width:4.82556963;stroke-linecap:round;stroke-opacity:1" />
    <path
       d="m 135.90342,358.18596 c -17.68699,-1.97195 -32.06697,-8.39602 -32.06697,-19.10958 0,-9.033 12.38087,-17.40868 29.85779,-19.4484 m 0.83352,-78.09171 0.0949,-85.70172 m 26.57789,-0.6031 -26.67956,51.88046 -26.68634,-51.88046 z m -26.95741,151.8669 c -17.6802,-1.97195 -30.40669,-11.24891 -30.40669,-20.35644 0,-9.033 13.58713,-18.12021 31.0708,-20.15992 m -0.53535,66.94449 c 2.63611,0.28461 5.43485,0.44725 8.26748,0.44725 13.1602,0 23.54199,-4.49957 23.54199,-7.80647 0,-3.31368 -11.2763,-7.20336 -24.44328,-7.20336 -2.85296,0 -5.55005,0.42692 -8.03708,0.67087 m 2.64961,38.84939 -0.0338,33.8822 m -1.62641,-111.71648 c 2.6361,0.28461 4.8114,0.57599 7.63724,0.57599 13.16021,0 23.84694,-4.1946 23.84694,-7.50152 0,-3.31368 -10.07006,-7.50829 -23.23703,-7.50829 -2.85974,0 -5.55005,0.12876 -8.03708,0.36593 m -0.65734,40.51636 c 2.62933,0.28461 5.25867,0.23718 8.08451,0.30493 13.83787,0.28462 23.84694,-4.19461 23.84694,-7.50829 0,-3.30691 -11.2763,-7.80647 -24.44327,-7.80647 -2.85297,0 -5.55007,0.12876 -8.03708,0.35915 m 4.42513,8.46379 m -0.96906,-0.18296 m -9.05356,7.58283 m 5.9702,-8.30792 m 0,0 m 0.75899,-58.16222 m 0,0 m 0,0 m 7.50171,31.88316 m -8.2607,7.05429 m 0.8403,-14.19665 m 8.82995,46.32377 m -9.34496,20.50552 c -18.08682,-2.0126 -30.56258,-11.75713 -30.56258,-20.50552 0,-9.03299 12.38089,-18.41837 29.85781,-20.46486 m 8.94514,35.53567 m -8.26071,5.54991 m -0.67766,-14.20343 m 10.04296,-32.58114 m -1.40955,13.2615 m -8.2607,7.05428 m -0.37271,-14.50837 M 143.7372,260.4493 m -9.04679,20.20058 c -17.68022,-1.97195 -30.86075,-11.10659 -30.86075,-20.20058 0,-9.03978 12.98401,-16.61584 30.4677,-18.65555 m 9.43984,97.68923 m -9.67025,-39.47957 m 3.08336,0.72509"
       id="path3176"
       style="fill:none;stroke:#ffffff;stroke-width:7.23733759;stroke-linecap:square;stroke-opacity:1" />
  </g>
  <path
     d="m 550.03119,371.03648 -4.23382,-7.16042 -8.2988,-0.57162 5.50163,-6.2393 -2.02082,-8.06926 7.63402,3.30431 7.04986,-4.41546 -0.78355,8.28148 6.37788,5.34037 -8.11828,1.81391 z"
     id="path3779"
     style="fill:#ffffff;fill-opacity:1;stroke:none" />
  <path
     d="m 411.9729,536.12061 2.29131,-7.99667 -5.28849,-6.42096 8.31333,-0.29194 4.47246,-7.01383 2.84662,7.81623 8.05262,2.08617 -6.55403,5.12264 0.50433,8.30316 -6.89723,-4.65027 z"
     id="path3781"
     style="fill:#ffffff;fill-opacity:1;stroke:none" />
  <path
     d="m 152.98252,527.34894 0.7696,-8.28279 -6.38686,-5.32961 8.11521,-1.82759 3.09512,-7.72121 4.24587,7.15327 8.29976,0.55765 -5.49112,6.24856 2.0344,8.06585 -7.63957,-3.29146 z"
     id="path3783"
     style="fill:#ffffff;fill-opacity:1;stroke:none" />
  <path
     d="m 37.404591,259.15307 2.051367,-8.06156 -5.477971,-6.26008 8.300902,-0.5402 4.260908,-7.14433 3.078872,7.7277 8.11136,1.84464 -6.398054,5.31618 0.752183,8.28438 -7.033088,-4.44212 z"
     id="path3785"
     style="fill:#ffffff;fill-opacity:1;stroke:none" />
  <path
     d="m 121.28469,423.97615 9.59361,2.3036 -1.02077,11.28481 9.81299,-10.0549 15.37656,-1.56268 -8.44733,-4.928 5.41028,-6.55974 -11.34716,1.48775 -7.67246,-4.0911 -2.91305,7.46008 -8.79269,4.66019 z"
     id="path3261"
     style="fill:#ffffff;fill-opacity:1;stroke:none" />
  <path
     d="m 156.51154,378.49004 7.29732,0.86841 -0.15966,8.98852 8.23428,-10.34194 16.09415,-0.70156 -8.73434,-4.64098 3.68805,-5.4116 -7.32864,1.63128 -8.67709,-3.94759 -2.4825,7.89064 -7.93157,5.66482 z"
     id="path3263"
     style="fill:#ffffff;fill-opacity:1;stroke:none" />
  <path
     d="m 226.06479,385.078 9.64685,0.94248 1.01858,9.58111 8.22734,-10.84656 13.86962,-0.007 -8.42879,-5.72894 3.56537,-6.46947 -7.65041,2.00165 -10.04746,-2.87352 -0.54731,7.39295 -9.65379,6.00742 z"
     id="path3265"
     style="fill:#ffffff;fill-opacity:1;stroke:none" />
  <path
     d="m 266.07867,344.91134 8.73944,0.71563 -0.79622,10.03482 8.90789,-8.69147 13.41592,-0.12056 -6.61398,-5.1618 4.81305,-5.33521 -9.69207,1.09424 -6.41783,-4.1212 -2.58898,6.48554 -9.76722,5.10001 z"
     id="path3267"
     style="fill:#ffffff;fill-opacity:1;stroke:none" />
  <path
     d="m 327.10876,342.51319 7.70936,1.87767 -0.5717,6.72463 7.02133,-6.45304 9.39508,3.21509 -4.03991,-7.20578 5.16028,-3.99957 -8.24994,0.28406 -5.39468,-4.76704 -3.07972,6.49249 -7.9501,3.83149 z"
     id="path3269"
     style="fill:#ffffff;fill-opacity:1;stroke:none" />
  <path
     d="m 380.10877,327.57801 6.64454,2.51655 -1.95596,7.57649 9.25743,-7.62435 11.09879,4.81232 -5.53064,-6.77986 6.01213,-4.31901 -9.1018,-1.1002 -4.01043,-4.97999 -2.5473,6.49248 -9.86676,3.40557 z"
     id="path3271"
     style="fill:#ffffff;fill-opacity:1;stroke:none" />
  <path
     d="m 470.34324,441.64423 c -1.28453,0.037 -2.76905,0.0268 -3.91584,0.0541 -1.30915,0.0312 -3.07853,-0.0363 -4.38754,0 -1.31103,0.0364 -3.04958,0.16326 -4.35978,0.22227 -2.10887,0.095 -4.8669,0.23184 -6.96972,0.41784 -2.04971,0.18131 -4.64962,0.60718 -6.69166,0.86055 -1.37933,0.17116 -3.36312,0.37178 -4.72151,0.66617 -1.5739,0.34108 -4.07482,0.91559 -5.64462,1.16326 -2.24619,0.3544 -4.46074,0.94013 -6.68312,1.42196 -1.30599,0.28313 -3.04699,0.52592 -4.27375,0.85673 -1.68875,0.4554 -3.84914,0.98254 -5.54835,1.39727 -1.94073,0.47368 -4.43712,1.11952 -6.36703,1.63566 -1.26704,0.33886 -3.24663,0.92206 -4.50116,1.30472 -2.2279,0.67961 -4.06448,1.14223 -6.27792,1.8676 -1.11692,0.366 -3.74766,1.23003 -4.82942,1.68977 -1.46855,0.62408 -3.46698,1.33004 -4.91553,1.9993 -1.38858,0.64156 -3.62331,1.46444 -5.05977,1.98998 -2.40305,0.87922 -5.15389,1.91182 -7.54748,2.81654 -1.97832,0.74776 -4.58558,1.88097 -6.52578,2.72276 -1.92173,0.83376 -4.3392,1.80439 -6.24809,2.6672 -1.95779,0.88493 -4.46932,1.96034 -6.40429,2.89412 -1.99613,0.96331 -4.99778,2.2575 -7.00826,3.19043 -2.21362,1.0272 -5.12742,2.48157 -7.27555,3.63961 -1.40608,0.75803 -3.45647,1.74308 -4.88275,2.46231 -2.12408,1.0711 -4.82997,2.37546 -7.0025,3.34441 -1.75427,0.7824 -4.02681,1.93791 -5.80379,2.6672 -1.57562,0.64663 -3.69359,1.55739 -5.26342,2.21802 -1.85964,0.78256 -4.29826,1.8424 -6.14974,2.64406 -2.21942,0.96095 -5.19575,2.17568 -7.4977,2.91725 -1.93156,0.62222 -4.07215,1.52794 -5.99817,2.1671 -2.01316,0.6681 -4.94551,1.76725 -6.91455,2.55607 -4.42718,1.77355 -10.50313,3.84414 -14.99541,5.44553 -1.79884,0.64123 -4.21185,1.44037 -6.05369,1.94484 -2.51924,0.69 -5.96143,1.52412 -8.4974,2.14972 -2.48432,0.61286 -5.68816,1.29924 -8.18404,1.86305 -2.31041,0.52188 -5.22047,0.98524 -7.56696,1.30813 -2.45997,0.33848 -5.15678,0.81557 -7.60344,1.23979 -1.70385,0.29543 -4.87979,0.75784 -6.59664,0.96475 -3.15168,0.37983 -6.98389,0.86945 -9.97417,1.0897 -5.4782,-0.5704 29.53043,9.13046 30.34484,9.30509 1.56985,0.34994 4.0234,1.05422 5.91487,0.30562 29.81666,-11.80073 66.69338,-21.94882 107.55039,-21.94882 10.84055,0 20.75969,-0.0932 31.05973,0.85 7.99738,-3.99863 18.32081,-9.67971 27.94585,-16.4387 9.55776,-6.71175 18.41714,-13.92423 26.37971,-20.82766 12.86994,-11.15801 21.30958,-21.79867 20.87242,-22.76179 -1.21724,-0.80443 -2.89601,-0.67535 -4.92727,-0.94351 z"
     id="path4845"
     style="fill:#acacac;fill-opacity:1;stroke:#000000;stroke-width:2.5;stroke-linecap:butt;stroke-linejoin:miter;stroke-miterlimit:4;stroke-opacity:1;stroke-dasharray:none" />
  <path
     d="m 491.77118,420.56746 c -25.22581,0.0163 -49.86536,1.81472 -73.8991,9.82344 -20.27291,6.80029 -40.23791,14.4773 -60.39626,21.6127 -20.45514,9.47158 -41.98719,16.40082 -63.46242,23.09607 -27.83754,7.72601 -56.60873,13.08852 -85.61808,11.21869 -21.98758,-0.36796 -45.95368,-4.37133 -62.70302,-19.75394 21.81783,-15.27618 43.73898,-30.51308 66.43583,-44.46877 2.81614,-1.71035 6.60131,-3.70063 6.60131,-3.70063 0,0 17.1593,10.56387 26.98128,12.27195 27.03608,4.70168 55.06532,5.97034 82.35979,3.0568 58.72457,-9.13739 114.85058,-32.30718 174.56365,-35.60696 -0.41231,3.19066 -1.47325,5.78213 -2.8017,9.69329 -2.4471,4.23181 -5.35075,9.62262 -8.06128,12.75736 z"
     id="path4853"
     style="fill:#acacac;fill-opacity:1;stroke:#000000;stroke-width:2.5;stroke-linecap:butt;stroke-linejoin:miter;stroke-miterlimit:4;stroke-opacity:1;stroke-dasharray:none" />
  <path
     d="m 411.92639,342.14124 c 2.89996,-0.3403 6.76252,-0.58307 9.68141,-0.65737 l 0,-9e-5 c 3.39744,-0.0864 7.9315,-0.0958 11.32986,-0.0611 3.60567,0.0368 8.6491,0.25504 12.24625,0.50574 3.49253,0.24341 7.86014,0.92222 11.32987,1.38917 2.14813,0.28909 5.02119,0.59379 7.16447,0.91684 4.03572,0.60831 8.51368,1.54723 12.4684,2.55606 3.12361,0.79682 8.09852,2.53878 11.10771,3.69519 1.47897,0.56836 3.20546,1.12965 4.91516,1.72257 1.70969,0.59292 3.38606,1.21246 4.77631,1.97261 2.27841,1.24578 5.10208,3.321 7.19228,4.86208 1.78719,1.3177 4.02829,3.34975 5.73087,4.77524 0.84793,0.70992 2.51977,2.13153 3.53042,2.91382 0.72742,0.56306 2.79324,1.21148 2.62842,1.772 l -1.28204,4.35999 -1.76145,4.11075 -3.65832,1.94778 -4.3787,1.7701 -7.1736,3.3539 -9.13005,3.81971 -8.94371,3.63338 -7.4531,3.07441 -11.92495,4.0992 -11.92496,3.81971 -11.73156,2.96393 -1.67116,0.29491 -6.97957,1.86778 -6.58635,1.27795 -6.88127,1.37625 -8.84734,1.67116 -6.97957,1.17965 -12.18967,1.37625 -8.84734,0.68813 -13.36931,0.39321 -11.94343,0.0128 -7.59954,0.0775 -4.73032,-0.23264 -4.73032,-0.46527 -4.57524,-1.1632 -5.11805,-1.0081 -5.97107,-1.93866 -3.87731,-1.0081 -6.90162,-2.17129 -5.3507,-2.24885 -4.42014,-1.86111 -4.73032,-2.48148 -6.59143,-3.72222 -4.49769,-2.94676 -3.64468,-2.86921 -3.79993,-4.55314 c 5.91717,-2.78486 7.2771,-3.69605 14.03836,-6.78858 6.76126,-3.09254 13.55278,-6.10675 19.63288,-8.6684 2.40908,-1.01499 5.64625,-2.29854 8.08085,-3.25065 3.80228,-1.48699 8.9001,-3.41653 12.71833,-4.86208 2.77063,-1.04895 6.45065,-2.49514 9.24716,-3.47292 2.54627,-0.89028 5.54911,-1.70201 8.0235,-2.43687 l 8.00456,3.50361 6.13706,2.04568 8.36872,1.67375 8.74067,2.04569 12.27412,2.04568 13.94787,2.23166 16.73744,1.85972 15.24967,0.92986 12.4601,0.18597 17.85327,0.18597 13.38995,-1.85972 9.48455,-1.3018 8.36872,-2.23166 2.41763,-0.74388 -7.62483,-0.74389 -10.41441,-1.11583 -8.74066,-0.74389 -10.97233,-1.48777 -7.99678,-1.85971 -11.34426,-2.97555 -6.69498,-1.67375 -6.509,-2.04568 -7.06692,-2.41763 -5.20721,-2.41763 -4.83526,-2.41763 -2.97554,-1.67375 -2.78958,-1.67374 -2.6036,-1.48777 6.69433,-1.21799 z"
     id="path4856"
     style="fill:#acacac;fill-opacity:1;stroke:#000000;stroke-width:2.5;stroke-linecap:butt;stroke-linejoin:miter;stroke-miterlimit:4;stroke-opacity:1;stroke-dasharray:none" />
</svg>
