<?xml version="1.0" encoding="UTF-8" standalone="no"?>
<!-- Created with Inkscape (http://www.inkscape.org/) -->

<svg
   xmlns:i="http://ns.adobe.com/AdobeIllustrator/10.0/"
   xmlns:dc="http://purl.org/dc/elements/1.1/"
   xmlns:cc="http://creativecommons.org/ns#"
   xmlns:rdf="http://www.w3.org/1999/02/22-rdf-syntax-ns#"
   xmlns:svg="http://www.w3.org/2000/svg"
   xmlns="http://www.w3.org/2000/svg"
   xmlns:xlink="http://www.w3.org/1999/xlink"
   xmlns:sodipodi="http://sodipodi.sourceforge.net/DTD/sodipodi-0.dtd"
   xmlns:inkscape="http://www.inkscape.org/namespaces/inkscape"
   width="599.55798"
   height="599.85883"
   id="svg2"
   sodipodi:version="0.32"
   inkscape:version="0.48.3.1 r9886"
   version="1.0"
   sodipodi:docname="nts_ca_en_bw.svg"
   inkscape:output_extension="org.inkscape.output.svg.inkscape"
   inkscape:export-filename="/home/tyler/f1/radio/logos/nts/nts_ca.png"
   inkscape:export-xdpi="96"
   inkscape:export-ydpi="96">
  <defs
     id="defs4" />
  <sodipodi:namedview
     id="base"
     pagecolor="#ffffff"
     bordercolor="#666666"
     borderopacity="1.0"
     gridtolerance="10000"
     guidetolerance="10"
     objecttolerance="10"
     inkscape:pageopacity="0.0"
     inkscape:pageshadow="2"
     inkscape:zoom="1.1952812"
     inkscape:cx="301.45225"
     inkscape:cy="299.92942"
     inkscape:document-units="px"
     inkscape:current-layer="layer1"
     showgrid="false"
     showguides="true"
     inkscape:guide-bbox="true"
     inkscape:window-width="1392"
     inkscape:window-height="972"
     inkscape:window-x="0"
     inkscape:window-y="31"
     borderlayer="true"
     inkscape:window-maximized="0" />
  <metadata
     id="metadata7">
    <rdf:RDF>
      <cc:Work
         rdf:about="">
        <dc:format>image/svg+xml</dc:format>
        <dc:type
           rdf:resource="http://purl.org/dc/dcmitype/StillImage" />
        <dc:title></dc:title>
        <dc:creator>
          <cc:Agent>
            <dc:title>Tyler Tidman VA3DGN</dc:title>
          </cc:Agent>
        </dc:creator>
      </cc:Work>
    </rdf:RDF>
  </metadata>
  <g
     inkscape:label="Layer 1"
     inkscape:groupmode="layer"
     id="layer1"
     transform="translate(-449.91267,-366.47154)">
    <g
       id="g4096">
      <path
         transform="matrix(0.8884077,0,0,0.8888573,341.00635,205.88402)"
         d="m 794.63998,518.09998 c 0,184.80552 -149.81447,334.61999 -334.61999,334.61999 -184.80552,0 -334.62,-149.81447 -334.62,-334.61999 0,-184.80552 149.81448,-334.62 334.62,-334.62 184.80552,0 334.61999,149.81448 334.61999,334.62 z"
         sodipodi:ry="334.62"
         sodipodi:rx="334.62"
         sodipodi:cy="518.09998"
         sodipodi:cx="460.01999"
         id="path2909"
         style="fill:#ffffff;fill-opacity:1;stroke:#000000;stroke-width:5.62662363;stroke-linecap:square;stroke-linejoin:miter;stroke-miterlimit:4;stroke-opacity:1;stroke-dasharray:none"
         sodipodi:type="arc" />
      <path
         transform="matrix(1.2314838,0,0,1.2314838,615.54693,178.46281)"
         d="m 305.36748,396.55939 c 0,109.50686 -88.77285,198.27971 -198.27971,198.27971 -109.5068609,0 -198.27971,-88.77285 -198.27971,-198.27971 0,-109.50686 88.7728491,-198.27971 198.27971,-198.27971 109.50686,0 198.27971,88.77285 198.27971,198.27971 z"
         sodipodi:ry="198.27971"
         sodipodi:rx="198.27971"
         sodipodi:cy="396.55939"
         sodipodi:cx="107.08777"
         id="path3674"
         style="fill:none;stroke:#4ef18f;stroke-width:1;stroke-miterlimit:4;stroke-opacity:1;stroke-dasharray:none"
         sodipodi:type="arc" />
      <path
         id="path2915"
         d="m 745.42793,380.71785 c -155.92691,1.9783 -281.86237,129.22185 -281.86236,285.69426 0,157.70448 127.92506,285.69422 285.54975,285.69431 157.62471,0 285.54978,-127.98985 285.54978,-285.69431 0,-157.70446 -127.92506,-285.69427 -285.54978,-285.69426 -1.23143,0 -2.45962,-0.0156 -3.68739,0 z m 3.71533,51.31429 c 128.64,0 233.0323,104.47308 233.0323,233.17818 0,128.70507 -104.3923,233.15022 -233.0323,233.15022 -128.63999,0 -233.0323,-104.44513 -233.0323,-233.15022 0,-128.70511 104.39231,-233.17818 233.0323,-233.17818 z"
         style="fill:#000000;fill-opacity:1;stroke:none" />
      <path
         style="fill:#000000;fill-opacity:1;fill-rule:evenodd;stroke:none"
         d="m 662.67734,550.38098 3.58541,13.49481 -0.5122,12.12825 0.34146,9.22429 5.80496,-0.85409 15.19533,-2.39149 11.95138,-1.53738 7.51228,-0.34165 12.46359,-0.68327 -0.34147,14.86137 -0.68293,16.56958 -0.51221,13.32399 -0.85367,13.15317 -0.34146,17.08203 -3.41469,16.74041 0.34148,14.34892 19.46367,-3.41642 20.31734,-3.24559 15.87826,-2.04984 14.00019,-1.53739 1.36587,-19.98598 1.53661,-17.25286 1.02441,-13.32399 1.19514,-17.76532 1.36587,-25.96469 9.73183,1.36655 14.51239,2.56231 14.34165,2.04985 15.36606,3.58722 6.82936,1.53739 0.85367,-17.08204 0.85367,-9.05349 0,-7.85773 -13.48798,-1.87902 -15.70753,-6.49118 -18.95147,-3.24559 -22.53688,-2.56231 -25.43937,-1.53737 -22.53689,0.34164 -22.02468,0.17082 -17.41487,2.04984 -18.43927,2.73313 -12.63431,2.73312 z"
         id="path2911"
         sodipodi:nodetypes="ccccccccccccccccccccccccccccccccccccccccccc" />
      <path
         sodipodi:nodetypes="ccccccccccccccccccccccccccccccccccccccccccc"
         id="path2913"
         d="m 652.01645,537.93697 -0.51221,14.69056 -0.5122,12.12825 -0.5122,10.59086 12.12211,-2.5623 11.78065,-1.87903 13.31725,-1.87902 10.41477,-1.19575 10.24404,-0.85409 -0.34147,14.86136 -0.68294,16.56958 -0.5122,13.324 -0.85367,13.15317 -0.34147,17.08203 -0.68293,18.27779 -0.5122,17.08204 19.46367,-4.78298 17.41486,-3.75804 18.09781,-2.73313 14.34166,-1.70821 2.04881,-29.55192 1.19513,-23.23157 0.68294,-18.79025 0.85367,-11.95742 0.51221,-12.98235 9.73183,1.36656 14.00018,2.56231 14.51239,2.73313 15.36606,3.58722 6.82936,1.53738 0.85367,-17.08204 0.85367,-9.05348 0.5122,-9.56594 -14.34165,-3.58723 -15.36606,-3.07476 -18.95147,-3.12747 -22.773,-2.68043 -23.78657,-1.53738 -23.95357,-0.24894 -21.4344,1.11576 -18.00515,1.69548 -18.43927,2.73313 -12.63431,2.73312 z"
         style="fill:#acacac;fill-opacity:1;fill-rule:evenodd;stroke:#000000;stroke-width:2.50000000000000000;stroke-linecap:butt;stroke-linejoin:miter;stroke-miterlimit:4;stroke-opacity:1;stroke-dasharray:none" />
      <path
         sodipodi:nodetypes="csssssssssssssssssssscssssssssssssssssssssssssssssssssssssssssssssssccccsssssssssssccc"
         id="path2919"
         d="m 871.42129,707.87509 c -2.9182,0.0743 -6.81768,0.32643 -9.71696,0.66665 -3.8374,0.45029 -8.88402,1.40378 -12.68757,2.08326 -4.3099,0.76994 -10.05766,1.93198 -14.35334,2.77768 -3.12165,0.61455 -7.33298,1.69065 -10.16116,2.33325 -4.04337,0.91871 -8.29094,2.22786 -14.10347,4.13874 -3.92975,1.2919 -8.26261,2.59735 -12.24337,3.72209 -2.59514,0.73324 -6.22736,1.85983 -8.77303,2.7499 -2.79586,0.97755 -6.47501,2.4234 -9.24499,3.4721 -3.81733,1.44521 -8.91395,3.3743 -12.71534,4.86094 -2.43402,0.95188 -5.67043,2.23513 -8.07895,3.24988 -6.07867,2.56105 -12.86859,5.57455 -19.62826,8.66636 -6.75967,3.09181 -13.497,6.26387 -19.43392,9.13856 -3.94982,1.91253 -8.49488,4.34921 -13.02072,6.86087 -4.52585,2.51166 -9.0252,5.07747 -12.85415,7.22197 -6.75394,3.78271 -15.71952,8.81845 -22.40453,12.72177 -4.69374,2.74061 -12.45431,7.348 -17.10185,10.1663 -3.906,2.36863 -8.24088,5.27854 -12.54876,8.22193 -4.30788,2.94339 -8.58972,5.9394 -12.40995,8.44415 -5.09811,3.34259 -12.17155,7.96941 -17.10185,11.55514 -2.99525,2.17843 -7.39873,4.78943 -10.41102,6.9442 -2.14234,1.53249 -5.77124,4.2471 -6.8574,5.05538 1.39129,1.09058 3.53843,3.16171 4.74743,4.05541 1.60631,1.18741 3.5063,2.65497 5.27492,3.5832 1.53098,0.80354 3.46419,1.78396 5.04474,2.48487 1.69528,0.75178 4.18225,1.95495 5.92154,2.59829 2.89596,1.07116 6.69235,2.22221 9.66608,3.05312 2.2613,0.63184 5.48962,1.37201 7.79669,1.80781 2.36825,0.44735 5.46645,0.77572 7.85685,1.0833 2.19403,0.2823 5.21076,0.64875 7.41265,0.86108 2.67971,0.25839 6.27611,0.15452 8.96737,0.22221 3.1274,0.0787 7.28286,0.21361 10.41103,0.25 2.3273,0.0271 5.51537,0.10162 7.83699,-0.0635 2.05202,-0.14589 5.52062,-0.18959 7.57133,-0.3532 4.20579,-0.33549 7.74562,-0.60373 11.94847,-0.9745 1.83434,-0.16182 7.35919,-0.8388 9.15809,-1.23259 3.17199,-0.69435 6.47797,-1.23844 9.65567,-1.90619 3.01991,-0.63462 6.07511,-1.4406 9.10506,-2.02539 3.01391,-0.58168 7.00942,-1.5943 9.96683,-2.41658 2.34944,-0.65325 5.64753,-1.37892 8.00839,-1.98952 2.44443,-0.63224 5.54739,-1.45577 7.98295,-2.12144 2.59601,-0.70952 5.95647,-2.02392 8.49539,-2.91657 1.82327,-0.64101 4.22628,-1.56113 6.05228,-2.19436 2.17318,-0.75365 5.09498,-1.67956 7.27384,-2.41658 2.54937,-0.86233 5.92274,-2.04108 8.46764,-2.91657 2.10991,-0.72585 4.98408,-1.57781 7.05173,-2.41658 2.38212,-0.96633 4.84917,-1.98363 7.19984,-3.02423 1.72933,-0.76556 4.9086,-2.02885 6.58088,-2.78576 2.02739,-0.91764 4.20352,-2.00032 6.27902,-2.80313 1.58228,-0.61201 3.97012,-1.49242 5.55255,-2.10407 2.10139,-0.81225 4.64035,-1.63375 6.62025,-2.39345 1.80443,-0.69239 4.20848,-1.5873 6.05228,-2.16659 1.86845,-0.58704 4.21208,-1.2695 6.05692,-1.92701 2.17747,-0.77606 5.21632,-1.877 7.36521,-2.72908 1.86037,-0.73768 4.35262,-1.71664 6.23389,-2.39922 2.12077,-0.76945 4.90321,-1.8971 7.02397,-2.66657 1.88129,-0.68258 4.41038,-1.51369 6.30215,-2.16659 2.3266,-0.80297 6.80379,-2.424 7.77356,-2.66657 0.96978,-0.24258 6.08665,-1.76314 8.7175,-2.44436 1.81032,-0.46875 4.18272,-1.14696 5.98403,-1.64924 1.61755,-0.45102 3.77059,-1.07833 5.3987,-1.48953 3.80356,-0.96065 8.97046,-1.89092 12.85415,-2.44436 2.24263,-0.31959 5.27702,-0.76796 7.5237,-1.0577 2.26511,-0.29212 5.25543,-0.59233 7.5237,-0.8589 1.95575,-0.22983 4.55826,-0.38783 6.52425,-0.49998 1.81685,-0.10366 4.26061,-0.2136 6.08004,-0.24999 1.45438,-0.0291 3.37667,0.0427 4.83071,0 1.23808,-0.0364 2.89988,-0.15489 4.13665,-0.22222 1.19534,-0.0651 2.44239,-0.18614 3.6326,-0.16339 0.96428,0.0496 0.79351,-0.25136 1.82753,-0.1659 10.01129,-16.0441 18.52861,-33.60979 24.32672,-51.99503 0.0515,0.26621 -0.23928,0.46182 -1.6146,0.21102 -0.48836,-0.32046 -1.28932,-0.36259 -1.74214,-0.91255 -0.90564,-1.09992 -1.73417,-2.429 -2.58189,-3.13878 -1.70219,-1.42513 -3.98788,-3.32133 -5.77465,-4.63872 -2.08971,-1.54072 -4.91272,-3.61545 -7.19059,-4.86094 -1.38992,-0.75997 -3.0659,-1.37937 -4.77519,-1.97215 -1.7093,-0.59278 -3.43538,-1.15394 -4.914,-1.72216 -3.00848,-1.15614 -7.98222,-2.89769 -11.1051,-3.69432 -3.95379,-1.0086 -8.43069,-1.94729 -12.46547,-2.55546 -2.14277,-0.32298 -5.01516,-0.6276 -7.16278,-0.91663 -3.46891,-0.46684 -7.8355,-1.14549 -11.3272,-1.38884 -3.59631,-0.25064 -8.63855,-0.46882 -12.24337,-0.50562 -3.39756,-0.0347 -7.93056,-0.0253 -11.3272,0.0611 l 0,10e-5 10e-6,-2e-5 z"
         style="fill:#acacac;fill-opacity:1;stroke:#000000;stroke-width:2.50000023999999987;stroke-linecap:square;stroke-linejoin:miter;stroke-miterlimit:4;stroke-opacity:1;stroke-dasharray:none" />
      <rect
         inkscape:transform-center-y="-124.08"
         inkscape:transform-center-x="132"
         transform="matrix(0.70692788,0.70728563,-0.70692788,0.70728563,0,0)"
         y="-304.72537"
         x="1089.0511"
         height="14.07594"
         width="14.07594"
         id="rect3003"
         style="fill:#ffffff;fill-opacity:1;stroke:none" />
      <rect
         style="fill:#ffffff;fill-opacity:1;stroke:none"
         id="rect3005"
         width="14.07594"
         height="14.07594"
         x="1214.4045"
         y="-201.35878"
         transform="matrix(0.70692788,0.70728563,-0.70692788,0.70728563,0,0)"
         inkscape:transform-center-x="132"
         inkscape:transform-center-y="-124.08" />
      <rect
         inkscape:transform-center-y="-124.08"
         inkscape:transform-center-x="132"
         transform="matrix(0.70692788,0.70728563,-0.70692788,0.70728563,0,0)"
         y="9.298316"
         x="1241.5804"
         height="14.07594"
         width="14.07594"
         id="rect3007"
         style="fill:#ffffff;fill-opacity:1;stroke:none" />
      <rect
         style="fill:#ffffff;fill-opacity:1;stroke:none"
         id="rect3009"
         width="14.07594"
         height="14.07594"
         x="1050.2484"
         y="187.75291"
         transform="matrix(0.70692788,0.70728563,-0.70692788,0.70728563,0,0)"
         inkscape:transform-center-x="132"
         inkscape:transform-center-y="-124.08" />
      <rect
         inkscape:transform-center-y="-124.08"
         inkscape:transform-center-x="132"
         transform="matrix(0.70692788,0.70728563,-0.70692788,0.70728563,0,0)"
         y="78.41777"
         x="777.86145"
         height="14.07594"
         width="14.07594"
         id="rect3011"
         style="fill:#ffffff;fill-opacity:1;stroke:none" />
      <path
         sodipodi:nodetypes="cscssssccssssccsssscsccsssscccssssccsssssccssssssssssscscccsc"
         id="path3013"
         d="m 749.37628,438.07913 c -23.70039,0 -48.1659,4.21906 -70.54512,11.41626 -25.57525,8.22505 -48.18401,21.11891 -68.24082,36.38759 1.53477,-0.3414 26.76759,-5.55087 38.30495,-7.52314 8.40771,-1.43727 22.05092,-4.17614 30.8798,-5.25418 9.28178,-1.13334 21.30674,-1.99428 30.6468,-2.43891 7.40468,-0.35249 18.04172,-0.93041 25.63045,-0.7821 6.86823,0.13422 22.01041,0.94441 22.01041,0.94441 l -3.39032,14.03055 c 0,0 19.14993,0.68433 27.67945,1.16662 5.72151,0.32351 15.09742,1.35911 20.94074,1.99993 6.91902,0.75879 16.31958,1.70313 23.17862,2.88769 5.86745,1.01332 13.79626,2.53281 19.57491,3.96881 6.75939,1.67972 19.81496,6.30534 19.81496,6.30534 l -5.14652,8.74338 c 0,1e-5 12.7597,6.08795 17.92392,8.73258 3.89683,1.99559 8.8757,4.91991 12.71316,7.02753 3.75259,2.061 8.23607,5.2358 11.74146,7.69417 4.13117,2.89722 9.64872,5.88279 13.55367,9.07865 4.17147,3.414 12.68321,11.27737 12.68321,11.27737 1.00599,1.342 6.67983,5.87587 9.13503,8.72192 2.77261,3.21386 7.44368,8.94412 7.44368,8.94412 l -13.43826,-9.19848 c -2e-5,0 -10.97633,-7.58721 -15.65926,-10.47185 -6.07552,-3.74245 -13.71785,-7.63441 -20.07029,-10.88414 -6.63751,-3.39555 -15.13601,-6.86711 -21.98809,-9.8052 -6.85209,-2.9381 -15.98002,-5.87163 -22.98755,-8.41637 -4.80325,-1.74428 -14.61665,-4.65935 -14.61665,-4.65935 l -9.60591,-2.06723 0.0689,-6.55073 c 0,10e-6 -11.11299,-2.18779 -18.26788,-3.22211 -8.02564,-1.16019 -19.86808,-3.52758 -27.4285,-4.14201 -7.11126,-0.57792 -16.52209,-1.11338 -23.65495,-1.27446 -5.86541,-0.13247 -14.56895,-0.25804 -20.43664,-0.004 -5.64441,0.24507 -19.26407,1.11435 -19.26407,1.11435 l -0.13882,-10.08298 c 10e-6,-10e-6 -16.65555,0.58825 -23.51504,1.24996 -8.55682,0.82544 -19.85584,1.99879 -28.37679,3.1366 -8.13593,1.08639 -16.78028,2.90421 -25.56621,4.02981 -7.10597,0.91038 -18.18193,3.24197 -25.20857,4.63872 -5.70535,1.13411 -11.90214,2.81348 -17.54605,4.22208 -5.12565,1.27925 -17.12962,4.08318 -17.12962,4.08318 0,0 0.68753,-0.81152 1.80458,-2.08326 -13.9277,15.09378 -25.55623,32.08781 -35.23092,50.99819 0,10e-6 52.04752,-17.88638 74.79283,-24.08248 18.65444,-5.08168 43.4669,-11.59463 62.71494,-13.41182 25.03284,-2.36333 41.78653,-4.3503 59.60769,-3.36536 20.94389,1.15754 37.40105,2.50557 53.30446,4.69428 10.01561,1.37841 23.34572,3.64091 33.12095,6.222 12.5833,3.32254 28.853,9.49719 41.03334,14.08283 6.05816,2.28078 14.17581,5.29011 19.96141,8.19416 5.49627,2.75882 12.35393,7.30311 17.57381,10.55518 4.24973,2.64765 9.92062,6.18032 14.02018,9.05523 4.59015,3.21894 10.08174,7.70277 14.37783,11.30516 3.18017,2.66666 10.16119,9.55631 10.16119,9.55631 0,0 6.52642,5.86955 8.8552,8.80414 0.75621,0.95293 0.82311,2.69653 0.82311,2.69653 l 8.73598,-1.33437 1.38378,-0.35674 C 965.35512,594.40726 961.8811,584.44543 957.76341,574.85176 923.44191,494.88689 841.82689,438.07884 749.37625,438.07884 z"
         style="fill:#000000;fill-opacity:1;fill-rule:evenodd;stroke:none" />
      <path
         sodipodi:nodetypes="ccssssssssssssssssssssssssssssssssssscccccsssssssssssssssssssssssssssssssccc"
         id="path3017"
         d="m 967.31383,729.81876 c -0.41639,-2.75598 -2.08207,-4.203 -4.04492,-5.92601 -1.72982,-1.74022 -4.63882,-4.55375 -6.33834,-6.32356 -1.90199,-1.98057 -5.05788,-5.18099 -7.16279,-6.94419 -2.13822,-1.79109 -5.33551,-3.94887 -7.6348,-5.52758 -2.55248,-1.75259 -5.18415,-3.54799 -7.85684,-5.11093 -3.47975,-2.03487 -7.58468,-4.30688 -11.20772,-6.07379 -2.75964,-1.34583 -7.18054,-3.24555 -10.05854,-4.31473 -2.0891,-0.7761 -4.58782,-1.4866 -7.10727,-2.13882 -2.51944,-0.65221 -5.05759,-1.25991 -7.21831,-1.80549 -3.58728,-0.90578 -8.44621,-1.99085 -12.09522,-2.60191 -2.61265,-0.43751 -5.91954,-1.08529 -8.55115,-1.38839 -4.44213,-0.51164 -10.49685,-1.08547 -14.94546,-1.53728 -4.4277,-0.44967 -10.3328,-0.82027 -14.76978,-1.16662 -5.33815,-0.41672 -12.59558,-0.91082 -17.94384,-1.16685 -3.8785,-0.18567 -9.0095,-0.24457 -12.89124,-0.14822 -5.14032,0.1276 -11.88184,0.35021 -17.00012,0.84286 -3.33818,0.32131 -8.76586,0.51392 -12.09523,0.91641 -4.15759,0.50262 -10.03071,1.19991 -14.02929,1.71327 -4.1827,0.53701 -9.93702,1.13692 -14.10369,1.78683 -4.2915,0.66936 -8.42708,1.61567 -12.71534,2.30547 -4.72639,0.76029 -11.25151,2.4849 -15.93581,3.4721 -7.40404,1.56036 -17.69642,4.24423 -24.11672,5.60158 -2.79668,0.59126 -8.46664,2.2045 -11.22525,2.95367 -4.04382,1.09819 -8.00084,2.04107 -12.02127,3.22211 -3.53616,1.03879 -8.45909,2.74862 -12.02126,3.69431 -5.05375,1.34168 -10.92105,3.46287 -14.79754,4.63873 -5.30802,1.61011 -10.43648,3.59703 -15.71371,5.30537 -4.56845,1.47889 -11.39542,4.21457 -15.93582,5.77757 -3.77498,1.2995 -8.95841,3.28785 -12.71533,4.63872 -4.55993,1.63962 -10.00116,3.62888 -14.54768,5.30537 -5.02528,1.85303 -11.40607,4.11176 -16.40778,6.02756 -2.38701,0.91431 -5.17787,2.07925 -7.99567,3.22211 -2.8178,1.14286 -5.67186,2.24303 -8.19001,2.99989 -4.43065,1.33169 -10.17357,3.82591 -14.54767,5.33315 -1.83448,0.63213 -4.96835,1.43155 -7.69028,2.22214 -1.36097,0.39529 -2.63429,0.79746 -3.5814,1.16663 -0.9471,0.36917 -1.58409,0.70074 -1.69352,0.99996 0.93609,2.28922 1.90732,4.55403 2.91509,6.80531 1.2799,2.39006 2.63746,4.74984 2.63746,4.74984 l 6.27437,13.02731 c 11.875,21.3071 27.04988,40.48641 44.86459,56.88687 0.63843,-0.47537 5.00933,-3.7291 7.32937,-5.3887 3.01229,-2.15477 7.41577,-4.76577 10.41102,-6.9442 4.9303,-3.58573 12.00374,-8.21255 17.10185,-11.55514 3.82023,-2.50475 8.10207,-5.50076 12.40995,-8.44415 4.30788,-2.94339 8.64276,-5.8533 12.54876,-8.22193 4.64754,-2.8183 12.40811,-7.42569 17.10185,-10.1663 6.68501,-3.90332 15.65059,-8.93906 22.40453,-12.72177 3.82895,-2.1445 8.3283,-4.71031 12.85415,-7.22197 4.52584,-2.51166 9.0709,-4.94834 13.02072,-6.86087 5.93692,-2.87469 12.67425,-6.04675 19.43392,-9.13856 6.75967,-3.09181 13.54959,-6.10531 19.62826,-8.66636 2.40852,-1.01475 5.64493,-2.298 8.07895,-3.24988 3.80139,-1.48664 8.89801,-3.41573 12.71534,-4.86094 2.76998,-1.0487 6.44913,-2.49455 9.24499,-3.4721 2.54567,-0.89007 6.17789,-2.01666 8.77303,-2.7499 3.98076,-1.12474 8.31362,-2.43019 12.24337,-3.72209 5.81253,-1.91088 10.0601,-3.22003 14.10347,-4.13874 2.82818,-0.6426 7.03951,-1.7187 10.16116,-2.33325 4.29568,-0.8457 10.04344,-2.00774 14.35334,-2.77768 3.80355,-0.67948 8.85017,-1.63297 12.68757,-2.08326 2.89928,-0.34022 6.79876,-0.59232 9.71696,-0.66665 3.39664,-0.0865 7.92964,0.18753 11.3272,0.22222 3.60482,0.0368 8.64706,-0.0284 12.24337,0.22221 3.4917,0.24335 7.85829,0.92201 11.3272,1.38884 2.14762,0.28903 5.02001,0.59366 7.16278,0.91664 4.03478,0.60816 8.51168,1.54686 12.46547,2.55546 3.12288,0.79662 8.09662,2.53818 11.1051,3.69431 1.47862,0.56822 3.2047,1.12939 4.914,1.72217 1.70929,0.59277 3.38527,1.21217 4.77519,1.97215 2.27787,1.24548 5.10088,3.32022 7.19059,4.86094 1.78677,1.31739 4.07246,3.21359 5.77465,4.63872 0.84772,0.70978 1.67625,2.03885 2.58189,3.13878 1.09781,1.36957 3.06066,2.25826 4.47847,1.10174 0.42137,-1.49345 0.72449,-2.99256 0.54663,-4.49051 z"
         style="fill:#000000;fill-opacity:1;stroke:none" />
      <path
         style="fill:#000000;fill-opacity:1;fill-rule:evenodd;stroke:none"
         d="m 560.87489,579.78377 35.73524,-12.42269 19.75792,24.78227 18.5028,23.74632 12.87756,16.94082 0.59604,-27.26115 0.18053,-22.68643 30.42542,4.32445 16.44065,-0.0784 -0.77657,24.2643 -1.81199,41.0593 -2.22748,38.46724 -17.72623,4.93601 -26.52734,7.04706 -10.72188,-13.65451 -14.94189,-17.35869 -13.789,-16.24439 -9.19266,-9.79364 -0.98757,12.61856 -2.18832,40.83079 -1.5923,21.51772 -20.62802,6.08947 -18.37011,4.63783 2.07085,-21.99652 1.63146,-26.93251 1.37259,-25.99886 1.07458,-24.60163 0.33716,-26.67353 0.47856,-25.55923 z"
         id="path3019"
         sodipodi:nodetypes="ccccccccccccccccccccccccccccc" />
      <path
         sodipodi:nodetypes="cccccccccccccccccccccccccccccc"
         id="path3021"
         d="m 548.43718,572.67291 32.88782,-12.1637 18.46364,26.07721 17.72623,24.26429 30.4798,38.17779 1.63145,-30.369 -0.59603,-37.18972 17.4826,-1.37328 16.69951,-1.1143 -1.03543,26.07721 -1.29428,40.02335 -2.22748,37.94927 -18.24394,5.71296 -19.79707,4.71618 -13.05159,-14.69046 -14.68303,-16.32274 -12.23586,-14.69046 -8.15724,-9.79365 -7.41982,-7.72174 -0.81573,21.11727 -2.18831,40.83079 -1.59231,21.51771 -20.62801,6.08947 -16.04041,4.89683 -0.25885,-22.25552 1.63145,-26.93251 1.37259,-25.99886 1.07458,-24.60162 0.33716,-26.67353 0.47856,-25.55924 z"
         style="fill:#acacac;fill-opacity:1;fill-rule:evenodd;stroke:#000000;stroke-width:2.50000023999999987;stroke-linecap:butt;stroke-linejoin:miter;stroke-miterlimit:4;stroke-opacity:1;stroke-dasharray:none" />
      <path
         style="fill:#000000;fill-opacity:1;fill-rule:evenodd;stroke:none"
         d="m 944.91139,612.98528 c -0.19741,-1.04195 -0.64472,-4.84268 -1.15084,-5.82912 -0.58395,-1.13801 -2.00194,-4.66224 -3.82051,-6.33328 -1.95287,-1.7945 -3.54522,-5.57264 -5.68754,-7.13585 -39.58672,-19.01235 -78.14259,-15.73047 -120.53235,-12.28861 -1.3951,1.16491 -3.30037,2.99765 -4.14714,4.60623 -0.61262,1.16377 -1.86222,5.99654 -1.88241,7.31168 -0.0528,3.43671 -0.1727,8.29451 0.33248,11.15125 0.56925,3.21907 2.78762,8.086 3.94057,10.83368 0.78064,1.86041 2.46085,3.19222 3.66743,4.80896 1.46177,1.95867 4.44201,4.18057 6.2417,5.8338 1.7502,1.60778 4.31975,3.48624 6.2876,4.81848 2.66784,1.80614 5.30494,3.12793 8.28477,4.35197 2.18328,0.89684 1.1581,1.34291 7.2375,3.56794 2.42661,0.88812 6.95417,1.67822 9.5078,2.07264 2.62919,0.4061 8.78634,0.62568 10.58754,0.79357 2.57219,0.23976 8.44311,0.9381 11.41315,1.33846 2.68881,0.36245 5.17581,0.63313 5.74693,3.28678 0.68782,3.196 -0.97773,2.52259 -3.04771,4.10888 l -77.59009,-2.21704 -10.64107,3.57962 -8.89744,2.53915 c 0,0 1.18014,3.87194 3.70675,5.94353 1.99925,1.6392 3.69669,2.28832 5.82135,3.76116 2.52533,1.75058 3.97922,2.05577 6.66992,3.53938 2.97298,1.63925 3.6362,1.91064 6.70632,3.35961 3.71747,1.7545 7.35766,2.59918 11.1725,4.13022 1.71989,0.69026 10.10506,2.37484 11.94039,2.631 2.51206,0.35061 10.88051,2.35916 14.97928,2.6579 2.84984,0.20772 10.50821,0.96174 13.33753,1.36143 2.87473,0.40611 6.92772,0.32118 9.82127,0.55836 3.00663,0.24644 8.55356,0.32668 9.08745,0.29065 2.80542,-0.18929 6.40943,-0.1545 9.41042,-0.7017 2.43551,-0.4441 7.46865,-1.02878 8.13755,-1.29648 0.66889,-0.26769 6.77379,-1.97264 9.58794,-3.01062 3.04888,-1.12456 6.35354,-1.96171 9.27486,-3.84245 2.05238,-1.32133 5.39012,-3.99057 7.07683,-5.75539 1.31537,-1.37629 3.12771,-3.54832 4.28092,-5.06322 1.00528,-1.32055 3.07783,-3.33504 3.6999,-4.87391 0.58434,-1.44555 1.53973,-4.05482 2.20538,-5.46473 0.90885,-1.92507 1.61554,-3.24926 2.12701,-5.39027 0.454,-1.90046 1.12162,-4.40302 0.63249,-7.18179 -0.30918,-1.75655 0.0309,-4.87707 -0.42822,-6.60047 -0.51664,-1.93914 -2.26074,-5.20813 -3.19168,-6.83174 -1.7824,-3.1086 -8.45126,-8.44447 -10.60654,-9.29248 -20.48882,-8.16674 -43.37697,-8.85912 -50.44477,-9.59888 -2.87576,-0.54298 -3.32537,-0.50333 -4.93367,-1.00976 -2.41601,-0.76078 -3.12844,-1.01452 -4.41897,-1.77642 -0.79982,-0.4722 -1.60262,-1.16748 -1.7601,-2.6854 -0.18539,-1.78692 0.38561,-2.45587 0.71214,-3.20853 0.65419,-1.5079 2.22584,-2.62051 3.27691,-3.37355 1.43963,-1.03144 4.28064,-2.01512 6.45082,-2.58444 2.18468,-0.5731 4.46074,-1.05254 6.74611,-1.21641 1.96151,-0.14064 5.75239,-0.11349 7.71567,0 2.78313,0.16089 5.33448,0.006 7.96472,0.3319 3.26635,0.40394 7.17496,1.45959 10.25202,2.62796 1.71169,0.64994 5.96202,3.77809 7.48943,4.788 1.32923,0.87887 3.9814,3.23244 4.98113,4.47364 1.091,1.35452 1.61661,3.12696 2.37775,4.70187 0.52526,1.08685 0.93214,2.64977 0.93214,2.64977 l 12.89955,0.61568 11.02487,0.75297 7.43426,0.38442 z"
         id="path3023"
         sodipodi:nodetypes="cssccsssssssssssssccccssssssssssssssssssssssccssssssssssssscccc" />
      <path
         sodipodi:nodetypes="cssssssssssssssssssssssssssssssssssssssssccccccssssssssssssssssssssssssssssssssssssssssssscccc"
         id="path3025"
         d="m 944.61155,600.64683 c 0,0 -2.80941,-4.74884 -3.3445,-5.62156 -0.28846,-0.4704 -3.93397,-4.21821 -5.75249,-5.88924 -1.95288,-1.79451 -4.68039,-4.05834 -6.82272,-5.62156 -2.1587,-1.57517 -5.14111,-3.54746 -7.49161,-4.81846 -2.513,-1.35888 -6.04959,-2.80471 -8.69562,-3.88155 -2.25826,-0.91903 -5.28728,-2.11995 -7.62539,-2.81078 -3.1562,-0.93254 -6.52411,-1.78994 -9.75633,-2.40924 -4.0308,-0.7723 -8.88687,-2.09088 -12.94408,-2.7094 -3.28806,-0.50126 -8.40786,-1.19743 -11.72663,-1.41687 -3.00374,-0.1986 -7.78241,-0.36796 -10.79017,-0.24473 -4.09983,0.16797 -8.43095,0.30494 -12.51028,0.74764 -2.98501,0.32393 -8.15631,1.56418 -11.03477,2.41875 -3.51224,1.04273 -6.75659,2.56583 -9.96849,4.32902 -2.8498,1.56441 -6.79052,3.99467 -9.28615,6.07852 -1.3951,1.16491 -3.30037,2.99765 -4.14714,4.60623 -0.61262,1.16377 -1.68693,3.36097 -1.88241,4.66165 -0.43117,2.86885 -0.80522,6.73585 -0.80267,9.63695 0.002,1.89406 -0.0503,4.48955 0.53511,6.29078 0.62359,1.91883 2.27167,4.13866 3.47825,5.75541 1.46177,1.95866 3.68524,4.36985 5.48492,6.02308 1.75021,1.60777 4.31975,3.48623 6.28761,4.81848 2.66784,1.80614 6.29822,4.15415 9.23073,5.4877 2.46101,1.11913 5.91964,2.23904 8.56184,2.81078 2.52548,0.54648 5.81903,0.92107 8.37265,1.3155 2.6292,0.40609 7.65119,1.00424 9.45239,1.17213 2.57219,0.23976 6.362,1.1274 9.33205,1.52776 2.68881,0.36245 6.25787,0.99891 8.96317,1.20462 2.20137,0.16739 4.71967,0.12464 6.79026,0.89099 1.12293,0.41561 2.84223,1.80134 3.2661,2.92166 0.54662,1.44471 -0.53589,3.30416 -1.18105,4.70759 -0.59481,1.29389 -1.26848,1.89691 -2.32015,2.8567 -1.59593,1.4565 -3.89493,3.31166 -5.88626,4.14924 -1.42955,0.60129 -3.54199,0.76873 -5.0836,0.93693 -2.27553,0.24827 -5.3412,0.41653 -7.62539,0.26769 -2.92328,-0.19049 -6.79624,-0.87095 -9.63207,-1.60616 -2.43304,-0.63079 -5.58828,-1.8074 -7.89294,-2.81077 -2.15621,-0.93874 -4.86134,-2.54567 -6.9565,-3.61385 -1.43925,-0.73379 -3.36305,-1.70307 -4.81603,-2.40924 -2.11546,-1.02815 -5.0575,-2.16276 -7.09028,-3.34616 -1.14525,-0.66672 -2.54608,-1.75564 -3.61202,-2.54308 -1.26578,-0.93507 -4.14714,-3.21232 -4.14714,-3.21232 l -7.35783,-0.13385 -11.31578,1.26006 -10.56459,0.60428 -10.76165,1.34797 -4.14714,0.2677 c 0,0 5.50012,5.28996 8.02673,7.36155 1.99925,1.6392 4.83184,3.61333 6.95649,5.08617 2.52533,1.75059 5.87114,4.13794 8.56184,5.62155 2.97298,1.63925 7.23085,3.80352 10.30097,5.25249 3.71747,1.7545 8.4928,3.92419 12.30764,5.45523 1.7199,0.69026 5.8334,2.22675 7.58898,2.82029 3.83641,1.29705 7.09668,2.54844 11.00626,3.60433 2.75865,0.74505 6.53519,1.34032 9.36451,1.74001 2.87473,0.40611 7.3061,1.07833 10.19965,1.3155 3.00663,0.24645 8.93072,0.29066 9.46584,0.29066 0.53511,0 7.04199,0.10271 10.04297,-0.44449 2.43552,-0.4441 7.22811,-1.60031 8.95063,-2.18369 1.447,-0.49008 6.29415,-2.9321 8.97566,-4.27639 2.98678,-1.49734 6.14695,-3.53815 8.81989,-5.54315 1.95271,-1.46475 4.63335,-3.80129 6.32006,-5.5661 1.31537,-1.37629 2.56013,-3.35903 3.71335,-4.87393 1.00527,-1.32056 2.32106,-3.14575 2.94313,-4.68462 0.58434,-1.44555 1.57852,-4.30397 1.82699,-5.84332 0.34129,-2.11435 0.10201,-4.19569 0.0459,-6.3367 -0.0512,-1.95331 -0.39191,-4.5923 -1.07023,-6.42464 -0.61916,-1.67254 -1.86352,-3.77952 -3.07691,-5.08616 -1.2734,-1.37128 -2.54496,-2.63179 -4.13763,-3.61386 -1.97159,-1.21572 -5.61339,-2.76585 -7.76867,-3.61385 -2.59114,-1.0195 -6.24437,-1.80859 -8.96318,-2.40924 -2.74467,-0.60636 -6.43802,-1.28775 -9.23073,-1.60616 -2.91528,-0.33238 -7.21805,-0.88694 -10.14423,-1.10325 -3.45697,-0.25553 -7.6786,-0.14598 -11.12659,-0.5029 -3.17413,-0.32857 -7.46763,-0.45101 -10.56852,-1.20462 -2.08602,-0.50696 -4.78048,-1.55973 -6.68894,-2.54308 -1.92969,-0.99429 -4.42559,-2.54188 -6.02004,-4.0154 -1.23858,-1.14462 -2.77744,-2.8826 -3.47825,-4.41692 -0.44166,-0.96696 -0.74733,-2.19861 -0.66889,-3.29072 0.12742,-1.77403 0.9294,-3.52125 2.24177,-4.65216 1.33003,-1.14612 4.91521,-2.75722 6.61475,-3.19657 1.7203,-0.44471 4.7461,-1.12302 6.50278,-1.38973 2.27885,-0.34597 4.89422,-0.40443 7.12503,-0.64323 2.39568,-0.25645 4.35524,-0.24934 6.76426,-0.2895 1.96628,-0.0328 4.90839,0.0976 6.87166,0.21111 2.78314,0.16088 6.495,0.53439 9.23074,1.07077 3.22977,0.63324 7.49146,1.77625 10.56852,2.94462 1.71169,0.64994 3.95751,1.66702 5.48493,2.67693 1.32922,0.87887 3.48756,2.15571 4.77012,3.10144 1.40751,1.03785 2.83615,2.35379 4.19306,3.45704 0.94726,0.77018 2.80935,2.94461 2.80935,2.94461 l 10.36754,0.40458 9.65336,0.54186 9.54424,-0.14335 z"
         style="fill:#acacac;fill-opacity:1;fill-rule:evenodd;stroke:#000000;stroke-width:2.50000023999999987;stroke-linecap:butt;stroke-linejoin:miter;stroke-miterlimit:4;stroke-opacity:1;stroke-dasharray:none" />
      <path
         style="fill:#acacac;fill-opacity:1;stroke:#000000;stroke-width:2.50000023999999987;stroke-linecap:square;stroke-linejoin:miter;stroke-miterlimit:4;stroke-opacity:1;stroke-dasharray:none"
         d="m 920.14527,808.01189 c -1.28423,0.037 -2.7684,0.0268 -3.91492,0.0541 -1.30884,0.0312 -3.07781,-0.0363 -4.38651,0 -1.31072,0.0364 -3.04886,0.16322 -4.35875,0.22222 -2.10838,0.095 -4.86576,0.23178 -6.96808,0.41774 -2.04923,0.18127 -4.64853,0.60704 -6.69009,0.86035 -1.37901,0.17112 -3.36233,0.37169 -4.7204,0.66601 -1.57353,0.341 -4.07386,0.91538 -5.64329,1.16299 -2.24566,0.35431 -4.45969,0.93991 -6.68155,1.42162 -1.30568,0.28307 -3.04627,0.5258 -4.27274,0.85653 -1.68836,0.45529 -3.84824,0.98231 -5.54705,1.39694 -1.94027,0.47357 -4.43608,1.11926 -6.36553,1.63528 -1.26674,0.33878 -3.24587,0.92184 -4.5001,1.30441 -2.22738,0.67945 -4.06353,1.14196 -6.27645,1.86716 -1.11665,0.36592 -3.74677,1.22974 -4.82828,1.68937 -1.4682,0.62394 -3.46616,1.32973 -4.91437,1.99883 -1.38826,0.64141 -3.62246,1.4641 -5.05858,1.98952 -2.40249,0.87901 -5.15268,1.91137 -7.54571,2.81587 -1.97785,0.74759 -4.5845,1.88053 -6.52424,2.72212 -1.92128,0.83357 -4.33818,1.80397 -6.24662,2.66658 -1.95733,0.88472 -4.46827,1.95987 -6.40279,2.89343 -1.99566,0.96309 -4.9966,2.25697 -7.00661,3.18968 -2.2131,1.02696 -5.12621,2.48099 -7.27384,3.63876 -1.40574,0.75785 -3.45565,1.74267 -4.8816,2.46173 -2.12358,1.07085 -4.82883,2.3749 -7.00085,3.34362 -1.75386,0.78222 -4.02586,1.93746 -5.80242,2.66657 -1.57525,0.64648 -3.69273,1.55703 -5.26219,2.2175 -1.8592,0.78238 -4.29724,1.84197 -6.14829,2.64344 -2.2189,0.96072 -5.19453,2.17517 -7.49594,2.91656 -1.9311,0.62208 -4.07119,1.52758 -5.99675,2.16659 -2.01269,0.66795 -4.94435,1.76684 -6.91293,2.55547 -4.42614,1.77314 -10.50066,3.84324 -14.99188,5.44425 -1.79842,0.64108 -4.21086,1.44003 -6.05227,1.94438 -2.51864,0.68984 -5.96002,1.52377 -8.4954,2.14922 -2.48373,0.61271 -5.68682,1.29893 -8.18211,1.86261 -2.30987,0.52176 -5.21924,0.98501 -7.56518,1.30782 -2.45939,0.3384 -5.15557,0.81538 -7.60165,1.2395 -1.70345,0.29536 -4.87865,0.75766 -6.59509,0.96452 -3.15094,0.37975 -6.98225,0.86925 -9.97183,1.08945 -5.47691,-0.57027 29.52349,9.12831 30.33771,9.3029 1.56948,0.34986 4.02245,1.05397 5.91347,0.30555 29.80965,-11.79796 66.6777,-21.94366 107.52509,-21.94366 10.838,0 20.75481,-0.0932 31.05243,0.8498 7.9955,-3.99769 18.3165,-9.67743 27.93927,-16.43483 9.55552,-6.71017 18.41281,-13.92096 26.37351,-20.82276 12.86691,-11.15539 21.30456,-21.79354 20.86751,-22.75644 -1.21696,-0.80424 -2.89533,-0.67519 -4.92611,-0.94329 z"
         id="path3561"
         sodipodi:nodetypes="cssssssssssssssssssssssssssssssssssssccsscssccc" />
      <g
         inkscape:label="Layer 1"
         id="layer1-7"
         transform="matrix(0.37,0,0,0.37,486.26955,546.62811)">
        <g
           id="g3699"
           transform="matrix(0.99598026,0,0,0.99598026,6.2559107,1.5479265)">
          <path
             style="fill:#ffffff;stroke:#db0029;stroke-width:5.05159903"
             i:knockout="Off"
             id="path3018"
             d="" />
          <path
             d=""
             id="path3030"
             i:knockout="Off"
             style="fill:none;stroke:#ffffff;stroke-width:1.06799984;stroke-linecap:square" />
          <path
             d=""
             id="path3042"
             i:knockout="Off"
             style="fill:none;stroke:#ffffff;stroke-width:1.06799984" />
          <path
             d=""
             id="path3044"
             i:knockout="Off"
             style="fill:none;stroke:#ffffff;stroke-width:1.06799984" />
          <path
             d=""
             id="path3048"
             i:knockout="Off"
             style="fill:none;stroke:#ffffff;stroke-width:1.06799984" />
          <path
             d=""
             id="path3052"
             i:knockout="Off"
             style="fill:none;stroke:#ffffff;stroke-width:1.06799984" />
          <path
             d=""
             id="path3080"
             i:knockout="Off"
             style="fill:none;stroke:#ffffff;stroke-width:1.06799984" />
          <path
             d=""
             id="path3082"
             i:knockout="Off"
             style="fill:none;stroke:#ffffff;stroke-width:1.06799984" />
          <path
             d=""
             id="path3084"
             i:knockout="Off"
             style="fill:none;stroke:#ffffff;stroke-width:1.06799984" />
          <path
             d=""
             id="path3088"
             i:knockout="Off"
             style="fill:none;stroke:#ffffff;stroke-width:1.06799984;stroke-linejoin:round" />
          <path
             d=""
             id="path3090"
             i:knockout="Off"
             style="fill:none;stroke:#ffffff;stroke-width:1.06799984;stroke-linejoin:round" />
          <g
             transform="matrix(2.0488152,0,0,2.0488152,-1008.0991,120.33088)"
             id="g3104">
            <path
               d=""
               id="path3106"
               i:knockout="Off" />
          </g>
          <path
             style="fill:#0c2e82;stroke:#000000;stroke-width:0.42100003"
             i:knockout="Off"
             id="path3136"
             d="" />
          <path
             style="fill:#0c2e82;stroke:#000000;stroke-width:0.42100003"
             i:knockout="Off"
             id="path3174"
             d="" />
          <path
             sodipodi:nodetypes="ccccc"
             id="path3576-5"
             d="M 632.25506,394.21447 739.8894,643.63519 630.69771,890.61711 523.85993,640.39994 632.25506,394.21447 z"
             style="fill:#000000;fill-opacity:1;fill-rule:evenodd;stroke:none" />
          <path
             style="fill:#000000;fill-opacity:1;fill-rule:evenodd;stroke:none"
             d="m 882.31992,585.95752 -28.15064,118.34198 -5.16318,0 0.21265,5.86744 21.76866,0.19197 -0.5122,-6.21047 -7.19143,-0.151 5.80343,-31.39069 21.10784,-0.151 7.0428,32.01274 -7.0428,0 0.32013,5.50619 50.7722,0 -0.12805,-5.63425 -7.55501,0 -27.27485,-118.19102 -24.00955,-0.19198 z m -3.2424,43.25409 9.38651,34.79296 -17.47195,0.17149 8.08544,-34.96447 z"
             id="path3406-6"
             sodipodi:nodetypes="ccccccccccccccccccccc" />
          <path
             style="fill:#000000;fill-opacity:1;fill-rule:evenodd;stroke:none"
             d="m 817.84626,586.21362 c -26.78399,0.10674 -53.56797,0.21342 -80.35197,0.32012 8.34466,19.12227 16.6893,38.24456 25.03396,57.36683 -9.49711,21.98209 -18.99421,43.96415 -28.49133,65.94624 22.70769,0.0639 45.41541,0.12805 68.1231,0.19197 -0.493,-1.68144 0.71572,-5.08434 -0.88054,-5.64977 -2.60898,-0.0588 -5.21794,-0.1176 -7.82692,-0.17661 0.0426,-19.54911 0.0854,-39.09821 0.12805,-58.64733 6.13626,1.6359 8.50402,7.60346 8.76413,13.6346 1.52676,12.60919 -0.59329,25.65301 2.88404,37.98905 2.91462,8.89407 10.55283,17.34254 20.55056,17.12215 7.41878,0.33994 15.1044,-2.61597 20.11008,-8.11368 2.23829,-2.39791 4.55813,-9.54819 2.10067,-10.33037 -2.67917,4.72498 -10.98052,5.79788 -9.02404,-1.41954 -0.29966,-9.67789 0.29888,-19.45645 -0.96495,-29.06464 -2.1698,-9.0749 -8.83802,-16.36415 -16.24928,-21.67431 7.01524,1.29815 12.05291,-5.05123 15.41221,-10.25489 4.47588,-8.93394 4.38975,-19.72743 1.90048,-29.22379 -2.73842,-9.59446 -11.31782,-16.82325 -21.21825,-18.0162 z m -24.39139,6.08707 c 3.87259,0.81008 7.09855,0.85054 8.82468,4.09519 2.07764,4.51508 0.86382,39.37546 -0.0912,40.42843 l -3.00406,3.31212 -5.40522,0.0533 c -0.57644,0.006 -0.33047,-33.06947 -0.32421,-47.88908 z"
             id="path3408-5"
             sodipodi:nodetypes="cccccccccccccccccccccscsc" />
          <path
             style="fill:#000000;fill-opacity:1;fill-rule:evenodd;stroke:none"
             d="m 1017.2897,669.16818 c -0.1861,4.63897 0.2774,9.35569 -1.1584,13.84509 -1.14,4.83596 -1.7703,9.86017 -4.4421,14.17875 -3.5257,7.30808 -9.7977,13.37589 -17.17424,16.72032 -8.11291,2.28516 -16.78571,-0.19464 -23.7625,-4.54825 -7.26813,-4.49824 -14.52905,-10.24986 -18.05236,-18.2591 -3.5348,-9.47786 -6.83757,-19.18722 -7.5582,-29.34777 -1.64655,-12.16848 -2.16906,-24.8518 1.57554,-36.6993 0.8813,-5.56675 3.38626,-10.52437 6.07297,-15.39186 3.47717,-6.39985 6.73882,-13.49102 13.21261,-17.42194 3.37714,-3.23356 7.7302,-4.89839 11.98882,-6.54906 5.11592,-1.58027 10.24101,-1.29811 15.43637,-0.28066 5.77698,-1.45456 9.15779,7.84558 14.14669,4.93024 2.2327,-2.49488 4.0031,-7.54808 8.008,-6.67151 2.6856,-0.75686 2.2824,1.48307 2.2152,3.39695 0.097,13.77325 0.1934,27.54647 0.2903,41.31969 -4.5186,0.57807 -5.7527,-0.88294 -5.4295,-5.18701 -0.6441,-5.14304 -2.9077,-10.03173 -5.2861,-14.61821 -1.8643,-5.32838 -5.9412,-9.1637 -10.19567,-12.5746 -3.85173,-3.35314 -9.71466,-0.0965 -12.30334,3.52404 -5.43436,6.39048 -6.02986,15.25294 -5.71279,23.28204 0.61208,16.45491 -0.48895,32.91202 -0.0858,49.37022 -0.059,9.09235 0.0363,18.75151 5.22219,26.63773 1.63706,5.00493 7.38913,6.34241 11.93732,4.76321 4.54059,-2.31607 9.05159,-5.51597 11.00959,-10.42464 2.6475,-5.35808 3.9701,-11.34931 5.0851,-17.20353 0.8644,-3.42648 -0.7948,-8.15707 4.1179,-6.79084 0.2808,0 0.5617,0 0.8425,0 z"
             id="path3418-4" />
          <path
             style="fill:#ffffff;stroke:#db0029;stroke-width:5.05159903"
             i:knockout="Off"
             id="path2517"
             d="" />
          <path
             d=""
             id="path2519"
             i:knockout="Off"
             style="fill:none;stroke:#ffffff;stroke-width:1.06799984;stroke-linecap:square" />
          <path
             d=""
             id="path2521"
             i:knockout="Off"
             style="fill:none;stroke:#ffffff;stroke-width:1.06799984" />
          <path
             d=""
             id="path2523"
             i:knockout="Off"
             style="fill:none;stroke:#ffffff;stroke-width:1.06799984" />
          <path
             d=""
             id="path2525"
             i:knockout="Off"
             style="fill:none;stroke:#ffffff;stroke-width:1.06799984" />
          <path
             d=""
             id="path2527"
             i:knockout="Off"
             style="fill:none;stroke:#ffffff;stroke-width:1.06799984" />
          <path
             d=""
             id="path2529"
             i:knockout="Off"
             style="fill:none;stroke:#ffffff;stroke-width:1.06799984" />
          <path
             d=""
             id="path2531"
             i:knockout="Off"
             style="fill:none;stroke:#ffffff;stroke-width:1.06799984" />
          <path
             d=""
             id="path2533"
             i:knockout="Off"
             style="fill:none;stroke:#ffffff;stroke-width:1.06799984" />
          <path
             d=""
             id="path2535"
             i:knockout="Off"
             style="fill:none;stroke:#ffffff;stroke-width:1.06799984;stroke-linejoin:round" />
          <path
             d=""
             id="path2537"
             i:knockout="Off"
             style="fill:none;stroke:#ffffff;stroke-width:1.06799984;stroke-linejoin:round" />
          <path
             style="fill:#0c2e82;stroke:#000000;stroke-width:0.42100003"
             i:knockout="Off"
             id="path2539"
             d="" />
          <path
             style="fill:#0c2e82;stroke:#000000;stroke-width:0.42100003"
             i:knockout="Off"
             id="path2541"
             d="" />
          <path
             style="fill:#ffffff;stroke:#db0029;stroke-width:5.05159903"
             i:knockout="Off"
             id="path2569"
             d="" />
          <path
             d=""
             id="path2571"
             i:knockout="Off"
             style="fill:none;stroke:#ffffff;stroke-width:1.06799984;stroke-linecap:square" />
          <path
             d=""
             id="path2573"
             i:knockout="Off"
             style="fill:none;stroke:#ffffff;stroke-width:1.06799984" />
          <path
             d=""
             id="path2575"
             i:knockout="Off"
             style="fill:none;stroke:#ffffff;stroke-width:1.06799984" />
          <path
             d=""
             id="path2577"
             i:knockout="Off"
             style="fill:none;stroke:#ffffff;stroke-width:1.06799984" />
          <path
             d=""
             id="path2579"
             i:knockout="Off"
             style="fill:none;stroke:#ffffff;stroke-width:1.06799984" />
          <path
             d=""
             id="path2581"
             i:knockout="Off"
             style="fill:none;stroke:#ffffff;stroke-width:1.06799984" />
          <path
             d=""
             id="path2583"
             i:knockout="Off"
             style="fill:none;stroke:#ffffff;stroke-width:1.06799984" />
          <path
             d=""
             id="path2585"
             i:knockout="Off"
             style="fill:none;stroke:#ffffff;stroke-width:1.06799984" />
          <path
             d=""
             id="path2587"
             i:knockout="Off"
             style="fill:none;stroke:#ffffff;stroke-width:1.06799984;stroke-linejoin:round" />
          <path
             d=""
             id="path2589"
             i:knockout="Off"
             style="fill:none;stroke:#ffffff;stroke-width:1.06799984;stroke-linejoin:round" />
          <path
             style="fill:#0c2e82;stroke:#000000;stroke-width:0.42100003"
             i:knockout="Off"
             id="path2591"
             d="" />
          <path
             style="fill:#0c2e82;stroke:#000000;stroke-width:0.42100003"
             i:knockout="Off"
             id="path2593"
             d="" />
          <path
             sodipodi:nodetypes="ccccccccccsccccsccccccccccccccccccccccccccccccccccccccccccccc"
             id="path4326-2"
             d="m 600.00957,469.23737 c -0.18091,0.23103 -3.20152,7.30057 -3.32932,7.42696 0.63837,0.88048 30.9855,41.95437 31.94871,42.83304 -0.0854,33.65605 -0.42683,67.7603 -0.5122,101.41635 -18.22591,-5.61289 -36.45185,-11.2258 -54.67776,-16.8387 5.54887,12.46362 11.09776,24.92726 16.64663,37.39088 -19.52777,3.60678 -39.05554,7.21353 -58.58331,10.82031 17.28687,8.72881 34.57375,17.4576 51.86063,26.18642 -3.75615,10.50017 -7.51233,21.00035 -11.26848,31.50053 18.61006,0.12805 37.22015,0.2561 55.83021,0.38415 -0.0639,21.14976 -0.12805,63.3608 -0.19197,63.44925 -0.18931,-0.0213 -38.20311,0.38714 -38.60736,-0.0639 -0.0789,0.45567 4.297,8.49233 4.41775,9.28369 0.61073,0.10982 76.35457,0.1303 76.8946,0.32013 0.0479,-0.16821 3.78373,-8.78252 4.09763,-9.2837 -1.2188,-0.28087 -39.62118,-0.38671 -39.63177,-0.19197 -0.15079,-0.5396 0.12805,-42.34219 0.19197,-63.51327 6.0184,0.0426 12.03679,0.0854 18.05519,0.12805 -5.52754,9.43309 -11.05506,18.86617 -16.5826,28.29926 20.31742,0.14936 40.63483,0.29878 60.95225,0.44818 14.64049,-31.45786 40.28346,-95.10707 41.12763,-96.74262 -1.05247,-2.14017 -50.89902,-118.19688 -51.63911,-119.91578 -3.22263,17.2442 -6.30587,33.65224 -9.52849,50.89644 -13.80816,-5.42081 -27.61633,-10.84165 -41.42448,-16.26247 7.36293,24.32968 14.72586,48.65936 22.08879,72.98904 -7.61904,-2.34759 -15.23807,-4.69521 -22.8571,-7.0428 0.0854,-34.70181 0.17067,-69.40361 0.2561,-104.10542 10.35621,-13.6495 20.76018,-27.26279 31.11638,-40.91228 l 0.51221,-0.76831 c -1.16096,-2.56751 -2.36044,-5.11554 -3.5214,-7.68305 -21.12841,-0.14936 -42.51292,-0.29878 -63.64133,-0.44818 z m 4.60984,7.17086 c 7.93916,0.0639 15.87832,0.12805 23.81748,0.19197 -0.0213,10.4575 -0.0426,20.91498 -0.0639,31.37248 -7.91781,-10.52152 -15.83564,-21.04303 -23.75345,-31.56456 z m 30.98833,0.2561 c 7.57635,0.0426 15.15269,0.0854 22.72904,0.12805 -7.59768,10.09468 -15.19538,21.0217 -22.79307,31.11638 0.0213,-10.13737 0.0426,-21.10706 0.0639,-31.24443 z m -37.96711,316.54195 c 1.16225,3.32949 3.37956,6.65449 4.80191,9.02759 0.72371,0.19156 39.79549,0.2114 59.67174,0.12805 1.57675,-3.79471 3.63137,-8.72035 3.45738,-8.89954 -21.07176,-0.12395 -46.03952,-0.21472 -67.93103,-0.2561 z m 33.29325,17.99116 c -12.63832,0.0184 -25.25081,0.11698 -25.54617,0.0639 0.40094,0.75724 3.7404,8.99807 4.41776,9.66785 0.86616,0.44727 42.75675,0.47102 43.7294,0.2561 -0.33562,-0.83442 4.08192,-8.72486 3.20127,-9.73187 -0.48546,-0.23482 -13.16394,-0.27393 -25.80226,-0.25611 z m 0.12805,18.43933 c -7.90222,0.0375 -15.75187,0.1174 -16.45455,0.12805 0.39991,0.77456 3.63208,8.80798 4.22568,9.5398 0.70945,0.3871 22.3164,-0.0227 24.45774,0.19197 0.95741,-1.84625 3.80333,-7.94965 4.5458,-9.79589 -0.9176,-0.0969 -8.87245,-0.10163 -16.77467,-0.0639 z m -0.5122,19.78387 c -3.35234,0.026 -6.70528,0.0639 -7.36293,0.0639 0.46354,0.85032 6.54049,13.79584 7.8111,14.0856 0.82564,-0.18972 7.21675,-12.45569 7.04281,-13.95755 -0.76878,-0.19054 -4.13865,-0.2181 -7.49098,-0.19198 z"
             style="fill:#ffffff;fill-opacity:1;fill-rule:evenodd;stroke:none" />
          <path
             style="fill:#ffffff;fill-opacity:1;fill-rule:evenodd;stroke:#000000;stroke-width:5;stroke-linecap:butt;stroke-linejoin:miter;stroke-miterlimit:4;stroke-opacity:1;stroke-dasharray:none"
             d="m 632.63921,344.89984 c -43.70805,99.55961 -87.4161,197.52611 -131.12417,297.08572 43.70807,99.5809 87.41612,200.75494 131.12417,300.33586 43.7294,-99.58092 87.4588,-199.16184 131.1882,-298.74274 -43.7294,-99.55961 -87.4588,-199.11923 -131.1882,-298.67884 z m -0.38415,52.50089 C 670.11862,478.0391 701.35969,562.06927 737.49972,643.63519 704.48858,726.73235 668.20824,805.77307 631.49427,887.43086 595.04325,807.20005 561.21161,724.2911 525.45305,643.5862 558.95542,560.14861 595.77633,479.73104 632.25506,397.40073 z"
             id="path3416-2"
             sodipodi:nodetypes="cccccccccc" />
        </g>
      </g>
      <text
         transform="matrix(-0.96877181,-0.247954,0.247954,-0.96877181,1308.0959,1498.2098)"
         sodipodi:linespacing="125%"
         id="text2886"
         style="font-size:38px;font-style:normal;font-variant:normal;font-weight:bold;font-stretch:normal;text-align:start;line-height:125%;writing-mode:lr-tb;text-anchor:start;fill:#acacac;fill-opacity:1;stroke:#acacac;stroke-width:2;stroke-miterlimit:4;stroke-opacity:1;stroke-dasharray:none;font-family:DejaVu Sans;-inkscape-font-specification:DejaVu Sans Bold"
         xml:space="preserve"><textPath
           id="textPath3727"
           xlink:href="#path3674"><tspan
   style="fill:#acacac;fill-opacity:1;stroke:#acacac;stroke-opacity:1"
   id="tspan3722">NATIONAL TRAFFIC SYSTEM  PRIDE  SERVICE  TRADITION  INNOVATION</tspan></textPath></text>
    </g>
  </g>
</svg>
