<?xml version="1.0" encoding="UTF-8" standalone="no"?>
<!-- Created with Inkscape (http://www.inkscape.org/) -->

<svg
   xmlns:dc="http://purl.org/dc/elements/1.1/"
   xmlns:cc="http://creativecommons.org/ns#"
   xmlns:rdf="http://www.w3.org/1999/02/22-rdf-syntax-ns#"
   xmlns:svg="http://www.w3.org/2000/svg"
   xmlns="http://www.w3.org/2000/svg"
   version="1.0"
   width="599.55798"
   height="599.85883"
   id="svg2">
  <defs
     id="defs4" />
  <metadata
     id="metadata7">
    <rdf:RDF>
      <cc:Work
         rdf:about="">
        <dc:format>image/svg+xml</dc:format>
        <dc:type
           rdf:resource="http://purl.org/dc/dcmitype/StillImage" />
        <dc:title></dc:title>
        <dc:creator>
          <cc:Agent>
            <dc:title>Tyler Tidman VA3DGN</dc:title>
          </cc:Agent>
        </dc:creator>
      </cc:Work>
    </rdf:RDF>
  </metadata>
  <path
     d="m 597.05796,299.9294 a 297.27898,297.42943 0 1 1 -594.5579633,0 297.27898,297.42943 0 1 1 594.5579633,0 z"
     id="path2909"
     style="fill:#ffffff;fill-opacity:1;stroke:#000000;stroke-width:5.00000048;stroke-linecap:square;stroke-linejoin:miter;stroke-miterlimit:4;stroke-opacity:1;stroke-dasharray:none" />
  <path
     d="M 295.51526,14.24628 C 139.58835,16.22458 13.65289,143.46813 13.6529,299.94054 c 0,157.70448 127.92506,285.69422 285.54975,285.69431 157.62471,0 285.54978,-127.98985 285.54978,-285.69431 0,-157.70446 -127.92506,-285.69427 -285.54978,-285.69426 -1.23143,0 -2.45962,-0.0156 -3.68739,0 z m 3.71533,51.31429 c 128.64,0 233.0323,104.47308 233.0323,233.17818 0,128.70507 -104.3923,233.15022 -233.0323,233.15022 -128.63999,0 -233.0323,-104.44513 -233.0323,-233.15022 0,-128.70511 104.39231,-233.17818 233.0323,-233.17818 z"
     id="path2915"
     style="fill:#000000;fill-opacity:1;stroke:none" />
  <path
     d="m 212.76467,183.90941 3.58541,13.49481 -0.5122,12.12825 0.34146,9.22429 5.80496,-0.85409 15.19533,-2.39149 11.95138,-1.53738 7.51228,-0.34165 12.46359,-0.68327 -0.34147,14.86137 -0.68293,16.56958 -0.51221,13.32399 -0.85367,13.15317 -0.34146,17.08203 -3.41469,16.74041 0.34148,14.34892 19.46367,-3.41642 20.31734,-3.24559 15.87826,-2.04984 14.00019,-1.53739 1.36587,-19.98598 1.53661,-17.25286 1.02441,-13.32399 1.19514,-17.76532 1.36587,-25.96469 9.73183,1.36655 14.51239,2.56231 14.34165,2.04985 15.36606,3.58722 6.82936,1.53739 0.85367,-17.08204 0.85367,-9.05349 0,-7.85773 -13.48798,-1.87902 -15.70753,-6.49118 -18.95147,-3.24559 -22.53688,-2.56231 -25.43937,-1.53737 -22.53689,0.34164 -22.02468,0.17082 -17.41487,2.04984 -18.43927,2.73313 -12.63431,2.73312 z"
     id="path2911"
     style="fill:#000000;fill-opacity:1;fill-rule:evenodd;stroke:none" />
  <path
     d="m 202.10378,171.4654 -0.51221,14.69056 -0.5122,12.12825 -0.5122,10.59086 12.12211,-2.5623 11.78065,-1.87903 13.31725,-1.87902 10.41477,-1.19575 10.24404,-0.85409 -0.34147,14.86136 -0.68294,16.56958 -0.5122,13.324 -0.85367,13.15317 -0.34147,17.08203 -0.68293,18.27779 -0.5122,17.08204 19.46367,-4.78298 17.41486,-3.75804 18.09781,-2.73313 14.34166,-1.70821 2.04881,-29.55192 1.19513,-23.23157 0.68294,-18.79025 0.85367,-11.95742 0.51221,-12.98235 9.73183,1.36656 14.00018,2.56231 14.51239,2.73313 15.36606,3.58722 6.82936,1.53738 0.85367,-17.08204 0.85367,-9.05348 0.5122,-9.56594 -14.34165,-3.58723 -15.36606,-3.07476 -18.95147,-3.12747 -22.773,-2.68043 -23.78657,-1.53738 -23.95357,-0.24894 -21.4344,1.11576 -18.00515,1.69548 -18.43927,2.73313 -12.63431,2.73312 z"
     id="path2913"
     style="fill:#acacac;fill-opacity:1;fill-rule:evenodd;stroke:#000000;stroke-width:2.5;stroke-linecap:butt;stroke-linejoin:miter;stroke-miterlimit:4;stroke-opacity:1;stroke-dasharray:none" />
  <path
     d="m 421.50862,341.40352 c -2.9182,0.0743 -6.81768,0.32643 -9.71696,0.66665 -3.8374,0.45029 -8.88402,1.40378 -12.68757,2.08326 -4.3099,0.76994 -10.05766,1.93198 -14.35334,2.77768 -3.12165,0.61455 -7.33298,1.69065 -10.16116,2.33325 -4.04337,0.91871 -8.29094,2.22786 -14.10347,4.13874 -3.92975,1.2919 -8.26261,2.59735 -12.24337,3.72209 -2.59514,0.73324 -6.22736,1.85983 -8.77303,2.7499 -2.79586,0.97755 -6.47501,2.4234 -9.24499,3.4721 -3.81733,1.44521 -8.91395,3.3743 -12.71534,4.86094 -2.43402,0.95188 -5.67043,2.23513 -8.07895,3.24988 -6.07867,2.56105 -12.86859,5.57455 -19.62826,8.66636 -6.75967,3.09181 -13.497,6.26387 -19.43392,9.13856 -3.94982,1.91253 -8.49488,4.34921 -13.02072,6.86087 -4.52585,2.51166 -9.0252,5.07747 -12.85415,7.22197 -6.75394,3.78271 -15.71952,8.81845 -22.40453,12.72177 -4.69374,2.74061 -12.45431,7.348 -17.10185,10.1663 -3.906,2.36863 -8.24088,5.27854 -12.54876,8.22193 -4.30788,2.94339 -8.58972,5.9394 -12.40995,8.44415 -5.09811,3.34259 -12.17155,7.96941 -17.10185,11.55514 -2.99525,2.17843 -7.39873,4.78943 -10.41102,6.9442 -2.14234,1.53249 -5.77124,4.2471 -6.8574,5.05538 1.39129,1.09058 3.53843,3.16171 4.74743,4.05541 1.60631,1.18741 3.5063,2.65497 5.27492,3.5832 1.53098,0.80354 3.46419,1.78396 5.04474,2.48487 1.69528,0.75178 4.18225,1.95495 5.92154,2.59829 2.89596,1.07116 6.69235,2.22221 9.66608,3.05312 2.2613,0.63184 5.48962,1.37201 7.79669,1.80781 2.36825,0.44735 5.46645,0.77572 7.85685,1.0833 2.19403,0.2823 5.21076,0.64875 7.41265,0.86108 2.67971,0.25839 6.27611,0.15452 8.96737,0.22221 3.1274,0.0787 7.28286,0.21361 10.41103,0.25 2.3273,0.0271 5.51537,0.10162 7.83699,-0.0635 2.05202,-0.14589 5.52062,-0.18959 7.57133,-0.3532 4.20579,-0.33549 7.74562,-0.60373 11.94847,-0.9745 1.83434,-0.16182 7.35919,-0.8388 9.15809,-1.23259 3.17199,-0.69435 6.47797,-1.23844 9.65567,-1.90619 3.01991,-0.63462 6.07511,-1.4406 9.10506,-2.02539 3.01391,-0.58168 7.00942,-1.5943 9.96683,-2.41658 2.34944,-0.65325 5.64753,-1.37892 8.00839,-1.98952 2.44443,-0.63224 5.54739,-1.45577 7.98295,-2.12144 2.59601,-0.70952 5.95647,-2.02392 8.49539,-2.91657 1.82327,-0.64101 4.22628,-1.56113 6.05228,-2.19436 2.17318,-0.75365 5.09498,-1.67956 7.27384,-2.41658 2.54937,-0.86233 5.92274,-2.04108 8.46764,-2.91657 2.10991,-0.72585 4.98408,-1.57781 7.05173,-2.41658 2.38212,-0.96633 4.84917,-1.98363 7.19984,-3.02423 1.72933,-0.76556 4.9086,-2.02885 6.58088,-2.78576 2.02739,-0.91764 4.20352,-2.00032 6.27902,-2.80313 1.58228,-0.61201 3.97012,-1.49242 5.55255,-2.10407 2.10139,-0.81225 4.64035,-1.63375 6.62025,-2.39345 1.80443,-0.69239 4.20848,-1.5873 6.05228,-2.16659 1.86845,-0.58704 4.21208,-1.2695 6.05692,-1.92701 2.17747,-0.77606 5.21632,-1.877 7.36521,-2.72908 1.86037,-0.73768 4.35262,-1.71664 6.23389,-2.39922 2.12077,-0.76945 4.90321,-1.8971 7.02397,-2.66657 1.88129,-0.68258 4.41038,-1.51369 6.30215,-2.16659 2.3266,-0.80297 6.80379,-2.424 7.77356,-2.66657 0.96978,-0.24258 6.08665,-1.76314 8.7175,-2.44436 1.81032,-0.46875 4.18272,-1.14696 5.98403,-1.64924 1.61755,-0.45102 3.77059,-1.07833 5.3987,-1.48953 3.80356,-0.96065 8.97046,-1.89092 12.85415,-2.44436 2.24263,-0.31959 5.27702,-0.76796 7.5237,-1.0577 2.26511,-0.29212 5.25543,-0.59233 7.5237,-0.8589 1.95575,-0.22983 4.55826,-0.38783 6.52425,-0.49998 1.81685,-0.10366 4.26061,-0.2136 6.08004,-0.24999 1.45438,-0.0291 3.37667,0.0427 4.83071,0 1.23808,-0.0364 2.89988,-0.15489 4.13665,-0.22222 1.19534,-0.0651 2.44239,-0.18614 3.6326,-0.16339 0.96428,0.0496 0.79351,-0.25136 1.82753,-0.1659 10.01129,-16.0441 18.52861,-33.60979 24.32672,-51.99503 0.0515,0.26621 -0.23928,0.46182 -1.6146,0.21102 -0.48836,-0.32046 -1.28932,-0.36259 -1.74214,-0.91255 -0.90564,-1.09992 -1.73417,-2.429 -2.58189,-3.13878 -1.70219,-1.42513 -3.98788,-3.32133 -5.77465,-4.63872 -2.08971,-1.54072 -4.91272,-3.61545 -7.19059,-4.86094 -1.38992,-0.75997 -3.0659,-1.37937 -4.77519,-1.97215 -1.7093,-0.59278 -3.43538,-1.15394 -4.914,-1.72216 -3.00848,-1.15614 -7.98222,-2.89769 -11.1051,-3.69432 -3.95379,-1.0086 -8.43069,-1.94729 -12.46547,-2.55546 -2.14277,-0.32298 -5.01516,-0.6276 -7.16278,-0.91663 -3.46891,-0.46684 -7.8355,-1.14549 -11.3272,-1.38884 -3.59631,-0.25064 -8.63855,-0.46882 -12.24337,-0.50562 -3.39756,-0.0347 -7.93056,-0.0253 -11.3272,0.0611 l 0,1e-4 1e-5,-2e-5 z"
     id="path2919"
     style="fill:#acacac;fill-opacity:1;stroke:#000000;stroke-width:2.50000024;stroke-linecap:square;stroke-linejoin:miter;stroke-miterlimit:4;stroke-opacity:1;stroke-dasharray:none" />
  <path
     d="m 299.46361,71.60756 c -23.70039,0 -48.1659,4.21906 -70.54512,11.41626 -25.57525,8.22505 -48.18401,21.11891 -68.24082,36.38759 1.53477,-0.3414 26.76759,-5.55087 38.30495,-7.52314 8.40771,-1.43727 22.05092,-4.17614 30.8798,-5.25418 9.28178,-1.13334 21.30674,-1.99428 30.6468,-2.43891 7.40468,-0.35249 18.04172,-0.93041 25.63045,-0.7821 6.86823,0.13422 22.01041,0.94441 22.01041,0.94441 l -3.39032,14.03055 c 0,0 19.14993,0.68433 27.67945,1.16662 5.72151,0.32351 15.09742,1.35911 20.94074,1.99993 6.91902,0.75879 16.31958,1.70313 23.17862,2.88769 5.86745,1.01332 13.79626,2.53281 19.57491,3.96881 6.75939,1.67972 19.81496,6.30534 19.81496,6.30534 l -5.14652,8.74338 c 0,1e-5 12.7597,6.08795 17.92392,8.73258 3.89683,1.99559 8.8757,4.91991 12.71316,7.02753 3.75259,2.061 8.23607,5.2358 11.74146,7.69417 4.13117,2.89722 9.64872,5.88279 13.55367,9.07865 4.17147,3.414 12.68321,11.27737 12.68321,11.27737 1.00599,1.342 6.67983,5.87587 9.13503,8.72192 2.77261,3.21386 7.44368,8.94412 7.44368,8.94412 l -13.43826,-9.19848 c -2e-5,0 -10.97633,-7.58721 -15.65926,-10.47185 -6.07552,-3.74245 -13.71785,-7.63441 -20.07029,-10.88414 -6.63751,-3.39555 -15.13601,-6.86711 -21.98809,-9.8052 -6.85209,-2.9381 -15.98002,-5.87163 -22.98755,-8.41637 -4.80325,-1.74428 -14.61665,-4.65935 -14.61665,-4.65935 l -9.60591,-2.06723 0.0689,-6.55073 c 0,1e-5 -11.11299,-2.18779 -18.26788,-3.22211 -8.02564,-1.16019 -19.86808,-3.52758 -27.4285,-4.14201 -7.11126,-0.57792 -16.52209,-1.11338 -23.65495,-1.27446 -5.86541,-0.13247 -14.56895,-0.25804 -20.43664,-0.004 -5.64441,0.24507 -19.26407,1.11435 -19.26407,1.11435 l -0.13882,-10.08298 c 10e-6,-1e-5 -16.65555,0.58825 -23.51504,1.24996 -8.55682,0.82544 -19.85584,1.99879 -28.37679,3.1366 -8.13593,1.08639 -16.78028,2.90421 -25.56621,4.02981 -7.10597,0.91038 -18.18193,3.24197 -25.20857,4.63872 -5.70535,1.13411 -11.90214,2.81348 -17.54605,4.22208 -5.12565,1.27925 -17.12962,4.08318 -17.12962,4.08318 0,0 0.68753,-0.81152 1.80458,-2.08326 -13.9277,15.09378 -25.55623,32.08781 -35.23092,50.99819 0,10e-6 52.04752,-17.88638 74.79283,-24.08248 18.65444,-5.08168 43.4669,-11.59463 62.71494,-13.41182 25.03284,-2.36333 41.78653,-4.3503 59.60769,-3.36536 20.94389,1.15754 37.40105,2.50557 53.30446,4.69428 10.01561,1.37841 23.34572,3.64091 33.12095,6.222 12.5833,3.32254 28.853,9.49719 41.03334,14.08283 6.05816,2.28078 14.17581,5.29011 19.96141,8.19416 5.49627,2.75882 12.35393,7.30311 17.57381,10.55518 4.24973,2.64765 9.92062,6.18032 14.02018,9.05523 4.59015,3.21894 10.08174,7.70277 14.37783,11.30516 3.18017,2.66666 10.16119,9.55631 10.16119,9.55631 0,0 6.52642,5.86955 8.8552,8.80414 0.75621,0.95293 0.82311,2.69653 0.82311,2.69653 l 8.73598,-1.33437 1.38378,-0.35674 C 515.44245,227.93569 511.96843,217.97386 507.85074,208.38019 473.52924,128.41532 391.91422,71.60727 299.46358,71.60727 z"
     id="path3013"
     style="fill:#000000;fill-opacity:1;fill-rule:evenodd;stroke:none" />
  <path
     d="m 517.40116,363.34719 c -0.41639,-2.75598 -2.08207,-4.203 -4.04492,-5.92601 -1.72982,-1.74022 -4.63882,-4.55375 -6.33834,-6.32356 -1.90199,-1.98057 -5.05788,-5.18099 -7.16279,-6.94419 -2.13822,-1.79109 -5.33551,-3.94887 -7.6348,-5.52758 -2.55248,-1.75259 -5.18415,-3.54799 -7.85684,-5.11093 -3.47975,-2.03487 -7.58468,-4.30688 -11.20772,-6.07379 -2.75964,-1.34583 -7.18054,-3.24555 -10.05854,-4.31473 -2.0891,-0.7761 -4.58782,-1.4866 -7.10727,-2.13882 -2.51944,-0.65221 -5.05759,-1.25991 -7.21831,-1.80549 -3.58728,-0.90578 -8.44621,-1.99085 -12.09522,-2.60191 -2.61265,-0.43751 -5.91954,-1.08529 -8.55115,-1.38839 -4.44213,-0.51164 -10.49685,-1.08547 -14.94546,-1.53728 -4.4277,-0.44967 -10.3328,-0.82027 -14.76978,-1.16662 -5.33815,-0.41672 -12.59558,-0.91082 -17.94384,-1.16685 -3.8785,-0.18567 -9.0095,-0.24457 -12.89124,-0.14822 -5.14032,0.1276 -11.88184,0.35021 -17.00012,0.84286 -3.33818,0.32131 -8.76586,0.51392 -12.09523,0.91641 -4.15759,0.50262 -10.03071,1.19991 -14.02929,1.71327 -4.1827,0.53701 -9.93702,1.13692 -14.10369,1.78683 -4.2915,0.66936 -8.42708,1.61567 -12.71534,2.30547 -4.72639,0.76029 -11.25151,2.4849 -15.93581,3.4721 -7.40404,1.56036 -17.69642,4.24423 -24.11672,5.60158 -2.79668,0.59126 -8.46664,2.2045 -11.22525,2.95367 -4.04382,1.09819 -8.00084,2.04107 -12.02127,3.22211 -3.53616,1.03879 -8.45909,2.74862 -12.02126,3.69431 -5.05375,1.34168 -10.92105,3.46287 -14.79754,4.63873 -5.30802,1.61011 -10.43648,3.59703 -15.71371,5.30537 -4.56845,1.47889 -11.39542,4.21457 -15.93582,5.77757 -3.77498,1.2995 -8.95841,3.28785 -12.71533,4.63872 -4.55993,1.63962 -10.00116,3.62888 -14.54768,5.30537 -5.02528,1.85303 -11.40607,4.11176 -16.40778,6.02756 -2.38701,0.91431 -5.17787,2.07925 -7.99567,3.22211 -2.8178,1.14286 -5.67186,2.24303 -8.19001,2.99989 -4.43065,1.33169 -10.17357,3.82591 -14.54767,5.33315 -1.83448,0.63213 -4.96835,1.43155 -7.69028,2.22214 -1.36097,0.39529 -2.63429,0.79746 -3.5814,1.16663 -0.9471,0.36917 -1.58409,0.70074 -1.69352,0.99996 0.93609,2.28922 1.90732,4.55403 2.91509,6.80531 1.2799,2.39006 2.63746,4.74984 2.63746,4.74984 l 6.27437,13.02731 c 11.875,21.3071 27.04988,40.48641 44.86459,56.88687 0.63843,-0.47537 5.00933,-3.7291 7.32937,-5.3887 3.01229,-2.15477 7.41577,-4.76577 10.41102,-6.9442 4.9303,-3.58573 12.00374,-8.21255 17.10185,-11.55514 3.82023,-2.50475 8.10207,-5.50076 12.40995,-8.44415 4.30788,-2.94339 8.64276,-5.8533 12.54876,-8.22193 4.64754,-2.8183 12.40811,-7.42569 17.10185,-10.1663 6.68501,-3.90332 15.65059,-8.93906 22.40453,-12.72177 3.82895,-2.1445 8.3283,-4.71031 12.85415,-7.22197 4.52584,-2.51166 9.0709,-4.94834 13.02072,-6.86087 5.93692,-2.87469 12.67425,-6.04675 19.43392,-9.13856 6.75967,-3.09181 13.54959,-6.10531 19.62826,-8.66636 2.40852,-1.01475 5.64493,-2.298 8.07895,-3.24988 3.80139,-1.48664 8.89801,-3.41573 12.71534,-4.86094 2.76998,-1.0487 6.44913,-2.49455 9.24499,-3.4721 2.54567,-0.89007 6.17789,-2.01666 8.77303,-2.7499 3.98076,-1.12474 8.31362,-2.43019 12.24337,-3.72209 5.81253,-1.91088 10.0601,-3.22003 14.10347,-4.13874 2.82818,-0.6426 7.03951,-1.7187 10.16116,-2.33325 4.29568,-0.8457 10.04344,-2.00774 14.35334,-2.77768 3.80355,-0.67948 8.85017,-1.63297 12.68757,-2.08326 2.89928,-0.34022 6.79876,-0.59232 9.71696,-0.66665 3.39664,-0.0865 7.92964,0.18753 11.3272,0.22222 3.60482,0.0368 8.64706,-0.0284 12.24337,0.22221 3.4917,0.24335 7.85829,0.92201 11.3272,1.38884 2.14762,0.28903 5.02001,0.59366 7.16278,0.91664 4.03478,0.60816 8.51168,1.54686 12.46547,2.55546 3.12288,0.79662 8.09662,2.53818 11.1051,3.69431 1.47862,0.56822 3.2047,1.12939 4.914,1.72217 1.70929,0.59277 3.38527,1.21217 4.77519,1.97215 2.27787,1.24548 5.10088,3.32022 7.19059,4.86094 1.78677,1.31739 4.07246,3.21359 5.77465,4.63872 0.84772,0.70978 1.67625,2.03885 2.58189,3.13878 1.09781,1.36957 3.06066,2.25826 4.47847,1.10174 0.42137,-1.49345 0.72449,-2.99256 0.54663,-4.49051 z"
     id="path3017"
     style="fill:#000000;fill-opacity:1;stroke:none" />
  <path
     d="m 110.96222,213.3122 35.73524,-12.42269 19.75792,24.78227 18.5028,23.74632 12.87756,16.94082 0.59604,-27.26115 0.18053,-22.68643 30.42542,4.32445 16.44065,-0.0784 -0.77657,24.2643 -1.81199,41.0593 -2.22748,38.46724 -17.72623,4.93601 -26.52734,7.04706 -10.72188,-13.65451 -14.94189,-17.35869 -13.789,-16.24439 -9.19266,-9.79364 -0.98757,12.61856 -2.18832,40.83079 -1.5923,21.51772 -20.62802,6.08947 -18.37011,4.63783 2.07085,-21.99652 1.63146,-26.93251 1.37259,-25.99886 1.07458,-24.60163 0.33716,-26.67353 0.47856,-25.55923 z"
     id="path3019"
     style="fill:#000000;fill-opacity:1;fill-rule:evenodd;stroke:none" />
  <path
     d="m 98.52451,206.20134 32.88782,-12.1637 18.46364,26.07721 17.72623,24.26429 30.4798,38.17779 1.63145,-30.369 -0.59603,-37.18972 17.4826,-1.37328 16.69951,-1.1143 -1.03543,26.07721 -1.29428,40.02335 -2.22748,37.94927 -18.24394,5.71296 -19.79707,4.71618 -13.05159,-14.69046 -14.68303,-16.32274 -12.23586,-14.69046 -8.15724,-9.79365 -7.41982,-7.72174 -0.81573,21.11727 -2.18831,40.83079 -1.59231,21.51771 -20.62801,6.08947 -16.04041,4.89683 -0.25885,-22.25552 1.63145,-26.93251 1.37259,-25.99886 1.07458,-24.60162 0.33716,-26.67353 0.47856,-25.55924 z"
     id="path3021"
     style="fill:#acacac;fill-opacity:1;fill-rule:evenodd;stroke:#000000;stroke-width:2.50000024;stroke-linecap:butt;stroke-linejoin:miter;stroke-miterlimit:4;stroke-opacity:1;stroke-dasharray:none" />
  <path
     d="m 494.99872,246.51371 c -0.19741,-1.04195 -0.64472,-4.84268 -1.15084,-5.82912 -0.58395,-1.13801 -2.00194,-4.66224 -3.82051,-6.33328 -1.95287,-1.7945 -3.54522,-5.57264 -5.68754,-7.13585 -39.58672,-19.01235 -78.14259,-15.73047 -120.53235,-12.28861 -1.3951,1.16491 -3.30037,2.99765 -4.14714,4.60623 -0.61262,1.16377 -1.86222,5.99654 -1.88241,7.31168 -0.0528,3.43671 -0.1727,8.29451 0.33248,11.15125 0.56925,3.21907 2.78762,8.086 3.94057,10.83368 0.78064,1.86041 2.46085,3.19222 3.66743,4.80896 1.46177,1.95867 4.44201,4.18057 6.2417,5.8338 1.7502,1.60778 4.31975,3.48624 6.2876,4.81848 2.66784,1.80614 5.30494,3.12793 8.28477,4.35197 2.18328,0.89684 1.1581,1.34291 7.2375,3.56794 2.42661,0.88812 6.95417,1.67822 9.5078,2.07264 2.62919,0.4061 8.78634,0.62568 10.58754,0.79357 2.57219,0.23976 8.44311,0.9381 11.41315,1.33846 2.68881,0.36245 5.17581,0.63313 5.74693,3.28678 0.68782,3.196 -0.97773,2.52259 -3.04771,4.10888 l -77.59009,-2.21704 -10.64107,3.57962 -8.89744,2.53915 c 0,0 1.18014,3.87194 3.70675,5.94353 1.99925,1.6392 3.69669,2.28832 5.82135,3.76116 2.52533,1.75058 3.97922,2.05577 6.66992,3.53938 2.97298,1.63925 3.6362,1.91064 6.70632,3.35961 3.71747,1.7545 7.35766,2.59918 11.1725,4.13022 1.71989,0.69026 10.10506,2.37484 11.94039,2.631 2.51206,0.35061 10.88051,2.35916 14.97928,2.6579 2.84984,0.20772 10.50821,0.96174 13.33753,1.36143 2.87473,0.40611 6.92772,0.32118 9.82127,0.55836 3.00663,0.24644 8.55356,0.32668 9.08745,0.29065 2.80542,-0.18929 6.40943,-0.1545 9.41042,-0.7017 2.43551,-0.4441 7.46865,-1.02878 8.13755,-1.29648 0.66889,-0.26769 6.77379,-1.97264 9.58794,-3.01062 3.04888,-1.12456 6.35354,-1.96171 9.27486,-3.84245 2.05238,-1.32133 5.39012,-3.99057 7.07683,-5.75539 1.31537,-1.37629 3.12771,-3.54832 4.28092,-5.06322 1.00528,-1.32055 3.07783,-3.33504 3.6999,-4.87391 0.58434,-1.44555 1.53973,-4.05482 2.20538,-5.46473 0.90885,-1.92507 1.61554,-3.24926 2.12701,-5.39027 0.454,-1.90046 1.12162,-4.40302 0.63249,-7.18179 -0.30918,-1.75655 0.0309,-4.87707 -0.42822,-6.60047 -0.51664,-1.93914 -2.26074,-5.20813 -3.19168,-6.83174 -1.7824,-3.1086 -8.45126,-8.44447 -10.60654,-9.29248 -20.48882,-8.16674 -43.37697,-8.85912 -50.44477,-9.59888 -2.87576,-0.54298 -3.32537,-0.50333 -4.93367,-1.00976 -2.41601,-0.76078 -3.12844,-1.01452 -4.41897,-1.77642 -0.79982,-0.4722 -1.60262,-1.16748 -1.7601,-2.6854 -0.18539,-1.78692 0.38561,-2.45587 0.71214,-3.20853 0.65419,-1.5079 2.22584,-2.62051 3.27691,-3.37355 1.43963,-1.03144 4.28064,-2.01512 6.45082,-2.58444 2.18468,-0.5731 4.46074,-1.05254 6.74611,-1.21641 1.96151,-0.14064 5.75239,-0.11349 7.71567,0 2.78313,0.16089 5.33448,0.006 7.96472,0.3319 3.26635,0.40394 7.17496,1.45959 10.25202,2.62796 1.71169,0.64994 5.96202,3.77809 7.48943,4.788 1.32923,0.87887 3.9814,3.23244 4.98113,4.47364 1.091,1.35452 1.61661,3.12696 2.37775,4.70187 0.52526,1.08685 0.93214,2.64977 0.93214,2.64977 l 12.89955,0.61568 11.02487,0.75297 7.43426,0.38442 z"
     id="path3023"
     style="fill:#000000;fill-opacity:1;fill-rule:evenodd;stroke:none" />
  <path
     d="m 494.69888,234.17526 c 0,0 -2.80941,-4.74884 -3.3445,-5.62156 -0.28846,-0.4704 -3.93397,-4.21821 -5.75249,-5.88924 -1.95288,-1.79451 -4.68039,-4.05834 -6.82272,-5.62156 -2.1587,-1.57517 -5.14111,-3.54746 -7.49161,-4.81846 -2.513,-1.35888 -6.04959,-2.80471 -8.69562,-3.88155 -2.25826,-0.91903 -5.28728,-2.11995 -7.62539,-2.81078 -3.1562,-0.93254 -6.52411,-1.78994 -9.75633,-2.40924 -4.0308,-0.7723 -8.88687,-2.09088 -12.94408,-2.7094 -3.28806,-0.50126 -8.40786,-1.19743 -11.72663,-1.41687 -3.00374,-0.1986 -7.78241,-0.36796 -10.79017,-0.24473 -4.09983,0.16797 -8.43095,0.30494 -12.51028,0.74764 -2.98501,0.32393 -8.15631,1.56418 -11.03477,2.41875 -3.51224,1.04273 -6.75659,2.56583 -9.96849,4.32902 -2.8498,1.56441 -6.79052,3.99467 -9.28615,6.07852 -1.3951,1.16491 -3.30037,2.99765 -4.14714,4.60623 -0.61262,1.16377 -1.68693,3.36097 -1.88241,4.66165 -0.43117,2.86885 -0.80522,6.73585 -0.80267,9.63695 0.002,1.89406 -0.0503,4.48955 0.53511,6.29078 0.62359,1.91883 2.27167,4.13866 3.47825,5.75541 1.46177,1.95866 3.68524,4.36985 5.48492,6.02308 1.75021,1.60777 4.31975,3.48623 6.28761,4.81848 2.66784,1.80614 6.29822,4.15415 9.23073,5.4877 2.46101,1.11913 5.91964,2.23904 8.56184,2.81078 2.52548,0.54648 5.81903,0.92107 8.37265,1.3155 2.6292,0.40609 7.65119,1.00424 9.45239,1.17213 2.57219,0.23976 6.362,1.1274 9.33205,1.52776 2.68881,0.36245 6.25787,0.99891 8.96317,1.20462 2.20137,0.16739 4.71967,0.12464 6.79026,0.89099 1.12293,0.41561 2.84223,1.80134 3.2661,2.92166 0.54662,1.44471 -0.53589,3.30416 -1.18105,4.70759 -0.59481,1.29389 -1.26848,1.89691 -2.32015,2.8567 -1.59593,1.4565 -3.89493,3.31166 -5.88626,4.14924 -1.42955,0.60129 -3.54199,0.76873 -5.0836,0.93693 -2.27553,0.24827 -5.3412,0.41653 -7.62539,0.26769 -2.92328,-0.19049 -6.79624,-0.87095 -9.63207,-1.60616 -2.43304,-0.63079 -5.58828,-1.8074 -7.89294,-2.81077 -2.15621,-0.93874 -4.86134,-2.54567 -6.9565,-3.61385 -1.43925,-0.73379 -3.36305,-1.70307 -4.81603,-2.40924 -2.11546,-1.02815 -5.0575,-2.16276 -7.09028,-3.34616 -1.14525,-0.66672 -2.54608,-1.75564 -3.61202,-2.54308 -1.26578,-0.93507 -4.14714,-3.21232 -4.14714,-3.21232 l -7.35783,-0.13385 -11.31578,1.26006 -10.56459,0.60428 -10.76165,1.34797 -4.14714,0.2677 c 0,0 5.50012,5.28996 8.02673,7.36155 1.99925,1.6392 4.83184,3.61333 6.95649,5.08617 2.52533,1.75059 5.87114,4.13794 8.56184,5.62155 2.97298,1.63925 7.23085,3.80352 10.30097,5.25249 3.71747,1.7545 8.4928,3.92419 12.30764,5.45523 1.7199,0.69026 5.8334,2.22675 7.58898,2.82029 3.83641,1.29705 7.09668,2.54844 11.00626,3.60433 2.75865,0.74505 6.53519,1.34032 9.36451,1.74001 2.87473,0.40611 7.3061,1.07833 10.19965,1.3155 3.00663,0.24645 8.93072,0.29066 9.46584,0.29066 0.53511,0 7.04199,0.10271 10.04297,-0.44449 2.43552,-0.4441 7.22811,-1.60031 8.95063,-2.18369 1.447,-0.49008 6.29415,-2.9321 8.97566,-4.27639 2.98678,-1.49734 6.14695,-3.53815 8.81989,-5.54315 1.95271,-1.46475 4.63335,-3.80129 6.32006,-5.5661 1.31537,-1.37629 2.56013,-3.35903 3.71335,-4.87393 1.00527,-1.32056 2.32106,-3.14575 2.94313,-4.68462 0.58434,-1.44555 1.57852,-4.30397 1.82699,-5.84332 0.34129,-2.11435 0.10201,-4.19569 0.0459,-6.3367 -0.0512,-1.95331 -0.39191,-4.5923 -1.07023,-6.42464 -0.61916,-1.67254 -1.86352,-3.77952 -3.07691,-5.08616 -1.2734,-1.37128 -2.54496,-2.63179 -4.13763,-3.61386 -1.97159,-1.21572 -5.61339,-2.76585 -7.76867,-3.61385 -2.59114,-1.0195 -6.24437,-1.80859 -8.96318,-2.40924 -2.74467,-0.60636 -6.43802,-1.28775 -9.23073,-1.60616 -2.91528,-0.33238 -7.21805,-0.88694 -10.14423,-1.10325 -3.45697,-0.25553 -7.6786,-0.14598 -11.12659,-0.5029 -3.17413,-0.32857 -7.46763,-0.45101 -10.56852,-1.20462 -2.08602,-0.50696 -4.78048,-1.55973 -6.68894,-2.54308 -1.92969,-0.99429 -4.42559,-2.54188 -6.02004,-4.0154 -1.23858,-1.14462 -2.77744,-2.8826 -3.47825,-4.41692 -0.44166,-0.96696 -0.74733,-2.19861 -0.66889,-3.29072 0.12742,-1.77403 0.9294,-3.52125 2.24177,-4.65216 1.33003,-1.14612 4.91521,-2.75722 6.61475,-3.19657 1.7203,-0.44471 4.7461,-1.12302 6.50278,-1.38973 2.27885,-0.34597 4.89422,-0.40443 7.12503,-0.64323 2.39568,-0.25645 4.35524,-0.24934 6.76426,-0.2895 1.96628,-0.0328 4.90839,0.0976 6.87166,0.21111 2.78314,0.16088 6.495,0.53439 9.23074,1.07077 3.22977,0.63324 7.49146,1.77625 10.56852,2.94462 1.71169,0.64994 3.95751,1.66702 5.48493,2.67693 1.32922,0.87887 3.48756,2.15571 4.77012,3.10144 1.40751,1.03785 2.83615,2.35379 4.19306,3.45704 0.94726,0.77018 2.80935,2.94461 2.80935,2.94461 l 10.36754,0.40458 9.65336,0.54186 9.54424,-0.14335 z"
     id="path3025"
     style="fill:#acacac;fill-opacity:1;fill-rule:evenodd;stroke:#000000;stroke-width:2.50000024;stroke-linecap:butt;stroke-linejoin:miter;stroke-miterlimit:4;stroke-opacity:1;stroke-dasharray:none" />
  <path
     d="m 470.2326,441.54032 c -1.28423,0.037 -2.7684,0.0268 -3.91492,0.0541 -1.30884,0.0312 -3.07781,-0.0363 -4.38651,0 -1.31072,0.0364 -3.04886,0.16322 -4.35875,0.22222 -2.10838,0.095 -4.86576,0.23178 -6.96808,0.41774 -2.04923,0.18127 -4.64853,0.60704 -6.69009,0.86035 -1.37901,0.17112 -3.36233,0.37169 -4.7204,0.66601 -1.57353,0.341 -4.07386,0.91538 -5.64329,1.16299 -2.24566,0.35431 -4.45969,0.93991 -6.68155,1.42162 -1.30568,0.28307 -3.04627,0.5258 -4.27274,0.85653 -1.68836,0.45529 -3.84824,0.98231 -5.54705,1.39694 -1.94027,0.47357 -4.43608,1.11926 -6.36553,1.63528 -1.26674,0.33878 -3.24587,0.92184 -4.5001,1.30441 -2.22738,0.67945 -4.06353,1.14196 -6.27645,1.86716 -1.11665,0.36592 -3.74677,1.22974 -4.82828,1.68937 -1.4682,0.62394 -3.46616,1.32973 -4.91437,1.99883 -1.38826,0.64141 -3.62246,1.4641 -5.05858,1.98952 -2.40249,0.87901 -5.15268,1.91137 -7.54571,2.81587 -1.97785,0.74759 -4.5845,1.88053 -6.52424,2.72212 -1.92128,0.83357 -4.33818,1.80397 -6.24662,2.66658 -1.95733,0.88472 -4.46827,1.95987 -6.40279,2.89343 -1.99566,0.96309 -4.9966,2.25697 -7.00661,3.18968 -2.2131,1.02696 -5.12621,2.48099 -7.27384,3.63876 -1.40574,0.75785 -3.45565,1.74267 -4.8816,2.46173 -2.12358,1.07085 -4.82883,2.3749 -7.00085,3.34362 -1.75386,0.78222 -4.02586,1.93746 -5.80242,2.66657 -1.57525,0.64648 -3.69273,1.55703 -5.26219,2.2175 -1.8592,0.78238 -4.29724,1.84197 -6.14829,2.64344 -2.2189,0.96072 -5.19453,2.17517 -7.49594,2.91656 -1.9311,0.62208 -4.07119,1.52758 -5.99675,2.16659 -2.01269,0.66795 -4.94435,1.76684 -6.91293,2.55547 -4.42614,1.77314 -10.50066,3.84324 -14.99188,5.44425 -1.79842,0.64108 -4.21086,1.44003 -6.05227,1.94438 -2.51864,0.68984 -5.96002,1.52377 -8.4954,2.14922 -2.48373,0.61271 -5.68682,1.29893 -8.18211,1.86261 -2.30987,0.52176 -5.21924,0.98501 -7.56518,1.30782 -2.45939,0.3384 -5.15557,0.81538 -7.60165,1.2395 -1.70345,0.29536 -4.87865,0.75766 -6.59509,0.96452 -3.15094,0.37975 -6.98225,0.86925 -9.97183,1.08945 -5.47691,-0.57027 29.52349,9.12831 30.33771,9.3029 1.56948,0.34986 4.02245,1.05397 5.91347,0.30555 29.80965,-11.79796 66.6777,-21.94366 107.52509,-21.94366 10.838,0 20.75481,-0.0932 31.05243,0.8498 7.9955,-3.99769 18.3165,-9.67743 27.93927,-16.43483 9.55552,-6.71017 18.41281,-13.92096 26.37351,-20.82276 12.86691,-11.15539 21.30456,-21.79354 20.86751,-22.75644 -1.21696,-0.80424 -2.89533,-0.67519 -4.92611,-0.94329 z"
     id="path3561"
     style="fill:#acacac;fill-opacity:1;stroke:#000000;stroke-width:2.50000024;stroke-linecap:square;stroke-linejoin:miter;stroke-miterlimit:4;stroke-opacity:1;stroke-dasharray:none" />
  <g
     transform="matrix(0.37,0,0,0.37,36.35688,180.15654)"
     id="layer1-7">
    <g
       transform="matrix(0.99598026,0,0,0.99598026,6.2559107,1.5479265)"
       id="g3699">
      <path
         d=""
         id="path3018"
         style="fill:#ffffff;stroke:#db0029;stroke-width:5.05159903" />
      <path
         d=""
         id="path3030"
         style="fill:none;stroke:#ffffff;stroke-width:1.06799984;stroke-linecap:square" />
      <path
         d=""
         id="path3042"
         style="fill:none;stroke:#ffffff;stroke-width:1.06799984" />
      <path
         d=""
         id="path3044"
         style="fill:none;stroke:#ffffff;stroke-width:1.06799984" />
      <path
         d=""
         id="path3048"
         style="fill:none;stroke:#ffffff;stroke-width:1.06799984" />
      <path
         d=""
         id="path3052"
         style="fill:none;stroke:#ffffff;stroke-width:1.06799984" />
      <path
         d=""
         id="path3080"
         style="fill:none;stroke:#ffffff;stroke-width:1.06799984" />
      <path
         d=""
         id="path3082"
         style="fill:none;stroke:#ffffff;stroke-width:1.06799984" />
      <path
         d=""
         id="path3084"
         style="fill:none;stroke:#ffffff;stroke-width:1.06799984" />
      <path
         d=""
         id="path3088"
         style="fill:none;stroke:#ffffff;stroke-width:1.06799984;stroke-linejoin:round" />
      <path
         d=""
         id="path3090"
         style="fill:none;stroke:#ffffff;stroke-width:1.06799984;stroke-linejoin:round" />
      <g
         transform="matrix(2.0488152,0,0,2.0488152,-1008.0991,120.33088)"
         id="g3104">
        <path
           d=""
           id="path3106" />
      </g>
      <path
         d=""
         id="path3136"
         style="fill:#0c2e82;stroke:#000000;stroke-width:0.42100003" />
      <path
         d=""
         id="path3174"
         style="fill:#0c2e82;stroke:#000000;stroke-width:0.42100003" />
      <path
         d="M 632.25506,394.21447 739.8894,643.63519 630.69771,890.61711 523.85993,640.39994 632.25506,394.21447 z"
         id="path3576-5"
         style="fill:#000000;fill-opacity:1;fill-rule:evenodd;stroke:none" />
      <path
         d="m 882.31992,585.95752 -28.15064,118.34198 -5.16318,0 0.21265,5.86744 21.76866,0.19197 -0.5122,-6.21047 -7.19143,-0.151 5.80343,-31.39069 21.10784,-0.151 7.0428,32.01274 -7.0428,0 0.32013,5.50619 50.7722,0 -0.12805,-5.63425 -7.55501,0 -27.27485,-118.19102 -24.00955,-0.19198 z m -3.2424,43.25409 9.38651,34.79296 -17.47195,0.17149 8.08544,-34.96447 z"
         id="path3406-6"
         style="fill:#000000;fill-opacity:1;fill-rule:evenodd;stroke:none" />
      <path
         d="m 817.84626,586.21362 c -26.78399,0.10674 -53.56797,0.21342 -80.35197,0.32012 8.34466,19.12227 16.6893,38.24456 25.03396,57.36683 -9.49711,21.98209 -18.99421,43.96415 -28.49133,65.94624 22.70769,0.0639 45.41541,0.12805 68.1231,0.19197 -0.493,-1.68144 0.71572,-5.08434 -0.88054,-5.64977 -2.60898,-0.0588 -5.21794,-0.1176 -7.82692,-0.17661 0.0426,-19.54911 0.0854,-39.09821 0.12805,-58.64733 6.13626,1.6359 8.50402,7.60346 8.76413,13.6346 1.52676,12.60919 -0.59329,25.65301 2.88404,37.98905 2.91462,8.89407 10.55283,17.34254 20.55056,17.12215 7.41878,0.33994 15.1044,-2.61597 20.11008,-8.11368 2.23829,-2.39791 4.55813,-9.54819 2.10067,-10.33037 -2.67917,4.72498 -10.98052,5.79788 -9.02404,-1.41954 -0.29966,-9.67789 0.29888,-19.45645 -0.96495,-29.06464 -2.1698,-9.0749 -8.83802,-16.36415 -16.24928,-21.67431 7.01524,1.29815 12.05291,-5.05123 15.41221,-10.25489 4.47588,-8.93394 4.38975,-19.72743 1.90048,-29.22379 -2.73842,-9.59446 -11.31782,-16.82325 -21.21825,-18.0162 z m -24.39139,6.08707 c 3.87259,0.81008 7.09855,0.85054 8.82468,4.09519 2.07764,4.51508 0.86382,39.37546 -0.0912,40.42843 l -3.00406,3.31212 -5.40522,0.0533 c -0.57644,0.006 -0.33047,-33.06947 -0.32421,-47.88908 z"
         id="path3408-5"
         style="fill:#000000;fill-opacity:1;fill-rule:evenodd;stroke:none" />
      <path
         d="m 1017.2897,669.16818 c -0.1861,4.63897 0.2774,9.35569 -1.1584,13.84509 -1.14,4.83596 -1.7703,9.86017 -4.4421,14.17875 -3.5257,7.30808 -9.7977,13.37589 -17.17424,16.72032 -8.11291,2.28516 -16.78571,-0.19464 -23.7625,-4.54825 -7.26813,-4.49824 -14.52905,-10.24986 -18.05236,-18.2591 -3.5348,-9.47786 -6.83757,-19.18722 -7.5582,-29.34777 -1.64655,-12.16848 -2.16906,-24.8518 1.57554,-36.6993 0.8813,-5.56675 3.38626,-10.52437 6.07297,-15.39186 3.47717,-6.39985 6.73882,-13.49102 13.21261,-17.42194 3.37714,-3.23356 7.7302,-4.89839 11.98882,-6.54906 5.11592,-1.58027 10.24101,-1.29811 15.43637,-0.28066 5.77698,-1.45456 9.15779,7.84558 14.14669,4.93024 2.2327,-2.49488 4.0031,-7.54808 8.008,-6.67151 2.6856,-0.75686 2.2824,1.48307 2.2152,3.39695 0.097,13.77325 0.1934,27.54647 0.2903,41.31969 -4.5186,0.57807 -5.7527,-0.88294 -5.4295,-5.18701 -0.6441,-5.14304 -2.9077,-10.03173 -5.2861,-14.61821 -1.8643,-5.32838 -5.9412,-9.1637 -10.19567,-12.5746 -3.85173,-3.35314 -9.71466,-0.0965 -12.30334,3.52404 -5.43436,6.39048 -6.02986,15.25294 -5.71279,23.28204 0.61208,16.45491 -0.48895,32.91202 -0.0858,49.37022 -0.059,9.09235 0.0363,18.75151 5.22219,26.63773 1.63706,5.00493 7.38913,6.34241 11.93732,4.76321 4.54059,-2.31607 9.05159,-5.51597 11.00959,-10.42464 2.6475,-5.35808 3.9701,-11.34931 5.0851,-17.20353 0.8644,-3.42648 -0.7948,-8.15707 4.1179,-6.79084 0.2808,0 0.5617,0 0.8425,0 z"
         id="path3418-4"
         style="fill:#000000;fill-opacity:1;fill-rule:evenodd;stroke:none" />
      <path
         d=""
         id="path2517"
         style="fill:#ffffff;stroke:#db0029;stroke-width:5.05159903" />
      <path
         d=""
         id="path2519"
         style="fill:none;stroke:#ffffff;stroke-width:1.06799984;stroke-linecap:square" />
      <path
         d=""
         id="path2521"
         style="fill:none;stroke:#ffffff;stroke-width:1.06799984" />
      <path
         d=""
         id="path2523"
         style="fill:none;stroke:#ffffff;stroke-width:1.06799984" />
      <path
         d=""
         id="path2525"
         style="fill:none;stroke:#ffffff;stroke-width:1.06799984" />
      <path
         d=""
         id="path2527"
         style="fill:none;stroke:#ffffff;stroke-width:1.06799984" />
      <path
         d=""
         id="path2529"
         style="fill:none;stroke:#ffffff;stroke-width:1.06799984" />
      <path
         d=""
         id="path2531"
         style="fill:none;stroke:#ffffff;stroke-width:1.06799984" />
      <path
         d=""
         id="path2533"
         style="fill:none;stroke:#ffffff;stroke-width:1.06799984" />
      <path
         d=""
         id="path2535"
         style="fill:none;stroke:#ffffff;stroke-width:1.06799984;stroke-linejoin:round" />
      <path
         d=""
         id="path2537"
         style="fill:none;stroke:#ffffff;stroke-width:1.06799984;stroke-linejoin:round" />
      <path
         d=""
         id="path2539"
         style="fill:#0c2e82;stroke:#000000;stroke-width:0.42100003" />
      <path
         d=""
         id="path2541"
         style="fill:#0c2e82;stroke:#000000;stroke-width:0.42100003" />
      <path
         d=""
         id="path2569"
         style="fill:#ffffff;stroke:#db0029;stroke-width:5.05159903" />
      <path
         d=""
         id="path2571"
         style="fill:none;stroke:#ffffff;stroke-width:1.06799984;stroke-linecap:square" />
      <path
         d=""
         id="path2573"
         style="fill:none;stroke:#ffffff;stroke-width:1.06799984" />
      <path
         d=""
         id="path2575"
         style="fill:none;stroke:#ffffff;stroke-width:1.06799984" />
      <path
         d=""
         id="path2577"
         style="fill:none;stroke:#ffffff;stroke-width:1.06799984" />
      <path
         d=""
         id="path2579"
         style="fill:none;stroke:#ffffff;stroke-width:1.06799984" />
      <path
         d=""
         id="path2581"
         style="fill:none;stroke:#ffffff;stroke-width:1.06799984" />
      <path
         d=""
         id="path2583"
         style="fill:none;stroke:#ffffff;stroke-width:1.06799984" />
      <path
         d=""
         id="path2585"
         style="fill:none;stroke:#ffffff;stroke-width:1.06799984" />
      <path
         d=""
         id="path2587"
         style="fill:none;stroke:#ffffff;stroke-width:1.06799984;stroke-linejoin:round" />
      <path
         d=""
         id="path2589"
         style="fill:none;stroke:#ffffff;stroke-width:1.06799984;stroke-linejoin:round" />
      <path
         d=""
         id="path2591"
         style="fill:#0c2e82;stroke:#000000;stroke-width:0.42100003" />
      <path
         d=""
         id="path2593"
         style="fill:#0c2e82;stroke:#000000;stroke-width:0.42100003" />
      <path
         d="m 600.00957,469.23737 c -0.18091,0.23103 -3.20152,7.30057 -3.32932,7.42696 0.63837,0.88048 30.9855,41.95437 31.94871,42.83304 -0.0854,33.65605 -0.42683,67.7603 -0.5122,101.41635 -18.22591,-5.61289 -36.45185,-11.2258 -54.67776,-16.8387 5.54887,12.46362 11.09776,24.92726 16.64663,37.39088 -19.52777,3.60678 -39.05554,7.21353 -58.58331,10.82031 17.28687,8.72881 34.57375,17.4576 51.86063,26.18642 -3.75615,10.50017 -7.51233,21.00035 -11.26848,31.50053 18.61006,0.12805 37.22015,0.2561 55.83021,0.38415 -0.0639,21.14976 -0.12805,63.3608 -0.19197,63.44925 -0.18931,-0.0213 -38.20311,0.38714 -38.60736,-0.0639 -0.0789,0.45567 4.297,8.49233 4.41775,9.28369 0.61073,0.10982 76.35457,0.1303 76.8946,0.32013 0.0479,-0.16821 3.78373,-8.78252 4.09763,-9.2837 -1.2188,-0.28087 -39.62118,-0.38671 -39.63177,-0.19197 -0.15079,-0.5396 0.12805,-42.34219 0.19197,-63.51327 6.0184,0.0426 12.03679,0.0854 18.05519,0.12805 -5.52754,9.43309 -11.05506,18.86617 -16.5826,28.29926 20.31742,0.14936 40.63483,0.29878 60.95225,0.44818 14.64049,-31.45786 40.28346,-95.10707 41.12763,-96.74262 -1.05247,-2.14017 -50.89902,-118.19688 -51.63911,-119.91578 -3.22263,17.2442 -6.30587,33.65224 -9.52849,50.89644 -13.80816,-5.42081 -27.61633,-10.84165 -41.42448,-16.26247 7.36293,24.32968 14.72586,48.65936 22.08879,72.98904 -7.61904,-2.34759 -15.23807,-4.69521 -22.8571,-7.0428 0.0854,-34.70181 0.17067,-69.40361 0.2561,-104.10542 10.35621,-13.6495 20.76018,-27.26279 31.11638,-40.91228 l 0.51221,-0.76831 c -1.16096,-2.56751 -2.36044,-5.11554 -3.5214,-7.68305 -21.12841,-0.14936 -42.51292,-0.29878 -63.64133,-0.44818 z m 4.60984,7.17086 c 7.93916,0.0639 15.87832,0.12805 23.81748,0.19197 -0.0213,10.4575 -0.0426,20.91498 -0.0639,31.37248 -7.91781,-10.52152 -15.83564,-21.04303 -23.75345,-31.56456 z m 30.98833,0.2561 c 7.57635,0.0426 15.15269,0.0854 22.72904,0.12805 -7.59768,10.09468 -15.19538,21.0217 -22.79307,31.11638 0.0213,-10.13737 0.0426,-21.10706 0.0639,-31.24443 z m -37.96711,316.54195 c 1.16225,3.32949 3.37956,6.65449 4.80191,9.02759 0.72371,0.19156 39.79549,0.2114 59.67174,0.12805 1.57675,-3.79471 3.63137,-8.72035 3.45738,-8.89954 -21.07176,-0.12395 -46.03952,-0.21472 -67.93103,-0.2561 z m 33.29325,17.99116 c -12.63832,0.0184 -25.25081,0.11698 -25.54617,0.0639 0.40094,0.75724 3.7404,8.99807 4.41776,9.66785 0.86616,0.44727 42.75675,0.47102 43.7294,0.2561 -0.33562,-0.83442 4.08192,-8.72486 3.20127,-9.73187 -0.48546,-0.23482 -13.16394,-0.27393 -25.80226,-0.25611 z m 0.12805,18.43933 c -7.90222,0.0375 -15.75187,0.1174 -16.45455,0.12805 0.39991,0.77456 3.63208,8.80798 4.22568,9.5398 0.70945,0.3871 22.3164,-0.0227 24.45774,0.19197 0.95741,-1.84625 3.80333,-7.94965 4.5458,-9.79589 -0.9176,-0.0969 -8.87245,-0.10163 -16.77467,-0.0639 z m -0.5122,19.78387 c -3.35234,0.026 -6.70528,0.0639 -7.36293,0.0639 0.46354,0.85032 6.54049,13.79584 7.8111,14.0856 0.82564,-0.18972 7.21675,-12.45569 7.04281,-13.95755 -0.76878,-0.19054 -4.13865,-0.2181 -7.49098,-0.19198 z"
         id="path4326-2"
         style="fill:#ffffff;fill-opacity:1;fill-rule:evenodd;stroke:none" />
      <path
         d="m 632.63921,344.89984 c -43.70805,99.55961 -87.4161,197.52611 -131.12417,297.08572 43.70807,99.5809 87.41612,200.75494 131.12417,300.33586 43.7294,-99.58092 87.4588,-199.16184 131.1882,-298.74274 -43.7294,-99.55961 -87.4588,-199.11923 -131.1882,-298.67884 z m -0.38415,52.50089 C 670.11862,478.0391 701.35969,562.06927 737.49972,643.63519 704.48858,726.73235 668.20824,805.77307 631.49427,887.43086 595.04325,807.20005 561.21161,724.2911 525.45305,643.5862 558.95542,560.14861 595.77633,479.73104 632.25506,397.40073 z"
         id="path3416-2"
         style="fill:#ffffff;fill-opacity:1;fill-rule:evenodd;stroke:#000000;stroke-width:5;stroke-linecap:butt;stroke-linejoin:miter;stroke-miterlimit:4;stroke-opacity:1;stroke-dasharray:none" />
    </g>
  </g>
  <g
     transform="matrix(-0.95911616,-0.28301271,0.28301271,-0.95911616,499.18267,671.87715)"
     id="text2886"
     style="font-size:36px;font-style:normal;font-variant:normal;font-weight:bold;font-stretch:normal;text-align:start;line-height:125%;writing-mode:lr-tb;text-anchor:start;fill:#acacac;fill-opacity:1;stroke:#acacac;stroke-width:2;stroke-miterlimit:4;stroke-opacity:1;font-family:DejaVu Sans;-inkscape-font-specification:DejaVu Sans Bold">
    <path
       d="m 566.2611,323.25928 -5.54671,-0.29759 c 0.72081,-1.40482 1.28178,-2.783 1.68291,-4.13452 0.40109,-1.35157 0.63429,-2.63584 0.6996,-3.85282 0.0866,-1.61488 -0.0717,-2.8204 -0.47489,-3.61657 -0.40326,-0.7962 -1.07295,-1.2194 -2.00908,-1.26962 -0.70214,-0.0377 -1.26594,0.19025 -1.69141,0.6838 -0.41443,0.50586 -0.79879,1.43582 -1.15308,2.78989 l -0.73369,2.84759 c -0.74144,2.88237 -1.74191,4.90589 -3.00142,6.07058 -1.25952,1.16464 -2.98926,1.68795 -5.18921,1.56994 -2.89038,-0.15509 -4.99739,-1.1307 -6.32103,-2.92683 -1.31256,-1.78384 -1.87436,-4.43689 -1.68538,-7.95915 0.0892,-1.66168 0.33659,-3.32073 0.74232,-4.97714 0.40573,-1.65643 0.96359,-3.30469 1.67357,-4.94479 l 5.70469,0.30607 c -0.97913,1.62566 -1.73863,3.20442 -2.27851,4.7363 -0.5288,1.54419 -0.83213,3.0418 -0.90997,4.49285 -0.0791,1.47443 0.10604,2.61685 0.55546,3.42726 0.44941,0.81038 1.13049,1.24007 2.04325,1.28905 0.81913,0.0439 1.46547,-0.19131 1.93903,-0.70572 0.47292,-0.50274 0.9276,-1.54042 1.36405,-3.11303 l 0.71957,-2.5843 c 0.70231,-2.59111 1.70047,-4.46219 2.99448,-5.61326 1.29335,-1.13938 2.98151,-1.65319 5.06446,-1.54143 2.60951,0.14 4.57118,1.09021 5.88503,2.85063 1.3138,1.76041 1.88595,4.22037 1.71646,7.3799 -0.0773,1.43932 -0.26783,2.91365 -0.57176,4.42299 -0.29228,1.50992 -0.69853,3.06657 -1.21874,4.66992"
       id="path3193" />
    <path
       d="m 566.6079,330.12668 -1.179,7.30587 -10.18428,4.41039 8.27997,7.39007 -1.1818,7.32323 -13.40006,-12.29381 -10.91542,-1.76149 1.07818,-6.68114 10.91542,1.76149 16.58699,-7.45461"
       id="path3195" />
    <path
       d="m 555.33371,379.55973 -5.35937,-1.46006 c 1.00073,-1.22133 1.83959,-2.45029 2.51659,-3.6869 0.67697,-1.23666 1.17563,-2.44292 1.496,-3.61879 0.42506,-1.56034 0.52443,-2.77215 0.29809,-3.63542 -0.22637,-0.86331 -0.79181,-1.41817 -1.69633,-1.66458 -0.67842,-0.18483 -1.2776,-0.0808 -1.79754,0.31192 -0.51175,0.40714 -1.08349,1.23519 -1.71523,2.48416 l -1.31744,2.62897 c -1.33234,2.66132 -2.73685,4.4285 -4.21356,5.30153 -1.47671,0.87299 -3.2779,1.01994 -5.40355,0.44087 -2.79274,-0.76085 -4.64677,-2.15867 -5.56208,-4.19344 -0.90707,-2.02043 -0.89702,-4.73229 0.0301,-8.13558 0.43741,-1.60556 1.02899,-3.17518 1.77475,-4.70885 0.74577,-1.53369 1.63851,-3.02734 2.67825,-4.48093 l 5.512,1.50165 c -1.29979,1.38274 -2.37501,2.76594 -3.22564,4.14961 -0.84242,1.39803 -1.4546,2.79806 -1.83656,4.2001 -0.38812,1.42463 -0.44792,2.58041 -0.17942,3.46734 0.2685,0.88691 0.84371,1.4505 1.72563,1.69078 0.79146,0.2156 1.47287,0.12188 2.04422,-0.28115 0.56826,-0.39177 1.23146,-1.31029 1.98958,-2.75558 l 1.24813,-2.37456 c 1.2327,-2.38485 2.60282,-4.0035 4.11039,-4.85596 1.50445,-0.84116 3.26298,-0.98759 5.27559,-0.43929 2.52136,0.6869 4.23868,2.02925 5.15193,4.02705 0.91322,1.99779 0.954,4.52308 0.12234,7.5759 -0.3789,1.3907 -0.87597,2.79173 -1.49121,4.20309 -0.60398,1.4144 -1.32921,2.85044 -2.1757,4.30812"
       id="path3197" />
    <path
       d="m 554.03019,386.75562 -8.73597,22.55477 -4.76995,-1.8475 3.14267,-8.11382 -19.70264,-7.63128 2.44429,-6.31075 19.70265,7.63128 3.14901,-8.13021 4.76994,1.84751"
       id="path3199" />
    <path
       d="m 542.63923,414.86374 -8.28421,16.27678 -4.55875,-2.32022 5.21451,-10.24544 -4.3551,-2.21657 -4.90355,9.63448 -4.55875,-2.32022 4.90355,-9.63447 -5.35771,-2.72686 -5.38992,10.59009 -4.55875,-2.32022 8.45962,-16.62142 23.38906,11.90407 m 2.74843,10.33376 -5.71447,0.99689 1.56275,-3.0705 6.40816,-2.35982 -2.25644,4.43343"
       id="path3201" />
    <path
       d="m 529.75977,439.58432 -4.8218,7.13715 -14.98366,-2.91017 8.27251,12.84392 -4.81196,7.12258 -21.74645,-14.69172 3.5819,-5.30188 15.90565,10.74571 -8.34022,-12.93209 2.40106,-3.55401 15.11041,2.91096 -15.90564,-10.74572 3.59175,-5.31645 21.74645,14.69172"
       id="path3203" />
    <path
       d="m 507.09222,471.43633 -12.00974,13.75965 -3.85376,-3.36365 7.55955,-8.66103 -3.6816,-3.21339 -7.10875,8.14455 -3.85376,-3.36365 7.10875,-8.14455 -4.52917,-3.95316 -7.81384,8.95238 -3.85376,-3.36365 12.26403,-14.051 19.77205,17.2575"
       id="path3205" />
    <path
       d="m 470.12251,501.84872 -10.1875,-12.35526 -1.8716,1.54322 c -2.13379,1.75941 -3.32514,3.63027 -3.57405,5.61258 -0.25792,1.98974 0.44436,3.99275 2.10686,6.00904 1.65505,2.00719 3.47555,3.07299 5.4615,3.19739 1.98595,0.12435 4.05035,-0.6969 6.19319,-2.46375 l 1.8716,-1.54322 m 8.47567,-0.35874 -5.50629,4.54021 c -3.07413,2.53473 -5.54429,4.19937 -7.41049,4.99393 -1.86778,0.81098 -3.77204,1.13567 -5.71279,0.97405 -1.70233,-0.13044 -3.27609,-0.60227 -4.7213,-1.41551 -1.4452,-0.8133 -2.7903,-1.9749 -4.03533,-3.48481 -1.25991,-1.52804 -2.15508,-3.08342 -2.68552,-4.66613 -0.52295,-1.57372 -0.68623,-3.20856 -0.48986,-4.90453 0.2202,-1.94346 0.90713,-3.76293 2.06079,-5.45842 1.16114,-1.68648 3.26068,-3.78218 6.29863,-6.28711 l 5.50629,-4.5402 16.69587,20.24852"
       id="path3207" />
    <path
       d="m 452.86612,521.82844 -15.29268,9.98477 -2.79651,-4.28313 9.626,-6.28493 -2.67157,-4.09178 -9.05198,5.91014 -2.7965,-4.28313 9.05197,-5.91014 -3.28661,-5.03378 -9.94981,6.49635 -2.79651,-4.28313 15.6165,-10.19619 14.3477,21.97495"
       id="path3209" />
    <path
       d="m 420.38472,541.51401 -22.01862,10.01077 -2.1171,-4.65656 7.92094,-3.60125 -8.74487,-19.23429 6.16074,-2.80098 8.74486,19.23429 7.93695,-3.60853 2.1171,4.65655"
       id="path3211" />
    <path
       d="m 379.66507,545.71608 c -1.3464,0.44477 -2.2262,1.0131 -2.63941,1.70499 -0.42432,0.69554 -0.44718,1.61637 -0.0686,2.7625 0.37495,1.13496 0.93817,1.84984 1.68964,2.14464 0.74037,0.29843 1.78375,0.22527 3.13015,-0.21949 l 2.70393,-0.89325 -2.11181,-6.39263 -2.70393,0.89324 m 1.23724,-5.33304 -3.11533,-9.43038 6.42601,-2.12284 8.23221,24.91959 -9.81428,3.24215 c -3.28255,1.08436 -5.868,1.32756 -7.75636,0.72959 -1.89947,-0.59436 -3.24253,-2.08214 -4.02919,-4.46336 -0.54402,-1.64686 -0.59006,-3.13116 -0.13813,-4.4529 0.44085,-1.3181 1.37972,-2.49217 2.81662,-3.52221 -0.94521,0.0901 -1.8804,-0.10698 -2.80556,-0.5912 -0.93259,-0.46946 -1.99206,-1.30426 -3.17842,-2.5044 l -5.82629,-5.92457 6.84329,-2.26068 5.0834,5.18882 c 1.02372,1.04406 1.92805,1.68945 2.71301,1.93616 0.77385,0.25035 1.68375,0.20277 2.72971,-0.14275 l 1.81931,-0.60102"
       id="path3213" />
    <path
       d="m 343.16872,545.09961 10.359,-2.16113 0.65827,-5.02152 6.65936,-1.3893 -4.15608,27.67623 -7.89831,1.64778 -14.87557,-23.70579 6.65936,-1.3893 2.59397,4.34303 m 9.70148,2.95002 -7.03793,1.46827 5.64277,9.489 1.39516,-10.95727"
       id="path3215" />
    <path
       d="m 333.02161,568.54023 -18.1747,1.80054 -0.50429,-5.09031 11.44009,-1.13336 -0.48176,-4.86291 -10.75788,1.06577 -0.50429,-5.09032 10.75788,-1.06576 -1.09696,-11.07275 6.73461,-0.66719 2.5873,26.11629"
       id="path3217" />
    <path
       d="m 306.44801,570.61554 -6.76613,0.13955 -0.54116,-26.23856 6.76614,-0.13955 0.54115,26.23856"
       id="path3219" />
    <path
       d="m 271.60712,544.80506 c 1.27954,-0.56684 2.60194,-0.97252 3.96722,-1.21706 1.36532,-0.24453 2.779,-0.32171 4.24105,-0.23153 4.36281,0.2691 7.7441,1.69873 10.14387,4.28888 2.39906,2.60185 3.46981,5.9906 3.21225,10.16627 -0.25828,4.18733 -1.73737,7.41881 -4.43727,9.69443 -2.70062,2.28727 -6.23233,3.29636 -10.59515,3.02729 -1.46204,-0.0902 -2.85552,-0.34054 -4.18044,-0.75098 -1.32488,-0.41049 -2.5874,-0.97562 -3.78758,-1.69538 l 0.33439,-5.42134 c 1.19889,0.93103 2.39427,1.6329 3.58616,2.10564 1.19193,0.47269 2.46043,0.75053 3.80551,0.83352 2.4095,0.14859 4.35195,-0.5065 5.82736,-1.96529 1.47543,-1.45883 2.29683,-3.54502 2.4642,-6.2586 0.16666,-2.70191 -0.39249,-4.86739 -1.67745,-6.49646 -1.28495,-1.62907 -3.13217,-2.51792 -5.54167,-2.66653 -1.34508,-0.083 -2.63811,0.0369 -3.8791,0.35952 -1.24094,0.32265 -2.51352,0.8723 -3.81774,1.64895 l 0.33439,-5.42133"
       id="path3221" />
    <path
       d="m 247.76733,566.37275 -7.36264,-1.70994 -5.22544,-19.69264 -4.07203,17.53335 -6.24968,-1.45145 5.93705,-25.56377 7.36264,1.70993 5.22544,19.69265 4.07203,-17.53336 6.24969,1.45146 -5.93706,25.56377"
       id="path3223" />
    <path
       d="m 207.83066,532.66298 9.97255,3.53943 3.17296,-3.94732 6.41092,2.27535 -17.93886,21.48125 -7.60366,-2.69867 -0.3828,-27.98393 6.41093,2.27535 -0.042,5.05854 m 6.75364,7.5637 -6.77538,-2.40469 -0.11299,11.03943 6.88837,-8.63474"
       id="path3225" />
    <path
       d="m 192.53332,549.82947 -21.84991,-10.37385 2.19389,-4.62088 7.86025,3.73188 9.06205,-19.08691 6.11352,2.90257 -9.06204,19.08691 7.87613,3.73941 -2.19389,4.62087"
       id="path3227" />
    <path
       d="m 165.94292,536.59174 -5.86953,-3.36879 13.06387,-22.76159 5.86953,3.36878 -13.06387,22.7616"
       id="path3229" />
    <path
       d="m 144.96923,518.20882 c 1.68975,1.18267 3.43703,1.47587 5.24185,0.8796 1.80485,-0.59629 3.5002,-2.02731 5.08605,-4.29307 1.57916,-2.25618 2.33988,-4.33422 2.28216,-6.23413 -0.0577,-1.89991 -0.9314,-3.4412 -2.62114,-4.62388 -1.69932,-1.18939 -3.4514,-1.48595 -5.25625,-0.88968 -1.80482,0.59628 -3.49681,2.02251 -5.07598,4.27867 -1.58583,2.26577 -2.34991,4.34861 -2.29224,6.24853 0.0577,1.8999 0.93624,3.44455 2.63555,4.63396 m -2.81222,4.0179 c -3.45623,-2.41912 -5.4715,-5.30296 -6.04581,-8.65154 -0.57425,-3.34858 0.35825,-6.7654 2.79749,-10.25046 2.43258,-3.47546 5.32026,-5.51664 8.66306,-6.12357 3.34283,-0.60691 6.74237,0.29919 10.19862,2.71829 3.44667,2.4124 5.46193,5.29624 6.0458,8.65154 0.57429,3.34857 -0.35485,6.76059 -2.78741,10.23606 -2.43926,3.48505 -5.3303,5.53104 -8.67313,6.13798 -3.3524,0.60018 -6.75194,-0.30592 -10.19862,-2.7183"
       id="path3231" />
    <path
       d="m 124.87527,508.79213 -5.60783,-5.068 4.98738,-19.75428 -12.0689,13.35447 -4.76013,-4.30191 17.59654,-19.47091 5.60783,5.06799 -4.98738,19.75428 12.0689,-13.35446 4.76014,4.3019 -17.59655,19.47092"
       id="path3233" />
    <path
       d="m 106.33622,459.87517 6.94903,7.98062 4.70247,-1.88036 4.46724,5.1304 -26.175894,9.90302 -5.298347,-6.08489 13.409071,-24.5651 4.46723,5.1304 -2.5208,4.38591 m 2.16873,9.90544 -4.72118,-5.42205 -5.519751,9.56108 10.240931,-4.13903"
       id="path3235" />
    <path
       d="m 81.003818,462.53049 -3.89197,-5.53648 17.28534,-12.15104 -6.833694,-9.7212 4.184721,-2.94173 10.725665,15.2577 -21.470062,15.09275"
       id="path3237" />
    <path
       d="m 53.442285,417.1053 -7.333145,-16.72682 4.684799,-2.05385 4.615858,10.52873 4.475513,-1.9621 -4.340601,-9.90086 4.684799,-2.05385 4.340601,9.90087 10.190645,-4.46765 2.717287,6.19811 -24.035756,10.53742"
       id="path3239" />
    <path
       d="m 43.251659,392.46568 -2.222978,-6.39207 24.787926,-8.62053 2.222978,6.39206 -24.787926,8.62054"
       id="path3241" />
    <path
       d="m 38.281788,377.8075 -4.640365,-17.66434 4.947374,-1.29966 2.920884,11.11884 4.726357,-1.2416 -2.746703,-10.45579 4.947374,-1.29966 2.746703,10.45579 5.814439,-1.52743 -3.01914,-11.49287 4.947374,-1.29966 4.738621,18.03836 -25.382918,6.66802"
       id="path3243" />
    <path
       d="m 41.797395,339.98742 c -0.216997,-1.40126 -0.6327,-2.36263 -1.24711,-2.88413 -0.616169,-0.53306 -1.520667,-0.70723 -2.713497,-0.52251 -1.18121,0.18295 -1.979072,0.62076 -2.393589,1.31344 -0.416265,0.68112 -0.515903,1.72231 -0.298912,3.12356 l 0.435821,2.81411 6.653108,-1.03037 -0.435821,-2.8141 m 5.056517,2.0985 9.814638,-1.51999 1.035747,6.68785 -25.934963,4.01654 -1.581868,-10.21417 c -0.529054,-3.41629 -0.343206,-6.0065 0.557545,-7.77062 0.899012,-1.77568 2.587637,-2.85543 5.065881,-3.23926 1.713963,-0.26541 3.185582,-0.0664 4.41486,0.59699 1.227522,0.65186 2.23097,1.77124 3.01035,3.35814 0.06678,-0.94714 0.415147,-1.83712 1.0451,-2.66992 0.616606,-0.84256 1.614464,-1.75011 2.993578,-2.72265 l 6.803058,-4.77122 1.103003,7.12213 -5.95503,4.15961 c -1.198385,0.83783 -1.983871,1.62355 -2.356461,2.35717 -0.374361,0.72206 -0.477252,1.62738 -0.308675,2.71595 l 0.293237,1.89345"
       id="path3245" />
    <path
       d="m 28.032058,325.85311 -1.211065,-24.15716 5.108818,-0.25612 0.435667,8.69026 21.102405,-1.05792 0.338852,6.75909 -21.102405,1.05792 0.436547,8.70781 -5.108819,0.25612"
       id="path3247" />
    <path
       d="m 26.981378,295.54022 0.935822,-18.23968 5.108515,0.2621 -0.589055,11.48099 4.8803,0.2504 0.553927,-10.79635 5.108515,0.2621 -0.553927,10.79635 6.003821,0.30804 0.60887,-11.86721 5.108515,0.2621 -0.955637,18.6259 -26.209666,-1.34474 m -6.627458,-10.10873 0.254896,-4.96807 4.377831,5.24097 -0.176536,3.44078 -4.456191,-3.71368"
       id="path3249" />
    <path
       d="m 38.957056,223.50579 5.37279,1.40986 c -0.989259,1.23063 -1.816585,2.4674 -2.481983,3.71029 -0.665364,1.24293 -1.152722,2.4538 -1.462075,3.63262 -0.410445,1.56425 -0.498466,2.77693 -0.264063,3.63805 0.234439,0.86115 0.805049,1.4107 1.711832,1.64863 0.680115,0.17848 1.278296,0.0689 1.794543,-0.32872 0.507916,-0.41191 1.071887,-1.24527 1.691915,-2.5001 l 1.292779,-2.64118 c 1.307379,-2.67367 2.695302,-4.45391 4.163772,-5.34072 1.468485,-0.88677 3.268213,-1.05057 5.399189,-0.49141 2.799744,0.73469 4.666765,2.1151 5.60107,4.14122 0.925936,2.01185 0.941264,4.72368 0.04598,8.1355 -0.422365,1.60958 -0.999235,3.18467 -1.730613,4.72525 -0.731382,1.54061 -1.610116,3.04253 -2.636206,4.50579 l -5.525812,-1.45 c 1.2868,-1.39485 2.349025,-2.78805 3.186678,-4.17961 0.829298,-1.40586 1.428357,-2.81156 1.797178,-4.21711 0.374772,-1.42819 0.423764,-2.58448 0.146976,-3.46887 -0.276785,-0.88435 -0.857243,-1.44253 -1.741375,-1.67455 -0.793446,-0.20819 -1.473946,-0.1081 -2.041502,0.30026 -0.564571,0.39707 -1.219141,1.32176 -1.963712,2.77407 l -1.225855,2.38614 c -1.210331,2.39628 -2.565254,4.02768 -4.064775,4.8942 -1.496522,0.8552 -3.253602,1.01808 -5.271247,0.48864 -2.527685,-0.66328 -4.257481,-1.9895 -5.189393,-3.97868 -0.931866,-1.98915 -0.99627,-4.51395 -0.193213,-7.57442 0.36587,-1.39418 0.849811,-2.7998 1.451823,-4.21686 0.590719,-1.41999 1.302484,-2.86275 2.135297,-4.32829"
       id="path3251" />
    <path
       d="m 41.294943,213.3683 6.43755,-17.09151 4.786938,1.80301 -4.052124,10.75827 4.573089,1.72246 3.810484,-10.11672 4.786938,1.80301 -3.810484,10.11672 5.625887,2.119 4.188434,-11.12017 4.786938,1.80301 -6.573859,17.45341 -24.559791,-9.25049"
       id="path3253" />
    <path
       d="m 66.091669,184.50548 c 0.639661,-1.26547 0.861615,-2.28909 0.665863,-3.07085 -0.190453,-0.79217 -0.824301,-1.46052 -1.901548,-2.00504 -1.066772,-0.53919 -1.970341,-0.64794 -2.71071,-0.32626 -0.735061,0.31127 -1.422424,1.09964 -2.062091,2.36511 l -1.284596,2.54145 6.008487,3.03704 1.284595,-2.54145 m 2.8884,4.65072 8.863695,4.48023 -3.052897,6.03986 -23.422115,-11.83889 4.662605,-9.22452 c 1.559504,-3.08527 3.219067,-5.08266 4.978695,-5.99217 1.764939,-0.9199 3.766475,-0.81423 6.004615,0.31703 1.547883,0.78242 2.628295,1.80122 3.241241,3.05643 0.618239,1.24479 0.782055,2.73914 0.49145,4.48305 0.605883,-0.73105 1.407377,-1.25164 2.404486,-1.56177 0.991936,-0.32583 2.33165,-0.48246 4.019146,-0.46989 l 8.308979,0.0834 -3.251136,6.43206 -7.263418,-0.0867 c -1.46212,-0.0168 -2.558243,0.16444 -3.288373,0.54383 -0.72484,0.36895 -1.335721,1.04498 -1.832646,2.02808 l -0.864327,1.70998"
       id="path3255" />
    <path
       d="m 63.975337,163.31544 3.735921,-5.68508 20.011314,4.82092 -12.375362,-16.4408 3.735921,-5.68508 16.593939,22.53637 -4.430976,6.74277 -27.270757,-6.2891"
       id="path3257" />
    <path
       d="m 82.750602,135.96952 4.17838,-5.32365 20.644698,16.20343 -4.17838,5.32365 -20.644698,-16.20343"
       id="path3259" />
    <path
       d="m 124.78261,125.35426 c -0.37139,1.34929 -0.89466,2.62973 -1.5698,3.84133 -0.67517,1.21162 -1.5105,2.35472 -2.506,3.42929 -2.9706,3.20658 -6.21803,4.91863 -9.74229,5.13618 -3.53287,0.2096 -6.83381,-1.10719 -9.90283,-3.95036 -3.077606,-2.85112 -4.642385,-6.04198 -4.694345,-9.5726 -0.06053,-3.53854 1.394491,-6.9111 4.365075,-10.11769 0.99551,-1.07455 2.07155,-1.99466 3.22811,-2.76031 1.15658,-0.7656 2.39337,-1.38502 3.71037,-1.85828 l 3.98457,3.69134 c -1.47971,0.3385 -2.77984,0.81937 -3.90039,1.44262 -1.12055,0.6233 -2.13875,1.42925 -3.05462,2.41784 -1.64059,1.77094 -2.36339,3.68923 -2.16839,5.75487 0.19501,2.06568 1.28973,4.02234 3.28415,5.86999 1.98584,1.83971 4.01602,2.77798 6.09054,2.81481 2.07451,0.0369 3.93207,-0.83018 5.57267,-2.60111 0.91586,-0.9886 1.64177,-2.06532 2.17776,-3.23017 0.53596,-1.16482 0.91625,-2.49784 1.14085,-3.99909 l 3.98457,3.69134"
       id="path3261" />
    <path
       d="m 112.68358,102.71683 13.75047,-12.020248 3.36659,3.851191 -8.65525,7.566157 3.21619,3.67915 8.13912,-7.11497 3.36659,3.85119 -8.13911,7.11497 3.95661,4.52614 8.94641,-7.82068 3.3666,3.85119 -14.04163,12.27476 -17.27259,-19.75885"
       id="path3263" />
    <path
       d="m 153.65276,71.036905 21.03846,-11.933918 2.52382,4.449267 -7.56834,4.293088 10.42483,18.378073 -5.88649,3.339068 -10.42483,-18.378072 -7.58363,4.301761 -2.52382,-4.449267"
       id="path3265" />
    <path
       d="m 193.82507,63.213468 c 1.30114,-0.563575 2.1265,-1.208424 2.47608,-1.934549 0.36032,-0.730743 0.3006,-1.649919 -0.17914,-2.757534 -0.47511,-1.096814 -1.10009,-1.758374 -1.87495,-1.984682 -0.76412,-0.230915 -1.79676,-0.06459 -3.0979,0.498982 l -2.61306,1.131847 2.67591,6.177783 2.61306,-1.131847 m -0.7546,5.422423 3.94749,9.113441 -6.21004,2.689883 -10.43116,-24.082066 9.48443,-4.108185 c 3.17223,-1.374022 5.7255,-1.847818 7.65984,-1.42139 1.94507,0.421832 3.41599,1.783337 4.41278,4.084519 0.68934,1.591517 0.86814,3.065725 0.53641,4.422629 -0.32101,1.352291 -1.15094,2.605737 -2.48981,3.760341 0.93334,-0.174388 1.88242,-0.06188 2.84724,0.337532 0.97088,0.384036 2.10087,1.120583 3.38996,2.209645 l 6.33353,5.378891 -6.6133,2.864551 -5.52772,-4.712643 c -1.11312,-0.948179 -2.07163,-1.509971 -2.87553,-1.685376 -0.79316,-0.180035 -1.69515,-0.05114 -2.70595,0.386677 l -1.75817,0.761551"
       id="path3267" />
    <path
       d="m 230.23975,60.574434 -10.12655,3.07123 -0.21038,5.060112 -6.50992,1.974362 1.68544,-27.935753 7.72107,-2.341685 16.91915,22.293261 -6.50993,1.974362 -2.96888,-4.095889 m -9.92486,-2.078091 6.88,-2.086599 -6.46201,-8.951225 -0.41799,11.037824"
       id="path3269" />
    <path
       d="m 246.0882,40.014851 2.81632,15.764075 2.38797,-0.426621 c 2.7225,-0.486381 4.67843,-1.532216 5.86779,-3.137508 1.20086,-1.607333 1.5715,-3.697277 1.11192,-6.269841 -0.45755,-2.560994 -1.52109,-4.382812 -3.19062,-5.46546 -1.66956,-1.082604 -3.87136,-1.379692 -6.60541,-0.891266 l -2.38797,0.426621 m -7.56171,-3.845296 7.02549,-1.255131 c 3.92226,-0.700701 6.89138,-0.939492 8.90737,-0.716372 2.02544,0.209579 3.8441,0.860819 5.45599,1.953723 1.41942,0.94877 2.55934,2.131968 3.41975,3.549599 0.86037,1.417677 1.46265,3.089767 1.80686,5.016275 0.34828,1.949616 0.36531,3.74412 0.0511,5.383516 -0.31632,1.627885 -0.97603,3.132594 -1.97914,4.514132 -1.14528,1.58551 -2.63645,2.834016 -4.4735,3.745522 -1.83916,0.899979 -4.69679,1.696209 -8.5729,2.388692 l -7.02549,1.25513 -4.61554,-25.835086"
       id="path3271" />
    <path
       d="m 270.34125,31.253895 6.74112,-0.597817 2.31829,26.141547 -6.74112,0.597817 -2.31829,-26.141547"
       id="path3273" />
    <path
       d="m 282.64887,30.037475 24.18621,-0.249523 0.0528,5.114963 -8.70071,0.08976 0.21797,21.127782 -6.76722,0.06982 -0.21797,-21.127782 -8.71828,0.08994 -0.0528,-5.114962"
       id="path3275" />
    <path
       d="m 312.3645,30.288555 6.75195,0.459636 -1.78244,26.183542 -6.75195,-0.459637 1.78244,-26.183541"
       id="path3277" />
    <path
       d="m 339.27391,37.641159 c -2.03687,-0.324225 -3.73633,0.176547 -5.0984,1.502319 -1.3621,1.325808 -2.26053,3.354319 -2.6953,6.08554 -0.43295,2.719671 -0.20788,4.921098 0.67522,6.604288 0.88307,1.683201 2.34304,2.68692 4.37991,3.011163 2.0484,0.326088 3.75366,-0.173763 5.11576,-1.499556 1.36206,-1.325787 2.25957,-3.348511 2.69253,-6.06818 0.43476,-2.731223 0.21061,-4.938437 -0.67245,-6.621648 -0.88311,-1.68318 -2.34886,-2.687821 -4.39727,-3.013926 m 0.771,-4.843314 c 4.16627,0.663251 7.24011,2.3748 9.22152,5.134652 1.98135,2.759889 2.63767,6.240327 1.96894,10.441325 -0.66694,4.189441 -2.3706,7.288264 -5.11098,9.296478 -2.74044,2.008213 -6.19378,2.680706 -10.36006,2.017482 -4.15473,-0.661388 -7.22856,-2.372936 -9.22151,-5.134651 -1.98139,-2.759869 -2.63862,-6.23452 -1.97171,-10.423966 0.66875,-4.200993 2.37333,-7.305603 5.11375,-9.313838 2.75197,-2.006349 6.20532,-2.678842 10.36005,-2.017482"
       id="path3279" />
    <path
       d="m 361.45178,37.31699 7.26074,2.100936 4.16564,19.943745 5.00316,-17.290702 6.16319,1.783352 -7.29464,25.20998 -7.26075,-2.100936 -4.16564,-19.943745 -5.00316,17.290703 -6.16319,-1.783353 7.29465,-25.20998"
       id="path3281" />
    <path
       d="m 417.87991,58.146123 6.02051,3.09089 -11.98623,23.347059 -6.02051,-3.09089 11.98623,-23.347059"
       id="path3283" />
    <path
       d="m 431.90425,65.377248 6.39096,4.035837 -1.54048,20.315818 9.61092,-15.219402 5.42488,3.425768 -14.0128,22.190011 -6.39095,-4.035841 1.54047,-20.315818 -9.61092,15.219402 -5.42488,-3.425768 14.0128,-22.190007"
       id="path3285" />
    <path
       d="m 459.81945,83.719679 5.84761,4.78935 -4.02104,19.973401 11.40534,-13.925454 4.96366,4.065378 -16.62907,20.303426 -5.8476,-4.78935 4.02103,-19.973405 -11.40533,13.925455 -4.96366,-4.06538 16.62906,-20.303421"
       id="path3287" />
    <path
       d="m 490.32969,117.09158 c -1.42331,-1.4927 -3.07844,-2.12475 -4.96541,-1.89615 -1.88701,0.22861 -3.83129,1.29716 -5.83286,3.20566 -1.99311,1.90041 -3.14873,3.78759 -3.46686,5.66157 -0.31815,1.87397 0.23442,3.55731 1.65772,5.05002 1.43135,1.50117 3.09053,2.13746 4.97754,1.90887 1.88697,-0.22862 3.82701,-1.29313 5.82013,-3.19353 2.00156,-1.9085 3.16142,-3.79973 3.47959,-5.6737 0.31811,-1.87397 -0.2385,-3.56155 -1.66985,-5.06274 m 3.54942,-3.38434 c 2.91123,3.05326 4.31814,6.27792 4.22075,9.67399 -0.0975,3.39606 -1.68552,6.56186 -4.76419,9.49739 -3.07025,2.92743 -6.30379,4.359 -9.70062,4.29472 -3.39688,-0.0643 -6.55094,-1.62307 -9.46219,-4.67632 -2.90318,-3.04479 -4.3101,-6.26945 -4.22075,-9.67399 0.0974,-3.39607 1.68124,-6.55782 4.75147,-9.48527 3.07869,-2.93551 6.31646,-4.37113 9.71334,-4.30685 3.40492,0.0728 6.55898,1.63156 9.46219,4.67633"
       id="path3289" />
    <path
       d="m 505.35761,126.88474 4.1107,5.42028 -11.2282,17.25171 19.63015,-6.17306 4.11069,5.42028 -26.78472,8.11331 -4.87547,-6.42871 15.03685,-23.60381"
       id="path3291" />
    <path
       d="m 513.75795,176.80053 -5.4966,-9.0425 -4.95305,1.05653 -3.53352,-5.81303 27.4752,-5.32544 4.19092,6.89454 -17.37681,21.9384 -3.53352,-5.81304 3.22738,-3.89546 m -0.45931,-10.12967 3.7344,6.14349 7.0597,-8.48779 -10.7941,2.3443"
       id="path3293" />
    <path
       d="m 536.45338,173.13078 10.40712,21.83408 -4.61753,2.20093 -3.74384,-7.85456 -19.07309,9.0911 -2.91187,-6.1091 19.07308,-9.0911 -3.7514,-7.87042 4.61753,-2.20093"
       id="path3295" />
    <path
       d="m 548.73634,200.19227 2.42473,6.31829 -24.50183,9.40293 -2.42474,-6.31829 24.50184,-9.40293"
       id="path3297" />
    <path
       d="m 553.38937,227.70612 c -0.56241,-1.98435 -1.73143,-3.31564 -3.50707,-3.99389 -1.77568,-0.67825 -3.99392,-0.64031 -6.65473,0.1138 -2.64957,0.75091 -4.55222,1.88088 -5.70797,3.38993 -1.15577,1.50904 -1.45245,3.25573 -0.89006,5.24009 0.56557,1.9956 1.7362,3.33254 3.51187,4.0108 1.77564,0.67823 3.98825,0.64189 6.63782,-0.109 2.6608,-0.75413 4.56909,-1.8857 5.72488,-3.39473 1.15573,-1.50906 1.45082,-3.26139 0.88526,-5.257 m 4.71846,-1.33726 c 1.1503,4.05888 0.89011,7.56746 -0.78059,10.52576 -1.67076,2.95826 -4.55248,5.01736 -8.64517,6.17731 -4.08145,1.1567 -7.60939,0.91417 -10.58382,-0.7276 -2.97445,-1.64181 -5.03684,-4.49215 -6.18717,-8.55102 -1.14714,-4.04762 -0.88694,-7.55621 0.7806,-10.52576 1.67072,-2.95828 4.5468,-5.01579 8.62825,-6.17251 4.09269,-1.15992 7.62627,-0.91899 10.60073,0.7228 2.97761,1.65306 5.04,4.5034 6.18717,8.55102"
       id="path3299" />
    <path
       d="m 563.00764,247.69144 1.14735,7.471 -16.34254,12.16662 17.79141,-2.7323 0.97392,6.34166 -25.94002,3.98373 -1.14736,-7.47101 16.34255,-12.16662 -17.79142,2.73231 -0.97392,-6.34167 25.94003,-3.98372"
       id="path3301" />
  </g>
  <rect
     width="14.07594"
     height="14.07594"
     x="553.17096"
     y="-225.47424"
     transform="matrix(0.70692788,0.70728563,-0.70692788,0.70728563,0,0)"
     id="rect3003"
     style="fill:#ffffff;fill-opacity:1;stroke:none" />
  <rect
     width="14.07594"
     height="14.07594"
     x="658.99518"
     y="-94.29834"
     transform="matrix(0.70692788,0.70728563,-0.70692788,0.70728563,0,0)"
     id="rect3005"
     style="fill:#ffffff;fill-opacity:1;stroke:none" />
  <rect
     width="14.07594"
     height="14.07594"
     x="645.94586"
     y="106.90361"
     transform="matrix(0.70692788,0.70728563,-0.70692788,0.70728563,0,0)"
     id="rect3007"
     style="fill:#ffffff;fill-opacity:1;stroke:none" />
  <rect
     width="14.07594"
     height="14.07594"
     x="442.79147"
     y="248.68312"
     transform="matrix(0.70692788,0.70728563,-0.70692788,0.70728563,0,0)"
     id="rect3009"
     style="fill:#ffffff;fill-opacity:1;stroke:none" />
  <rect
     width="14.07594"
     height="14.07594"
     x="195.84567"
     y="126.91832"
     transform="matrix(0.70692788,0.70728563,-0.70692788,0.70728563,0,0)"
     id="rect3011"
     style="fill:#ffffff;fill-opacity:1;stroke:none" />
</svg>
