<?xml version="1.0" encoding="UTF-8" standalone="no"?>
<!-- Created with Inkscape (http://www.inkscape.org/) -->

<svg
   xmlns:i="http://ns.adobe.com/AdobeIllustrator/10.0/"
   xmlns:dc="http://purl.org/dc/elements/1.1/"
   xmlns:cc="http://creativecommons.org/ns#"
   xmlns:rdf="http://www.w3.org/1999/02/22-rdf-syntax-ns#"
   xmlns:svg="http://www.w3.org/2000/svg"
   xmlns="http://www.w3.org/2000/svg"
   xmlns:xlink="http://www.w3.org/1999/xlink"
   xmlns:sodipodi="http://sodipodi.sourceforge.net/DTD/sodipodi-0.dtd"
   xmlns:inkscape="http://www.inkscape.org/namespaces/inkscape"
   width="599.69904"
   height="600"
   id="svg2"
   sodipodi:version="0.32"
   inkscape:version="0.48.3.1 r9886"
   version="1.0"
   sodipodi:docname="nts_us_en_bw.svg"
   inkscape:output_extension="org.inkscape.output.svg.inkscape"
   inkscape:export-filename="/home/tyler/f1/radio/qsl/nts.png"
   inkscape:export-xdpi="96"
   inkscape:export-ydpi="96">
  <defs
     id="defs4" />
  <sodipodi:namedview
     id="base"
     pagecolor="#ffffff"
     bordercolor="#666666"
     borderopacity="1.0"
     gridtolerance="10000"
     guidetolerance="10"
     objecttolerance="10"
     inkscape:pageopacity="0.0"
     inkscape:pageshadow="2"
     inkscape:zoom="1.2"
     inkscape:cx="301.51619"
     inkscape:cy="300"
     inkscape:document-units="px"
     inkscape:current-layer="layer1"
     showgrid="false"
     showguides="true"
     inkscape:guide-bbox="true"
     inkscape:window-width="1920"
     inkscape:window-height="986"
     inkscape:window-x="0"
     inkscape:window-y="31"
     borderlayer="true"
     inkscape:window-maximized="1" />
  <metadata
     id="metadata7">
    <rdf:RDF>
      <cc:Work
         rdf:about="">
        <dc:format>image/svg+xml</dc:format>
        <dc:type
           rdf:resource="http://purl.org/dc/dcmitype/StillImage" />
        <dc:title></dc:title>
        <dc:creator>
          <cc:Agent>
            <dc:title>Tyler Tidman VA3DGN</dc:title>
          </cc:Agent>
        </dc:creator>
      </cc:Work>
    </rdf:RDF>
  </metadata>
  <g
     inkscape:label="Layer 1"
     inkscape:groupmode="layer"
     id="layer1"
     transform="translate(-450.19165,-441.29104)">
    <g
       id="g5282">
      <path
         transform="matrix(0.88861674,0,0,0.88906645,341.2597,280.66573)"
         d="m 794.63998,518.09998 c 0,184.80552 -149.81447,334.61999 -334.61999,334.61999 -184.80552,0 -334.62,-149.81447 -334.62,-334.61999 0,-184.80552 149.81448,-334.62 334.62,-334.62 184.80552,0 334.61999,149.81448 334.61999,334.62 z"
         sodipodi:ry="334.62"
         sodipodi:rx="334.62"
         sodipodi:cy="518.09998"
         sodipodi:cx="460.01999"
         id="path2909"
         style="fill:#ffffff;fill-opacity:1;stroke:#000000;stroke-width:5.62662363;stroke-linecap:square;stroke-linejoin:miter;stroke-miterlimit:4;stroke-opacity:1;stroke-dasharray:none"
         sodipodi:type="arc" />
      <path
         transform="matrix(1.2317736,0,0,1.2317736,615.86488,253.23806)"
         d="m 305.36748,396.55939 c 0,109.50686 -88.77285,198.27971 -198.27971,198.27971 -109.5068609,0 -198.27971,-88.77285 -198.27971,-198.27971 0,-109.50686 88.7728491,-198.27971 198.27971,-198.27971 109.50686,0 198.27971,88.77285 198.27971,198.27971 z"
         sodipodi:ry="198.27971"
         sodipodi:rx="198.27971"
         sodipodi:cy="396.55939"
         sodipodi:cx="107.08777"
         id="path3674"
         style="fill:none;stroke:#4ef18f;stroke-width:1;stroke-miterlimit:4;stroke-opacity:1;stroke-dasharray:none"
         sodipodi:type="arc" />
      <path
         id="path2915"
         d="m 745.77644,455.54069 c -155.9636,1.97877 -281.92869,129.25226 -281.92868,285.76149 0,157.74159 127.95516,285.76142 285.61694,285.76152 157.6618,0 285.617,-128.01995 285.617,-285.76152 0,-157.74157 -127.95519,-285.7615 -285.617,-285.76149 -1.23172,0 -2.4602,-0.0156 -3.68826,0 z m 3.71621,51.32637 c 128.67027,0 233.08713,104.49766 233.08713,233.23304 0,128.73536 -104.41686,233.20509 -233.08713,233.20509 -128.67026,0 -233.08714,-104.46971 -233.08714,-233.20509 0,-128.73539 104.41688,-233.23304 233.08714,-233.23304 z"
         style="fill:#000000;fill-opacity:1;stroke:none" />
      <path
         style="fill:#000000;fill-opacity:1;fill-rule:evenodd;stroke:none"
         d="m 663.00638,625.24375 3.58625,13.49798 -0.51232,12.1311 0.34154,9.22647 5.80633,-0.8543 15.19891,-2.39205 11.95419,-1.53774 7.51405,-0.34173 12.46652,-0.68343 -0.34155,14.86487 -0.68309,16.57347 -0.51233,13.32713 -0.85387,13.15626 -0.34154,17.08605 -3.4155,16.74435 0.34156,14.3523 19.46825,-3.41722 20.32212,-3.24636 15.882,-2.05032 14.00348,-1.53775 1.36619,-19.99069 1.53698,-17.25691 1.02465,-13.32713 1.19542,-17.7695 1.36619,-25.9708 9.73412,1.36687 14.5158,2.56291 14.34503,2.05034 15.36967,3.58806 6.83097,1.53775 0.85387,-17.08606 0.85387,-9.05562 0,-7.85958 -13.49115,-1.87946 -15.71123,-6.49271 -18.95593,-3.24635 -22.54218,-2.56291 -25.44535,-1.53773 -22.5422,0.34172 -22.02986,0.17086 -17.41897,2.05032 -18.44361,2.73377 -12.63728,2.73377 z"
         id="path2911"
         sodipodi:nodetypes="ccccccccccccccccccccccccccccccccccccccccccc" />
      <path
         sodipodi:nodetypes="ccccccccccccccccccccccccccccccccccccccccccc"
         id="path2913"
         d="m 652.34298,612.79681 -0.51233,14.69401 -0.51232,12.13111 -0.51232,10.59335 12.12496,-2.5629 11.78343,-1.87947 13.32038,-1.87947 10.41722,-1.19603 10.24645,-0.85429 -0.34155,14.86486 -0.6831,16.57348 -0.51232,13.32713 -0.85387,13.15627 -0.34155,17.08605 -0.68309,18.28209 -0.51232,17.08606 19.46825,-4.78411 17.41895,-3.75892 18.10207,-2.73378 14.34504,-1.70861 2.04929,-29.55887 1.19541,-23.23704 0.6831,-18.79467 0.85387,-11.96023 0.51233,-12.98541 9.73412,1.36688 14.00348,2.56292 14.5158,2.73377 15.36968,3.58806 6.83096,1.53774 0.85387,-17.08605 0.85387,-9.05561 0.51233,-9.5682 -14.34503,-3.58807 -15.36967,-3.07548 -18.95593,-3.12821 -22.77836,-2.68106 -23.79217,-1.53774 -23.95921,-0.249 -21.43944,1.11602 -18.00939,1.69588 -18.4436,2.73377 -12.63729,2.73377 z"
         style="fill:#acacac;fill-opacity:1;fill-rule:evenodd;stroke:#000000;stroke-width:2.50000000000000000;stroke-linecap:butt;stroke-linejoin:miter;stroke-miterlimit:4;stroke-opacity:1;stroke-dasharray:none" />
      <path
         sodipodi:nodetypes="cscssssccssssccsssscsccsssscccssssccsssssccssssssssssscscccsc"
         id="path3013"
         d="m 749.72572,512.91547 c -23.70597,0 -48.17723,4.22005 -70.56172,11.41895 -25.58127,8.22698 -48.19535,21.12388 -68.25688,36.39615 1.53514,-0.34148 26.77389,-5.55218 38.31397,-7.52491 8.40969,-1.43761 22.05611,-4.17712 30.88706,-5.25542 9.28397,-1.1336 21.31176,-1.99475 30.65402,-2.43948 7.40642,-0.35257 18.04596,-0.93063 25.63648,-0.78229 6.86984,0.13426 22.01559,0.94464 22.01559,0.94464 l -3.39112,14.03385 c 0,0 19.15443,0.68449 27.68596,1.16689 5.72286,0.32359 15.10097,1.35943 20.94567,2.0004 6.92065,0.75897 16.32342,1.70353 23.18407,2.88837 5.86883,1.01356 13.79951,2.53341 19.57952,3.96975 6.76098,1.68011 19.81962,6.30682 19.81962,6.30682 l -5.14773,8.74544 c 0,10e-6 12.7627,6.08938 17.92814,8.73463 3.89774,1.99606 8.87779,4.92107 12.71615,7.02919 3.75347,2.06148 8.23801,5.23703 11.74422,7.69598 4.13214,2.8979 9.65099,5.88417 13.55686,9.08078 4.17245,3.41481 12.68619,11.28003 12.68619,11.28003 1.00623,1.34231 6.68141,5.87725 9.13718,8.72397 2.77327,3.21461 7.44544,8.94622 7.44544,8.94622 l -13.44143,-9.20064 c -2e-5,0 -10.97891,-7.589 -15.66294,-10.47432 -6.07695,-3.74333 -13.72108,-7.6362 -20.07501,-10.8867 -6.63908,-3.39635 -15.13958,-6.86872 -21.99327,-9.8075 -6.8537,-2.93879 -15.98378,-5.87301 -22.99296,-8.41835 -4.80438,-1.74469 -14.62009,-4.66045 -14.62009,-4.66045 l -9.60817,-2.06772 0.0689,-6.55227 c 0,10e-6 -11.1156,-2.1883 -18.27218,-3.22287 -8.02753,-1.16046 -19.87275,-3.52841 -27.43495,-4.14298 -7.11294,-0.57806 -16.52598,-1.11364 -23.66052,-1.27476 -5.86679,-0.1325 -14.57238,-0.2581 -20.44145,-0.004 -5.64574,0.24513 -19.2686,1.11461 -19.2686,1.11461 l -0.13885,-10.08535 c 10e-6,-10e-6 -16.65947,0.58839 -23.52058,1.25025 -8.55883,0.82564 -19.86051,1.99926 -28.38346,3.13734 -8.13785,1.08665 -16.78423,2.90489 -25.57223,4.03076 -7.10764,0.91059 -18.18621,3.24273 -25.2145,4.63981 -5.70669,1.13438 -11.90494,2.81414 -17.55018,4.22307 -5.12685,1.27955 -17.13365,4.08414 -17.13365,4.08414 0,0 0.68769,-0.81171 1.80501,-2.08375 -13.93098,15.09734 -25.56225,32.09536 -35.23921,51.01019 0,10e-6 52.05976,-17.89058 74.81042,-24.08814 18.65883,-5.08288 43.47713,-11.59736 62.7297,-13.41498 25.03873,-2.36388 41.79636,-4.35132 59.62172,-3.36615 20.94881,1.15781 37.40985,2.50616 53.317,4.69538 10.01797,1.37874 23.35121,3.64177 33.12874,6.22347 12.58626,3.32332 28.85979,9.49942 41.043,14.08614 6.05958,2.28132 14.17914,5.29136 19.9661,8.19609 5.49757,2.75947 12.35684,7.30483 17.57795,10.55766 4.25073,2.64828 9.92295,6.18178 14.02348,9.05736 4.59123,3.2197 10.08411,7.70459 14.38121,11.30782 3.18092,2.66729 10.16358,9.55856 10.16358,9.55856 0,0 6.52796,5.87093 8.85729,8.80621 0.75638,0.95316 0.8233,2.69717 0.8233,2.69717 l 8.73804,-1.33468 1.3841,-0.35683 c -2.76436,-10.22863 -6.2392,-20.19281 -10.35786,-29.78874 -34.32957,-79.98368 -115.9638,-136.8051 -208.43619,-136.8051 z"
         style="fill:#000000;fill-opacity:1;fill-rule:evenodd;stroke:none" />
      <path
         sodipodi:nodetypes="ccssssssssssssssssssssssssssssssssssscccccsssssssssssssssssssssssssssssssccc"
         id="path3017"
         d="m 967.71455,804.72375 c -0.41649,-2.75663 -2.08256,-4.20399 -4.04587,-5.92741 -1.73023,-1.74063 -4.63991,-4.55482 -6.33983,-6.32504 -1.90244,-1.98104 -5.05907,-5.18221 -7.16448,-6.94583 -2.13872,-1.79151 -5.33676,-3.9498 -7.63659,-5.52888 -2.55308,-1.753 -5.18537,-3.54882 -7.85869,-5.11213 -3.48057,-2.03535 -7.58647,-4.3079 -11.21036,-6.07522 -2.76029,-1.34615 -7.18223,-3.24632 -10.06091,-4.31575 -2.08959,-0.77628 -4.5889,-1.48695 -7.10894,-2.13932 -2.52003,-0.65236 -5.05878,-1.26021 -7.22001,-1.80591 -3.58812,-0.906 -8.44819,-1.99132 -12.09806,-2.60253 -2.61327,-0.43761 -5.92094,-1.08554 -8.55316,-1.38871 -4.44318,-0.51176 -10.49932,-1.08573 -14.94898,-1.53765 -4.42874,-0.44977 -10.33523,-0.82046 -14.77326,-1.16689 -5.3394,-0.41682 -12.59854,-0.91103 -17.94806,-1.16712 -3.87941,-0.18572 -9.01162,-0.24463 -12.89427,-0.14826 -5.14153,0.12763 -11.88464,0.35029 -17.00412,0.84306 -3.33897,0.32138 -8.76792,0.51404 -12.09808,0.91662 -4.15857,0.50274 -10.03307,1.2002 -14.03259,1.71368 -4.18368,0.53713 -9.93936,1.13719 -14.10701,1.78725 -4.29251,0.66952 -8.42906,1.61605 -12.71833,2.30601 -4.7275,0.76047 -11.25416,2.48549 -15.93956,3.47292 -7.40578,1.56072 -17.70058,4.24523 -24.12239,5.6029 -2.79734,0.59139 -8.46864,2.20501 -11.2279,2.95436 -4.04477,1.09845 -8.00272,2.04155 -12.02409,3.22287 -3.537,1.03903 -8.46108,2.74927 -12.02409,3.69518 -5.05494,1.34199 -10.92362,3.46368 -14.80102,4.63982 -5.30927,1.61049 -10.43894,3.59788 -15.71741,5.30662 -4.56953,1.47924 -11.3981,4.21556 -15.93957,5.77893 -3.77587,1.2998 -8.96052,3.28862 -12.71832,4.63981 -4.56101,1.64 -10.00352,3.62973 -14.55111,5.30662 -5.02646,1.85346 -11.40875,4.11272 -16.41164,6.02898 -2.38757,0.91452 -5.17909,2.07973 -7.99755,3.22286 -2.81846,1.14313 -5.67319,2.24356 -8.19194,3.0006 -4.43169,1.332 -10.17596,3.82681 -14.55109,5.3344 -1.83491,0.63228 -4.96952,1.43189 -7.69209,2.22267 -1.36129,0.39538 -2.63491,0.79765 -3.58224,1.1669 -0.94732,0.36926 -1.58446,0.70091 -1.69392,1.0002 0.93631,2.28976 1.90777,4.5551 2.91578,6.80691 1.2802,2.39062 2.63808,4.75096 2.63808,4.75096 l 6.27584,13.03037 c 11.8778,21.31212 27.05625,40.49594 44.87515,56.90026 0.63858,-0.47548 5.01051,-3.72998 7.33109,-5.38997 3.013,-2.15528 7.41752,-4.76689 10.41347,-6.94583 4.93146,-3.58658 12.00657,-8.21449 17.10588,-11.55786 3.82113,-2.50534 8.10397,-5.50206 12.41287,-8.44614 4.30889,-2.94408 8.64479,-5.85468 12.55171,-8.22387 4.64863,-2.81896 12.41103,-7.42743 17.10587,-10.16869 6.68659,-3.90424 15.65428,-8.94116 22.40981,-12.72476 3.82985,-2.14501 8.33026,-4.71142 12.85717,-7.22367 4.52691,-2.51225 9.07304,-4.9495 13.02379,-6.86248 5.93831,-2.87537 12.67723,-6.04818 19.43849,-9.14071 6.76126,-3.09254 13.55278,-6.10675 19.63288,-8.6684 2.40908,-1.01499 5.64625,-2.29854 8.08085,-3.25065 3.80228,-1.48699 8.9001,-3.41653 12.71833,-4.86208 2.77063,-1.04895 6.45065,-2.49514 9.24716,-3.47292 2.54627,-0.89028 6.17935,-2.01713 8.7751,-2.75055 3.9817,-1.125 8.31558,-2.43076 12.24625,-3.72296 5.8139,-1.91133 10.06247,-3.22079 14.10679,-4.13972 2.82884,-0.64275 7.04116,-1.7191 10.16355,-2.3338 4.29669,-0.84589 10.0458,-2.00821 14.35672,-2.77833 3.80444,-0.67964 8.85225,-1.63335 12.69055,-2.08375 2.89996,-0.3403 6.80036,-0.59246 9.71925,-0.66681 3.39744,-0.0865 7.9315,0.18758 11.32986,0.22228 3.60567,0.0368 8.6491,-0.0284 12.24625,0.22226 3.49253,0.24341 7.86014,0.92223 11.32987,1.38917 2.14813,0.28909 5.02119,0.5938 7.16447,0.91685 4.03572,0.6083 8.51368,1.54723 12.4684,2.55606 3.12361,0.79681 8.09852,2.53878 11.10771,3.69518 1.47897,0.56836 3.20546,1.12966 4.91516,1.72258 1.70969,0.59291 3.38606,1.21245 4.77631,1.97261 2.27841,1.24577 5.10208,3.321 7.19228,4.86208 1.78719,1.3177 4.07342,3.21435 5.77601,4.63982 0.84792,0.70994 1.67665,2.03933 2.5825,3.13951 1.09807,1.3699 3.06138,2.2588 4.47952,1.102 0.42147,-1.4938 0.72466,-2.99326 0.54676,-4.49156 z"
         style="fill:#000000;fill-opacity:1;stroke:none" />
      <path
         style="fill:#000000;fill-opacity:1;fill-rule:evenodd;stroke:none"
         d="m 561.17998,654.65345 35.74365,-12.42561 19.76256,24.7881 18.50716,23.75191 12.88059,16.94481 0.59618,-27.26757 0.18057,-22.69177 30.43258,4.32547 16.44452,-0.0784 -0.77675,24.27001 -1.81242,41.06896 -2.228,38.47629 -17.73041,4.93718 -26.53358,7.04871 -10.7244,-13.65772 -14.94541,-17.36277 -13.79224,-16.24822 -9.19482,-9.79594 -0.98781,12.62153 -2.18883,40.8404 -1.59268,21.52278 -20.63287,6.0909 -18.37443,4.63892 2.07134,-22.00169 1.63184,-26.93885 1.37291,-26.00498 1.07483,-24.60742 0.33724,-26.6798 0.47868,-25.56525 z"
         id="path3019"
         sodipodi:nodetypes="ccccccccccccccccccccccccccccc" />
      <path
         sodipodi:nodetypes="cccccccccccccccccccccccccccccc"
         id="path3021"
         d="m 548.73934,647.54092 32.89556,-12.16656 18.46798,26.08334 17.7304,24.27 30.48698,38.18678 1.63183,-30.37615 -0.59617,-37.19847 17.48671,-1.3736 16.70344,-1.11456 -1.03567,26.08334 -1.29459,40.03277 -2.228,37.9582 -18.24823,5.7143 -19.80173,4.71729 -13.05466,-14.69391 -14.68649,-16.32658 -12.23874,-14.69392 -8.15916,-9.79596 -7.42156,-7.72355 -0.81592,21.12224 -2.18883,40.84039 -1.59268,21.52278 -20.63287,6.0909 -16.04418,4.89798 -0.25891,-22.26076 1.63183,-26.93884 1.37292,-26.00498 1.07483,-24.60741 0.33724,-26.6798 0.47867,-25.56526 z"
         style="fill:#acacac;fill-opacity:1;fill-rule:evenodd;stroke:#000000;stroke-width:2.50000000000000000;stroke-linecap:butt;stroke-linejoin:miter;stroke-miterlimit:4;stroke-opacity:1;stroke-dasharray:none" />
      <path
         style="fill:#000000;fill-opacity:1;fill-rule:evenodd;stroke:none"
         d="m 945.30684,687.86278 c -0.19746,-1.0422 -0.64487,-4.84382 -1.15111,-5.8305 -0.58409,-1.13827 -2.00241,-4.66333 -3.82141,-6.33477 -1.95333,-1.79492 -3.54605,-5.57395 -5.68888,-7.13752 -39.59603,-19.01683 -78.16097,-15.73418 -120.56071,-12.29151 -1.39543,1.16519 -3.30115,2.99836 -4.14811,4.60732 -0.61277,1.16404 -1.86266,5.99795 -1.88286,7.3134 -0.0528,3.43752 -0.17274,8.29646 0.33256,11.15387 0.56938,3.21983 2.78828,8.0879 3.9415,10.83623 0.78082,1.86085 2.46143,3.19297 3.66829,4.81009 1.46211,1.95913 4.44306,4.18156 6.24317,5.83518 1.75061,1.60815 4.32077,3.48706 6.28908,4.81961 2.66847,1.80656 5.30619,3.12867 8.28672,4.35299 2.18379,0.89705 1.15837,1.34323 7.2392,3.56878 2.42718,0.88833 6.95581,1.67862 9.51004,2.07313 2.62981,0.4062 8.78841,0.62583 10.59003,0.79376 2.5728,0.23981 8.4451,0.93832 11.41584,1.33877 2.68944,0.36254 5.17702,0.63328 5.74828,3.28756 0.68798,3.19675 -0.97796,2.52318 -3.04843,4.10984 l -77.60835,-2.21756 -10.64357,3.58046 -8.89953,2.53975 c 0,0 1.18041,3.87285 3.70762,5.94493 1.99972,1.63958 3.69756,2.28886 5.82272,3.76204 2.52592,1.751 3.98015,2.05626 6.67149,3.54022 2.97368,1.63963 3.63705,1.91109 6.7079,3.3604 3.71834,1.75491 7.35939,2.59979 11.17512,4.13119 1.7203,0.69042 10.10744,2.3754 11.9432,2.63162 2.51266,0.35069 10.88307,2.35971 14.98281,2.65852 2.85051,0.20777 10.51068,0.96197 13.34067,1.36175 2.8754,0.40621 6.92935,0.32126 9.82358,0.5585 3.00734,0.24649 8.55557,0.32675 9.08959,0.29071 2.80608,-0.18933 6.41093,-0.15453 9.41263,-0.70186 2.43608,-0.44421 7.47041,-1.02902 8.13947,-1.29679 0.66904,-0.26775 6.77538,-1.9731 9.59019,-3.01132 3.0496,-1.12483 6.35504,-1.96218 9.27704,-3.84336 2.05287,-1.32164 5.39139,-3.99151 7.0785,-5.75674 1.31568,-1.37662 3.12844,-3.54916 4.28193,-5.06441 1.00551,-1.32087 3.07855,-3.33583 3.70077,-4.87506 0.58447,-1.44589 1.54009,-4.05578 2.2059,-5.46602 0.90906,-1.92552 1.61592,-3.25002 2.12751,-5.39154 0.4541,-1.9009 1.12188,-4.40405 0.63263,-7.18348 -0.30925,-1.75696 0.0309,-4.87821 -0.42832,-6.60202 -0.51676,-1.93959 -2.26127,-5.20935 -3.19243,-6.83335 -1.78282,-3.10933 -8.45325,-8.44645 -10.60903,-9.29466 -20.49364,-8.16866 -43.38718,-8.86121 -50.45664,-9.60114 -2.87644,-0.54311 -3.32615,-0.50345 -4.93483,-1.01 -2.41658,-0.76096 -3.12918,-1.01476 -4.42001,-1.77684 -0.80001,-0.47231 -1.603,-1.16775 -1.76052,-2.68603 -0.18543,-1.78734 0.3857,-2.45645 0.71231,-3.20928 0.65434,-1.50826 2.22636,-2.62113 3.27768,-3.37435 1.43997,-1.03168 4.28165,-2.01559 6.45234,-2.58505 2.18519,-0.57323 4.46179,-1.05278 6.7477,-1.21669 1.96197,-0.14067 5.75374,-0.11352 7.71748,0 2.78379,0.16093 5.33574,0.006 7.9666,0.33198 3.26712,0.40403 7.17664,1.45993 10.25443,2.62857 1.71209,0.6501 5.96342,3.77898 7.49119,4.78913 1.32954,0.87908 3.98234,3.2332 4.9823,4.47469 1.09126,1.35484 1.61699,3.1277 2.37831,4.70298 0.52539,1.08711 0.93236,2.65039 0.93236,2.65039 l 12.90259,0.61583 11.02746,0.75315 7.43601,0.38451 z"
         id="path3023"
         sodipodi:nodetypes="cssccsssssssssssssccccssssssssssssssssssssssccssssssssssssscccc" />
      <path
         sodipodi:nodetypes="cssssssssssssssssssssssssssssssssssssssssccccccssssssssssssssssssssssssssssssssssssssssssscccc"
         id="path3025"
         d="m 945.00693,675.52142 c 0,0 -2.81007,-4.74995 -3.34529,-5.62288 -0.28852,-0.47051 -3.93489,-4.2192 -5.75384,-5.89063 -1.95334,-1.79493 -4.68149,-4.05929 -6.82433,-5.62288 -2.1592,-1.57554 -5.14232,-3.54829 -7.49337,-4.81959 -2.51359,-1.3592 -6.05101,-2.80537 -8.69766,-3.88247 -2.2588,-0.91924 -5.28853,-2.12044 -7.62719,-2.81144 -3.15694,-0.93276 -6.52564,-1.79036 -9.75862,-2.4098 -4.03175,-0.77249 -8.88897,-2.09138 -12.94713,-2.71004 -3.28883,-0.50138 -8.40984,-1.19771 -11.72939,-1.4172 -3.00445,-0.19865 -7.78424,-0.36805 -10.79271,-0.24479 -4.10079,0.16801 -8.43293,0.30501 -12.51322,0.74781 -2.98571,0.32401 -8.15823,1.56455 -11.03737,2.41932 -3.51307,1.04298 -6.75818,2.56644 -9.97083,4.33004 -2.85047,1.56478 -6.79212,3.99561 -9.28834,6.07995 -1.39543,1.16519 -3.30115,2.99836 -4.14812,4.60732 -0.61276,1.16404 -1.68732,3.36176 -1.88285,4.66274 -0.43127,2.86953 -0.80541,6.73744 -0.80286,9.63922 0.002,1.89451 -0.0503,4.49061 0.53524,6.29226 0.62374,1.91928 2.2722,4.13963 3.47907,5.75676 1.46211,1.95913 3.6861,4.37088 5.48621,6.0245 1.75062,1.60815 4.32076,3.48705 6.28909,4.81962 2.66847,1.80656 6.2997,4.15512 9.2329,5.48899 2.46159,1.11939 5.92103,2.23956 8.56385,2.81144 2.52608,0.54661 5.8204,0.92129 8.37462,1.31581 2.62982,0.40618 7.65299,1.00447 9.45462,1.1724 2.57279,0.23982 6.3635,1.12767 9.33424,1.52812 2.68945,0.36254 6.25935,0.99915 8.96528,1.20491 2.20189,0.16743 4.72078,0.12467 6.79186,0.8912 1.1232,0.4157 2.8429,1.80176 3.26687,2.92234 0.54675,1.44505 -0.53602,3.30494 -1.18133,4.7087 -0.59495,1.2942 -1.26878,1.89736 -2.32069,2.85737 -1.59631,1.45685 -3.89585,3.31244 -5.88765,4.15022 -1.42989,0.60143 -3.54282,0.76891 -5.0848,0.93715 -2.27606,0.24833 -5.34245,0.41663 -7.62718,0.26775 -2.92397,-0.19053 -6.79784,-0.87115 -9.63434,-1.60653 -2.43361,-0.63094 -5.58959,-1.80783 -7.89479,-2.81144 -2.15672,-0.93896 -4.86249,-2.54626 -6.95814,-3.6147 -1.43959,-0.73396 -3.36384,-1.70347 -4.81716,-2.4098 -2.11596,-1.02839 -5.05869,-2.16327 -7.09195,-3.34695 -1.14552,-0.66688 -2.54668,-1.75605 -3.61287,-2.54368 -1.26608,-0.93529 -4.14812,-3.21307 -4.14812,-3.21307 l -7.35956,-0.13389 -11.31844,1.26036 -10.56708,0.60442 -10.76418,1.34829 -4.14812,0.26776 c 0,0 5.50142,5.29121 8.02862,7.36328 1.99972,1.63959 4.83298,3.61419 6.95813,5.08737 2.52592,1.751 5.87252,4.13892 8.56385,5.62287 2.97368,1.63964 7.23256,3.80442 10.3034,5.25373 3.71834,1.75491 8.4948,3.92511 12.31053,5.45651 1.72031,0.69043 5.83478,2.22728 7.59077,2.82096 3.83731,1.29735 7.09835,2.54904 11.00885,3.60518 2.7593,0.74522 6.53673,1.34063 9.36671,1.74042 2.87541,0.4062 7.30782,1.07858 10.20205,1.3158 3.00734,0.24651 8.93282,0.29073 9.46807,0.29073 0.53524,0 7.04365,0.10274 10.04533,-0.44459 2.4361,-0.44421 7.22981,-1.60069 8.95274,-2.18421 1.44734,-0.49019 6.29563,-2.93279 8.97777,-4.27739 2.98748,-1.49769 6.1484,-3.53898 8.82197,-5.54446 1.95317,-1.46509 4.63444,-3.80218 6.32154,-5.56741 1.31568,-1.37661 2.56074,-3.35982 3.71423,-4.87507 1.0055,-1.32087 2.3216,-3.14649 2.94382,-4.68572 0.58448,-1.44589 1.57889,-4.30499 1.82742,-5.8447 0.34137,-2.11485 0.10203,-4.19668 0.0459,-6.33819 -0.0512,-1.95377 -0.392,-4.59338 -1.07048,-6.42615 -0.61931,-1.67294 -1.86396,-3.78041 -3.07763,-5.08736 -1.2737,-1.3716 -2.54556,-2.63241 -4.13861,-3.61471 -1.97205,-1.21601 -5.61471,-2.7665 -7.7705,-3.6147 -2.59175,-1.01974 -6.24584,-1.80902 -8.96529,-2.40981 -2.74531,-0.6065 -6.43953,-1.28805 -9.2329,-1.60653 -2.91596,-0.33246 -7.21975,-0.88715 -10.14661,-1.10351 -3.45779,-0.25559 -7.68041,-0.14602 -11.12921,-0.50302 -3.17488,-0.32865 -7.46939,-0.45112 -10.57101,-1.20491 -2.08651,-0.50708 -4.7816,-1.56009 -6.69051,-2.54367 -1.93015,-0.99453 -4.42663,-2.54248 -6.02146,-4.01635 -1.23887,-1.14489 -2.77809,-2.88328 -3.47907,-4.41796 -0.44176,-0.96719 -0.7475,-2.19913 -0.66905,-3.29149 0.12745,-1.77445 0.92962,-3.52208 2.2423,-4.65326 1.33035,-1.14639 4.91637,-2.75787 6.61631,-3.19732 1.7207,-0.44481 4.74722,-1.12328 6.50431,-1.39006 2.27939,-0.34605 4.89537,-0.40452 7.12671,-0.64338 2.39624,-0.25651 4.35626,-0.2494 6.76585,-0.28957 1.96674,-0.0328 4.90954,0.0976 6.87327,0.21116 2.7838,0.16092 6.49653,0.53452 9.23292,1.07103 3.23053,0.63338 7.49322,1.77666 10.571,2.94531 1.7121,0.65009 3.95844,1.66741 5.48622,2.67756 1.32954,0.87907 3.48838,2.15622 4.77125,3.10217 1.40784,1.03809 2.83681,2.35434 4.19404,3.45785 0.94749,0.77036 2.81001,2.9453 2.81001,2.9453 l 10.36998,0.40468 9.65563,0.54199 9.54649,-0.14339 z"
         style="fill:#acacac;fill-opacity:1;fill-rule:evenodd;stroke:#000000;stroke-width:2.50000000000000000;stroke-linecap:butt;stroke-linejoin:miter;stroke-miterlimit:4;stroke-opacity:1;stroke-dasharray:none" />
      <text
         transform="matrix(-0.96899976,-0.24801234,0.24801234,-0.96899976,1288.4931,1646.0989)"
         sodipodi:linespacing="125%"
         id="text2886"
         style="font-size:38px;font-style:normal;font-variant:normal;font-weight:bold;font-stretch:normal;text-align:start;line-height:125%;writing-mode:lr-tb;text-anchor:start;fill:#acacac;fill-opacity:1;stroke:#acacac;stroke-width:2;stroke-miterlimit:4;stroke-opacity:1;stroke-dasharray:none;font-family:DejaVu Sans;-inkscape-font-specification:DejaVu Sans Bold"
         xml:space="preserve"><textPath
           id="textPath3727"
           xlink:href="#path3674"><tspan
   style="stroke:#acacac;stroke-opacity:1;fill:#acacac;fill-opacity:1"
   id="tspan3722">NATIONAL TRAFFIC SYSTEM  PRIDE  SERVICE  TRADITION  INNOVATION</tspan></textPath></text>
      <path
         transform="matrix(0.75791488,0,0,0.75791488,1094.6266,417.41553)"
         d="m -130.35306,302.05951 -10.39408,-3.52474 -8.79615,6.56417 0.14027,-10.97456 -8.96105,-6.3372 10.48077,-3.25791 3.25792,-10.48078 6.3372,8.96106 10.97456,-0.14027 -6.56417,8.79615 z"
         inkscape:randomized="0"
         inkscape:rounded="0"
         inkscape:flatsided="false"
         sodipodi:arg2="1.4137167"
         sodipodi:arg1="0.78539816"
         sodipodi:r2="8.263834"
         sodipodi:r1="16.52767"
         sodipodi:cy="290.37268"
         sodipodi:cx="-142.03989"
         sodipodi:sides="5"
         id="path2820"
         style="fill:#ffffff;fill-opacity:1;stroke:none"
         sodipodi:type="star" />
      <g
         transform="matrix(0.22858502,0,0,0.22858163,712.71664,596.50905)"
         id="g3602">
        <path
           style="fill:#ffffff;fill-opacity:1;stroke:#000000;stroke-width:8.31480694;stroke-linejoin:round;stroke-opacity:1"
           id="path3026"
           d="m 260.47807,319.1943 c 4.66232,-10.59836 4.66232,-27.79019 0,-38.38855 L 142.49708,12.106173 c -4.65555,-10.5983595 -12.19793,-10.5983595 -16.86024,0 L 7.6490649,280.80575 c -4.6555487,10.59836 -4.6555487,27.79019 0,38.38855 L 125.63684,587.89387 c 4.66231,10.59836 12.20469,10.59836 16.86024,0 L 260.47807,319.1943 z"
           i:knockout="Off" />
        <path
           i:knockout="Off"
           d="M 133.89077,29.772363 245.21034,283.10974 c 4.09307,9.33116 4.09307,24.44941 0,33.78057 L 134.23637,569.62458 22.930354,316.89031 c -4.093087,-9.33116 -4.093087,-24.44941 0,-33.78057 L 133.89077,29.772363 m -92.677098,300.989327 9.311081,0 0,-23.72433 9.819325,0 c 7.034139,0 7.413624,3.20526 7.413624,11.48607 0,6.24788 0.379485,9.37183 1.009713,12.24504 l 10.510545,0 0,-1.59924 c -2.026216,-1.0097 -2.026216,-3.21204 -2.026216,-12.07562 0,-11.31668 -2.026199,-13.17341 -5.766894,-15.36898 4.499665,-2.02617 7.034124,-7.76581 7.034124,-14.44061 0,-5.23141 -2.21595,-17.13762 -14.312217,-17.13762 l -22.993085,0 0,60.61529 z m 9.311081,-33.94321 0,-16.2228 11.852313,0 c 5.570386,0 6.647865,4.72996 6.647865,7.94198 0,5.99715 -2.4057,8.28082 -7.345859,8.28082 l -11.154319,0 z m 77.443237,156.29191 -9.22298,0 0,51.97533 31.18601,0 0,-9.41248 -21.95624,0 0,-42.56285 z m 59.2209,-122.3487 9.31786,0 0,-23.72433 9.80578,0 c 7.02735,0 7.41362,3.20526 7.41362,11.48607 0,6.24788 0.38626,9.37183 1.01649,12.24504 l 10.51054,0 0,-1.59924 c -2.02621,-1.0097 -2.02621,-3.21204 -2.02621,-12.07562 0,-11.31668 -2.0262,-13.17341 -5.7669,-15.36898 4.4929,-2.02617 7.03413,-7.76581 7.03413,-14.44061 0,-5.23141 -2.22273,-17.13762 -14.31899,-17.13762 l -22.99309,0 0,60.61529 z m 9.31786,-33.94321 0,-16.2228 11.83199,0 c 5.57716,0 6.65464,4.72996 6.65464,7.94198 0,5.99715 -2.4057,8.28082 -7.34586,8.28082 l -11.14077,0 z m -71.8593,-174.12075 16.36554,0 2.84618,11.43188 10.06329,0 -15.62689,-55.444877 -10.68673,0 -15.80987,55.444877 9.75833,0 3.09015,-11.43188 z m 8.15227,-31.510457 0.12876,0 5.49585,21.928577 -11.29664,0 5.67203,-21.928577 z"
           id="path3032"
           style="fill:#000000;fill-opacity:1" />
        <path
           id="line3094"
           d="m 110.24712,404.34711 53.0745,0"
           style="fill:none;stroke:#ffffff;stroke-width:4.82556963;stroke-linecap:round;stroke-opacity:1" />
        <path
           id="line3096"
           d="m 116.27828,414.90475 41.61527,0"
           style="fill:none;stroke:#ffffff;stroke-width:4.82556963;stroke-linecap:round;stroke-opacity:1" />
        <path
           id="line3098"
           d="m 121.67929,425.45569 30.48122,0"
           style="fill:none;stroke:#ffffff;stroke-width:4.82556963;stroke-linecap:round;stroke-opacity:1" />
        <path
           id="line3100"
           d="m 128.76086,436.16925 16.4672,0"
           style="fill:none;stroke:#ffffff;stroke-width:4.82556963;stroke-linecap:round;stroke-opacity:1" />
        <path
           id="line3102"
           d="m 168.7565,394.1011 -64.54732,0"
           style="fill:none;stroke:#ffffff;stroke-width:4.82556963;stroke-linecap:round;stroke-opacity:1" />
        <path
           d="m 135.90342,358.18596 c -17.68699,-1.97195 -32.06697,-8.39602 -32.06697,-19.10958 0,-9.033 12.38087,-17.40868 29.85779,-19.4484 m 0.83352,-78.09171 0.0949,-85.70172 m 26.57789,-0.6031 -26.67956,51.88046 -26.68634,-51.88046 z m -26.95741,151.8669 c -17.6802,-1.97195 -30.40669,-11.24891 -30.40669,-20.35644 0,-9.033 13.58713,-18.12021 31.0708,-20.15992 m -0.53535,66.94449 c 2.63611,0.28461 5.43485,0.44725 8.26748,0.44725 13.1602,0 23.54199,-4.49957 23.54199,-7.80647 0,-3.31368 -11.2763,-7.20336 -24.44328,-7.20336 -2.85296,0 -5.55005,0.42692 -8.03708,0.67087 m 2.64961,38.84939 -0.0338,33.8822 m -1.62641,-111.71648 c 2.6361,0.28461 4.8114,0.57599 7.63724,0.57599 13.16021,0 23.84694,-4.1946 23.84694,-7.50152 0,-3.31368 -10.07006,-7.50829 -23.23703,-7.50829 -2.85974,0 -5.55005,0.12876 -8.03708,0.36593 m -0.65734,40.51636 c 2.62933,0.28461 5.25867,0.23718 8.08451,0.30493 13.83787,0.28462 23.84694,-4.19461 23.84694,-7.50829 0,-3.30691 -11.2763,-7.80647 -24.44327,-7.80647 -2.85297,0 -5.55007,0.12876 -8.03708,0.35915 m 4.42513,8.46379 m -0.96906,-0.18296 m -9.05356,7.58283 m 5.9702,-8.30792 m 0,0 m 0.75899,-58.16222 m 0,0 m 0,0 m 7.50171,31.88316 m -8.2607,7.05429 m 0.8403,-14.19665 m 8.82995,46.32377 m -9.34496,20.50552 c -18.08682,-2.0126 -30.56258,-11.75713 -30.56258,-20.50552 0,-9.03299 12.38089,-18.41837 29.85781,-20.46486 m 8.94514,35.53567 m -8.26071,5.54991 m -0.67766,-14.20343 m 10.04296,-32.58114 m -1.40955,13.2615 m -8.2607,7.05428 m -0.37271,-14.50837 M 143.7372,260.4493 m -9.04679,20.20058 c -17.68022,-1.97195 -30.86075,-11.10659 -30.86075,-20.20058 0,-9.03978 12.98401,-16.61584 30.4677,-18.65555 m 9.43984,97.68923 m -9.67025,-39.47957 m 3.08336,0.72509"
           style="fill:none;stroke:#ffffff;stroke-width:7.23733759;stroke-linecap:square;stroke-opacity:1"
           id="path3176" />
      </g>
      <path
         sodipodi:type="star"
         style="fill:#ffffff;fill-opacity:1;stroke:none"
         id="path3779"
         sodipodi:sides="5"
         sodipodi:cx="-142.03989"
         sodipodi:cy="290.37268"
         sodipodi:r1="16.52767"
         sodipodi:r2="8.263834"
         sodipodi:arg1="0.78539816"
         sodipodi:arg2="1.4137167"
         inkscape:flatsided="false"
         inkscape:rounded="0"
         inkscape:randomized="0"
         d="m -130.35306,302.05951 -10.39408,-3.52474 -8.79615,6.56417 0.14027,-10.97456 -8.96105,-6.3372 10.48077,-3.25791 3.25792,-10.48078 6.3372,8.96106 10.97456,-0.14027 -6.56417,8.79615 z"
         transform="matrix(0.57483736,0.49396045,-0.49396045,0.57483736,1224.3601,703.08168)" />
      <path
         transform="matrix(0.03627834,0.75704606,-0.75704606,0.03627834,1095.5665,1065.1367)"
         d="m -130.35306,302.05951 -10.39408,-3.52474 -8.79615,6.56417 0.14027,-10.97456 -8.96105,-6.3372 10.48077,-3.25791 3.25792,-10.48078 6.3372,8.96106 10.97456,-0.14027 -6.56417,8.79615 z"
         inkscape:randomized="0"
         inkscape:rounded="0"
         inkscape:flatsided="false"
         sodipodi:arg2="1.4137167"
         sodipodi:arg1="0.78539816"
         sodipodi:r2="8.263834"
         sodipodi:r1="16.52767"
         sodipodi:cy="290.37268"
         sodipodi:cx="-142.03989"
         sodipodi:sides="5"
         id="path3781"
         style="fill:#ffffff;fill-opacity:1;stroke:none"
         sodipodi:type="star" />
      <path
         sodipodi:type="star"
         style="fill:#ffffff;fill-opacity:1;stroke:none"
         id="path3783"
         sodipodi:sides="5"
         sodipodi:cx="-142.03989"
         sodipodi:cy="290.37268"
         sodipodi:r1="16.52767"
         sodipodi:r2="8.263834"
         sodipodi:arg1="0.78539816"
         sodipodi:arg2="1.4137167"
         inkscape:flatsided="false"
         inkscape:rounded="0"
         inkscape:randomized="0"
         d="m -130.35306,302.05951 -10.39408,-3.52474 -8.79615,6.56417 0.14027,-10.97456 -8.96105,-6.3372 10.48077,-3.25791 3.25792,-10.48078 6.3372,8.96106 10.97456,-0.14027 -6.56417,8.79615 z"
         transform="matrix(0.1759524,0.73720801,-0.73720801,0.1759524,848.79079,1011.5892)" />
      <path
         transform="matrix(0.05888086,0.75562421,-0.75562421,0.05888086,723.51502,781.15651)"
         d="m -130.35306,302.05951 -10.39408,-3.52474 -8.79615,6.56417 0.14027,-10.97456 -8.96105,-6.3372 10.48077,-3.25791 3.25792,-10.48078 6.3372,8.96106 10.97456,-0.14027 -6.56417,8.79615 z"
         inkscape:randomized="0"
         inkscape:rounded="0"
         inkscape:flatsided="false"
         sodipodi:arg2="1.4137167"
         sodipodi:arg1="0.78539816"
         sodipodi:r2="8.263834"
         sodipodi:r1="16.52767"
         sodipodi:cy="290.37268"
         sodipodi:cx="-142.03989"
         sodipodi:sides="5"
         id="path3785"
         style="fill:#ffffff;fill-opacity:1;stroke:none"
         sodipodi:type="star" />
      <path
         sodipodi:nodetypes="ccccccccccc"
         id="path3261"
         d="m 571.47634,865.26719 9.59361,2.3036 -1.02077,11.28481 9.81299,-10.0549 15.37656,-1.56268 -8.44733,-4.928 5.41028,-6.55974 -11.34716,1.48775 -7.67246,-4.0911 -2.91305,7.46008 -8.79269,4.66019 z"
         style="fill:#ffffff;fill-opacity:1;stroke:none" />
      <path
         sodipodi:nodetypes="ccccccccccc"
         id="path3263"
         d="m 606.70319,819.78108 7.29732,0.86841 -0.15966,8.98852 8.23428,-10.34194 16.09415,-0.70156 -8.73434,-4.64098 3.68805,-5.4116 -7.32864,1.63128 -8.67709,-3.94759 -2.4825,7.89064 -7.93157,5.66482 z"
         style="fill:#ffffff;fill-opacity:1;stroke:none" />
      <path
         sodipodi:nodetypes="ccccccccccc"
         id="path3265"
         d="m 676.25644,826.36904 9.64685,0.94248 1.01858,9.58111 8.22734,-10.84656 13.86962,-0.007 -8.42879,-5.72894 3.56537,-6.46947 -7.65041,2.00165 -10.04746,-2.87352 -0.54731,7.39295 -9.65379,6.00742 z"
         style="fill:#ffffff;fill-opacity:1;stroke:none" />
      <path
         sodipodi:nodetypes="ccccccccccc"
         id="path3267"
         d="m 716.27032,786.20238 8.73944,0.71563 -0.79622,10.03482 8.90789,-8.69147 13.41592,-0.12056 -6.61398,-5.1618 4.81305,-5.33521 -9.69207,1.09424 -6.41783,-4.1212 -2.58898,6.48554 -9.76722,5.10001 z"
         style="fill:#ffffff;fill-opacity:1;stroke:none" />
      <path
         sodipodi:nodetypes="ccccccccccc"
         id="path3269"
         d="m 777.30041,783.80423 7.70936,1.87767 -0.5717,6.72463 7.02133,-6.45304 9.39508,3.21509 -4.03991,-7.20578 5.16028,-3.99957 -8.24994,0.28406 -5.39468,-4.76704 -3.07972,6.49249 -7.9501,3.83149 z"
         style="fill:#ffffff;fill-opacity:1;stroke:none" />
      <path
         sodipodi:nodetypes="ccccccccccc"
         id="path3271"
         d="m 830.30042,768.86905 6.64454,2.51655 -1.95596,7.57649 9.25743,-7.62435 11.09879,4.81232 -5.53064,-6.77986 6.01213,-4.31901 -9.1018,-1.1002 -4.01043,-4.97999 -2.5473,6.49248 -9.86676,3.40557 z"
         style="fill:#ffffff;fill-opacity:1;stroke:none" />
      <path
         sodipodi:nodetypes="csssssssssssssssssssssssssssssssssssssccsscsscc"
         d="m 920.53489,882.93527 c -1.28453,0.037 -2.76905,0.0268 -3.91584,0.0541 -1.30915,0.0312 -3.07853,-0.0363 -4.38754,0 -1.31103,0.0364 -3.04958,0.16326 -4.35978,0.22227 -2.10887,0.095 -4.8669,0.23184 -6.96972,0.41784 -2.04971,0.18131 -4.64962,0.60718 -6.69166,0.86055 -1.37933,0.17116 -3.36312,0.37178 -4.72151,0.66617 -1.5739,0.34108 -4.07482,0.91559 -5.64462,1.16326 -2.24619,0.3544 -4.46074,0.94013 -6.68312,1.42196 -1.30599,0.28313 -3.04699,0.52592 -4.27375,0.85673 -1.68875,0.4554 -3.84914,0.98254 -5.54835,1.39727 -1.94073,0.47368 -4.43712,1.11952 -6.36703,1.63566 -1.26704,0.33886 -3.24663,0.92206 -4.50116,1.30472 -2.2279,0.67961 -4.06448,1.14223 -6.27792,1.8676 -1.11692,0.366 -3.74766,1.23003 -4.82942,1.68977 -1.46855,0.62408 -3.46698,1.33004 -4.91553,1.9993 -1.38858,0.64156 -3.62331,1.46444 -5.05977,1.98998 -2.40305,0.87922 -5.15389,1.91182 -7.54748,2.81654 -1.97832,0.74776 -4.58558,1.88097 -6.52578,2.72276 -1.92173,0.83376 -4.3392,1.80439 -6.24809,2.6672 -1.95779,0.88493 -4.46932,1.96034 -6.40429,2.89412 -1.99613,0.96331 -4.99778,2.2575 -7.00826,3.19043 -2.21362,1.0272 -5.12742,2.48157 -7.27555,3.63961 -1.40608,0.75803 -3.45647,1.74308 -4.88275,2.46231 -2.12408,1.0711 -4.82997,2.37546 -7.0025,3.34441 -1.75427,0.7824 -4.02681,1.93791 -5.80379,2.6672 -1.57562,0.64663 -3.69359,1.55739 -5.26342,2.21802 -1.85964,0.78256 -4.29826,1.8424 -6.14974,2.64406 -2.21942,0.96095 -5.19575,2.17568 -7.4977,2.91725 -1.93156,0.62222 -4.07215,1.52794 -5.99817,2.1671 -2.01316,0.6681 -4.94551,1.76725 -6.91455,2.55607 -4.42718,1.77355 -10.50313,3.84414 -14.99541,5.44553 -1.79884,0.64123 -4.21185,1.44037 -6.05369,1.94484 -2.51924,0.69 -5.96143,1.52412 -8.4974,2.14972 -2.48432,0.61286 -5.68816,1.29924 -8.18404,1.86305 -2.31041,0.52188 -5.22047,0.98524 -7.56696,1.30813 -2.45997,0.33848 -5.15678,0.81557 -7.60344,1.23979 -1.70385,0.29543 -4.87979,0.75784 -6.59664,0.96475 -3.15168,0.37983 -6.98389,0.86945 -9.97417,1.0897 -5.4782,-0.5704 29.53043,9.13046 30.34484,9.30509 1.56985,0.34994 4.0234,1.05422 5.91487,0.30562 29.81666,-11.80073 66.69338,-21.94882 107.55039,-21.94882 10.84055,0 20.75969,-0.0932 31.05973,0.85 7.99738,-3.99863 18.32081,-9.67971 27.94585,-16.4387 9.55776,-6.71175 18.41714,-13.92423 26.37971,-20.82766 12.86994,-11.15801 21.30958,-21.79867 20.87242,-22.76179 -1.21724,-0.80443 -2.89601,-0.67535 -4.92727,-0.94351 z"
         style="fill:#acacac;fill-opacity:1;stroke:#000000;stroke-width:2.50000000000000000;stroke-linecap:butt;stroke-linejoin:miter;stroke-miterlimit:4;stroke-opacity:1;stroke-dasharray:none"
         id="path4845" />
      <path
         sodipodi:nodetypes="ccccccccscccc"
         id="path4853"
         d="m 941.96283,861.8585 c -25.22581,0.0163 -49.86536,1.81472 -73.8991,9.82344 -20.27291,6.80029 -40.23791,14.4773 -60.39626,21.6127 -20.45514,9.47158 -41.98719,16.40082 -63.46242,23.09607 -27.83754,7.72601 -56.60873,13.08852 -85.61808,11.21869 -21.98758,-0.36796 -45.95368,-4.37133 -62.70302,-19.75394 21.81783,-15.27618 43.73898,-30.51308 66.43583,-44.46877 2.81614,-1.71035 6.60131,-3.70063 6.60131,-3.70063 0,0 17.1593,10.56387 26.98128,12.27195 27.03608,4.70168 55.06532,5.97034 82.35979,3.0568 58.72457,-9.13739 114.85058,-32.30718 174.56365,-35.60696 -0.41231,3.19066 -1.47325,5.78213 -2.8017,9.69329 -2.4471,4.23181 -5.35075,9.62262 -8.06128,12.75736 z"
         style="fill:#acacac;fill-opacity:1;stroke:#000000;stroke-width:2.50000000000000000;stroke-linecap:butt;stroke-linejoin:miter;stroke-miterlimit:4;stroke-opacity:1;stroke-dasharray:none" />
      <path
         sodipodi:nodetypes="cccssssssssssscccccccccccccccccccccccccccccccccccccssssscccccccccccccccccccccccccccccc"
         d="m 862.11804,783.43228 c 2.89996,-0.3403 6.76252,-0.58307 9.68141,-0.65737 l 0,-9e-5 c 3.39744,-0.0864 7.9315,-0.0958 11.32986,-0.0611 3.60567,0.0368 8.6491,0.25504 12.24625,0.50574 3.49253,0.24341 7.86014,0.92222 11.32987,1.38917 2.14813,0.28909 5.02119,0.59379 7.16447,0.91684 4.03572,0.60831 8.51368,1.54723 12.4684,2.55606 3.12361,0.79682 8.09852,2.53878 11.10771,3.69519 1.47897,0.56836 3.20546,1.12965 4.91516,1.72257 1.70969,0.59292 3.38606,1.21246 4.77631,1.97261 2.27841,1.24578 5.10208,3.321 7.19228,4.86208 1.78719,1.3177 4.02829,3.34975 5.73087,4.77524 0.84793,0.70992 2.51977,2.13153 3.53042,2.91382 0.72742,0.56306 2.79324,1.21148 2.62842,1.772 l -1.28204,4.35999 -1.76145,4.11075 -3.65832,1.94778 -4.3787,1.7701 -7.1736,3.3539 -9.13005,3.81971 -8.94371,3.63338 -7.4531,3.07441 -11.92495,4.0992 -11.92496,3.81971 -11.73156,2.96393 -1.67116,0.29491 -6.97957,1.86778 -6.58635,1.27795 -6.88127,1.37625 -8.84734,1.67116 -6.97957,1.17965 -12.18967,1.37625 -8.84734,0.68813 -13.36931,0.39321 -11.94343,0.0128 -7.59954,0.0775 -4.73032,-0.23264 -4.73032,-0.46527 -4.57524,-1.1632 -5.11805,-1.0081 -5.97107,-1.93866 -3.87731,-1.0081 -6.90162,-2.17129 -5.3507,-2.24885 -4.42014,-1.86111 -4.73032,-2.48148 -6.59143,-3.72222 -4.49769,-2.94676 -3.64468,-2.86921 -3.79993,-4.55314 c 5.91717,-2.78486 7.2771,-3.69605 14.03836,-6.78858 6.76126,-3.09254 13.55278,-6.10675 19.63288,-8.6684 2.40908,-1.01499 5.64625,-2.29854 8.08085,-3.25065 3.80228,-1.48699 8.9001,-3.41653 12.71833,-4.86208 2.77063,-1.04895 6.45065,-2.49514 9.24716,-3.47292 2.54627,-0.89028 5.54911,-1.70201 8.0235,-2.43687 l 8.00456,3.50361 6.13706,2.04568 8.36872,1.67375 8.74067,2.04569 12.27412,2.04568 13.94787,2.23166 16.73744,1.85972 15.24967,0.92986 12.4601,0.18597 17.85327,0.18597 13.38995,-1.85972 9.48455,-1.3018 8.36872,-2.23166 2.41763,-0.74388 -7.62483,-0.74389 -10.41441,-1.11583 -8.74066,-0.74389 -10.97233,-1.48777 -7.99678,-1.85971 -11.34426,-2.97555 -6.69498,-1.67375 -6.509,-2.04568 -7.06692,-2.41763 -5.20721,-2.41763 -4.83526,-2.41763 -2.97554,-1.67375 -2.78958,-1.67374 -2.6036,-1.48777 6.69433,-1.21799 z"
         style="fill:#acacac;fill-opacity:1;stroke:#000000;stroke-width:2.50000000000000000;stroke-linecap:butt;stroke-linejoin:miter;stroke-miterlimit:4;stroke-opacity:1;stroke-dasharray:none"
         id="path4856" />
    </g>
  </g>
</svg>
