<?xml version="1.0" encoding="UTF-8" standalone="no"?>
<!-- Created with Inkscape (http://www.inkscape.org/) -->

<svg
   xmlns:dc="http://purl.org/dc/elements/1.1/"
   xmlns:cc="http://creativecommons.org/ns#"
   xmlns:rdf="http://www.w3.org/1999/02/22-rdf-syntax-ns#"
   xmlns:svg="http://www.w3.org/2000/svg"
   xmlns="http://www.w3.org/2000/svg"
   version="1.0"
   width="599.55798"
   height="599.85883"
   id="svg2">
  <defs
     id="defs4" />
  <metadata
     id="metadata7">
    <rdf:RDF>
      <cc:Work
         rdf:about="">
        <dc:format>image/svg+xml</dc:format>
        <dc:type
           rdf:resource="http://purl.org/dc/dcmitype/StillImage" />
        <dc:title></dc:title>
        <dc:creator>
          <cc:Agent>
            <dc:title>Tyler Tidman VA3DGN</dc:title>
          </cc:Agent>
        </dc:creator>
      </cc:Work>
    </rdf:RDF>
  </metadata>
  <path
     d="m 597.05796,299.92943 a 297.27898,297.42943 0 1 1 -594.5579633,0 297.27898,297.42943 0 1 1 594.5579633,0 z"
     id="path2909"
     style="fill:#ffffff;fill-opacity:1;stroke:#000000;stroke-width:5.00000048;stroke-linecap:square;stroke-linejoin:miter;stroke-miterlimit:4;stroke-opacity:1;stroke-dasharray:none" />
  <path
     d="M 295.51526,14.24631 C 139.58835,16.22461 13.65289,143.46816 13.6529,299.94057 c 0,157.70448 127.92506,285.69422 285.54975,285.69431 157.62471,0 285.54978,-127.98985 285.54978,-285.69431 0,-157.70446 -127.92506,-285.69427 -285.54978,-285.69426 -1.23143,0 -2.45962,-0.0156 -3.68739,0 z m 3.71533,51.31429 c 128.64,0 233.0323,104.47308 233.0323,233.17818 0,128.70507 -104.3923,233.15022 -233.0323,233.15022 -128.63999,0 -233.0323,-104.44513 -233.0323,-233.15022 0,-128.70511 104.39231,-233.17818 233.0323,-233.17818 z"
     id="path2915"
     style="fill:#fa0100;fill-opacity:1;stroke:none" />
  <path
     d="m 212.76467,183.90944 3.58541,13.49481 -0.5122,12.12825 0.34146,9.22429 5.80496,-0.85409 15.19533,-2.39149 11.95138,-1.53738 7.51228,-0.34165 12.46359,-0.68327 -0.34147,14.86137 -0.68293,16.56958 -0.51221,13.32399 -0.85367,13.15317 -0.34146,17.08203 -3.41469,16.74041 0.34148,14.34892 19.46367,-3.41642 20.31734,-3.24559 15.87826,-2.04984 14.00019,-1.53739 1.36587,-19.98598 1.53661,-17.25286 1.02441,-13.32399 1.19514,-17.76532 1.36587,-25.96469 9.73183,1.36655 14.51239,2.56231 14.34165,2.04985 15.36606,3.58722 6.82936,1.53739 0.85367,-17.08204 0.85367,-9.05349 0,-7.85773 -13.48798,-1.87902 -15.70753,-6.49118 -18.95147,-3.24559 -22.53688,-2.56231 -25.43937,-1.53737 -22.53689,0.34164 -22.02468,0.17082 -17.41487,2.04984 -18.43927,2.73313 -12.63431,2.73312 z"
     id="path2911"
     style="fill:#02008f;fill-opacity:1;fill-rule:evenodd;stroke:none" />
  <path
     d="m 202.10378,171.46543 -0.51221,14.69056 -0.5122,12.12825 -0.5122,10.59086 12.12211,-2.5623 11.78065,-1.87903 13.31725,-1.87902 10.41477,-1.19575 10.24404,-0.85409 -0.34147,14.86136 -0.68294,16.56958 -0.5122,13.324 -0.85367,13.15317 -0.34147,17.08203 -0.68293,18.27779 -0.5122,17.08204 19.46367,-4.78298 17.41486,-3.75804 18.09781,-2.73313 14.34166,-1.70821 2.04881,-29.55192 1.19513,-23.23157 0.68294,-18.79025 0.85367,-11.95742 0.51221,-12.98235 9.73183,1.36656 14.00018,2.56231 14.51239,2.73313 15.36606,3.58722 6.82936,1.53738 0.85367,-17.08204 0.85367,-9.05348 0.5122,-9.56594 -14.34165,-3.58723 -15.36606,-3.07476 -18.95147,-3.12747 -22.773,-2.68043 -23.78657,-1.53738 -23.95357,-0.24894 -21.4344,1.11576 -18.00515,1.69548 -18.43927,2.73313 -12.63431,2.73312 z"
     id="path2913"
     style="fill:#fa0100;fill-opacity:1;fill-rule:evenodd;stroke:#000000;stroke-width:2.5;stroke-linecap:butt;stroke-linejoin:miter;stroke-miterlimit:4;stroke-opacity:1;stroke-dasharray:none" />
  <path
     d="m 421.50862,341.40355 c -2.9182,0.0743 -6.81768,0.32643 -9.71696,0.66665 -3.8374,0.45029 -8.88402,1.40378 -12.68757,2.08326 -4.3099,0.76994 -10.05766,1.93198 -14.35334,2.77768 -3.12165,0.61455 -7.33298,1.69065 -10.16116,2.33325 -4.04337,0.91871 -8.29094,2.22786 -14.10347,4.13874 -3.92975,1.2919 -8.26261,2.59735 -12.24337,3.72209 -2.59514,0.73324 -6.22736,1.85983 -8.77303,2.7499 -2.79586,0.97755 -6.47501,2.4234 -9.24499,3.4721 -3.81733,1.44521 -8.91395,3.3743 -12.71534,4.86094 -2.43402,0.95188 -5.67043,2.23513 -8.07895,3.24988 -6.07867,2.56105 -12.86859,5.57455 -19.62826,8.66636 -6.75967,3.09181 -13.497,6.26387 -19.43392,9.13856 -3.94982,1.91253 -8.49488,4.34921 -13.02072,6.86087 -4.52585,2.51166 -9.0252,5.07747 -12.85415,7.22197 -6.75394,3.78271 -15.71952,8.81845 -22.40453,12.72177 -4.69374,2.74061 -12.45431,7.348 -17.10185,10.1663 -3.906,2.36863 -8.24088,5.27854 -12.54876,8.22193 -4.30788,2.94339 -8.58972,5.9394 -12.40995,8.44415 -5.09811,3.34259 -12.17155,7.96941 -17.10185,11.55514 -2.99525,2.17843 -7.39873,4.78943 -10.41102,6.9442 -2.14234,1.53249 -5.77124,4.2471 -6.8574,5.05538 1.39129,1.09058 3.53843,3.16171 4.74743,4.05541 1.60631,1.18741 3.5063,2.65497 5.27492,3.5832 1.53098,0.80354 3.46419,1.78396 5.04474,2.48487 1.69528,0.75178 4.18225,1.95495 5.92154,2.59829 2.89596,1.07116 6.69235,2.22221 9.66608,3.05312 2.2613,0.63184 5.48962,1.37201 7.79669,1.80781 2.36825,0.44735 5.46645,0.77572 7.85685,1.0833 2.19403,0.2823 5.21076,0.64875 7.41265,0.86108 2.67971,0.25839 6.27611,0.15452 8.96737,0.22221 3.1274,0.0787 7.28286,0.21361 10.41103,0.25 2.3273,0.0271 5.51537,0.10162 7.83699,-0.0635 2.05202,-0.14589 5.52062,-0.18959 7.57133,-0.3532 4.20579,-0.33549 7.74562,-0.60373 11.94847,-0.9745 1.83434,-0.16182 7.35919,-0.8388 9.15809,-1.23259 3.17199,-0.69435 6.47797,-1.23844 9.65567,-1.90619 3.01991,-0.63462 6.07511,-1.4406 9.10506,-2.02539 3.01391,-0.58168 7.00942,-1.5943 9.96683,-2.41658 2.34944,-0.65325 5.64753,-1.37892 8.00839,-1.98952 2.44443,-0.63224 5.54739,-1.45577 7.98295,-2.12144 2.59601,-0.70952 5.95647,-2.02392 8.49539,-2.91657 1.82327,-0.64101 4.22628,-1.56113 6.05228,-2.19436 2.17318,-0.75365 5.09498,-1.67956 7.27384,-2.41658 2.54937,-0.86233 5.92274,-2.04108 8.46764,-2.91657 2.10991,-0.72585 4.98408,-1.57781 7.05173,-2.41658 2.38212,-0.96633 4.84917,-1.98363 7.19984,-3.02423 1.72933,-0.76556 4.9086,-2.02885 6.58088,-2.78576 2.02739,-0.91764 4.20352,-2.00032 6.27902,-2.80313 1.58228,-0.61201 3.97012,-1.49242 5.55255,-2.10407 2.10139,-0.81225 4.64035,-1.63375 6.62025,-2.39345 1.80443,-0.69239 4.20848,-1.5873 6.05228,-2.16659 1.86845,-0.58704 4.21208,-1.2695 6.05692,-1.92701 2.17747,-0.77606 5.21632,-1.877 7.36521,-2.72908 1.86037,-0.73768 4.35262,-1.71664 6.23389,-2.39922 2.12077,-0.76945 4.90321,-1.8971 7.02397,-2.66657 1.88129,-0.68258 4.41038,-1.51369 6.30215,-2.16659 2.3266,-0.80297 6.80379,-2.424 7.77356,-2.66657 0.96978,-0.24258 6.08665,-1.76314 8.7175,-2.44436 1.81032,-0.46875 4.18272,-1.14696 5.98403,-1.64924 1.61755,-0.45102 3.77059,-1.07833 5.3987,-1.48953 3.80356,-0.96065 8.97046,-1.89092 12.85415,-2.44436 2.24263,-0.31959 5.27702,-0.76796 7.5237,-1.0577 2.26511,-0.29212 5.25543,-0.59233 7.5237,-0.8589 1.95575,-0.22983 4.55826,-0.38783 6.52425,-0.49998 1.81685,-0.10366 4.26061,-0.2136 6.08004,-0.24999 1.45438,-0.0291 3.37667,0.0427 4.83071,0 1.23808,-0.0364 2.89988,-0.15489 4.13665,-0.22222 1.19534,-0.0651 2.44239,-0.18614 3.6326,-0.16339 0.96428,0.0496 0.79351,-0.25136 1.82753,-0.1659 10.01129,-16.0441 18.52861,-33.60979 24.32672,-51.99503 0.0515,0.26621 -0.23928,0.46182 -1.6146,0.21102 -0.48836,-0.32046 -1.28932,-0.36259 -1.74214,-0.91255 -0.90564,-1.09992 -1.73417,-2.429 -2.58189,-3.13878 -1.70219,-1.42513 -3.98788,-3.32133 -5.77465,-4.63872 -2.08971,-1.54072 -4.91272,-3.61545 -7.19059,-4.86094 -1.38992,-0.75997 -3.0659,-1.37937 -4.77519,-1.97215 -1.7093,-0.59278 -3.43538,-1.15394 -4.914,-1.72216 -3.00848,-1.15614 -7.98222,-2.89769 -11.1051,-3.69432 -3.95379,-1.0086 -8.43069,-1.94729 -12.46547,-2.55546 -2.14277,-0.32298 -5.01516,-0.6276 -7.16278,-0.91663 -3.46891,-0.46684 -7.8355,-1.14549 -11.3272,-1.38884 -3.59631,-0.25064 -8.63855,-0.46882 -12.24337,-0.50562 -3.39756,-0.0347 -7.93056,-0.0253 -11.3272,0.0611 l 0,10e-5 1e-5,-2e-5 z"
     id="path2919"
     style="fill:#fa0100;fill-opacity:1;stroke:#000000;stroke-width:2.50000024;stroke-linecap:square;stroke-linejoin:miter;stroke-miterlimit:4;stroke-opacity:1;stroke-dasharray:none" />
  <rect
     width="14.07594"
     height="14.07594"
     x="511.76535"
     y="-245.57755"
     transform="matrix(0.70692788,0.70728563,-0.70692788,0.70728563,0,0)"
     id="rect3003"
     style="fill:#ffffff;fill-opacity:1;stroke:none" />
  <rect
     width="14.07594"
     height="14.07594"
     x="637.11871"
     y="-142.21095"
     transform="matrix(0.70692788,0.70728563,-0.70692788,0.70728563,0,0)"
     id="rect3005"
     style="fill:#ffffff;fill-opacity:1;stroke:none" />
  <rect
     width="14.07594"
     height="14.07594"
     x="664.29462"
     y="68.446144"
     transform="matrix(0.70692788,0.70728563,-0.70692788,0.70728563,0,0)"
     id="rect3007"
     style="fill:#ffffff;fill-opacity:1;stroke:none" />
  <rect
     width="14.07594"
     height="14.07594"
     x="472.96262"
     y="246.90074"
     transform="matrix(0.70692788,0.70728563,-0.70692788,0.70728563,0,0)"
     id="rect3009"
     style="fill:#ffffff;fill-opacity:1;stroke:none" />
  <rect
     width="14.07594"
     height="14.07594"
     x="200.57565"
     y="137.5656"
     transform="matrix(0.70692788,0.70728563,-0.70692788,0.70728563,0,0)"
     id="rect3011"
     style="fill:#ffffff;fill-opacity:1;stroke:none" />
  <path
     d="m 299.46361,71.60759 c -23.70039,0 -48.1659,4.21906 -70.54512,11.41626 -25.57525,8.22505 -48.18401,21.11891 -68.24082,36.38759 1.53477,-0.3414 26.76759,-5.55087 38.30495,-7.52314 8.40771,-1.43727 22.05092,-4.17614 30.8798,-5.25418 9.28178,-1.13334 21.30674,-1.99428 30.6468,-2.43891 7.40468,-0.35249 18.04172,-0.93041 25.63045,-0.7821 6.86823,0.13422 22.01041,0.94441 22.01041,0.94441 l -3.39032,14.03055 c 0,0 19.14993,0.68433 27.67945,1.16662 5.72151,0.32351 15.09742,1.35911 20.94074,1.99993 6.91902,0.75879 16.31958,1.70313 23.17862,2.88769 5.86745,1.01332 13.79626,2.53281 19.57491,3.96881 6.75939,1.67972 19.81496,6.30534 19.81496,6.30534 l -5.14652,8.74338 c 0,10e-6 12.7597,6.08795 17.92392,8.73258 3.89683,1.99559 8.8757,4.91991 12.71316,7.02753 3.75259,2.061 8.23607,5.2358 11.74146,7.69417 4.13117,2.89722 9.64872,5.88279 13.55367,9.07865 4.17147,3.414 12.68321,11.27737 12.68321,11.27737 1.00599,1.342 6.67983,5.87587 9.13503,8.72192 2.77261,3.21386 7.44368,8.94412 7.44368,8.94412 l -13.43826,-9.19848 c -2e-5,0 -10.97633,-7.58721 -15.65926,-10.47185 -6.07552,-3.74245 -13.71785,-7.63441 -20.07029,-10.88414 -6.63751,-3.39555 -15.13601,-6.86711 -21.98809,-9.8052 -6.85209,-2.9381 -15.98002,-5.87163 -22.98755,-8.41637 -4.80325,-1.74428 -14.61665,-4.65935 -14.61665,-4.65935 l -9.60591,-2.06723 0.0689,-6.55073 c 0,10e-6 -11.11299,-2.18779 -18.26788,-3.22211 -8.02564,-1.16019 -19.86808,-3.52758 -27.4285,-4.14201 -7.11126,-0.57792 -16.52209,-1.11338 -23.65495,-1.27446 -5.86541,-0.13247 -14.56895,-0.25804 -20.43664,-0.004 -5.64441,0.24507 -19.26407,1.11435 -19.26407,1.11435 l -0.13882,-10.08298 c 10e-6,-1e-5 -16.65555,0.58825 -23.51504,1.24996 -8.55682,0.82544 -19.85584,1.99879 -28.37679,3.1366 -8.13593,1.08639 -16.78028,2.90421 -25.56621,4.02981 -7.10597,0.91038 -18.18193,3.24197 -25.20857,4.63872 -5.70535,1.13411 -11.90214,2.81348 -17.54605,4.22208 -5.12565,1.27925 -17.12962,4.08318 -17.12962,4.08318 0,0 0.68753,-0.81152 1.80458,-2.08326 -13.9277,15.09378 -25.55623,32.08781 -35.23092,50.99819 0,1e-5 52.04752,-17.88638 74.79283,-24.08248 18.65444,-5.08168 43.4669,-11.59463 62.71494,-13.41182 25.03284,-2.36333 41.78653,-4.3503 59.60769,-3.36536 20.94389,1.15754 37.40105,2.50557 53.30446,4.69428 10.01561,1.37841 23.34572,3.64091 33.12095,6.222 12.5833,3.32254 28.853,9.49719 41.03334,14.08283 6.05816,2.28078 14.17581,5.29011 19.96141,8.19416 5.49627,2.75882 12.35393,7.30311 17.57381,10.55518 4.24973,2.64765 9.92062,6.18032 14.02018,9.05523 4.59015,3.21894 10.08174,7.70277 14.37783,11.30516 3.18017,2.66666 10.16119,9.55631 10.16119,9.55631 0,0 6.52642,5.86955 8.8552,8.80414 0.75621,0.95293 0.82311,2.69653 0.82311,2.69653 l 8.73598,-1.33437 1.38378,-0.35674 C 515.44245,227.93572 511.96843,217.97389 507.85074,208.38022 473.52924,128.41535 391.91422,71.6073 299.46358,71.6073 z"
     id="path3013"
     style="fill:#02008f;fill-opacity:1;fill-rule:evenodd;stroke:none" />
  <path
     d="m 517.40116,363.34722 c -0.41639,-2.75598 -2.08207,-4.203 -4.04492,-5.92601 -1.72982,-1.74022 -4.63882,-4.55375 -6.33834,-6.32356 -1.90199,-1.98057 -5.05788,-5.18099 -7.16279,-6.94419 -2.13822,-1.79109 -5.33551,-3.94887 -7.6348,-5.52758 -2.55248,-1.75259 -5.18415,-3.54799 -7.85684,-5.11093 -3.47975,-2.03487 -7.58468,-4.30688 -11.20772,-6.07379 -2.75964,-1.34583 -7.18054,-3.24555 -10.05854,-4.31473 -2.0891,-0.7761 -4.58782,-1.4866 -7.10727,-2.13882 -2.51944,-0.65221 -5.05759,-1.25991 -7.21831,-1.80549 -3.58728,-0.90578 -8.44621,-1.99085 -12.09522,-2.60191 -2.61265,-0.43751 -5.91954,-1.08529 -8.55115,-1.38839 -4.44213,-0.51164 -10.49685,-1.08547 -14.94546,-1.53728 -4.4277,-0.44967 -10.3328,-0.82027 -14.76978,-1.16662 -5.33815,-0.41672 -12.59558,-0.91082 -17.94384,-1.16685 -3.8785,-0.18567 -9.0095,-0.24457 -12.89124,-0.14822 -5.14032,0.1276 -11.88184,0.35021 -17.00012,0.84286 -3.33818,0.32131 -8.76586,0.51392 -12.09523,0.91641 -4.15759,0.50262 -10.03071,1.19991 -14.02929,1.71327 -4.1827,0.53701 -9.93702,1.13692 -14.10369,1.78683 -4.2915,0.66936 -8.42708,1.61567 -12.71534,2.30547 -4.72639,0.76029 -11.25151,2.4849 -15.93581,3.4721 -7.40404,1.56036 -17.69642,4.24423 -24.11672,5.60158 -2.79668,0.59126 -8.46664,2.2045 -11.22525,2.95367 -4.04382,1.09819 -8.00084,2.04107 -12.02127,3.22211 -3.53616,1.03879 -8.45909,2.74862 -12.02126,3.69431 -5.05375,1.34168 -10.92105,3.46287 -14.79754,4.63873 -5.30802,1.61011 -10.43648,3.59703 -15.71371,5.30537 -4.56845,1.47889 -11.39542,4.21457 -15.93582,5.77757 -3.77498,1.2995 -8.95841,3.28785 -12.71533,4.63872 -4.55993,1.63962 -10.00116,3.62888 -14.54768,5.30537 -5.02528,1.85303 -11.40607,4.11176 -16.40778,6.02756 -2.38701,0.91431 -5.17787,2.07925 -7.99567,3.22211 -2.8178,1.14286 -5.67186,2.24303 -8.19001,2.99989 -4.43065,1.33169 -10.17357,3.82591 -14.54767,5.33315 -1.83448,0.63213 -4.96835,1.43155 -7.69028,2.22214 -1.36097,0.39529 -2.63429,0.79746 -3.5814,1.16663 -0.9471,0.36917 -1.58409,0.70074 -1.69352,0.99996 0.93609,2.28922 1.90732,4.55403 2.91509,6.80531 1.2799,2.39006 2.63746,4.74984 2.63746,4.74984 l 6.27437,13.02731 c 11.875,21.3071 27.04988,40.48641 44.86459,56.88687 0.63843,-0.47537 5.00933,-3.7291 7.32937,-5.3887 3.01229,-2.15477 7.41577,-4.76577 10.41102,-6.9442 4.9303,-3.58573 12.00374,-8.21255 17.10185,-11.55514 3.82023,-2.50475 8.10207,-5.50076 12.40995,-8.44415 4.30788,-2.94339 8.64276,-5.8533 12.54876,-8.22193 4.64754,-2.8183 12.40811,-7.42569 17.10185,-10.1663 6.68501,-3.90332 15.65059,-8.93906 22.40453,-12.72177 3.82895,-2.1445 8.3283,-4.71031 12.85415,-7.22197 4.52584,-2.51166 9.0709,-4.94834 13.02072,-6.86087 5.93692,-2.87469 12.67425,-6.04675 19.43392,-9.13856 6.75967,-3.09181 13.54959,-6.10531 19.62826,-8.66636 2.40852,-1.01475 5.64493,-2.298 8.07895,-3.24988 3.80139,-1.48664 8.89801,-3.41573 12.71534,-4.86094 2.76998,-1.0487 6.44913,-2.49455 9.24499,-3.4721 2.54567,-0.89007 6.17789,-2.01666 8.77303,-2.7499 3.98076,-1.12474 8.31362,-2.43019 12.24337,-3.72209 5.81253,-1.91088 10.0601,-3.22003 14.10347,-4.13874 2.82818,-0.6426 7.03951,-1.7187 10.16116,-2.33325 4.29568,-0.8457 10.04344,-2.00774 14.35334,-2.77768 3.80355,-0.67948 8.85017,-1.63297 12.68757,-2.08326 2.89928,-0.34022 6.79876,-0.59232 9.71696,-0.66665 3.39664,-0.0865 7.92964,0.18753 11.3272,0.22222 3.60482,0.0368 8.64706,-0.0284 12.24337,0.22221 3.4917,0.24335 7.85829,0.92201 11.3272,1.38884 2.14762,0.28903 5.02001,0.59366 7.16278,0.91664 4.03478,0.60816 8.51168,1.54686 12.46547,2.55546 3.12288,0.79662 8.09662,2.53818 11.1051,3.69431 1.47862,0.56822 3.2047,1.12939 4.914,1.72217 1.70929,0.59277 3.38527,1.21217 4.77519,1.97215 2.27787,1.24548 5.10088,3.32022 7.19059,4.86094 1.78677,1.31739 4.07246,3.21359 5.77465,4.63872 0.84772,0.70978 1.67625,2.03885 2.58189,3.13878 1.09781,1.36957 3.06066,2.25826 4.47847,1.10174 0.42137,-1.49345 0.72449,-2.99256 0.54663,-4.49051 z"
     id="path3017"
     style="fill:#02008f;fill-opacity:1;stroke:none" />
  <path
     d="m 110.96222,213.31223 35.73524,-12.42269 19.75792,24.78227 18.5028,23.74632 12.87756,16.94082 0.59604,-27.26115 0.18053,-22.68643 30.42542,4.32445 16.44065,-0.0784 -0.77657,24.2643 -1.81199,41.0593 -2.22748,38.46724 -17.72623,4.93601 -26.52734,7.04706 -10.72188,-13.65451 -14.94189,-17.35869 -13.789,-16.24439 -9.19266,-9.79364 -0.98757,12.61856 -2.18832,40.83079 -1.5923,21.51772 -20.62802,6.08947 -18.37011,4.63783 2.07085,-21.99652 1.63146,-26.93251 1.37259,-25.99886 1.07458,-24.60163 0.33716,-26.67353 0.47856,-25.55923 z"
     id="path3019"
     style="fill:#02008f;fill-opacity:1;fill-rule:evenodd;stroke:none" />
  <path
     d="m 98.52451,206.20137 32.88782,-12.1637 18.46364,26.07721 17.72623,24.26429 30.4798,38.17779 1.63145,-30.369 -0.59603,-37.18972 17.4826,-1.37328 16.69951,-1.1143 -1.03543,26.07721 -1.29428,40.02335 -2.22748,37.94927 -18.24394,5.71296 -19.79707,4.71618 -13.05159,-14.69046 -14.68303,-16.32274 -12.23586,-14.69046 -8.15724,-9.79365 -7.41982,-7.72174 -0.81573,21.11727 -2.18831,40.83079 -1.59231,21.51771 -20.62801,6.08947 -16.04041,4.89683 -0.25885,-22.25552 1.63145,-26.93251 1.37259,-25.99886 1.07458,-24.60162 0.33716,-26.67353 0.47856,-25.55924 z"
     id="path3021"
     style="fill:#fa0100;fill-opacity:1;fill-rule:evenodd;stroke:#000000;stroke-width:2.50000024;stroke-linecap:butt;stroke-linejoin:miter;stroke-miterlimit:4;stroke-opacity:1;stroke-dasharray:none" />
  <path
     d="m 494.99872,246.51374 c -0.19741,-1.04195 -0.64472,-4.84268 -1.15084,-5.82912 -0.58395,-1.13801 -2.00194,-4.66224 -3.82051,-6.33328 -1.95287,-1.7945 -3.54522,-5.57264 -5.68754,-7.13585 -39.58672,-19.01235 -78.14259,-15.73047 -120.53235,-12.28861 -1.3951,1.16491 -3.30037,2.99765 -4.14714,4.60623 -0.61262,1.16377 -1.86222,5.99654 -1.88241,7.31168 -0.0528,3.43671 -0.1727,8.29451 0.33248,11.15125 0.56925,3.21907 2.78762,8.086 3.94057,10.83368 0.78064,1.86041 2.46085,3.19222 3.66743,4.80896 1.46177,1.95867 4.44201,4.18057 6.2417,5.8338 1.7502,1.60778 4.31975,3.48624 6.2876,4.81848 2.66784,1.80614 5.30494,3.12793 8.28477,4.35197 2.18328,0.89684 1.1581,1.34291 7.2375,3.56794 2.42661,0.88812 6.95417,1.67822 9.5078,2.07264 2.62919,0.4061 8.78634,0.62568 10.58754,0.79357 2.57219,0.23976 8.44311,0.9381 11.41315,1.33846 2.68881,0.36245 5.17581,0.63313 5.74693,3.28678 0.68782,3.196 -0.97773,2.52259 -3.04771,4.10888 l -77.59009,-2.21704 -10.64107,3.57962 -8.89744,2.53915 c 0,0 1.18014,3.87194 3.70675,5.94353 1.99925,1.6392 3.69669,2.28832 5.82135,3.76116 2.52533,1.75058 3.97922,2.05577 6.66992,3.53938 2.97298,1.63925 3.6362,1.91064 6.70632,3.35961 3.71747,1.7545 7.35766,2.59918 11.1725,4.13022 1.71989,0.69026 10.10506,2.37484 11.94039,2.631 2.51206,0.35061 10.88051,2.35916 14.97928,2.6579 2.84984,0.20772 10.50821,0.96174 13.33753,1.36143 2.87473,0.40611 6.92772,0.32118 9.82127,0.55836 3.00663,0.24644 8.55356,0.32668 9.08745,0.29065 2.80542,-0.18929 6.40943,-0.1545 9.41042,-0.7017 2.43551,-0.4441 7.46865,-1.02878 8.13755,-1.29648 0.66889,-0.26769 6.77379,-1.97264 9.58794,-3.01062 3.04888,-1.12456 6.35354,-1.96171 9.27486,-3.84245 2.05238,-1.32133 5.39012,-3.99057 7.07683,-5.75539 1.31537,-1.37629 3.12771,-3.54832 4.28092,-5.06322 1.00528,-1.32055 3.07783,-3.33504 3.6999,-4.87391 0.58434,-1.44555 1.53973,-4.05482 2.20538,-5.46473 0.90885,-1.92507 1.61554,-3.24926 2.12701,-5.39027 0.454,-1.90046 1.12162,-4.40302 0.63249,-7.18179 -0.30918,-1.75655 0.0309,-4.87707 -0.42822,-6.60047 -0.51664,-1.93914 -2.26074,-5.20813 -3.19168,-6.83174 -1.7824,-3.1086 -8.45126,-8.44447 -10.60654,-9.29248 -20.48882,-8.16674 -43.37697,-8.85912 -50.44477,-9.59888 -2.87576,-0.54298 -3.32537,-0.50333 -4.93367,-1.00976 -2.41601,-0.76078 -3.12844,-1.01452 -4.41897,-1.77642 -0.79982,-0.4722 -1.60262,-1.16748 -1.7601,-2.6854 -0.18539,-1.78692 0.38561,-2.45587 0.71214,-3.20853 0.65419,-1.5079 2.22584,-2.62051 3.27691,-3.37355 1.43963,-1.03144 4.28064,-2.01512 6.45082,-2.58444 2.18468,-0.5731 4.46074,-1.05254 6.74611,-1.21641 1.96151,-0.14064 5.75239,-0.11349 7.71567,0 2.78313,0.16089 5.33448,0.006 7.96472,0.3319 3.26635,0.40394 7.17496,1.45959 10.25202,2.62796 1.71169,0.64994 5.96202,3.77809 7.48943,4.788 1.32923,0.87887 3.9814,3.23244 4.98113,4.47364 1.091,1.35452 1.61661,3.12696 2.37775,4.70187 0.52526,1.08685 0.93214,2.64977 0.93214,2.64977 l 12.89955,0.61568 11.02487,0.75297 7.43426,0.38442 z"
     id="path3023"
     style="fill:#02008f;fill-opacity:1;fill-rule:evenodd;stroke:none" />
  <path
     d="m 494.69888,234.17529 c 0,0 -2.80941,-4.74884 -3.3445,-5.62156 -0.28846,-0.4704 -3.93397,-4.21821 -5.75249,-5.88924 -1.95288,-1.79451 -4.68039,-4.05834 -6.82272,-5.62156 -2.1587,-1.57517 -5.14111,-3.54746 -7.49161,-4.81846 -2.513,-1.35888 -6.04959,-2.80471 -8.69562,-3.88155 -2.25826,-0.91903 -5.28728,-2.11995 -7.62539,-2.81078 -3.1562,-0.93254 -6.52411,-1.78994 -9.75633,-2.40924 -4.0308,-0.7723 -8.88687,-2.09088 -12.94408,-2.7094 -3.28806,-0.50126 -8.40786,-1.19743 -11.72663,-1.41687 -3.00374,-0.1986 -7.78241,-0.36796 -10.79017,-0.24473 -4.09983,0.16797 -8.43095,0.30494 -12.51028,0.74764 -2.98501,0.32393 -8.15631,1.56418 -11.03477,2.41875 -3.51224,1.04273 -6.75659,2.56583 -9.96849,4.32902 -2.8498,1.56441 -6.79052,3.99467 -9.28615,6.07852 -1.3951,1.16491 -3.30037,2.99765 -4.14714,4.60623 -0.61262,1.16377 -1.68693,3.36097 -1.88241,4.66165 -0.43117,2.86885 -0.80522,6.73585 -0.80267,9.63695 0.002,1.89406 -0.0503,4.48955 0.53511,6.29078 0.62359,1.91883 2.27167,4.13866 3.47825,5.75541 1.46177,1.95866 3.68524,4.36985 5.48492,6.02308 1.75021,1.60777 4.31975,3.48623 6.28761,4.81848 2.66784,1.80614 6.29822,4.15415 9.23073,5.4877 2.46101,1.11913 5.91964,2.23904 8.56184,2.81078 2.52548,0.54648 5.81903,0.92107 8.37265,1.3155 2.6292,0.40609 7.65119,1.00424 9.45239,1.17213 2.57219,0.23976 6.362,1.1274 9.33205,1.52776 2.68881,0.36245 6.25787,0.99891 8.96317,1.20462 2.20137,0.16739 4.71967,0.12464 6.79026,0.89099 1.12293,0.41561 2.84223,1.80134 3.2661,2.92166 0.54662,1.44471 -0.53589,3.30416 -1.18105,4.70759 -0.59481,1.29389 -1.26848,1.89691 -2.32015,2.8567 -1.59593,1.4565 -3.89493,3.31166 -5.88626,4.14924 -1.42955,0.60129 -3.54199,0.76873 -5.0836,0.93693 -2.27553,0.24827 -5.3412,0.41653 -7.62539,0.26769 -2.92328,-0.19049 -6.79624,-0.87095 -9.63207,-1.60616 -2.43304,-0.63079 -5.58828,-1.8074 -7.89294,-2.81077 -2.15621,-0.93874 -4.86134,-2.54567 -6.9565,-3.61385 -1.43925,-0.73379 -3.36305,-1.70307 -4.81603,-2.40924 -2.11546,-1.02815 -5.0575,-2.16276 -7.09028,-3.34616 -1.14525,-0.66672 -2.54608,-1.75564 -3.61202,-2.54308 -1.26578,-0.93507 -4.14714,-3.21232 -4.14714,-3.21232 l -7.35783,-0.13385 -11.31578,1.26006 -10.56459,0.60428 -10.76165,1.34797 -4.14714,0.2677 c 0,0 5.50012,5.28996 8.02673,7.36155 1.99925,1.6392 4.83184,3.61333 6.95649,5.08617 2.52533,1.75059 5.87114,4.13794 8.56184,5.62155 2.97298,1.63925 7.23085,3.80352 10.30097,5.25249 3.71747,1.7545 8.4928,3.92419 12.30764,5.45523 1.7199,0.69026 5.8334,2.22675 7.58898,2.82029 3.83641,1.29705 7.09668,2.54844 11.00626,3.60433 2.75865,0.74505 6.53519,1.34032 9.36451,1.74001 2.87473,0.40611 7.3061,1.07833 10.19965,1.3155 3.00663,0.24645 8.93072,0.29066 9.46584,0.29066 0.53511,0 7.04199,0.10271 10.04297,-0.44449 2.43552,-0.4441 7.22811,-1.60031 8.95063,-2.18369 1.447,-0.49008 6.29415,-2.9321 8.97566,-4.27639 2.98678,-1.49734 6.14695,-3.53815 8.81989,-5.54315 1.95271,-1.46475 4.63335,-3.80129 6.32006,-5.5661 1.31537,-1.37629 2.56013,-3.35903 3.71335,-4.87393 1.00527,-1.32056 2.32106,-3.14575 2.94313,-4.68462 0.58434,-1.44555 1.57852,-4.30397 1.82699,-5.84332 0.34129,-2.11435 0.10201,-4.19569 0.0459,-6.3367 -0.0512,-1.95331 -0.39191,-4.5923 -1.07023,-6.42464 -0.61916,-1.67254 -1.86352,-3.77952 -3.07691,-5.08616 -1.2734,-1.37128 -2.54496,-2.63179 -4.13763,-3.61386 -1.97159,-1.21572 -5.61339,-2.76585 -7.76867,-3.61385 -2.59114,-1.0195 -6.24437,-1.80859 -8.96318,-2.40924 -2.74467,-0.60636 -6.43802,-1.28775 -9.23073,-1.60616 -2.91528,-0.33238 -7.21805,-0.88694 -10.14423,-1.10325 -3.45697,-0.25553 -7.6786,-0.14598 -11.12659,-0.5029 -3.17413,-0.32857 -7.46763,-0.45101 -10.56852,-1.20462 -2.08602,-0.50696 -4.78048,-1.55973 -6.68894,-2.54308 -1.92969,-0.99429 -4.42559,-2.54188 -6.02004,-4.0154 -1.23858,-1.14462 -2.77744,-2.8826 -3.47825,-4.41692 -0.44166,-0.96696 -0.74733,-2.19861 -0.66889,-3.29072 0.12742,-1.77403 0.9294,-3.52125 2.24177,-4.65216 1.33003,-1.14612 4.91521,-2.75722 6.61475,-3.19657 1.7203,-0.44471 4.7461,-1.12302 6.50278,-1.38973 2.27885,-0.34597 4.89422,-0.40443 7.12503,-0.64323 2.39568,-0.25645 4.35524,-0.24934 6.76426,-0.2895 1.96628,-0.0328 4.90839,0.0976 6.87166,0.21111 2.78314,0.16088 6.495,0.53439 9.23074,1.07077 3.22977,0.63324 7.49146,1.77625 10.56852,2.94462 1.71169,0.64994 3.95751,1.66702 5.48493,2.67693 1.32922,0.87887 3.48756,2.15571 4.77012,3.10144 1.40751,1.03785 2.83615,2.35379 4.19306,3.45704 0.94726,0.77018 2.80935,2.94461 2.80935,2.94461 l 10.36754,0.40458 9.65336,0.54186 9.54424,-0.14335 z"
     id="path3025"
     style="fill:#fa0100;fill-opacity:1;fill-rule:evenodd;stroke:#000000;stroke-width:2.50000024;stroke-linecap:butt;stroke-linejoin:miter;stroke-miterlimit:4;stroke-opacity:1;stroke-dasharray:none" />
  <path
     d="m 470.2326,441.54035 c -1.28423,0.037 -2.7684,0.0268 -3.91492,0.0541 -1.30884,0.0312 -3.07781,-0.0363 -4.38651,0 -1.31072,0.0364 -3.04886,0.16322 -4.35875,0.22222 -2.10838,0.095 -4.86576,0.23178 -6.96808,0.41774 -2.04923,0.18127 -4.64853,0.60704 -6.69009,0.86035 -1.37901,0.17112 -3.36233,0.37169 -4.7204,0.66601 -1.57353,0.341 -4.07386,0.91538 -5.64329,1.16299 -2.24566,0.35431 -4.45969,0.93991 -6.68155,1.42162 -1.30568,0.28307 -3.04627,0.5258 -4.27274,0.85653 -1.68836,0.45529 -3.84824,0.98231 -5.54705,1.39694 -1.94027,0.47357 -4.43608,1.11926 -6.36553,1.63528 -1.26674,0.33878 -3.24587,0.92184 -4.5001,1.30441 -2.22738,0.67945 -4.06353,1.14196 -6.27645,1.86716 -1.11665,0.36592 -3.74677,1.22974 -4.82828,1.68937 -1.4682,0.62394 -3.46616,1.32973 -4.91437,1.99883 -1.38826,0.64141 -3.62246,1.4641 -5.05858,1.98952 -2.40249,0.87901 -5.15268,1.91137 -7.54571,2.81587 -1.97785,0.74759 -4.5845,1.88053 -6.52424,2.72212 -1.92128,0.83357 -4.33818,1.80397 -6.24662,2.66658 -1.95733,0.88472 -4.46827,1.95987 -6.40279,2.89343 -1.99566,0.96309 -4.9966,2.25697 -7.00661,3.18968 -2.2131,1.02696 -5.12621,2.48099 -7.27384,3.63876 -1.40574,0.75785 -3.45565,1.74267 -4.8816,2.46173 -2.12358,1.07085 -4.82883,2.3749 -7.00085,3.34362 -1.75386,0.78222 -4.02586,1.93746 -5.80242,2.66657 -1.57525,0.64648 -3.69273,1.55703 -5.26219,2.2175 -1.8592,0.78238 -4.29724,1.84197 -6.14829,2.64344 -2.2189,0.96072 -5.19453,2.17517 -7.49594,2.91656 -1.9311,0.62208 -4.07119,1.52758 -5.99675,2.16659 -2.01269,0.66795 -4.94435,1.76684 -6.91293,2.55547 -4.42614,1.77314 -10.50066,3.84324 -14.99188,5.44425 -1.79842,0.64108 -4.21086,1.44003 -6.05227,1.94438 -2.51864,0.68984 -5.96002,1.52377 -8.4954,2.14922 -2.48373,0.61271 -5.68682,1.29893 -8.18211,1.86261 -2.30987,0.52176 -5.21924,0.98501 -7.56518,1.30782 -2.45939,0.3384 -5.15557,0.81538 -7.60165,1.2395 -1.70345,0.29536 -4.87865,0.75766 -6.59509,0.96452 -3.15094,0.37975 -6.98225,0.86925 -9.97183,1.08945 -5.47691,-0.57027 29.52349,9.12831 30.33771,9.3029 1.56948,0.34986 4.02245,1.05397 5.91347,0.30555 29.80965,-11.79796 66.6777,-21.94366 107.52509,-21.94366 10.838,0 20.75481,-0.0932 31.05243,0.8498 7.9955,-3.99769 18.3165,-9.67743 27.93927,-16.43483 9.55552,-6.71017 18.41281,-13.92096 26.37351,-20.82276 12.86691,-11.15539 21.30456,-21.79354 20.86751,-22.75644 -1.21696,-0.80424 -2.89533,-0.67519 -4.92611,-0.94329 z"
     id="path3561"
     style="fill:#fa0100;fill-opacity:1;stroke:#000000;stroke-width:2.50000024;stroke-linecap:square;stroke-linejoin:miter;stroke-miterlimit:4;stroke-opacity:1;stroke-dasharray:none" />
  <g
     transform="matrix(0.7555497,0,0,0.75593207,-272.29886,-188.39858)"
     id="g3338">
    <path
       d="m 721.10416,682.70089 52.53492,121.739 -53.29504,120.54866 -52.14613,-122.12774 52.90625,-120.15992 z"
       id="path3576"
       style="fill:#e5001a;fill-opacity:1;fill-rule:evenodd;stroke:none" />
    <path
       d="m 843.15756,776.28817 -13.73996,57.76118 -2.52008,0 0.10379,2.86382 10.625,0.0937 -0.25,-3.03125 -3.51004,-0.0737 2.83258,-15.32139 10.30246,-0.0737 3.4375,15.625 -3.4375,0 0.15625,2.6875 24.78125,0 -0.0625,-2.75 -3.6875,0 -13.3125,-57.6875 -11.71875,-0.0937 z m -1.58257,21.11176 4.58143,16.98199 -8.52783,0.0837 3.9464,-17.0657 z"
       id="path3406"
       style="fill:#000000;fill-opacity:1;fill-rule:evenodd;stroke:none" />
    <path
       d="m 811.68881,776.41317 c -13.07292,0.0521 -26.14583,0.10417 -39.21875,0.15625 4.07292,9.33333 8.14583,18.66667 12.21875,28 -4.63542,10.72917 -9.27083,21.45833 -13.90625,32.1875 11.08333,0.0312 22.16667,0.0625 33.25,0.0937 -0.24063,-0.82069 0.34933,-2.4816 -0.42978,-2.75758 -1.27341,-0.0287 -2.54681,-0.0575 -3.82022,-0.0862 0.0208,-9.54167 0.0417,-19.08333 0.0625,-28.625 2.99503,0.79846 4.1507,3.71115 4.27766,6.65487 0.74519,6.15438 -0.28958,12.5209 1.40766,18.54196 1.42259,4.34108 5.1507,8.46467 10.03046,8.3571 3.62101,0.16592 7.37226,-1.27682 9.81547,-3.96018 1.09248,-1.17039 2.22476,-4.66035 1.02531,-5.04212 -1.30767,2.3062 -5.35945,2.82987 -4.40452,-0.69286 -0.14626,-4.72365 0.14588,-9.49644 -0.47098,-14.18607 -1.05905,-4.42934 -4.31372,-7.98713 -7.93106,-10.57895 3.42405,0.63361 5.88287,-2.46544 7.5225,-5.00528 2.18462,-4.36054 2.14258,-9.6287 0.9276,-14.26375 -1.33659,-4.68293 -5.52408,-8.21121 -10.35635,-8.79347 z m -11.90512,2.97102 c 1.89016,0.39539 3.46471,0.41514 4.30721,1.99881 1.01407,2.20375 0.42162,19.21865 -0.0445,19.73259 l -1.46624,1.6166 -2.63822,0.026 c -0.28135,0.003 -0.1613,-16.14078 -0.15824,-23.37404 z"
       id="path3408"
       style="fill:#000000;fill-opacity:1;fill-rule:evenodd;stroke:none" />
    <path
       d="m 909.03454,816.90221 c -0.0908,2.26422 0.1354,4.56639 -0.56539,6.75761 -0.55644,2.36037 -0.86405,4.81262 -2.16813,6.92046 -1.72083,3.56698 -4.78215,6.5286 -8.38252,8.16097 -3.95981,1.11536 -8.19289,-0.095 -11.59817,-2.21994 -3.54748,-2.19553 -7.09144,-5.00282 -8.81112,-8.91203 -1.72529,-4.62602 -3.33733,-9.36503 -3.68906,-14.32426 -0.80366,-5.93928 -1.05869,-12.12984 0.769,-17.91245 0.43015,-2.71706 1.65279,-5.13681 2.96414,-7.51257 1.69716,-3.12368 3.28913,-6.58479 6.4489,-8.50342 1.64834,-1.57826 3.77301,-2.39084 5.85159,-3.19651 2.49701,-0.77131 4.9985,-0.63359 7.53429,-0.13699 2.81967,-0.70995 4.46979,3.82933 6.90482,2.40639 1.08975,-1.21772 1.95384,-3.68412 3.90859,-3.25628 1.3108,-0.36941 1.114,0.72387 1.08122,1.65801 0.0472,6.72254 0.0945,13.44507 0.14168,20.1676 -2.20544,0.28215 -2.80781,-0.43095 -2.65008,-2.53171 -0.31438,-2.51025 -1.41917,-4.89636 -2.58007,-7.13496 -0.90993,-2.60071 -2.89982,-4.47268 -4.97636,-6.1375 -1.87998,-1.63662 -4.7416,-0.0471 -6.0051,1.72004 -2.65244,3.11911 -2.9431,7.44476 -2.78834,11.36366 0.29875,8.03143 -0.23865,16.06393 -0.0419,24.09696 -0.0288,4.43786 0.0177,9.15237 2.54888,13.00153 0.79903,2.44284 3.60654,3.09565 5.82645,2.32486 2.21617,-1.13044 4.41795,-2.69227 5.37363,-5.08813 1.29218,-2.61521 1.93776,-5.53945 2.48195,-8.39682 0.42191,-1.67242 -0.38794,-3.98136 2.00988,-3.31452 0.13709,0 0.27417,0 0.41125,0 z"
       id="path3418"
       style="fill:#000000;fill-opacity:1;fill-rule:evenodd;stroke:none" />
    <path
       d="m 705.36556,719.31859 c -0.0882,0.11276 -1.56262,3.56331 -1.625,3.625 0.31158,0.42975 15.12362,20.47738 15.59375,20.90625 -0.0417,16.42708 -0.20833,33.07292 -0.25,49.5 -8.89583,-2.73958 -17.79167,-5.47917 -26.6875,-8.21875 2.70833,6.08333 5.41667,12.16667 8.125,18.25 -9.53125,1.76042 -19.0625,3.52083 -28.59375,5.28125 8.4375,4.26042 16.875,8.52083 25.3125,12.78125 -1.83333,5.125 -3.66667,10.25 -5.5,15.375 9.08333,0.0625 18.16667,0.125 27.25,0.1875 -0.0312,10.32292 -0.0625,30.92558 -0.0937,30.96875 -0.0924,-0.0104 -18.64644,0.18896 -18.84375,-0.0312 -0.0385,0.22241 2.09731,4.145 2.15625,4.53125 0.29809,0.0536 37.26767,0.0637 37.53125,0.15625 0.0235,-0.0821 1.84679,-4.28663 2,-4.53125 -0.59488,-0.13709 -19.33858,-0.18875 -19.34375,-0.0937 -0.0736,-0.26337 0.0625,-20.66667 0.0937,-31 2.9375,0.0208 5.875,0.0417 8.8125,0.0625 -2.69792,4.60417 -5.39583,9.20833 -8.09375,13.8125 9.91667,0.0729 19.83333,0.14583 29.75,0.21875 7.14583,-15.35417 19.66183,-46.42052 20.07386,-47.21881 -0.5137,-1.04459 -24.84315,-57.69036 -25.20438,-58.52933 -1.57292,8.41667 -3.07781,16.42522 -4.65073,24.84189 -6.73958,-2.64583 -13.47917,-5.29167 -20.21875,-7.9375 3.59375,11.875 7.1875,23.75 10.78125,35.625 -3.71875,-1.14583 -7.4375,-2.29167 -11.15625,-3.4375 0.0417,-16.9375 0.0833,-33.875 0.125,-50.8125 5.05473,-6.66214 10.13277,-13.30661 15.1875,-19.96875 l 0.25,-0.375 c -0.56665,-1.25317 -1.1521,-2.49683 -1.71875,-3.75 -10.3125,-0.0729 -20.75,-0.14583 -31.0625,-0.21875 z m 2.25,3.5 c 3.875,0.0312 7.75,0.0625 11.625,0.0937 -0.0104,5.10417 -0.0208,10.20833 -0.0312,15.3125 -3.86458,-5.13542 -7.72917,-10.27083 -11.59375,-15.40625 z m 15.125,0.125 c 3.69792,0.0208 7.39583,0.0417 11.09375,0.0625 -3.70833,4.92708 -7.41667,10.26042 -11.125,15.1875 0.0104,-4.94792 0.0208,-10.30208 0.0312,-15.25 z m -18.53125,154.5 c 0.56728,1.62508 1.64952,3.24797 2.34375,4.40625 0.35323,0.0935 19.42366,0.10318 29.125,0.0625 0.76959,-1.85215 1.77242,-4.25629 1.6875,-4.34375 -10.28485,-0.0605 -22.47129,-0.1048 -33.15625,-0.125 z m 16.25,8.78125 c -6.1686,0.009 -12.32459,0.0571 -12.46875,0.0312 0.19569,0.3696 1.82564,4.39184 2.15625,4.71875 0.42276,0.21831 20.86901,0.2299 21.34375,0.125 -0.16381,-0.40727 1.99233,-4.25849 1.5625,-4.75 -0.23695,-0.11461 -6.42515,-0.1337 -12.59375,-0.125 z m 0.0625,9 c -3.85697,0.0183 -7.68828,0.0573 -8.03125,0.0625 0.19519,0.37805 1.77277,4.29906 2.0625,4.65625 0.34627,0.18894 10.89234,-0.0111 11.9375,0.0937 0.4673,-0.90113 1.85636,-3.88012 2.21875,-4.78125 -0.44787,-0.0472 -4.33053,-0.0496 -8.1875,-0.0312 z m -0.25,9.65625 c -1.63623,0.0127 -3.27276,0.0312 -3.59375,0.0312 0.22625,0.41503 3.19233,6.73357 3.8125,6.875 0.40298,-0.0926 3.5224,-6.07946 3.4375,-6.8125 -0.37523,-0.093 -2.02002,-0.10645 -3.65625,-0.0937 z"
       id="path4326"
       style="fill:#ffffff;fill-opacity:1;fill-rule:evenodd;stroke:none" />
    <path
       d="m 721.29166,658.63106 c -21.33333,48.59375 -42.66666,96.40992 -64,145.00367 21.33334,48.60414 42.66667,97.98587 64,146.59002 21.34375,-48.60415 42.6875,-97.2083 64.03125,-145.81244 -21.34375,-48.59375 -42.6875,-97.1875 -64.03125,-145.78125 z m -0.1875,25.625 c 18.48071,39.35854 33.72907,80.37257 51.36855,120.18383 -16.11231,40.55864 -33.82027,79.13739 -51.73988,118.99349 -17.79127,-39.15961 -34.30405,-79.62639 -51.75734,-119.0174 16.35207,-40.7248 34.32388,-79.97557 52.12867,-120.15992 z"
       id="path3416"
       style="fill:#000000;fill-opacity:1;fill-rule:evenodd;stroke:none" />
  </g>
  <g
     transform="matrix(-0.96877181,-0.247954,0.247954,-0.96877181,512.59711,665.12306)"
     id="text2886"
     style="font-size:38px;font-style:normal;font-variant:normal;font-weight:bold;font-stretch:normal;text-align:start;line-height:125%;writing-mode:lr-tb;text-anchor:start;fill:#02008f;fill-opacity:1;stroke:#02008f;stroke-width:2;stroke-miterlimit:4;stroke-opacity:1;font-family:DejaVu Sans;-inkscape-font-specification:DejaVu Sans Bold">
    <path
       d="m 569.62257,305.66953 -0.52367,7.96131 -19.62031,8.80641 18.95903,1.24706 -0.44451,6.75786 -27.64242,-1.81823 0.52367,-7.96131 19.62032,-8.80641 -18.95903,-1.24706 0.4445,-6.75786 27.64242,1.81823"
       id="path3070" />
    <path
       d="m 541.1847,353.03576 2.05122,-10.97997 -4.63735,-2.65952 1.31865,-7.05854 25.34678,15.17342 -1.56398,8.37177 -29.11531,4.99907 1.31865,-7.05855 5.28134,-0.78768 m 6.77636,-8.28517 -1.39361,7.45981 11.52915,-1.69682 -10.13554,-5.76299"
       id="path3072" />
    <path
       d="m 561.56288,366.28397 -7.33357,24.45534 -5.17188,-1.55093 2.63817,-8.79752 -21.36288,-6.40621 2.05191,-6.84252 21.36288,6.40621 2.64349,-8.81529 5.17188,1.55092"
       id="path3074" />
    <path
       d="m 551.92907,396.25195 -2.60752,6.65066 -25.79073,-10.11175 2.60752,-6.65066 25.79073,10.11175"
       id="path3076" />
    <path
       d="m 535.85708,421.09467 c 0.98473,-1.94166 1.03138,-3.81122 0.13996,-5.60868 -0.89145,-1.79749 -2.63895,-3.35645 -5.24251,-4.67689 -2.59254,-1.31487 -4.87725,-1.80092 -6.85414,-1.45817 -1.97689,0.34273 -3.45771,1.48492 -4.44246,3.42658 -0.99033,1.95265 -1.03978,3.82773 -0.14835,5.62522 0.89145,1.79746 2.63343,3.35362 5.22596,4.6685 2.60356,1.32043 4.89379,1.80928 6.87069,1.46657 1.97689,-0.34277 3.4605,-1.49048 4.45085,-3.44313 m 4.61692,2.34156 c -2.01426,3.97151 -4.72839,6.50625 -8.14239,7.60423 -3.41401,1.0979 -7.12333,0.63136 -11.12797,-1.39964 -3.9936,-2.02547 -6.55599,-4.73975 -7.6872,-8.14286 -1.13119,-3.40316 -0.68966,-7.09049 1.32458,-11.06201 2.00866,-3.96052 4.72278,-6.49526 8.14238,-7.60423 3.41401,-1.09795 7.11781,-0.6342 11.11143,1.39125 4.00462,2.03102 6.57253,4.7481 7.70374,8.15125 1.12559,3.41415 0.68406,7.10148 -1.32457,11.06201"
       id="path3078" />
    <path
       d="m 528.86993,443.63172 -4.50648,6.58394 -21.36972,-2.41757 15.67897,10.73172 -3.82527,5.5887 -22.86007,-15.64693 4.50648,-6.58394 21.36972,2.41757 -15.67897,-10.73172 3.82527,-5.5887 22.86007,15.64693"
       id="path3080" />
    <path
       d="m 480.22567,469.90533 7.40972,-8.35842 -2.60725,-4.66694 4.76339,-5.37327 13.92284,26.05468 -5.64961,6.37295 -27.53604,-10.69851 4.76339,-5.37327 4.93356,2.04278 m 10.07409,-3.61606 -5.03418,5.67873 10.75828,4.47882 -5.7241,-10.15755"
       id="path3082" />
    <path
       d="m 486.28742,496.16873 -5.29912,4.79058 -14.95657,-16.54427 -9.30443,8.41151 -3.62094,-4.00531 14.60356,-13.2021 18.5775,20.54959"
       id="path3084" />
    <path
       d="m 456.8921,520.93584 -21.37326,13.96526 -2.95341,-4.52007 7.68878,-5.02384 -12.1993,-18.67054 5.98016,-3.90743 12.19931,18.67054 7.70431,-5.03399 2.95341,4.52007"
       id="path3086" />
    <path
       d="m 414.98194,531.81407 c -1.33702,0.67273 -2.16773,1.40228 -2.49213,2.18866 -0.33544,0.7919 -0.21682,1.75693 0.35584,2.89508 0.56713,1.12706 1.26582,1.78636 2.09609,1.9779 0.81924,0.19705 1.89737,-0.0408 3.23439,-0.71352 l 2.68511,-1.35106 -3.19419,-6.34813 -2.68511,1.35107 m 0.4667,-5.75995 -4.71205,-9.36474 6.38127,-3.21086 12.45149,24.7461 -9.74595,4.90387 c -3.25969,1.64015 -5.92167,2.29413 -7.98594,1.96194 -2.0753,-0.3267 -3.70787,-1.67236 -4.89771,-4.03699 -0.82286,-1.6354 -1.10059,-3.17811 -0.83322,-4.62814 0.25636,-1.44451 1.05502,-2.81569 2.39599,-4.11354 -0.97301,0.24031 -1.97997,0.17925 -3.02091,-0.18321 -1.0464,-0.34588 -2.28182,-1.05361 -3.70626,-2.12318 l -7.00025,-5.28465 6.79565,-3.41936 6.11071,4.63136 c 1.23047,0.93177 2.27459,1.46573 3.13238,1.60187 0.84676,0.14167 1.78947,-0.0488 2.82815,-0.57142 l 1.80665,-0.90905"
       id="path3088" />
    <path
       d="m 376.69053,536.69528 10.51023,-3.78183 -0.0501,-5.3456 6.75658,-2.43118 -0.27558,29.54008 -8.01361,2.88348 -19.03392,-22.59207 6.75658,-2.43118 3.34986,4.1583 m 10.57432,1.65736 -7.14067,2.56938 7.29317,9.08901 -0.1525,-11.65839"
       id="path3090" />
    <path
       d="m 369.34792,562.69815 -18.76127,4.43494 -1.24212,-5.25459 11.8093,-2.79158 -1.18663,-5.01986 -11.10508,2.62511 -1.24213,-5.2546 11.10508,-2.62511 -2.70194,-11.4301 6.95196,-1.64336 6.37283,26.95915"
       id="path3092" />
    <path
       d="m 341.09534,568.83819 -19.12475,2.42849 -0.68017,-5.3564 12.0381,-1.52862 -0.64978,-5.11711 -11.32023,1.43746 -0.68016,-5.35641 11.32023,-1.43745 -1.47953,-11.65156 7.08665,-0.89987 3.48964,27.48147"
       id="path3094" />
    <path
       d="m 313.00078,571.77971 -7.13661,0.31484 -1.2209,-27.67523 7.13661,-0.31484 1.2209,27.67523"
       id="path3096" />
    <path
       d="m 275.59093,545.3051 c 1.33909,-0.62369 2.72664,-1.07815 4.16265,-1.3634 1.43605,-0.28525 2.92646,-0.39484 4.47126,-0.32876 4.60973,0.19717 8.20668,1.63865 10.79088,4.32445 2.58367,2.69815 3.78115,6.25322 3.59244,10.66521 -0.18924,4.42432 -1.6859,7.86416 -4.49001,10.31951 -2.80462,2.46766 -6.51179,3.60292 -11.12152,3.40578 -1.54479,-0.0661 -3.02041,-0.30255 -4.42685,-0.70935 -1.40641,-0.40685 -2.75008,-0.97814 -4.03103,-1.71386 l 0.245,-5.72816 c 1.2838,0.95871 2.55934,1.67565 3.82663,2.15084 1.26733,0.47514 2.6116,0.74311 4.0328,0.80392 2.54587,0.10887 4.58283,-0.62115 6.11089,-2.19008 1.52809,-1.56896 2.35345,-3.78702 2.47607,-6.65417 0.12212,-2.85482 -0.51109,-5.12908 -1.89963,-6.82276 -1.38851,-1.6937 -3.3557,-2.595 -5.90156,-2.70388 -1.42121,-0.0608 -2.78345,0.0914 -4.08673,0.45663 -1.30323,0.36521 -2.63533,0.97062 -3.9963,1.81624 l 0.24501,-5.72816"
       id="path3098" />
    <path
       d="m 232.20525,563.48446 1.22055,-5.73484 c 1.34656,0.98215 2.69155,1.79325 4.03499,2.43331 1.34348,0.64002 2.64434,1.09394 3.9026,1.36176 1.66965,0.35533 2.95265,0.3881 3.84901,0.0983 0.89638,-0.28982 1.44757,-0.91868 1.65356,-1.88656 0.15451,-0.72595 0.009,-1.35124 -0.43545,-1.87588 -0.45946,-0.51516 -1.36607,-1.06855 -2.71985,-1.66018 l -2.84884,-1.23234 c -2.88383,-1.24613 -4.82962,-2.62141 -5.83736,-4.12586 -1.0077,-1.50446 -1.26951,-3.39397 -0.78544,-5.66854 0.63605,-2.9884 1.99911,-5.02532 4.08919,-6.11075 2.07545,-1.0759 4.93403,-1.22632 8.57575,-0.45125 1.71804,0.36566 3.40736,0.89593 5.06795,1.59082 1.66061,0.6949 3.28774,1.54707 4.88139,2.55653 l -1.25532,5.89817 c -1.53442,-1.28774 -3.05599,-2.33877 -4.56471,-3.15309 -1.52338,-0.80481 -3.0352,-1.36686 -4.53546,-1.68616 -1.52444,-0.32446 -2.74605,-0.31887 -3.66483,0.0168 -0.91876,0.33562 -1.47857,0.97529 -1.67944,1.91899 -0.18023,0.84692 -0.041,1.55948 0.41767,2.13769 0.44662,0.57562 1.45401,1.22002 3.02218,1.93319 l 2.57662,1.1744 c 2.58654,1.15754 4.37375,2.50539 5.36165,4.04358 0.9758,1.53559 1.23453,3.38018 0.77617,5.53378 -0.57422,2.69802 -1.88694,4.58756 -3.93818,5.66864 -2.05122,1.08103 -4.71017,1.27393 -7.97686,0.5787 -1.48813,-0.31675 -2.99417,-0.75742 -4.51811,-1.32203 -1.52647,-0.55255 -3.08294,-1.2316 -4.66943,-2.03716"
       id="path3100" />
    <path
       d="m 224.83131,562.67694 -7.41044,-2.47089 -2.86232,-11.35976 -9.10703,7.36877 -7.42804,-2.47676 15.08643,-11.8686 3.69167,-11.07166 6.77676,2.25961 -3.69166,11.07165 4.94463,18.54764"
       id="path3102" />
    <path
       d="m 175.14128,542.29365 2.47091,-5.3172 c 1.0931,1.25815 2.22289,2.34923 3.38938,3.27324 1.16654,0.92399 2.33311,1.65706 3.49974,2.19922 1.54806,0.71936 2.79132,1.03794 3.72976,0.95573 0.93847,-0.0822 1.61622,-0.57206 2.03323,-1.46946 0.31279,-0.67308 0.31101,-1.315 -0.005,-1.92575 -0.33276,-0.60478 -1.09282,-1.34673 -2.28021,-2.22585 l -2.50152,-1.83765 c -2.53255,-1.8589 -4.12191,-3.63413 -4.76808,-5.32568 -0.64612,-1.69157 -0.47919,-3.59181 0.50081,-5.70075 1.28761,-2.77077 3.07128,-4.45169 5.35102,-5.04275 2.26336,-0.58504 5.08329,-0.093 8.45981,1.47605 1.59293,0.74024 3.12108,1.63451 4.58446,2.68283 1.4634,1.04832 2.85902,2.24247 4.18686,3.58245 l -2.54128,5.46865 c -1.20795,-1.59799 -2.45625,-2.96239 -3.74492,-4.09319 -1.30507,-1.12481 -2.65311,-2.0104 -4.04413,-2.6568 -1.41341,-0.65682 -2.6054,-0.92429 -3.57594,-0.80241 -0.97051,0.12188 -1.65908,0.62031 -2.0657,1.49529 -0.36489,0.78524 -0.38837,1.5109 -0.0705,2.17696 0.30673,0.66086 1.1447,1.51402 2.5139,2.55951 l 2.24913,1.72036 c 2.26257,1.70613 3.70349,3.4192 4.32277,5.13921 0.60808,1.71478 0.44817,3.57055 -0.47973,5.56732 -1.16246,2.50153 -2.86415,4.05005 -5.10506,4.64554 -2.24088,0.59545 -4.87573,0.18945 -7.90453,-1.21801 -1.37976,-0.6412 -2.74928,-1.4072 -4.10857,-2.298 -1.36444,-0.87961 -2.72987,-1.88923 -4.09629,-3.02886"
       id="path3104" />
    <path
       d="m 167.75723,539.56962 -21.8445,-13.21599 2.79495,-4.61974 7.85831,4.7543 11.54478,-19.08218 6.11202,3.69778 -11.54479,19.08219 7.87418,4.76391 -2.79495,4.61973"
       id="path3106" />
    <path
       d="m 140.53555,522.49101 -15.3501,-11.66311 3.26657,-4.29921 9.66214,7.34136 3.12064,-4.10715 -9.08596,-6.90357 3.26657,-4.29921 9.08596,6.90357 3.83906,-5.05268 -9.98717,-7.58831 3.26657,-4.29921 15.67512,11.91006 -16.7594,22.05746"
       id="path3108" />
    <path
       d="m 117.12019,504.32101 -6.4587,-6.39891 5.95261,-14.97169 -14.94205,6.06545 -6.445512,-6.38585 19.497092,-19.67924 4.79789,4.75347 -14.26044,14.39366 15.04677,-6.11841 3.21616,3.1864 -5.97823,15.103 14.26043,-14.39366 4.81107,4.76654 -19.49709,19.67924"
       id="path3110" />
    <path
       d="m 70.787598,450.70508 -6.1723,-10.12314 c -1.835236,-3.01001 -2.571624,-5.72659 -2.209165,-8.14976 0.345525,-2.42727 1.753958,-4.39434 4.225304,-5.9012 2.481965,-1.51328 4.886209,-1.87089 7.212737,-1.07282 2.309572,0.79397 4.381981,2.69595 6.217232,5.70595 l 2.453465,4.02391 8.206241,-5.00352 3.718835,6.09923 -23.652349,14.42135 m 0.701128,-8.79418 6.606182,-4.02793 -2.057433,-3.37438 c -0.721208,-1.18288 -1.563387,-1.92258 -2.526538,-2.21909 -0.973668,-0.29007 -1.988585,-0.11313 -3.044754,0.53082 -1.056117,0.64396 -1.672941,1.46192 -1.850475,2.4539 -0.177478,0.99199 0.09438,2.07942 0.815585,3.2623 l 2.057433,3.37438"
       id="path3112" />
    <path
       d="m 62.006482,409.53685 c -0.624871,-1.36005 -1.324493,-2.21612 -2.098869,-2.56822 -0.779496,-0.36332 -1.748122,-0.27902 -2.905881,0.2529 -1.146468,0.52678 -1.830142,1.20164 -2.051022,2.02459 -0.225991,0.81173 -0.02656,1.89762 0.598309,3.25767 l 1.254946,2.73136 6.457463,-2.96694 -1.254946,-2.73136 m 5.739764,0.67076 9.526022,-4.37681 2.982434,6.49118 -25.172303,11.56565 -4.55499,-9.91381 c -1.523462,-3.31584 -2.082582,-5.99934 -1.677362,-8.05053 0.400121,-2.0624 1.802859,-3.64619 4.208219,-4.75139 1.663568,-0.76431 3.215162,-0.98714 4.654786,-0.66848 1.434508,0.30745 2.776489,1.15426 4.025946,2.54043 -0.205644,-0.98092 -0.108888,-1.98509 0.290269,-3.01252 0.382792,-1.03346 1.133907,-2.24299 2.253346,-3.62859 l 5.529696,-6.80833 3.176099,6.91269 -4.845263,5.94254 c -0.97484,1.19663 -1.545505,2.22115 -1.711995,3.07357 -0.171625,0.8412 -0.01472,1.79008 0.470718,2.84664 l 0.844378,1.83776"
       id="path3114" />
    <path
       d="m 42.536322,394.76001 -2.389836,-6.73195 26.10595,-9.2676 2.389837,6.73195 -26.105951,9.2676"
       id="path3116" />
    <path
       d="m 40.447507,370.68082 16.387708,-4.1431 -0.627604,-2.48244 c -0.715521,-2.83021 -1.962822,-4.81148 -3.741907,-5.94383 -1.782093,-1.14431 -4.010305,-1.37842 -6.684641,-0.70232 -2.662307,0.6731 -4.501054,1.92902 -5.516248,3.76777 -1.015144,1.83878 -1.163448,4.17927 -0.444912,7.02148 l 0.627604,2.48244 m -3.483787,8.24908 -1.84643,-7.30342 c -1.030818,-4.07743 -1.504074,-7.1858 -1.41977,-9.32513 0.06934,-2.14825 0.619161,-4.11179 1.64946,-5.89061 0.892917,-1.56541 2.05355,-2.85404 3.481902,-3.86589 1.428403,-1.01181 3.143961,-1.77088 5.146681,-2.27724 2.026746,-0.51236 3.91492,-0.66437 5.664529,-0.45602 1.737646,0.21143 3.371256,0.79362 4.900833,1.74658 1.754964,1.08742 3.180935,2.5642 4.277919,4.43035 1.085004,1.86922 2.136862,4.81856 3.155578,8.84801 l 1.846431,7.30341 -26.857133,6.78996"
       id="path3118" />
    <path
       d="m 29.17764,345.02319 -2.5079,-19.1145 5.353531,-0.7024 1.578601,12.03165 5.114371,-0.67103 -1.484465,-11.31416 5.353532,-0.70241 1.484464,11.31416 6.291779,-0.8255 -1.631703,-12.43638 5.353531,-0.70241 2.561003,19.51923 -27.466744,3.60375"
       id="path3120" />
    <path
       d="m 28.340264,267.62367 5.840698,0.51411 c -0.811108,1.456 -1.452633,2.88964 -1.924576,4.30094 -0.471901,1.41134 -0.764263,2.75775 -0.877086,4.03924 -0.149658,1.70047 -0.02617,2.97793 0.370464,3.8324 0.396677,0.85449 1.08789,1.32511 2.073641,1.41187 0.739348,0.0651 1.34235,-0.15502 1.809009,-0.66033 0.455456,-0.51869 0.894493,-1.48587 1.31711,-2.90154 l 0.876766,-2.97756 c 0.886196,-3.01396 2.014658,-5.11255 3.385391,-6.29576 1.370756,-1.18317 3.214409,-1.67281 5.530964,-1.46893 3.043573,0.26793 5.231126,1.37318 6.562663,3.31575 1.3203,1.92921 1.817212,4.74829 1.490739,8.45724 -0.154019,1.74976 -0.474929,3.49102 -0.962728,5.22379 -0.487801,1.73279 -1.135789,3.45147 -1.943966,5.15604 l -6.007047,-0.52876 c 1.091592,-1.67963 1.949795,-3.31771 2.574609,-4.91427 0.613587,-1.60994 0.987625,-3.17888 1.122116,-4.70684 0.136668,-1.55258 -0.01743,-2.76444 -0.462293,-3.6356 -0.444856,-0.87112 -1.147848,-1.34899 -2.108981,-1.43361 -0.862543,-0.0759 -1.552885,0.14894 -2.071028,0.67452 -0.517041,0.5133 -1.034153,1.59158 -1.551337,3.23483 l -0.852362,2.70031 c -0.83441,2.70811 -1.954933,4.64597 -3.361573,5.81358 -1.405527,1.15529 -3.204968,1.63641 -5.398328,1.44334 -2.747816,-0.24187 -4.782969,-1.31508 -6.105463,-3.21963 -1.322444,-1.90453 -1.837253,-4.52029 -1.544429,-7.84729 0.133437,-1.5156 0.387703,-3.06405 0.7628,-4.64534 0.362827,-1.58233 0.847569,-3.20983 1.454227,-4.8825"
       id="path3122" />
    <path
       d="m 29.029282,256.52005 3.766593,-18.90678 5.295355,1.05494 -2.370887,11.9009 5.058792,1.00781 2.229504,-11.19122 5.295355,1.05494 -2.229504,11.19121 6.223407,1.23982 2.450642,-12.30123 5.295354,1.05493 -3.846347,19.30712 -27.168264,-5.41244"
       id="path3124" />
    <path
       d="m 49.971132,222.14159 c 0.455616,-1.42569 0.516206,-2.52962 0.181768,-3.31179 -0.330652,-0.7939 -1.102795,-1.38478 -2.316433,-1.77264 -1.20183,-0.38404 -2.161754,-0.34666 -2.879774,0.11213 -0.714224,0.44705 -1.299146,1.38342 -1.754769,2.80912 l -0.914978,2.86321 6.769209,2.16319 0.914977,-2.86322 m 3.786353,4.36559 9.985908,3.19113 -2.174483,6.80455 -26.387542,-8.43248 3.321029,-10.39241 c 1.110796,-3.47589 2.507356,-5.83459 4.189684,-7.07609 1.686128,-1.25322 3.78994,-1.47696 6.311441,-0.67121 1.743862,0.5573 3.039916,1.43897 3.888168,2.64501 0.852032,1.19431 1.272052,2.72453 1.260062,4.59067 0.509558,-0.86304 1.258108,-1.53935 2.245652,-2.02892 0.979535,-0.50508 2.349779,-0.89181 4.110738,-1.16021 l 8.674284,-1.29914 -2.315684,7.24641 -7.585056,1.12129 c -1.526763,0.22635 -2.639003,0.59814 -3.336726,1.11536 -0.693947,0.50547 -1.217894,1.31199 -1.571842,2.41956 l -0.615633,1.92648"
       id="path3126" />
    <path
       d="m 44.312181,200.21735 2.99371,-6.52684 21.648802,1.8461 -15.529876,-15.18649 2.993709,-6.52684 20.90194,20.87584 -3.550679,7.74114 -29.457606,-2.22291"
       id="path3128" />
    <path
       d="m 59.661533,168.5864 3.545659,-6.20151 24.048957,13.74979 -3.545659,6.20151 -24.048957,-13.74979"
       id="path3130" />
    <path
       d="m 102.00286,151.08783 c -0.18631,1.46542 -0.54161,2.8816 -1.06591,4.24857 -0.52432,1.367 -1.226244,2.68634 -2.105768,3.95802 -2.62454,3.79477 -5.761814,6.0693 -9.411832,6.8236 -3.660192,0.74727 -7.306277,-0.13507 -10.938265,-2.64703 -3.642141,-2.51898 -5.754318,-5.61917 -6.336538,-9.30058 -0.592359,-3.68841 0.423717,-7.43 3.048234,-11.22478 0.879548,-1.27168 1.866331,-2.394 2.960353,-3.36698 1.094043,-0.97292 2.293756,-1.8051 3.599142,-2.49654 l 4.715472,3.26132 c -1.495552,0.57496 -2.782167,1.27183 -3.859848,2.09062 -1.077669,0.81886 -2.021092,1.81325 -2.830273,2.98319 -1.449463,2.09579 -1.917882,4.20831 -1.405256,6.33756 0.512646,2.12929 1.949103,4.01014 4.309374,5.64254 2.350109,1.62539 4.611759,2.30223 6.784956,2.03052 2.173196,-0.27168 3.98453,-1.45541 5.434009,-3.55119 0.809165,-1.16995 1.406686,-2.40358 1.792564,-3.70089 0.385862,-1.29726 0.5839,-2.74702 0.594117,-4.34927 l 4.715469,3.26132"
       id="path3132" />
    <path
       d="m 86.07509,129.15031 12.640666,-14.55566 4.076704,3.54036 -7.956683,9.16208 3.894584,3.38219 7.482199,-8.61571 4.07671,3.54036 -7.4822,8.61571 4.79118,4.16084 8.22434,-9.47029 4.0767,3.54036 -12.90832,14.86387 -20.91588,-18.16411"
       id="path3134" />
    <path
       d="m 124.74172,90.017737 20.47008,-15.258452 3.2269,4.329066 -7.36387,5.489051 13.32896,17.881568 -5.72745,4.26926 -13.32897,-17.881567 -7.37875,5.50014 -3.2269,-4.329066"
       id="path3136" />
    <path
       d="m 165.89641,76.573744 c 1.29273,-0.754348 2.0766,-1.534013 2.35161,-2.338996 0.28569,-0.811174 0.10746,-1.766986 -0.53468,-2.86744 -0.63592,-1.08972 -1.37416,-1.704423 -2.21471,-1.844111 -0.82988,-0.145867 -1.89118,0.158369 -3.18392,0.912711 l -2.59616,1.514973 3.5817,6.137836 2.59616,-1.514973 m -0.10862,5.777804 5.2837,9.05451 -6.16988,3.600398 -13.96207,-23.926342 9.42311,-5.49879 c 3.15171,-1.839131 5.76801,-2.656925 7.84891,-2.453384 2.09156,0.197373 3.80443,1.439208 5.13862,3.725506 0.92268,1.581229 1.29555,3.103748 1.11861,4.567562 -0.16629,1.45763 -0.87839,2.875697 -2.13629,4.254207 0.95623,-0.300193 1.96505,-0.301686 3.02646,-0.0045 1.06583,0.280329 2.34276,0.910084 3.83078,1.889267 l 7.31449,4.840388 -6.57053,3.83419 -6.38615,-4.243522 c -1.28588,-0.853674 -2.36111,-1.321853 -3.22569,-1.404541 -0.85391,-0.08889 -1.783,0.159677 -2.78727,0.7457 l -1.7468,1.019333"
       id="path3138" />
    <path
       d="m 203.80295,69.315359 -10.25323,4.43153 0.38425,5.332015 -6.59136,2.848841 -1.57183,-29.499513 7.81766,-3.378857 20.40916,21.357866 -6.59137,2.84884 -3.60328,-3.940722 m -10.65726,-0.993007 6.96606,-3.01079 -7.84715,-8.615259 0.88109,11.626049"
       id="path3140" />
    <path
       d="m 218.15617,45.88589 4.71493,16.232427 2.45892,-0.714226 c 2.80339,-0.814278 4.73973,-2.130254 5.80903,-3.947935 1.08114,-1.821105 1.23701,-4.056152 0.46759,-6.705149 -0.766,-2.637079 -2.08559,-4.430678 -3.9588,-5.380801 -1.87323,-0.950073 -4.21748,-1.016254 -7.03275,-0.198542 l -2.45892,0.714226 m -8.36611,-3.192523 7.23421,-2.101275 c 4.0388,-1.173094 7.12867,-1.755005 9.26964,-1.745735 2.14936,-0.006 4.13097,0.474665 5.94481,1.441985 1.59574,0.837503 2.92426,1.952257 3.98555,3.344266 1.06124,1.392063 1.87998,3.079962 2.45622,5.063704 0.58309,2.007543 0.80118,3.889229 0.65428,5.645065 -0.15039,1.743989 -0.67497,3.397001 -1.57374,4.959039 -1.02524,1.791998 -2.45113,3.268854 -4.27769,4.430571 -1.83004,1.149851 -4.7407,2.304435 -8.73197,3.463755 l -7.23421,2.101274 -7.7271,-26.602649"
       id="path3142" />
    <path
       d="m 242.77721,33.997933 7.01568,-1.345574 5.21803,27.206271 -7.01568,1.345574 -5.21803,-27.206271"
       id="path3144" />
    <path
       d="m 255.67109,31.390318 25.38307,-2.746718 0.58088,5.368076 -9.13126,0.9881 2.39938,22.173293 -7.10209,0.768522 -2.39939,-22.173293 -9.14971,0.990096 -0.58088,-5.368076"
       id="path3146" />
    <path
       d="m 287.02559,28.620441 7.14122,-0.182489 0.70768,27.693108 -7.14122,0.182489 -0.70768,-27.693108"
       id="path3148" />
    <path
       d="m 316.16281,33.773066 c -2.17173,-0.152706 -3.91245,0.530897 -5.22217,2.050813 -1.30973,1.519955 -2.06699,3.73596 -2.27177,6.648023 -0.20394,2.899749 0.23615,5.193759 1.32026,6.882036 1.08409,1.68829 2.712,2.608796 4.88373,2.761521 2.18404,0.153599 3.93093,-0.52957 5.24068,-2.049511 1.3097,-1.51993 2.06652,-3.729766 2.27048,-6.629515 0.20477,-2.912063 -0.23489,-5.212242 -1.31897,-6.900545 -1.08412,-1.688264 -2.7182,-2.609204 -4.90224,-2.762822 m 0.36316,-5.164004 c 4.44214,0.312426 7.83244,1.828086 10.17092,4.546986 2.33843,2.718945 3.35016,6.31799 3.03519,10.797145 -0.31417,4.46684 -1.81922,7.882689 -4.51518,10.247558 -2.696,2.364872 -6.26507,3.391108 -10.7072,3.078711 -4.42983,-0.311532 -7.82013,-1.827193 -10.17092,-4.546986 -2.33846,-2.718919 -3.35062,-6.311794 -3.03649,-10.778636 0.315,-4.479153 1.82049,-7.901172 4.51648,-10.266067 2.70831,-2.363978 6.27738,-3.390214 10.7072,-3.078711"
       id="path3150" />
    <path
       d="m 339.64495,31.452998 7.8177,1.593802 6.07665,20.629683 3.79548,-18.617045 6.63596,1.352878 -5.53383,27.143798 -7.81771,-1.593802 -6.07665,-20.629684 -3.79547,18.617046 -6.63596,-1.352878 5.53383,-27.143798"
       id="path3152" />
    <path
       d="m 400.97498,48.870485 6.56934,2.806084 -10.88178,25.475399 -6.56934,-2.806085 10.88178,-25.475398"
       id="path3154" />
    <path
       d="m 416.41913,55.51111 7.00867,3.812518 -0.22863,21.50482 9.07911,-16.690407 5.94922,3.236207 -13.23742,24.334744 -7.00867,-3.812518 0.22864,-21.50482 -9.07912,16.690407 -5.94921,-3.236207 13.23741,-24.334744"
       id="path3156" />
    <path
       d="m 447.2223,73.051723 6.45626,4.687583 -3.01009,21.294341 11.16299,-15.374905 5.48032,3.978995 -16.27573,22.416733 -6.45626,-4.68759 3.01009,-21.294336 -11.16299,15.374905 -5.48031,-3.978995 16.27572,-22.416731"
       id="path3158" />
    <path
       d="m 481.46287,106.51713 c -1.58224,-1.49541 -3.36164,-2.07086 -5.33821,-1.72636 -1.97661,0.34451 -3.96751,1.57757 -5.97271,3.69918 -1.99673,2.11262 -3.11137,4.16536 -3.34391,6.15823 -0.23256,1.99286 0.44228,3.73699 2.02451,5.23242 1.59119,1.5039 3.37509,2.08361 5.3517,1.73911 1.97656,-0.34452 3.96321,-1.57308 5.95996,-3.6857 2.00519,-2.12161 3.12407,-4.17885 3.35665,-6.17171 0.23252,-1.99286 -0.4468,-3.74125 -2.03799,-5.24517 m 3.55587,-3.76226 c 3.23632,3.05881 4.89631,6.38083 4.97997,9.96607 0.0836,3.58523 -1.41676,7.00952 -4.50102,10.27285 -3.07583,3.25433 -6.40586,4.94079 -9.99009,5.0594 -3.58427,0.11857 -6.99457,-1.35153 -10.23092,-4.41032 -3.22737,-3.05032 -4.88736,-6.37235 -4.97996,-9.96608 -0.0836,-3.58524 1.41246,-7.00502 4.48827,-10.25937 3.08428,-3.26331 6.41856,-4.954272 10.00283,-5.072877 3.59322,-0.110082 7.00352,1.360024 10.23092,4.410327"
       id="path3160" />
    <path
       d="m 497.9583,116.16574 4.59356,5.51916 -11.01568,18.72789 20.40458,-7.44712 4.59356,5.51916 -27.85619,9.83486 -5.44818,-6.54599 14.72835,-25.60796"
       id="path3162" />
    <path
       d="m 509.11817,168.49347 -6.17361,-9.30879 -5.18021,1.3204 -3.96874,-5.98422 28.75754,-6.75986 4.70712,7.09757 -17.41533,23.86207 -3.96875,-5.98423 3.24198,-4.24294 m -0.90583,-10.66502 4.19437,6.32442 7.09303,-9.24605 -11.2874,2.92163"
       id="path3164" />
    <path
       d="m 532.97061,163.81343 11.76404,22.65948 -4.79208,2.48789 -4.23198,-8.15149 -19.79411,10.27645 -3.29154,-6.34005 19.79411,-10.27644 -4.24053,-8.16795 4.79209,-2.48789"
       id="path3166" />
    <path
       d="m 546.92278,192.03568 2.75812,6.58962 -25.55404,10.6958 -2.75812,-6.58962 25.55404,-10.6958"
       id="path3168" />
    <path
       d="m 552.68004,221.05518 c -0.64511,-2.07933 -1.91333,-3.45374 -3.80469,-4.12325 -1.89141,-0.66951 -4.23119,-0.57178 -7.01935,0.29321 -2.77638,0.86132 -4.75473,2.10321 -5.93505,3.72568 -1.18035,1.62246 -1.44798,3.47335 -0.80289,5.55268 0.64873,2.09112 1.91879,3.47144 3.81018,4.14097 1.89137,0.66949 4.22525,0.57359 7.00163,-0.28771 2.78815,-0.86501 4.77241,-2.10873 5.95277,-3.73118 1.18031,-1.62248 1.44611,-3.47928 0.7974,-5.5704 m 4.94429,-1.53389 c 1.31944,4.25315 1.13615,7.9623 -0.54987,11.12746 -1.68608,3.16513 -4.6734,5.41294 -8.96197,6.74343 -4.2768,1.32678 -8.00591,1.16263 -11.18734,-0.49243 -3.18146,-1.65511 -5.43192,-4.60923 -6.75139,-8.86237 -1.31581,-4.24135 -1.13252,-7.9505 0.54987,-11.12745 1.68604,-3.16516 4.66745,-5.41113 8.94425,-6.73793 4.28857,-1.33047 8.02359,-1.16816 11.20507,0.48693 3.18508,1.6669 5.43554,4.62102 6.75138,8.86236"
       id="path3170" />
    <path
       d="m 563.35756,242.09388 1.35027,7.86343 -17.02082,13.14538 18.72593,-3.21552 1.14616,6.67477 -27.30255,4.68826 -1.35027,-7.86343 17.02082,-13.14539 -18.72593,3.21553 -1.14616,-6.67477 27.30255,-4.68826"
       id="path3172" />
  </g>
</svg>
